<svg width="30" height="30" viewBox="0 0 30 30" fill="none" xmlns="http://www.w3.org/2000/svg">
<path d="M20.0335 9.5651C20.0335 10.7758 19.5526 11.937 18.6964 12.7931C17.8403 13.6492 16.6792 14.1302 15.4684 14.1302C14.2577 14.1302 13.0965 13.6492 12.2404 12.7931C11.3843 11.937 10.9033 10.7758 10.9033 9.5651C10.9033 8.35436 11.3843 7.19321 12.2404 6.33709C13.0965 5.48097 14.2577 5 15.4684 5C16.6792 5 17.8403 5.48097 18.6964 6.33709C19.5526 7.19321 20.0335 8.35436 20.0335 9.5651Z" fill="white"/>
<path d="M24.9367 22.1816C24.9367 23.7382 19.4909 25 15.4684 25C11.4459 25 6 23.7382 6 22.1816C6 22.1203 6 22.0554 6.00058 21.9873C6.07125 13.6415 24.9367 13.8355 24.9367 22.1816V22.1816Z" fill="white"/>
</svg>
