<svg width="30" height="30" viewBox="0 0 30 30" fill="none" xmlns="http://www.w3.org/2000/svg">
<path d="M4.85408 26.0481L4.85408 26.0481L6.33025 9.72014C6.33025 9.72014 6.33025 9.72014 6.33025 9.72014C6.37745 9.19784 6.81782 8.79928 7.34349 8.79928H10.2278V7.59098C10.2278 4.97573 12.3692 2.85 14.9996 2.85C17.6301 2.85 19.7717 4.97571 19.7717 7.59098V8.79928H22.654C23.1797 8.79928 23.6201 9.19784 23.6673 9.72014L25.1371 25.9786C25.1456 26.031 25.1498 26.0844 25.15 26.138L25.15 26.1385C25.15 26.6981 24.6936 27.15 24.1327 27.15H24.1326H24.1326H24.1326H24.1326H24.1326H24.1325H24.1325H24.1325H24.1325H24.1325H24.1325H24.1324H24.1324H24.1324H24.1324H24.1324H24.1323H24.1323H24.1323H24.1323H24.1323H24.1323H24.1322H24.1322H24.1322H24.1322H24.1322H24.1322H24.1321H24.1321H24.1321H24.1321H24.1321H24.1321H24.132H24.132H24.132H24.132H24.132H24.1319H24.1319H24.1319H24.1319H24.1319H24.1319H24.1318H24.1318H24.1318H24.1318H24.1318H24.1317H24.1317H24.1317H24.1317H24.1317H24.1317H24.1316H24.1316H24.1316H24.1316H24.1316H24.1315H24.1315H24.1315H24.1315H24.1315H24.1315H24.1314H24.1314H24.1314H24.1314H24.1314H24.1313H24.1313H24.1313H24.1313H24.1313H24.1313H24.1312H24.1312H24.1312H24.1312H24.1312H24.1312H24.1311H24.1311H24.1311H24.1311H24.1311H24.1311H24.131H24.131H24.131H24.131H24.131H24.1309H24.1309H24.1309H24.1309H24.1309H24.1309H24.1308H24.1308H24.1308H24.1308H24.1308H24.1308H24.1307H24.1307H24.1307H24.1307H24.1307H24.1306H24.1306H24.1306H24.1306H24.1306H24.1306H24.1305H24.1305H24.1305H24.1305H24.1305H24.1305H24.1304H24.1304H24.1304H24.1304H24.1304H24.1304H24.1304H24.1303H5.86732C5.58214 27.15 5.30974 27.0309 5.1169 26.8214L4.85408 26.0481ZM4.85408 26.0481C4.82851 26.3313 4.92397 26.6119 5.11687 26.8214L4.85408 26.0481ZM12.2625 7.59098C12.2625 6.09329 13.4896 4.87287 14.9998 4.87287C16.5101 4.87287 17.7372 6.09329 17.7372 7.59098V8.79928H12.2625V7.59098ZM21.7242 10.8221L23.0174 25.1273H6.98023L8.27351 10.8221H10.2278V12.2126C10.2278 12.7722 10.6842 13.224 11.2451 13.224C11.8062 13.224 12.2625 12.7722 12.2625 12.2126V10.8221H17.7372V12.2126C17.7372 12.7722 18.1935 13.224 18.7546 13.224C19.3156 13.224 19.7719 12.7722 19.7719 12.2126V10.8221H21.7242Z" fill="transparent" stroke="white" stroke-width="2"/>
</svg>
