<svg width="638" height="830" viewBox="0 0 638 830" fill="none" xmlns="http://www.w3.org/2000/svg">
<g clip-path="url(#clip0_907_86485)">
<g opacity="0.1" filter="url(#filter0_f_907_86485)">
<ellipse cx="307.684" cy="668.696" rx="168.697" ry="94.5688" fill="url(#paint0_radial_907_86485)"/>
</g>
<g opacity="0.7" filter="url(#filter1_f_907_86485)">
<path d="M217.594 665.544C217.594 678.145 226.775 690.278 243.213 699.461C259.537 708.581 282.324 714.331 307.685 714.331C333.046 714.331 355.834 708.581 372.157 699.461C388.596 690.278 397.777 678.145 397.777 665.544C397.777 652.944 388.596 640.811 372.157 631.627C355.834 622.507 333.046 616.757 307.685 616.757C282.324 616.757 259.537 622.507 243.213 631.627C226.775 640.811 217.594 652.944 217.594 665.544Z" stroke="#1BDC77" stroke-width="7"/>
</g>
<g opacity="0.4" filter="url(#filter2_f_907_86485)">
<path d="M185.426 667.7C185.426 685.658 198.478 702.434 220.718 714.864C242.876 727.248 273.656 734.986 307.791 734.986C341.926 734.986 372.706 727.248 394.864 714.864C417.104 702.434 430.156 685.658 430.156 667.7C430.156 649.741 417.104 632.965 394.864 620.535C372.706 608.151 341.926 600.413 307.791 600.413C273.656 600.413 242.876 608.151 220.718 620.535C198.478 632.965 185.426 649.741 185.426 667.7Z" stroke="#1BDC77" stroke-width="5"/>
</g>
<g opacity="0.2" filter="url(#filter3_f_907_86485)">
<path d="M161.112 669.046C161.112 691.495 177.418 712.129 204.466 727.238C231.465 742.319 268.865 751.694 310.257 751.694C351.649 751.694 389.049 742.319 416.048 727.238C443.095 712.129 459.402 691.495 459.402 669.046C459.402 646.597 443.095 625.962 416.048 610.854C389.049 595.773 351.649 586.398 310.257 586.398C268.865 586.398 231.465 595.773 204.466 610.854C177.418 625.962 161.112 646.597 161.112 669.046Z" stroke="#1BDC77" stroke-width="3"/>
</g>
<path opacity="0.4" d="M309.41 693.696C379.526 693.696 436.366 660.87 436.366 620.378C436.366 579.885 379.526 547.06 309.41 547.06C239.294 547.06 182.454 579.885 182.454 620.378C182.454 660.87 239.294 693.696 309.41 693.696Z" fill="#161B2E"/>
<g filter="url(#filter4_d_907_86485)">
<path d="M309.411 664.546C389.215 664.546 453.909 627.184 453.909 581.097C453.909 535.009 389.215 497.647 309.411 497.647C229.607 497.647 164.913 535.009 164.913 581.097C164.913 627.184 229.607 664.546 309.411 664.546Z" fill="#1BDC77"/>
</g>
<path opacity="0.48" d="M453.909 553.633H450.352C444.538 538.772 431.624 524.64 411.581 513.08C355.153 480.486 263.654 480.486 207.298 513.08C188.384 523.997 175.869 537.2 169.584 551.161H165.041V569.665C163.927 591.828 177.998 614.205 207.298 631.109C263.74 663.689 355.225 663.689 411.652 631.109C439.881 614.805 453.981 593.457 453.981 572.094L453.909 553.633Z" fill="url(#paint1_linear_907_86485)"/>
<path opacity="0.48" d="M453.909 553.633H450.352C444.538 538.772 431.624 524.64 411.581 513.08C355.153 480.486 263.654 480.486 207.298 513.08C188.384 523.997 175.869 537.2 169.584 551.161H165.041V569.665C163.927 591.828 177.998 614.205 207.298 631.109C263.74 663.689 355.225 663.689 411.652 631.109C439.881 614.805 453.981 593.457 453.981 572.094L453.909 553.633Z" fill="url(#paint2_linear_907_86485)"/>
<path opacity="0.48" d="M453.909 553.633H450.352C444.538 538.772 431.624 524.64 411.581 513.08C355.153 480.486 263.654 480.486 207.298 513.08C188.384 523.997 175.869 537.2 169.584 551.161H165.041V569.665C163.927 591.828 177.998 614.205 207.298 631.109C263.74 663.689 355.225 663.689 411.652 631.109C439.881 614.805 453.981 593.457 453.981 572.094L453.909 553.633Z" fill="url(#paint3_linear_907_86485)"/>
<path d="M453.909 546.474H450.352C444.538 531.613 431.624 517.481 411.581 505.907C355.153 473.313 263.654 473.313 207.298 505.907C188.384 516.838 175.869 530.041 169.584 543.987H165.041V562.42C163.927 584.597 177.998 606.974 207.298 623.864C263.74 656.458 355.225 656.458 411.652 623.864C439.881 607.575 453.981 586.212 453.981 564.864L453.909 546.474Z" fill="#1BDC77" fill-opacity="0.29"/>
<path opacity="0.48" d="M450.351 546.446L449.708 544.902V532.742H442.209V531.87C440.221 529.219 438.069 526.694 435.766 524.311V532.742H431.48V520.096C429.471 518.267 427.323 516.476 425.037 514.723V532.742H420.752V511.594C418.695 510.165 416.466 508.736 414.28 507.393V532.742H409.995V504.878C407.88 503.687 405.719 502.544 403.509 501.449V532.742H399.223V499.42C397.081 498.467 394.909 497.514 392.709 496.562V532.699H388.423V503.478H381.881V532.742H377.595V511.508H371.038V532.742H366.752V519.539H360.167V532.742H355.967V527.584H349.352V532.742H269.596V527.584H263.011V532.742H258.796V519.539H252.211V532.742H247.925V511.508H241.368V532.742H237.082V503.478H230.54V532.742H226.254V496.576C224.044 497.472 221.873 498.424 219.74 499.434V532.785H215.454V501.42C213.24 502.52 211.083 503.664 208.954 504.835V532.742H204.668V507.407C202.411 508.77 200.254 510.165 198.197 511.594V532.799H193.911V514.681C191.626 516.424 189.483 518.224 187.454 520.053V532.742H183.169V524.169C180.874 526.55 178.727 529.07 176.74 531.713V532.671H169.169V543.888H165.969V574.91C167.209 580.706 169.375 586.264 172.383 591.371V572.038H176.74V598.001C178.724 600.643 180.871 603.158 183.169 605.532V572.038H187.454V609.733C189.483 611.547 191.626 613.348 193.911 615.091V572.038H198.197V618.235C200.254 619.664 202.411 621.064 204.668 622.436V572.038H208.954V624.908C211.083 626.079 213.24 627.223 215.454 628.323V572.038H219.74V630.381C221.863 631.333 224.035 632.286 226.254 633.238V572.08H230.54V634.953C232.697 635.768 234.825 636.539 237.082 637.282V572.038H241.368V638.54C243.525 639.211 245.654 639.84 247.925 640.44V572.038H252.211V641.54C254.382 642.083 256.582 642.583 258.782 643.055V572.038H262.996V643.927C265.182 644.355 267.368 644.741 269.582 645.113V572.038H273.768V645.756C275.968 646.084 278.168 646.37 280.382 646.642V572.038H284.539V647.099C286.753 647.313 288.967 647.499 291.182 647.671V572.038H295.325V647.942C297.539 648.071 299.753 648.156 301.982 648.228V572.038H306.096V648.313C308.339 648.313 310.581 648.313 312.839 648.313V572.038H316.953V648.228C319.167 648.156 321.396 648.056 323.61 647.942V572.038H327.753V647.671C329.967 647.499 332.181 647.313 334.381 647.085V572.038H338.553V646.627C340.767 646.37 342.967 646.07 345.167 645.756V572.038H349.352V645.098C351.567 644.741 353.767 644.341 355.952 643.912V572.038H360.152V643.055C362.367 642.569 364.567 642.069 366.738 641.526V572.038H371.024V640.426C373.238 639.826 375.424 639.183 377.581 638.525V572.038H381.866V637.154C384.066 636.43 386.247 635.658 388.409 634.839V572.038H392.695V633.153C394.895 632.252 397.066 631.324 399.209 630.295V572.038H403.495V628.323C405.704 627.227 407.866 626.089 409.98 624.908V572.038H414.266V622.407C416.523 620.978 418.666 619.635 420.737 618.12V571.966H425.023V614.977C427.309 613.224 429.456 611.433 431.466 609.604V572.038H435.751V605.489C438.058 603.109 440.21 600.584 442.194 597.93V572.038H446.494V591.314C449.514 586.156 451.68 580.544 452.908 574.695V546.46L450.351 546.446Z" fill="#181F35"/>
<path d="M309.411 629.923C389.215 629.923 453.91 592.561 453.91 546.474C453.91 500.386 389.215 463.024 309.411 463.024C229.607 463.024 164.913 500.386 164.913 546.474C164.913 592.561 229.607 629.923 309.411 629.923Z" fill="#181F35"/>
<path d="M436.435 546.527C436.435 561.839 425.683 578.566 402.103 592.323C378.903 605.857 345.831 614.726 308.463 614.726C271.096 614.726 238.024 605.857 214.824 592.323C191.244 578.566 180.492 561.839 180.492 546.527C180.492 531.215 191.244 514.487 214.824 500.731C238.024 487.197 271.096 478.328 308.463 478.328C345.831 478.328 378.903 487.197 402.103 500.731C425.683 514.487 436.435 531.215 436.435 546.527Z" stroke="#161B2E" stroke-width="31"/>
<path opacity="0.3" d="M309.453 463.024C276.711 463.024 243.983 469.412 217.312 482.172L174.212 575.909C181.226 586.698 192.212 596.8 207.226 605.474C216.917 610.99 227.146 615.5 237.754 618.934L309.453 463.024Z" fill="#1BDC77" fill-opacity="0.29"/>
<path opacity="0.3" d="M349.938 466.368L275.782 627.637C293.7 630.079 311.831 630.558 329.853 629.066L398.124 480.615C382.732 473.837 366.54 469.05 349.938 466.368Z" fill="#1BDC77" fill-opacity="0.29"/>
<g opacity="0.05">
<path opacity="0.05" d="M309.41 620.378C380.086 620.378 437.38 587.29 437.38 546.474C437.38 505.658 380.086 472.57 309.41 472.57C238.734 472.57 181.44 505.658 181.44 546.474C181.44 587.29 238.734 620.378 309.41 620.378Z" fill="#101420"/>
<g opacity="0.05">
<g opacity="0.05">
<path opacity="0.05" d="M80.8275 546.159L79.4561 545.359L302.396 416.613L303.753 417.399L80.8275 546.159Z" fill="#1BDC77" fill-opacity="0.29"/>
<path opacity="0.05" d="M84.7561 548.417L83.3847 547.631L306.325 418.885L307.682 419.671L84.7561 548.417Z" fill="#1BDC77" fill-opacity="0.29"/>
<path opacity="0.05" d="M88.6845 550.689L87.3131 549.903L310.253 421.157L311.61 421.943L88.6845 550.689Z" fill="#1BDC77" fill-opacity="0.29"/>
<path opacity="0.05" d="M92.6132 552.961L91.2418 552.175L314.182 423.429L315.539 424.215L92.6132 552.961Z" fill="#1BDC77" fill-opacity="0.29"/>
<path opacity="0.05" d="M96.5276 555.233L95.1705 554.433L318.111 425.687L319.468 426.487L96.5276 555.233Z" fill="#1BDC77" fill-opacity="0.29"/>
<path opacity="0.05" d="M100.456 557.491L99.0985 556.705L322.039 427.959L323.396 428.745L100.456 557.491Z" fill="#1BDC77" fill-opacity="0.29"/>
<path opacity="0.05" d="M104.384 559.763L103.027 558.977L325.967 430.23L327.325 431.016L104.384 559.763Z" fill="#1BDC77" fill-opacity="0.29"/>
<path opacity="0.05" d="M108.313 562.035L106.956 561.249L329.896 432.488L331.253 433.288L108.313 562.035Z" fill="#1BDC77" fill-opacity="0.29"/>
<path opacity="0.05" d="M112.241 564.293L110.884 563.507L333.824 434.761L335.181 435.547L112.241 564.293Z" fill="#1BDC77" fill-opacity="0.29"/>
<path opacity="0.05" d="M116.17 566.564L114.813 565.778L337.739 437.032L339.11 437.818L116.17 566.564Z" fill="#1BDC77" fill-opacity="0.29"/>
<path opacity="0.05" d="M120.098 568.836L118.741 568.05L341.667 439.304L343.039 440.09L120.098 568.836Z" fill="#1BDC77" fill-opacity="0.29"/>
<path opacity="0.05" d="M124.027 571.109L122.656 570.323L345.596 441.577L346.967 442.363L124.027 571.109Z" fill="#1BDC77" fill-opacity="0.29"/>
<path opacity="0.05" d="M127.956 573.366L126.584 572.58L349.524 443.834L350.896 444.62L127.956 573.366Z" fill="#1BDC77" fill-opacity="0.29"/>
<path opacity="0.05" d="M131.884 575.638L130.513 574.852L353.453 446.106L354.824 446.892L131.884 575.638Z" fill="#1BDC77" fill-opacity="0.29"/>
<path opacity="0.05" d="M135.813 577.91L134.441 577.124L357.382 448.378L358.753 449.164L135.813 577.91Z" fill="#1BDC77" fill-opacity="0.29"/>
<path opacity="0.05" d="M139.741 580.182L138.37 579.382L361.31 450.636L362.682 451.436L139.741 580.182Z" fill="#1BDC77" fill-opacity="0.29"/>
<path opacity="0.05" d="M143.67 582.454L142.298 581.654L365.239 452.908L366.61 453.694L143.67 582.454Z" fill="#1BDC77" fill-opacity="0.29"/>
<path opacity="0.05" d="M147.598 584.712L146.227 583.926L369.167 455.18L370.539 455.966L147.598 584.712Z" fill="#1BDC77" fill-opacity="0.29"/>
<path opacity="0.05" d="M151.527 586.984L150.156 586.198L373.096 457.452L374.467 458.238L151.527 586.984Z" fill="#1BDC77" fill-opacity="0.29"/>
<path opacity="0.05" d="M155.456 589.256L154.084 588.456L377.024 459.709L378.396 460.51L155.456 589.256Z" fill="#1BDC77" fill-opacity="0.29"/>
<path opacity="0.05" d="M159.384 591.514L158.013 590.728L380.953 461.981L382.31 462.767L159.384 591.514Z" fill="#1BDC77" fill-opacity="0.29"/>
<path opacity="0.05" d="M163.313 593.785L161.941 592.999L384.882 464.253L386.239 465.039L163.313 593.785Z" fill="#1BDC77" fill-opacity="0.29"/>
<path opacity="0.05" d="M167.241 596.058L165.869 595.272L388.81 466.526L390.167 467.312L167.241 596.058Z" fill="#1BDC77" fill-opacity="0.29"/>
<path opacity="0.05" d="M171.155 598.329L169.798 597.529L392.738 468.783L394.096 469.583L171.155 598.329Z" fill="#1BDC77" fill-opacity="0.29"/>
<path opacity="0.05" d="M175.084 600.587L173.727 599.801L396.667 471.055L398.024 471.841L175.084 600.587Z" fill="#1BDC77" fill-opacity="0.29"/>
<path opacity="0.05" d="M179.012 602.859L177.655 602.073L400.595 473.327L401.952 474.113L179.012 602.859Z" fill="#1BDC77" fill-opacity="0.29"/>
<path opacity="0.05" d="M182.941 605.131L181.584 604.345L404.524 475.599L405.881 476.385L182.941 605.131Z" fill="#1BDC77" fill-opacity="0.29"/>
<path opacity="0.05" d="M186.869 607.403L185.512 606.603L408.438 477.857L409.81 478.643L186.869 607.403Z" fill="#1BDC77" fill-opacity="0.29"/>
<path opacity="0.05" d="M190.798 609.661L189.441 608.875L412.367 480.129L413.738 480.915L190.798 609.661Z" fill="#1BDC77" fill-opacity="0.29"/>
<path opacity="0.05" d="M194.727 611.933L193.355 611.147L416.295 482.401L417.667 483.187L194.727 611.933Z" fill="#1BDC77" fill-opacity="0.29"/>
<path opacity="0.05" d="M198.655 614.205L197.284 613.419L420.224 484.673L421.595 485.459L198.655 614.205Z" fill="#1BDC77" fill-opacity="0.29"/>
<path opacity="0.05" d="M202.584 616.477L201.212 615.676L424.153 486.93L425.524 487.716L202.584 616.477Z" fill="#1BDC77" fill-opacity="0.29"/>
<path opacity="0.05" d="M206.512 618.734L205.141 617.948L428.081 489.202L429.453 489.988L206.512 618.734Z" fill="#1BDC77" fill-opacity="0.29"/>
<path opacity="0.05" d="M210.441 621.007L209.07 620.221L432.01 491.475L433.381 492.261L210.441 621.007Z" fill="#1BDC77" fill-opacity="0.29"/>
<path opacity="0.05" d="M214.37 623.279L212.998 622.493L435.938 493.732L437.31 494.533L214.37 623.279Z" fill="#1BDC77" fill-opacity="0.29"/>
<path opacity="0.05" d="M218.297 625.55L216.926 624.75L439.866 496.004L441.238 496.804L218.297 625.55Z" fill="#1BDC77" fill-opacity="0.29"/>
<path opacity="0.05" d="M222.226 627.808L220.855 627.022L443.795 498.276L445.166 499.062L222.226 627.808Z" fill="#1BDC77" fill-opacity="0.29"/>
<path opacity="0.05" d="M226.155 630.08L224.783 629.294L447.723 500.548L449.095 501.334L226.155 630.08Z" fill="#1BDC77" fill-opacity="0.29"/>
<path opacity="0.05" d="M230.083 632.352L228.712 631.566L451.652 502.806L453.023 503.606L230.083 632.352Z" fill="#1BDC77" fill-opacity="0.29"/>
<path opacity="0.05" d="M234.012 634.624L232.64 633.824L455.58 505.078L456.952 505.878L234.012 634.624Z" fill="#1BDC77" fill-opacity="0.29"/>
<path opacity="0.05" d="M237.94 636.882L236.569 636.096L459.509 507.35L460.881 508.136L237.94 636.882Z" fill="#1BDC77" fill-opacity="0.29"/>
<path opacity="0.05" d="M241.869 639.154L240.498 638.368L463.438 509.622L464.795 510.407L241.869 639.154Z" fill="#1BDC77" fill-opacity="0.29"/>
<path opacity="0.05" d="M245.797 641.426L244.426 640.626L467.366 511.894L468.723 512.68L245.797 641.426Z" fill="#1BDC77" fill-opacity="0.29"/>
<path opacity="0.05" d="M249.711 643.698L248.354 642.898L471.295 514.152L472.652 514.938L249.711 643.698Z" fill="#1BDC77" fill-opacity="0.29"/>
<path opacity="0.05" d="M253.64 645.956L252.283 645.17L475.223 516.424L476.58 517.209L253.64 645.956Z" fill="#1BDC77" fill-opacity="0.29"/>
<path opacity="0.05" d="M257.569 648.228L256.212 647.442L479.152 518.696L480.509 519.481L257.569 648.228Z" fill="#1BDC77" fill-opacity="0.29"/>
<path opacity="0.05" d="M261.497 650.5L260.14 649.714L483.08 520.953L484.437 521.754L261.497 650.5Z" fill="#1BDC77" fill-opacity="0.29"/>
<path opacity="0.05" d="M265.426 652.757L264.068 651.971L487.009 523.225L488.366 524.011L265.426 652.757Z" fill="#1BDC77" fill-opacity="0.29"/>
<path opacity="0.05" d="M269.353 655.03L267.982 654.244L490.922 525.498L492.293 526.283L269.353 655.03Z" fill="#1BDC77" fill-opacity="0.29"/>
<path opacity="0.05" d="M273.282 657.302L271.911 656.516L494.851 527.77L496.222 528.555L273.282 657.302Z" fill="#1BDC77" fill-opacity="0.29"/>
<path opacity="0.05" d="M277.21 659.574L275.839 658.788L498.779 530.027L500.151 530.828L277.21 659.574Z" fill="#1BDC77" fill-opacity="0.29"/>
<path opacity="0.05" d="M281.139 661.831L279.768 661.045L502.708 532.299L504.08 533.085L281.139 661.831Z" fill="#1BDC77" fill-opacity="0.29"/>
<path opacity="0.05" d="M285.068 664.103L283.697 663.317L506.637 534.571L508.008 535.357L285.068 664.103Z" fill="#1BDC77" fill-opacity="0.29"/>
<path opacity="0.05" d="M288.996 666.375L287.625 665.589L510.565 536.843L511.936 537.629L288.996 666.375Z" fill="#1BDC77" fill-opacity="0.29"/>
<path opacity="0.05" d="M292.925 668.647L291.553 667.847L514.494 539.101L515.865 539.901L292.925 668.647Z" fill="#1BDC77" fill-opacity="0.29"/>
<path opacity="0.05" d="M296.853 670.904L295.482 670.118L518.422 541.372L519.793 542.158L296.853 670.904Z" fill="#1BDC77" fill-opacity="0.29"/>
<path opacity="0.05" d="M300.782 673.177L299.41 672.391L522.35 543.645L523.722 544.43L300.782 673.177Z" fill="#1BDC77" fill-opacity="0.29"/>
<path opacity="0.05" d="M304.71 675.449L303.339 674.663L526.279 545.917L527.651 546.702L304.71 675.449Z" fill="#1BDC77" fill-opacity="0.29"/>
<path opacity="0.05" d="M308.639 677.721L307.268 676.92L530.208 548.174L531.579 548.975L308.639 677.721Z" fill="#1BDC77" fill-opacity="0.29"/>
<path opacity="0.05" d="M312.568 679.978L311.196 679.192L534.136 550.446L535.508 551.232L312.568 679.978Z" fill="#1BDC77" fill-opacity="0.29"/>
<path opacity="0.05" d="M316.496 682.25L315.125 681.464L538.065 552.718L539.436 553.504L316.496 682.25Z" fill="#1BDC77" fill-opacity="0.29"/>
</g>
</g>
</g>
<g filter="url(#filter5_d_907_86485)">
<path d="M218.912 499.191C268.911 470.341 349.925 470.341 399.896 499.191C423.781 512.994 436.252 530.884 437.295 548.96C438.438 529.227 425.981 509.279 399.896 494.218C349.896 465.354 268.897 465.354 218.912 494.218C192.841 509.279 180.341 529.227 181.527 548.96C182.57 530.884 195.069 512.994 218.912 499.191Z" fill="url(#paint4_linear_907_86485)" shape-rendering="crispEdges"/>
</g>
<g filter="url(#filter6_d_907_86485)">
<path d="M348.952 530.827C341.332 530.151 333.665 531.435 326.681 534.556C335.252 527.411 333.276 520.11 320.752 512.651L319.838 512.108C315.771 509.687 311.406 507.809 306.852 506.521C302.556 505.273 298.112 504.61 293.638 504.549C289.358 504.576 285.097 505.133 280.953 506.206C278.638 506.792 276.438 507.449 274.324 508.178L266.267 503.52L254.41 510.379L261.039 514.208C259.867 514.837 258.682 515.494 257.467 516.194L253.182 518.709L246.61 514.908L234.753 521.753L241.325 525.554L233.139 530.284L229.925 532.141L229.068 532.627L215.453 540.5L227.31 547.345L240.925 539.486L326.366 588.855L312.752 596.714L324.609 603.559L338.223 595.7L342.295 593.356L350.481 588.627L357.166 592.485L369.023 585.64L364.738 583.197L362.295 581.768L370.152 577.224L376.837 581.082L388.694 574.237L384.409 571.794L381.009 569.822C385.68 565.749 388.152 561.634 388.466 557.49C388.828 551.308 383.69 545.116 373.052 538.914L372.323 538.486C365.171 534.287 357.201 531.675 348.952 530.827ZM269.353 528.054L273.181 525.854C282.629 520.395 291.653 520.152 300.253 525.125C305.31 528.04 308.067 530.707 308.524 533.127C308.981 535.547 306.6 538.257 301.381 541.258L296.781 543.915L269.353 528.054ZM345.523 572.037L312.724 553.132L317.467 550.389C321.974 547.529 327.215 546.04 332.552 546.102C337.247 546.33 342.671 548.236 348.823 551.817C354.309 554.99 357.276 557.919 357.723 560.605C358.152 563.292 355.766 566.15 350.58 569.179L345.523 572.037Z" fill="#232A45"/>
<path d="M234.668 512.122V519.724L241.239 515.923L234.668 512.122Z" fill="#1BDC77"/>
<path d="M254.382 500.734V508.335L261.024 504.577L254.382 500.734Z" fill="#1BDC77"/>
<path d="M331.939 515.938V524.969L325.996 521.325L331.939 515.938Z" fill="url(#paint5_linear_907_86485)"/>
<path d="M388.538 546.473V557.505L379.638 551.989L388.538 546.473Z" fill="url(#paint6_linear_907_86485)"/>
<path d="M348.953 521.21C341.333 520.535 333.666 521.819 326.682 524.94C335.253 517.795 333.277 510.493 320.753 503.035L319.839 502.492C315.772 500.071 311.407 498.193 306.853 496.904C302.549 495.649 298.094 494.981 293.611 494.918C289.33 494.946 285.069 495.503 280.925 496.576C278.611 497.162 276.411 497.819 274.297 498.548L266.24 493.889L254.382 500.734L261.011 504.578C259.84 505.206 258.654 505.864 257.44 506.564L253.154 509.079L246.583 505.278L234.726 512.122L241.297 515.923L233.111 520.653L229.897 522.511L229.04 522.997L215.426 530.856L227.283 537.714L240.897 529.855L326.425 579.239L312.81 587.098L324.667 593.943L338.281 586.084L342.353 583.74L350.538 579.01L357.224 582.868L369.081 576.024L364.795 573.58L362.353 572.152L370.21 567.608L376.895 571.466L388.752 564.621L384.467 562.178L381.067 560.206C385.738 556.133 388.209 552.018 388.524 547.874C388.886 541.692 383.748 535.5 373.11 529.298L372.381 528.869C365.212 524.663 357.221 522.051 348.953 521.21ZM269.354 518.438L273.182 516.223C282.63 510.784 291.653 510.546 300.253 515.509C305.31 518.424 308.068 521.091 308.525 523.511C308.982 525.94 306.625 528.641 301.382 531.642L296.782 534.299L269.354 518.438ZM345.524 562.421L312.782 543.516L317.525 540.772C322.032 537.913 327.273 536.424 332.61 536.486C337.305 536.714 342.729 538.619 348.881 542.201C354.367 545.374 357.334 548.303 357.781 550.989C358.21 553.676 355.824 556.533 350.638 559.563L345.524 562.421Z" fill="white"/>
<path d="M388.737 564.635V574.252L376.88 581.096V571.48L388.737 564.635Z" fill="url(#paint7_linear_907_86485)"/>
<path d="M369.024 576.024V585.641L357.167 592.485V582.868L369.024 576.024Z" fill="url(#paint8_linear_907_86485)"/>
<path d="M324.61 593.943V603.559L312.753 596.715V587.098L324.61 593.943Z" fill="url(#paint9_linear_907_86485)"/>
<path d="M215.368 530.856V540.487L227.225 547.331V537.715L215.368 530.856Z" fill="#161B2E"/>
</g>
<path d="M240.84 539.472V529.855L227.226 537.715V547.331L240.84 539.472Z" fill="url(#paint10_linear_907_86485)"/>
<path d="M240.84 529.855V539.472L318.039 584.055L326.367 579.239L240.84 529.855Z" fill="#232A45"/>
<path opacity="0.8" d="M398.202 590.604C349.221 618.899 269.826 618.899 220.845 590.604C195.275 575.856 183.074 556.297 184.206 536.951C153.473 478.486 108.878 423.559 26.9006 276.32C161.006 122.362 371.961 87.7358 575.348 251.563C596.567 268.539 452.276 499.92 434.841 536.88C435.973 556.297 423.771 575.856 398.202 590.604Z" fill="url(#paint11_linear_907_86485)" fill-opacity="0.5"/>
</g>
<defs>
<filter id="filter0_f_907_86485" x="5.98755" y="441.127" width="603.394" height="455.138" filterUnits="userSpaceOnUse" color-interpolation-filters="sRGB">
<feFlood flood-opacity="0" result="BackgroundImageFix"/>
<feBlend mode="normal" in="SourceGraphic" in2="BackgroundImageFix" result="shape"/>
<feGaussianBlur stdDeviation="66.5" result="effect1_foregroundBlur_907_86485"/>
</filter>
<filter id="filter1_f_907_86485" x="209.094" y="608.257" width="197.183" height="114.575" filterUnits="userSpaceOnUse" color-interpolation-filters="sRGB">
<feFlood flood-opacity="0" result="BackgroundImageFix"/>
<feBlend mode="normal" in="SourceGraphic" in2="BackgroundImageFix" result="shape"/>
<feGaussianBlur stdDeviation="2.5" result="effect1_foregroundBlur_907_86485"/>
</filter>
<filter id="filter2_f_907_86485" x="178.926" y="593.913" width="257.73" height="147.573" filterUnits="userSpaceOnUse" color-interpolation-filters="sRGB">
<feFlood flood-opacity="0" result="BackgroundImageFix"/>
<feBlend mode="normal" in="SourceGraphic" in2="BackgroundImageFix" result="shape"/>
<feGaussianBlur stdDeviation="2" result="effect1_foregroundBlur_907_86485"/>
</filter>
<filter id="filter3_f_907_86485" x="153.612" y="578.898" width="313.29" height="180.295" filterUnits="userSpaceOnUse" color-interpolation-filters="sRGB">
<feFlood flood-opacity="0" result="BackgroundImageFix"/>
<feBlend mode="normal" in="SourceGraphic" in2="BackgroundImageFix" result="shape"/>
<feGaussianBlur stdDeviation="3" result="effect1_foregroundBlur_907_86485"/>
</filter>
<filter id="filter4_d_907_86485" x="88.9128" y="425.647" width="440.997" height="318.898" filterUnits="userSpaceOnUse" color-interpolation-filters="sRGB">
<feFlood flood-opacity="0" result="BackgroundImageFix"/>
<feColorMatrix in="SourceAlpha" type="matrix" values="0 0 0 0 0 0 0 0 0 0 0 0 0 0 0 0 0 0 127 0" result="hardAlpha"/>
<feOffset dy="4"/>
<feGaussianBlur stdDeviation="38"/>
<feComposite in2="hardAlpha" operator="out"/>
<feColorMatrix type="matrix" values="0 0 0 0 0.105882 0 0 0 0 0.862745 0 0 0 0 0.466667 0 0 0 0.29 0"/>
<feBlend mode="normal" in2="BackgroundImageFix" result="effect1_dropShadow_907_86485"/>
<feBlend mode="normal" in="SourceGraphic" in2="effect1_dropShadow_907_86485" result="shape"/>
</filter>
<filter id="filter5_d_907_86485" x="153.45" y="448.57" width="311.917" height="132.39" filterUnits="userSpaceOnUse" color-interpolation-filters="sRGB">
<feFlood flood-opacity="0" result="BackgroundImageFix"/>
<feColorMatrix in="SourceAlpha" type="matrix" values="0 0 0 0 0 0 0 0 0 0 0 0 0 0 0 0 0 0 127 0" result="hardAlpha"/>
<feOffset dy="4"/>
<feGaussianBlur stdDeviation="14"/>
<feComposite in2="hardAlpha" operator="out"/>
<feColorMatrix type="matrix" values="0 0 0 0 0.105882 0 0 0 0 0.862745 0 0 0 0 0.466667 0 0 0 1 0"/>
<feBlend mode="normal" in2="BackgroundImageFix" result="effect1_dropShadow_907_86485"/>
<feBlend mode="normal" in="SourceGraphic" in2="effect1_dropShadow_907_86485" result="shape"/>
</filter>
<filter id="filter6_d_907_86485" x="215.368" y="493.889" width="173.384" height="113.67" filterUnits="userSpaceOnUse" color-interpolation-filters="sRGB">
<feFlood flood-opacity="0" result="BackgroundImageFix"/>
<feColorMatrix in="SourceAlpha" type="matrix" values="0 0 0 0 0 0 0 0 0 0 0 0 0 0 0 0 0 0 127 0" result="hardAlpha"/>
<feOffset dy="4"/>
<feComposite in2="hardAlpha" operator="out"/>
<feColorMatrix type="matrix" values="0 0 0 0 0.105882 0 0 0 0 0.862745 0 0 0 0 0.466667 0 0 0 1 0"/>
<feBlend mode="normal" in2="BackgroundImageFix" result="effect1_dropShadow_907_86485"/>
<feBlend mode="normal" in="SourceGraphic" in2="effect1_dropShadow_907_86485" result="shape"/>
</filter>
<radialGradient id="paint0_radial_907_86485" cx="0" cy="0" r="1" gradientUnits="userSpaceOnUse" gradientTransform="translate(307.684 668.696) rotate(90) scale(94.5688 168.697)">
<stop stop-color="#1BDC77"/>
<stop offset="1" stop-color="#008C93"/>
</radialGradient>
<linearGradient id="paint1_linear_907_86485" x1="143.098" y1="572.037" x2="429.224" y2="572.037" gradientUnits="userSpaceOnUse">
<stop/>
<stop offset="0.359375" stop-color="#232A45"/>
<stop offset="0.588542" stop-color="#232A45"/>
<stop offset="0.848958" stop-color="#161B2E"/>
<stop offset="1" stop-color="#101420"/>
</linearGradient>
<linearGradient id="paint2_linear_907_86485" x1="143.098" y1="572.037" x2="429.224" y2="572.037" gradientUnits="userSpaceOnUse">
<stop/>
<stop offset="0.359375" stop-color="#232A45"/>
<stop offset="0.588542" stop-color="#232A45"/>
<stop offset="0.848958" stop-color="#161B2E"/>
<stop offset="1" stop-color="#101420"/>
</linearGradient>
<linearGradient id="paint3_linear_907_86485" x1="143.098" y1="572.037" x2="429.224" y2="572.037" gradientUnits="userSpaceOnUse">
<stop/>
<stop offset="0.359375" stop-color="#232A45"/>
<stop offset="0.588542" stop-color="#232A45"/>
<stop offset="0.848958" stop-color="#161B2E"/>
<stop offset="1" stop-color="#101420"/>
</linearGradient>
<linearGradient id="paint4_linear_907_86485" x1="181.441" y1="510.765" x2="437.366" y2="510.765" gradientUnits="userSpaceOnUse">
<stop stop-color="#1BDC77"/>
<stop offset="0.947917" stop-color="#1BDC77" stop-opacity="0.13"/>
</linearGradient>
<linearGradient id="paint5_linear_907_86485" x1="1362.94" y1="2056.06" x2="1369.77" y2="2133.48" gradientUnits="userSpaceOnUse">
<stop stop-color="#161B2E"/>
<stop offset="1" stop-color="#180D5B"/>
</linearGradient>
<linearGradient id="paint6_linear_907_86485" x1="2252.97" y1="2703.87" x2="2330.02" y2="2716.92" gradientUnits="userSpaceOnUse">
<stop stop-color="#232A45"/>
<stop offset="1" stop-color="#180D5B"/>
</linearGradient>
<linearGradient id="paint7_linear_907_86485" x1="2846.84" y1="4030.7" x2="2974.4" y2="4049.97" gradientUnits="userSpaceOnUse">
<stop stop-color="#161B2E"/>
<stop offset="1" stop-color="#180D5B"/>
</linearGradient>
<linearGradient id="paint8_linear_907_86485" x1="2663.47" y1="4173.3" x2="2791.03" y2="4192.56" gradientUnits="userSpaceOnUse">
<stop stop-color="#161B2E"/>
<stop offset="1" stop-color="#180D5B"/>
</linearGradient>
<linearGradient id="paint9_linear_907_86485" x1="2239.28" y1="4308.82" x2="2396.37" y2="4332.53" gradientUnits="userSpaceOnUse">
<stop stop-color="#161B2E"/>
<stop offset="1" stop-color="#180D5B"/>
</linearGradient>
<linearGradient id="paint10_linear_907_86485" x1="1694.02" y1="3666.23" x2="1715.06" y2="3943.12" gradientUnits="userSpaceOnUse">
<stop stop-color="#232A45"/>
<stop offset="1" stop-color="#180D5B"/>
</linearGradient>
<linearGradient id="paint11_linear_907_86485" x1="297.659" y1="183.16" x2="322.277" y2="638.564" gradientUnits="userSpaceOnUse">
<stop stop-color="white" stop-opacity="0"/>
<stop offset="0.1875" stop-color="#F7F4FC" stop-opacity="0"/>
<stop offset="0.28" stop-color="#F3EFFA" stop-opacity="0"/>
<stop offset="0.3" stop-color="#F3F0FA" stop-opacity="0"/>
<stop offset="0.38" stop-color="#1BDC77" stop-opacity="0.04"/>
<stop offset="0.5" stop-color="#1BDC77" stop-opacity="0.13"/>
<stop offset="0.57" stop-color="#1BDC77" stop-opacity="0.21"/>
<stop offset="0.64" stop-color="#1BDC77" stop-opacity="0.29"/>
<stop offset="0.833333" stop-color="#1BDC77" stop-opacity="0.69"/>
<stop offset="1" stop-color="#1BDC77"/>
</linearGradient>
<clipPath id="clip0_907_86485">
<rect width="638" height="830" fill="white"/>
</clipPath>
</defs>
</svg>
