<svg width="16" height="12" viewBox="0 0 16 12" fill="none" xmlns="http://www.w3.org/2000/svg">
<path d="M14.9412 6.74143C15.3039 6.29857 15.3039 5.70072 14.9412 5.25857C13.7986 3.86643 11.0572 1 7.85674 1C4.65623 1 1.9149 3.86643 0.772299 5.25857C0.595807 5.47062 0.5 5.73149 0.5 6C0.5 6.26851 0.595807 6.52938 0.772299 6.74143C1.9149 8.13357 4.65623 11 7.85674 11C11.0572 11 13.7986 8.13357 14.9412 6.74143V6.74143Z" stroke="#808594" stroke-linecap="round" stroke-linejoin="round"/>
<path d="M7.85646 3.85735C9.12447 3.85735 10.1524 4.81674 10.1524 6.00021C10.1524 7.18368 9.12447 8.14307 7.85646 8.14307C6.58846 8.14307 5.56055 7.18368 5.56055 6.00021C5.56055 4.81674 6.58846 3.85735 7.85646 3.85735Z" stroke="#808594" stroke-linecap="round" stroke-linejoin="round"/>
</svg>
