<svg width="105" height="105" viewBox="0 0 105 105" fill="none" xmlns="http://www.w3.org/2000/svg">
<g clip-path="url(#clip0_1341_9424)">
<path d="M52.5 105C81.4949 105 105 81.4945 105 52.4995C105 23.5046 81.4949 -0.000488281 52.5 -0.000488281C23.5051 -0.000488281 0 23.5046 0 52.4995C0 81.4945 23.5051 105 52.5 105Z" fill="#181F35"/>
<path d="M22.7085 30.1246V35.5413H82.2918L82.2647 30.1436C82.2697 28.7084 81.705 27.3299 80.6945 26.3107C79.684 25.2916 78.3103 24.7151 76.8751 24.708H28.1251C26.6887 24.7087 25.3114 25.2796 24.2957 26.2953C23.2801 27.3109 22.7092 28.6883 22.7085 30.1246ZM30.8335 32.833C30.2978 32.833 29.7742 32.6741 29.3288 32.3765C28.8834 32.0789 28.5363 31.6559 28.3313 31.1611C28.1263 30.6662 28.0727 30.1216 28.1772 29.5963C28.2817 29.0709 28.5396 28.5883 28.9184 28.2095C29.2971 27.8308 29.7797 27.5728 30.3051 27.4683C30.8304 27.3638 31.375 27.4175 31.8699 27.6225C32.3648 27.8274 32.7878 28.1746 33.0853 28.62C33.3829 29.0653 33.5418 29.589 33.5418 30.1246C33.5418 30.8429 33.2564 31.5318 32.7485 32.0397C32.2406 32.5476 31.5517 32.833 30.8335 32.833ZM38.9585 32.833C38.4228 32.833 37.8992 32.6741 37.4538 32.3765C37.0084 32.0789 36.6613 31.6559 36.4563 31.1611C36.2513 30.6662 36.1977 30.1216 36.3022 29.5963C36.4067 29.0709 36.6646 28.5883 37.0434 28.2095C37.4221 27.8308 37.9047 27.5728 38.4301 27.4683C38.9554 27.3638 39.5 27.4175 39.9949 27.6225C40.4898 27.8274 40.9128 28.1746 41.2103 28.62C41.5079 29.0653 41.6668 29.589 41.6668 30.1246C41.6639 30.842 41.3777 31.5293 40.8704 32.0366C40.3631 32.5439 39.6759 32.8301 38.9585 32.833Z" fill="white"/>
<path d="M22.7085 38.2495V76.1662C22.7085 77.6028 23.2791 78.9805 24.295 79.9963C25.3108 81.0122 26.6885 81.5828 28.1251 81.5828H76.8751C78.3117 81.5828 79.6895 81.0122 80.7053 79.9963C81.7211 78.9805 82.2918 77.6028 82.2918 76.1662V38.2495H22.7085ZM76.8751 76.1662H28.1251V43.6662H76.8751V76.1662Z" fill="white"/>
<path d="M35 60.9995H18V81.9995H35V60.9995Z" fill="#181F35"/>
<path d="M25 76.2409L41.6987 59.3721L50.7215 68.0122L61.752 56.9995L67.8961 62.99" stroke="white" stroke-width="4" stroke-linecap="round" stroke-linejoin="round"/>
</g>
<defs>
<clipPath id="clip0_1341_9424">
<rect width="105" height="105" fill="white"/>
</clipPath>
</defs>
</svg>
