<svg width="91" height="91" viewBox="0 0 91 91" fill="none" xmlns="http://www.w3.org/2000/svg">
<path d="M45.5 0C36.501 0 27.704 2.66853 20.2216 7.66813C12.7391 12.6677 6.90729 19.7739 3.4635 28.0879C0.0197142 36.4019 -0.881337 45.5505 0.87429 54.3766C2.62992 63.2027 6.96337 71.31 13.3267 77.6733C19.6899 84.0366 27.7973 88.3701 36.6234 90.1257C45.4495 91.8813 54.5981 90.9803 62.9121 87.5365C71.2261 84.0927 78.3323 78.2608 83.3319 70.7784C88.3315 63.296 91 54.499 91 45.5C90.9868 33.4367 86.1888 21.8713 77.6587 13.3413C69.1287 4.81124 57.5633 0.0132478 45.5 0Z" fill="#181F35"/>
<path opacity="0.99" d="M37.4011 63.2553C36.799 63.2565 36.2027 63.139 35.6464 62.9096C35.09 62.6801 34.5848 62.3433 34.1596 61.9184L21.2852 49.0833C20.4512 48.2227 19.9897 47.0701 20.0002 45.8738C20.0106 44.6775 20.4921 43.5331 21.341 42.6871C22.1898 41.8411 23.3382 41.3612 24.5386 41.3508C25.739 41.3404 26.8955 41.8004 27.759 42.6315L37.3965 52.2407L62.4907 27.2367C63.3575 26.4255 64.5069 25.9821 65.6959 26.0006C66.8848 26.019 68.0199 26.4976 68.861 27.3353C69.7022 28.1729 70.1833 29.3038 70.2026 30.4887C70.2219 31.6736 69.7779 32.8195 68.9645 33.6839L40.6335 61.9184C40.2089 62.3427 39.7043 62.6793 39.1488 62.9087C38.5933 63.1381 37.9978 63.2559 37.3965 63.2553H37.4011Z" fill="white"/>
</svg>
