<svg width="105" height="105" viewBox="0 0 105 105" fill="none" xmlns="http://www.w3.org/2000/svg">
<path d="M52.5 105C81.4949 105 105 81.4949 105 52.5C105 23.5051 81.4949 0 52.5 0C23.5051 0 0 23.5051 0 52.5C0 81.4949 23.5051 105 52.5 105Z" fill="#181F35"/>
<path d="M46.0741 25.9326L24.2402 38.2137V64.4144L46.0741 25.9326ZM29.4804 72.603L52.1876 85.3749L66.1613 77.5147L74.8948 72.6012L29.4804 72.603ZM80.135 64.4144V38.2137L58.3011 25.9326L80.135 64.4144Z" stroke="white" stroke-width="4" stroke-linecap="round" stroke-linejoin="round"/>
<path d="M46.9476 44.7642L41.7075 47.821V60.0479L46.9476 63.1047L52.1877 66.1614L57.4279 63.1047L62.668 60.0479V47.821L57.4279 44.7642L52.1877 41.7075L46.9476 44.7642Z" stroke="white" stroke-width="4" stroke-linecap="round" stroke-linejoin="round"/>
<path d="M41.707 59.1741L29.48 66.1609L41.707 59.1741ZM52.1873 41.707V29.48V41.707ZM62.6675 59.1741L74.8945 66.1609L62.6675 59.1741Z" stroke="white" stroke-width="4" stroke-linecap="round" stroke-linejoin="round"/>
<path d="M52.1874 29.4803C55.0814 29.4803 57.4275 27.1342 57.4275 24.2401C57.4275 21.3461 55.0814 19 52.1874 19C49.2934 19 46.9473 21.3461 46.9473 24.2401C46.9473 27.1342 49.2934 29.4803 52.1874 29.4803Z" stroke="white" stroke-width="4" stroke-linecap="round" stroke-linejoin="round"/>
<path d="M24.2401 74.8948C27.1342 74.8948 29.4803 72.5487 29.4803 69.6547C29.4803 66.7606 27.1342 64.4146 24.2401 64.4146C21.3461 64.4146 19 66.7606 19 69.6547C19 72.5487 21.3461 74.8948 24.2401 74.8948Z" stroke="white" stroke-width="4" stroke-linecap="round" stroke-linejoin="round"/>
<path d="M80.1351 74.8948C83.0292 74.8948 85.3752 72.5487 85.3752 69.6547C85.3752 66.7606 83.0292 64.4146 80.1351 64.4146C77.2411 64.4146 74.895 66.7606 74.895 69.6547C74.895 72.5487 77.2411 74.8948 80.1351 74.8948Z" stroke="white" stroke-width="4" stroke-linecap="round" stroke-linejoin="round"/>
</svg>
