<svg width="91" height="91" viewBox="0 0 91 91" fill="none" xmlns="http://www.w3.org/2000/svg">
<path d="M45.5 0C36.501 0 27.704 2.66853 20.2216 7.66813C12.7391 12.6677 6.90729 19.7739 3.4635 28.0879C0.0197142 36.4019 -0.881337 45.5505 0.87429 54.3766C2.62992 63.2027 6.96337 71.31 13.3267 77.6733C19.6899 84.0366 27.7973 88.3701 36.6234 90.1257C45.4495 91.8813 54.5981 90.9803 62.9121 87.5365C71.2261 84.0927 78.3323 78.2608 83.3319 70.7784C88.3315 63.296 91 54.499 91 45.5C90.9868 33.4367 86.1888 21.8713 77.6587 13.3413C69.1287 4.81124 57.5633 0.0132478 45.5 0Z" fill="#181F35"/>
<path d="M46.2283 42.9937C45.6921 42.9937 45.168 43.1527 44.7222 43.4505C44.2764 43.7484 43.9289 44.1718 43.7237 44.6672C43.5185 45.1626 43.4648 45.7077 43.5694 46.2335C43.674 46.7594 43.9322 47.2425 44.3114 47.6216C44.6905 48.0008 45.1736 48.259 45.6994 48.3636C46.2253 48.4682 46.7704 48.4145 47.2658 48.2093C47.7612 48.0041 48.1846 47.6566 48.4824 47.2108C48.7803 46.765 48.9393 46.2408 48.9393 45.7047C48.9393 44.9857 48.6537 44.2961 48.1453 43.7877C47.6369 43.2793 46.9473 42.9937 46.2283 42.9937ZM66.8861 45.7047L67.1843 45.3251C70.8441 40.2827 71.7117 35.6469 69.7055 32.1497C67.6994 28.6525 63.1991 27.1072 57.0723 27.7308H56.5843C54.1173 22.119 50.4575 18.5947 46.2283 18.5947C41.9992 18.5947 38.3393 22.119 35.8994 27.8121L35.3844 27.7308C29.2575 27.1072 24.7573 28.6525 22.7511 32.1497C20.745 35.6469 21.6125 40.2827 25.2724 45.3251L25.5706 45.7047L25.2724 46.0842C21.6125 51.1266 20.745 55.7624 22.7511 59.2596C24.5404 62.2417 27.9833 63.8141 32.6734 63.8141C33.5138 63.8141 34.3813 63.8141 35.3844 63.6785H35.8723C38.3393 69.2903 41.9992 72.8146 46.2283 72.8146C50.4575 72.8146 54.1173 69.2903 56.5572 63.5972H57.0452C57.9669 63.5972 58.8344 63.7328 59.7562 63.7328C64.5546 63.7328 68.0789 62.1604 69.7869 59.1783C71.793 55.6811 70.9255 51.0453 67.2656 46.0029L66.8861 45.7047ZM27.4412 34.8607C28.1189 33.6678 30.1521 33.0172 32.8631 33.0172H34.1915C33.7667 34.6849 33.4498 36.3783 33.2427 38.0868C31.8615 39.1315 30.5486 40.2634 29.3117 41.4755C27.2514 38.7645 26.655 36.2162 27.4412 34.8607ZM27.4412 56.5486C26.655 55.1931 27.4411 52.6448 29.2575 49.8525C30.4943 51.0646 31.8073 52.1965 33.1885 53.2412C33.3956 54.9586 33.7125 56.661 34.1373 58.3379C30.7757 58.5548 28.2273 57.9041 27.4412 56.5486ZM46.2283 24.0167C47.7465 24.0167 49.5629 25.806 51.1081 28.9778C49.4519 29.4585 47.8229 30.0287 46.2283 30.6858C44.6338 30.0287 43.0048 29.4585 41.3485 28.9778C42.8938 25.806 44.7102 24.0167 46.2283 24.0167ZM46.2283 67.3926C44.7102 67.3926 42.8938 65.6033 41.3485 62.4315C43.0048 61.9508 44.6338 61.3806 46.2283 60.7236C47.8229 61.3806 49.4519 61.9508 51.1081 62.4315C49.5629 65.6033 47.7465 67.3926 46.2283 67.3926ZM54.1715 50.2862C52.9245 51.1538 51.6503 51.9671 50.2948 52.7532C48.9393 53.5394 47.5838 54.2443 46.2283 54.8678C44.8728 54.2352 43.5173 53.5304 42.1618 52.7532C40.8063 51.9671 39.4508 51.1538 38.2851 50.2862C38.0954 48.8223 38.0954 47.3041 38.0954 45.7047C38.0954 44.1052 38.0954 42.587 38.2851 41.1231C39.5322 40.2556 40.8063 39.4423 42.1618 38.6561C43.5173 37.8699 44.8728 37.165 46.2283 36.5415C47.5838 37.1741 48.9393 37.8789 50.2948 38.6561C51.6503 39.4423 53.0058 40.2556 54.1715 41.1231C54.1715 42.587 54.3613 44.1052 54.3613 45.7047C54.3613 47.3041 54.3613 48.8223 54.1715 50.2862ZM65.0155 56.5486C64.2293 57.9041 61.681 58.5819 58.3194 58.3379C58.7442 56.661 59.0611 54.9586 59.2682 53.2412C60.6493 52.1965 61.9623 51.0646 63.1991 49.8525C65.2053 52.6448 65.8017 55.1931 65.0155 56.5486ZM63.1991 41.5568C61.9623 40.3447 60.6493 39.2128 59.2682 38.1681C59.0611 36.4596 58.7442 34.7663 58.3194 33.0985H59.6477C62.3587 33.0985 64.3378 33.7492 65.0697 34.942C65.8017 36.1349 65.2053 38.7645 63.1991 41.5568Z" fill="white"/>
</svg>
