<svg width="105" height="105" viewBox="0 0 105 105" fill="none" xmlns="http://www.w3.org/2000/svg">
<g clip-path="url(#clip0_1341_9408)">
<path d="M52.5 105C81.4949 105 105 81.4945 105 52.4995C105 23.5046 81.4949 -0.000488281 52.5 -0.000488281C23.5051 -0.000488281 0 23.5046 0 52.4995C0 81.4945 23.5051 105 52.5 105Z" fill="#181F35"/>
<path d="M22.7085 28.1246V33.5413H82.2918L82.2647 28.1436C82.2697 26.7084 81.705 25.3299 80.6945 24.3107C79.684 23.2916 78.3103 22.7151 76.8751 22.708H28.1251C26.6887 22.7087 25.3114 23.2796 24.2957 24.2953C23.2801 25.3109 22.7092 26.6883 22.7085 28.1246ZM30.8335 30.833C30.2978 30.833 29.7742 30.6741 29.3288 30.3765C28.8834 30.0789 28.5363 29.6559 28.3313 29.1611C28.1263 28.6662 28.0727 28.1216 28.1772 27.5963C28.2817 27.0709 28.5396 26.5883 28.9184 26.2095C29.2971 25.8308 29.7797 25.5728 30.3051 25.4683C30.8304 25.3638 31.375 25.4175 31.8699 25.6225C32.3648 25.8274 32.7878 26.1746 33.0853 26.62C33.3829 27.0653 33.5418 27.589 33.5418 28.1246C33.5418 28.8429 33.2564 29.5318 32.7485 30.0397C32.2406 30.5476 31.5517 30.833 30.8335 30.833ZM38.9585 30.833C38.4228 30.833 37.8992 30.6741 37.4538 30.3765C37.0084 30.0789 36.6613 29.6559 36.4563 29.1611C36.2513 28.6662 36.1977 28.1216 36.3022 27.5963C36.4067 27.0709 36.6646 26.5883 37.0434 26.2095C37.4221 25.8308 37.9047 25.5728 38.4301 25.4683C38.9554 25.3638 39.5 25.4175 39.9949 25.6225C40.4898 25.8274 40.9128 26.1746 41.2103 26.62C41.5079 27.0653 41.6668 27.589 41.6668 28.1246C41.6639 28.842 41.3777 29.5293 40.8704 30.0366C40.3631 30.5439 39.6759 30.8301 38.9585 30.833Z" fill="white"/>
<path d="M52.4999 47.083C50.3573 47.083 48.2627 47.7183 46.4812 48.9087C44.6997 50.0991 43.3111 51.791 42.4912 53.7706C41.6712 55.7501 41.4567 57.9283 41.8747 60.0298C42.2927 62.1312 43.3245 64.0615 44.8396 65.5766C46.3546 67.0917 48.2849 68.1235 50.3864 68.5415C52.4879 68.9595 54.6661 68.7449 56.6456 67.925C58.6252 67.105 60.3171 65.7165 61.5075 63.935C62.6979 62.1534 63.3332 60.0589 63.3332 57.9163H52.4999V47.083Z" fill="white"/>
<path d="M22.7085 36.2495V74.1662C22.7085 75.6028 23.2791 76.9805 24.295 77.9963C25.3108 79.0122 26.6885 79.5828 28.1251 79.5828H76.8751C78.3117 79.5828 79.6895 79.0122 80.7053 77.9963C81.7211 76.9805 82.2918 75.6028 82.2918 74.1662V36.2495H22.7085ZM76.8751 74.1662H28.1251V41.6662H76.8751V74.1662Z" fill="white"/>
</g>
<defs>
<clipPath id="clip0_1341_9408">
<rect width="105" height="105" fill="white"/>
</clipPath>
</defs>
</svg>
