<svg width="91" height="91" viewBox="0 0 91 91" fill="none" xmlns="http://www.w3.org/2000/svg">
<path d="M45.5 0C36.501 0 27.704 2.66853 20.2216 7.66813C12.7391 12.6677 6.90729 19.7739 3.4635 28.0879C0.0197142 36.4019 -0.881337 45.5505 0.87429 54.3766C2.62992 63.2027 6.96337 71.31 13.3267 77.6733C19.6899 84.0366 27.7973 88.3701 36.6234 90.1257C45.4495 91.8813 54.5981 90.9803 62.9121 87.5365C71.2261 84.0927 78.3323 78.2608 83.3319 70.7784C88.3315 63.296 91 54.499 91 45.5C90.9868 33.4367 86.1888 21.8713 77.6587 13.3413C69.1287 4.81124 57.5633 0.0132478 45.5 0Z" fill="#181F35"/>
<path d="M63.9446 64.6814H51.7891V25.1758H63.9446V64.6814Z" fill="white"/>
<path d="M48.7503 64.6811H36.5947V37.3311H48.7503V64.6811Z" fill="white"/>
<path d="M33.556 64.6816H21.4004V46.4482H33.556V64.6816Z" fill="white"/>
</svg>
