<svg width="105" height="105" viewBox="0 0 105 105" fill="none" xmlns="http://www.w3.org/2000/svg">
<path d="M52.5 105C81.4949 105 105 81.4949 105 52.5C105 23.5051 81.4949 0 52.5 0C23.5051 0 0 23.5051 0 52.5C0 81.4949 23.5051 105 52.5 105Z" fill="#181F35"/>
<path d="M51.9858 32.9455L53.3371 30.6156C53.536 30.2705 53.8008 29.968 54.1166 29.7252C54.4323 29.4825 54.7928 29.3043 55.1774 29.2009C55.5621 29.0974 55.9633 29.0708 56.3582 29.1224C56.7531 29.174 57.134 29.3029 57.4791 29.5017C57.8242 29.7006 58.1268 29.9654 58.3695 30.2812C58.6123 30.597 58.7905 30.9574 58.8939 31.3421C58.9973 31.7267 59.024 32.1279 58.9724 32.5228C58.9207 32.9178 58.7918 33.2986 58.593 33.6437L45.6041 56.1326H54.9996C58.042 56.1326 59.7496 59.7094 58.4291 62.1889H30.8934C29.2166 62.1889 27.8652 60.8375 27.8652 59.1607C27.8652 57.484 29.2166 56.1326 30.8934 56.1326H38.6121L48.4969 39.0017L45.4094 33.6437C45.0449 32.9493 44.9634 32.1407 45.182 31.3875C45.4006 30.6342 45.9022 29.9949 46.5818 29.6033C47.2613 29.2118 48.0661 29.0985 48.8273 29.2872C49.5886 29.4759 50.2472 29.952 50.6652 30.6156L51.9858 32.9455ZM40.3031 65.3049L37.3938 70.3517C37.1949 70.6969 36.9301 70.9994 36.6143 71.2422C36.2985 71.4849 35.9381 71.6631 35.5534 71.7665C35.1688 71.87 34.7676 71.8966 34.3727 71.845C33.9777 71.7934 33.5969 71.6645 33.2517 71.4656C32.9066 71.2668 32.6041 71.0019 32.3613 70.6862C32.1186 70.3704 31.9404 70.0099 31.837 69.6253C31.7335 69.2407 31.7069 68.8395 31.7585 68.4445C31.8101 68.0496 31.939 67.6687 32.1379 67.3236L34.3063 63.583C36.7406 62.8254 38.7309 63.4049 40.3031 65.3049ZM65.3736 56.1469H73.2563C74.933 56.1469 76.2844 57.4983 76.2844 59.175C76.2844 60.8518 74.933 62.2031 73.2563 62.2031H68.8768L71.8313 67.3236C72.1957 68.0181 72.2772 68.8267 72.0586 69.5799C71.8401 70.3331 71.3384 70.9725 70.6588 71.364C69.9793 71.7556 69.1745 71.8689 68.4133 71.6801C67.652 71.4914 66.9934 71.0154 66.5754 70.3517C61.6021 61.7281 57.8615 55.2705 55.3844 50.967C52.8455 46.5875 54.6576 42.1937 56.4531 40.7094C58.441 44.1246 61.4098 49.2736 65.3736 56.1469ZM52 16.1875C31.6629 16.1875 15.1875 32.6652 15.1875 53C15.1875 73.3348 31.6652 89.8125 52 89.8125C72.3371 89.8125 88.8125 73.3348 88.8125 53C88.8125 32.6652 72.3348 16.1875 52 16.1875ZM84.0625 53C84.0625 70.6201 69.7982 85.0625 52 85.0625C34.3799 85.0625 19.9375 70.7982 19.9375 53C19.9375 35.3799 34.2018 20.9375 52 20.9375C69.6201 20.9375 84.0625 35.2018 84.0625 53Z" fill="white"/>
</svg>
