<svg width="23" height="24" viewBox="0 0 23 24" fill="none" xmlns="http://www.w3.org/2000/svg">
<path d="M8.35416 16.1538C8.63666 16.3713 8.99644 16.4707 9.35437 16.4303C9.7123 16.3899 10.0391 16.2129 10.2628 15.9382L15.3234 9.72488C15.5471 9.45024 15.6494 9.10044 15.6078 8.75245C15.5663 8.40447 15.3842 8.08679 15.1017 7.86931C14.8192 7.65183 14.4594 7.55236 14.1015 7.59278C13.7436 7.63321 13.4168 7.81021 13.1931 8.08486L8.13246 14.2982C7.90876 14.5729 7.80645 14.9227 7.84803 15.2706C7.88961 15.6186 8.07167 15.9363 8.35416 16.1538ZM13.2365 16.5427L10.7062 19.6494C10.0351 20.4733 9.05482 21.0044 7.98103 21.1256C6.90724 21.2469 5.82788 20.9485 4.98039 20.296C4.13291 19.6436 3.58672 18.6906 3.46199 17.6466C3.33726 16.6026 3.64419 15.5533 4.31528 14.7293L6.8456 11.6226C7.0693 11.348 7.17161 10.9982 7.13003 10.6502C7.08845 10.3022 6.90639 9.98454 6.6239 9.76706C6.3414 9.54958 5.98162 9.45011 5.62369 9.49053C5.26576 9.53095 4.939 9.70796 4.71531 9.98261L2.18498 13.0893C1.06651 14.4625 0.554949 16.2115 0.762838 17.9514C0.970727 19.6914 1.88104 21.2798 3.29351 22.3672C4.70598 23.4546 6.50492 23.9519 8.29457 23.7498C10.0842 23.5477 11.718 22.6627 12.8365 21.2894L15.3668 18.1827C15.5905 17.9081 15.6928 17.5583 15.6512 17.2103C15.6096 16.8623 15.4276 16.5446 15.1451 16.3272C14.8626 16.1097 14.5028 16.0102 14.1449 16.0506C13.7869 16.0911 13.4602 16.2681 13.2365 16.5427ZM10.6194 2.73368L8.08908 5.84036C7.86538 6.11501 7.76307 6.4648 7.80465 6.81279C7.84622 7.16078 8.02829 7.47846 8.31078 7.69594C8.59328 7.91342 8.95306 8.01289 9.31099 7.97247C9.66892 7.93204 9.99568 7.75504 10.2194 7.48039L12.7497 4.37371C13.4208 3.54977 14.401 3.01875 15.4748 2.89748C16.5486 2.77621 17.628 3.07463 18.4755 3.72707C19.3229 4.37951 19.8691 5.33254 19.9939 6.3765C20.1186 7.42047 19.8117 8.46985 19.1406 9.29379L16.6103 12.4005C16.3866 12.6751 16.2842 13.0249 16.3258 13.3729C16.3674 13.7209 16.5495 14.0386 16.832 14.256C17.1145 14.4735 17.4742 14.573 17.8322 14.5326C18.1901 14.4921 18.5169 14.3151 18.7406 14.0405L21.2709 10.9338C22.3894 9.56058 22.9009 7.81161 22.693 6.07167C22.4851 4.33174 21.5748 2.74335 20.1623 1.65595C18.7499 0.568541 16.9509 0.0711906 15.1613 0.273306C13.3716 0.475421 11.7379 1.36044 10.6194 2.73368Z" fill="white"/>
</svg>
