<svg width="212" height="56" viewBox="0 0 212 56" fill="none" xmlns="http://www.w3.org/2000/svg">
<path d="M67.2134 15.4395H70.7202L71.9595 22.9629L72.1792 24.7646H72.355L72.5923 22.9629L73.9019 15.4395H76.4067L73.9985 27.9463H70.1226L69.0679 21.1611L68.8833 19.2891H68.7075L68.5054 21.1611L67.2661 27.9463H63.3901L60.9819 15.4395H64.0405L65.2798 22.9629L65.4995 24.7646H65.6753L65.9126 22.9629L67.2134 15.4395ZM86.3735 27.9463H78.2173V15.4395H86.3735V17.7246H81.0562V20.5283H85.7759V22.6553H81.0562V25.6611H86.3735V27.9463ZM88.7993 15.4395H95.9624L97.9399 17.417V20.0801L96.6655 21.3545L98.3706 23.0684V25.9688L96.3931 27.9463H88.7993V15.4395ZM95.1011 19.8604V18.2959L94.3628 17.5576H91.6382V20.5459H94.4155L95.1011 19.8604ZM95.5317 25.0811V23.3057L94.7935 22.5674H91.6382V25.8193H94.7935L95.5317 25.0811ZM105.806 24.4395H99.812V22.1543H105.806V24.4395ZM115.483 28.0342H109.585L107.599 26.0566V17.3291L109.585 15.3428H115.377L117.039 17.0566L115.017 18.8936L113.778 17.6543H111.185L110.447 18.3926V24.9932L111.185 25.7314H113.936L115.377 24.3076L117.337 26.1445L115.483 28.0342ZM120.827 17.9004H117.425V15.4395H127.067V17.9004H123.666V27.9463H120.827V17.9004ZM133.808 27.9463H129.545V25.7139H132.674L133.325 25.0811L133.562 23.7715H129.422L127.708 15.4395H130.732L131.813 21.5391H133.896L134.854 15.4395H137.605L135.794 25.9688L133.808 27.9463ZM140.444 30.1787H137.596V25.6436H138.458L139.073 25.0283L140.136 15.4395H148.002V25.6436H149.259V30.1787H146.42V27.9463H140.444V30.1787ZM142.562 17.7422L141.736 24.9756L140.91 25.6436H145.155V17.7422H142.562ZM157.539 20.959L154.418 27.9463H151.237V15.4395H154.076V23.7363H154.172L154.55 22.4355L157.662 15.4395H160.843V27.9463H158.004V19.6494H157.917L157.539 20.959ZM169.694 23.4639H168.252L165.95 27.9463H162.926L165.554 23.1562L163.55 21.249V17.417L165.537 15.4395H172.533V27.9463H169.694V23.4639ZM169.694 17.5576H167.136L166.398 18.2959V20.5986L167.136 21.3369H169.694V17.5576ZM181.005 28.0342L179.019 26.0566V17.3291L181.005 15.3428H186.903L188.889 17.3291V26.0566L186.903 28.0342H181.005ZM186.042 24.9932V18.3926L185.303 17.6543H182.605L181.867 18.3926V24.9932L182.605 25.7314H185.303L186.042 24.9932ZM193.398 28.0342L191.412 26.0566V17.3291L193.398 15.3428H199.295L201.282 17.3291V26.0566L199.295 28.0342H193.398ZM198.434 24.9932V18.3926L197.696 17.6543H194.998L194.259 18.3926V24.9932L194.998 25.7314H197.696L198.434 24.9932ZM207.118 27.9463H203.083V25.4766H205.483L206.256 24.7031V17.7422H204.094V15.4395H209.095V25.9688L207.118 27.9463Z" fill="white"/>
<path d="M62.9996 34.3569H63.9717V37.2949L64.815 36.5H66.335L67.2911 37.4561V40.9902L66.335 41.9463H64.815L63.9717 41.1567H63.9234L63.7139 41.9463H62.9996V34.3569ZM65.7711 41.1084L66.3135 40.5713V37.875L65.7711 37.3379H65.046L63.9717 38.2617V40.1846L65.046 41.1084H65.7711ZM73.1829 43.144L72.2215 44.1001H69.7401L68.9237 43.2891L69.5951 42.6284L70.2342 43.2676H71.6737L72.2108 42.7251V41.6724L71.8617 41.9463H69.9603L68.9989 40.9902V36.5H69.971V40.5713L70.5081 41.1084H72.2108V36.5H73.1829V43.144ZM82.3725 41.9463H81.2821L80.7021 40.0879H78.1615L77.5976 41.9463H76.5878L78.8974 34.3569H79.9877L82.3725 41.9463ZM79.3808 35.6782L79.2411 36.5L78.4462 39.1426H80.4066L79.5795 36.5L79.4345 35.6782H79.3808ZM84.2897 37.2949H84.3381L85.1706 36.5H86.2824V37.3916H85.3801L84.3381 38.2832V41.9463H83.3659V36.5H84.0803L84.2897 37.2949ZM87.5014 37.3379H86.83V36.5H87.5014V35.5977L88.4145 35.0713H88.4682V36.5H89.5586V37.3379H88.4682V40.5176L89.0053 41.0547H89.9668V41.9463H88.4575L87.5014 40.9902V37.3379ZM95.4128 43.144L94.4514 44.1001H91.97L91.1536 43.2891L91.8249 42.6284L92.4641 43.2676H93.9036L94.4407 42.7251V41.6724L94.0915 41.9463H92.1902L91.2287 40.9902V36.5H92.2009V40.5713L92.738 41.1084H94.4407V36.5H95.4128V43.144ZM100.542 36.5L101.498 37.4561V40.9902L100.542 41.9463H98.0659L97.1099 40.9902V37.4561L98.0659 36.5H100.542ZM98.6192 37.3379L98.0767 37.875V40.5713L98.6192 41.1084H99.9942L100.531 40.5713V37.875L99.9942 37.3379H98.6192ZM107.653 37.3379L107.111 37.875V41.9463H106.144V37.875L105.607 37.3379H104.715L104.178 37.875V41.9463H103.206V36.5H103.92L104.13 36.9512H104.178L104.629 36.5H105.967L106.67 37.2036L107.379 36.5H109.093L110.049 37.4561V41.9463H109.082V37.875L108.545 37.3379H107.653ZM119.738 41.9463H118.551L116.848 38.9868H115.43V41.9463H114.393V34.3569H118.014L119.222 35.5654V37.7139L118.003 38.9331L119.738 41.9463ZM118.191 35.9951L117.498 35.3022H115.43V38.0415H117.498L118.191 37.3486V35.9951ZM124.169 36.5L125.125 37.4561V41.9463H124.41L124.201 41.1567H124.158L123.309 41.9463H121.795L120.833 40.9902V39.6367L121.795 38.6807H124.158V37.875L123.621 37.3379H122.31L121.671 37.9287L121.01 37.2358L121.795 36.5H124.169ZM122.342 39.5132L121.805 40.0557V40.5713L122.342 41.1084H123.078L124.158 40.1846V39.5132H122.342ZM130.302 41.0332L131.151 41.8818V43.2461L130.302 44.0894H127.343L126.499 43.2461V41.8818L127.343 41.0332H128.347V40.1523H127.729L126.773 39.1963V37.4561L127.729 36.5H129.921L130.426 37.0049L130.931 36.5H131.382V37.6763H130.877V39.1963L129.921 40.1523H129.314V41.0332H130.302ZM128.277 37.3379L127.74 37.875V38.7773L128.277 39.3198H129.368L129.91 38.7773V37.875L129.368 37.3379H128.277ZM127.896 41.8711L127.466 42.3008V42.8271L127.896 43.2568H129.754L130.184 42.8271V42.3008L129.754 41.8711H127.896ZM136.183 36.5L137.139 37.4561V40.9902L136.183 41.9463H133.707L132.751 40.9902V37.4561L133.707 36.5H136.183ZM134.26 37.3379L133.718 37.875V40.5713L134.26 41.1084H135.635L136.173 40.5713V37.875L135.635 37.3379H134.26ZM138.707 41.9463L138.407 41.4629L141.205 37.3379H138.541V36.5H142.279L142.58 36.9834L139.782 41.1084H142.591V41.9463H138.707ZM143.912 36.5H144.884V41.9463H143.912V36.5ZM144.884 35.3022H143.912V34.3569H144.884V35.3022ZM150.873 41.9463H149.906V37.875L149.363 37.3379H148.681L147.607 38.2617V41.9463H146.635V36.5H147.349L147.559 37.2949H147.607L148.45 36.5H149.917L150.873 37.4561V41.9463ZM155.233 44.0894H154.288L157.72 33.6963H158.666L155.233 44.0894ZM163.655 34.3569H164.778L163.172 38.0308L165.095 41.9463H163.929L162.259 38.5356H160.862V41.9463H159.826V34.3569H160.862V37.5903H162.291L163.655 34.3569ZM169.456 36.5L170.412 37.4561V40.9902L169.456 41.9463H166.98L166.024 40.9902V37.4561L166.98 36.5H169.456ZM167.533 37.3379L166.99 37.875V40.5713L167.533 41.1084H168.908L169.445 40.5713V37.875L168.908 37.3379H167.533ZM174.386 41.9463H173.156L171.459 36.5H172.496L173.785 40.8882H173.806L175.111 36.5H176.083L174.386 41.9463ZM180.3 36.5L181.256 37.4561V41.9463H180.541L180.332 41.1567H180.289L179.44 41.9463H177.926L176.964 40.9902V39.6367L177.926 38.6807H180.289V37.875L179.752 37.3379H178.441L177.802 37.9287L177.141 37.2358L177.926 36.5H180.3ZM178.473 39.5132L177.936 40.0557V40.5713L178.473 41.1084H179.209L180.289 40.1846V39.5132H178.473ZM183.012 34.3569H183.984V41.9463H183.012V34.3569ZM189.806 40.9902L188.85 41.9463H186.186L185.407 41.1782L186.046 40.5176L186.68 41.1084H188.302L188.839 40.5713V40.1201L188.302 39.583H186.428L185.471 38.627V37.4561L186.428 36.5H188.807L189.586 37.2627L188.925 37.9287L188.313 37.3379H186.981L186.438 37.875V38.208L186.981 38.7451H188.85L189.806 39.7012V40.9902ZM194.189 36.5H195.182L193.947 39.0513L195.488 41.9463H194.387L193.098 39.4702H192.212V41.9463H191.24V34.3569H192.212V38.6377H193.168L194.189 36.5ZM196.584 36.5H197.556V41.9463H196.584V36.5ZM197.556 35.3022H196.584V34.3569H197.556V35.3022ZM203.491 43.144L202.529 44.1001H200.048L199.232 43.2891L199.903 42.6284L200.542 43.2676H201.982L202.519 42.7251V41.6724L202.17 41.9463H200.268L199.307 40.9902V36.5H200.279V40.5713L200.816 41.1084H202.519V36.5H203.491V43.144ZM205.419 44.0894H204.474L207.906 33.6963H208.851L205.419 44.0894Z" fill="#1BDC77"/>
<path d="M19.7669 33.5923C17.713 30.1053 14.8449 27.1372 11.3913 24.9249C11.0425 24.7016 10.6157 24.6223 10.2049 24.7045C9.79399 24.7866 9.43253 25.0234 9.19986 25.3629C8.96718 25.7024 8.8823 26.1169 8.96386 26.5153C9.04541 26.9137 9.28674 27.2635 9.63485 27.4879C12.6812 29.44 15.2111 32.0587 17.0228 35.1351C18.0809 36.9283 19.544 38.4641 21.3029 39.6278C23.0619 40.7915 25.0713 41.5532 27.1811 41.856C27.5956 41.9165 28.0188 41.8146 28.3577 41.5727C28.6966 41.3308 28.9234 40.9687 28.9881 40.5661C29.0529 40.1635 28.9504 39.7534 28.7031 39.4259C28.4559 39.0984 28.0841 38.8804 27.6696 38.8199C26.0283 38.5846 24.4652 37.9922 23.0968 37.087C21.7284 36.1818 20.5901 34.9872 19.7669 33.5923ZM30.1584 29.5198C29.7945 29.7243 29.3626 29.7807 28.9577 29.6765C28.5529 29.5723 28.2082 29.316 27.9995 28.964C24.9352 23.7933 20.5642 19.4696 15.2958 16.3981C15.1179 16.2949 14.9629 16.1585 14.8397 15.9969C14.7165 15.8352 14.6274 15.6513 14.5776 15.4558C14.5278 15.2603 14.5183 15.057 14.5495 14.8575C14.5807 14.6579 14.6522 14.4661 14.7597 14.2929C14.8672 14.1197 15.0087 13.9686 15.176 13.8481C15.3434 13.7277 15.5335 13.6403 15.7352 13.591C15.937 13.5416 16.1466 13.5313 16.352 13.5606C16.5574 13.5899 16.7546 13.6582 16.9324 13.7616C22.6599 17.1004 27.4121 21.8003 30.7436 27.4212C30.9523 27.7732 31.0079 28.192 30.8981 28.5856C30.7884 28.9791 30.5223 29.3152 30.1584 29.5198ZM33.3059 34.8282C31.4858 35.8488 29.3272 36.1294 27.3035 35.6085C25.2798 35.0876 23.5563 33.8077 22.5111 32.0496C22.3024 31.6976 22.2468 31.2788 22.3566 30.8852C22.4663 30.4917 22.7324 30.1556 23.0963 29.9511C23.4602 29.7465 23.8921 29.6901 24.297 29.7943C24.7019 29.8985 25.0466 30.1548 25.2553 30.5068C25.8814 31.5627 26.9155 32.3316 28.1301 32.6442C29.3447 32.9569 30.6404 32.7878 31.7321 32.174C32.8238 31.5602 33.6221 30.5522 33.9514 29.3715C34.2806 28.1909 34.1139 26.9344 33.4878 25.8785C30.3733 20.594 26.0805 16.0562 20.9215 12.5951C20.7512 12.4806 20.606 12.3346 20.4942 12.1654C20.3824 11.9961 20.3061 11.807 20.2698 11.6087C20.2335 11.4104 20.2378 11.2069 20.2825 11.0098C20.3272 10.8127 20.4114 10.6259 20.5303 10.4599C20.6493 10.294 20.8006 10.1522 20.9756 10.0427C21.1507 9.93318 21.346 9.85808 21.5505 9.82167C21.755 9.78526 21.9647 9.78825 22.1675 9.83049C22.3704 9.87273 22.5624 9.95337 22.7327 10.0678C28.2745 13.7854 32.886 18.6594 36.232 24.3357C37.273 26.0961 37.5495 28.1895 37.001 30.1565C36.4524 32.1236 35.1235 33.8037 33.3059 34.8282ZM39.6009 45.4454C34.8687 48.0989 29.2562 48.8285 23.9946 47.4741C18.7329 46.1197 14.2519 42.7919 11.5345 38.2208C10.5541 36.562 9.28793 35.0795 7.79073 33.8373C7.4731 33.5735 7.27714 33.1975 7.24589 32.7919C7.21464 32.3863 7.35067 31.9843 7.62408 31.6743C7.89749 31.3643 8.28591 31.1716 8.70399 31.1386C9.12207 31.1055 9.53559 31.2348 9.85368 31.4981C11.6231 32.9661 13.1196 34.7179 14.2787 36.6781C16.5743 40.5498 20.366 43.369 24.8197 44.5154C29.2734 45.6618 34.0242 45.0416 38.0271 42.7912C42.03 40.5407 44.9571 36.8444 46.1643 32.5154C47.3716 28.1864 46.7602 23.5793 44.4646 19.7075C42.6673 16.6748 40.5698 13.8203 38.2014 11.1844C38.065 11.033 37.9609 10.8568 37.8949 10.666C37.829 10.4751 37.8025 10.2733 37.8169 10.0721C37.8314 9.87085 37.8866 9.67412 37.9794 9.49314C38.0721 9.31216 38.2006 9.15049 38.3574 9.01735C38.5143 8.88421 38.6965 8.78223 38.8936 8.71721C39.0906 8.6522 39.2988 8.62544 39.506 8.63846C39.7133 8.65148 39.9157 8.70403 40.1015 8.79309C40.2874 8.88216 40.4532 9.006 40.5894 9.15755C43.0925 11.9431 45.3093 14.9597 47.2088 18.1648C49.9154 22.7418 50.6345 28.1846 49.2083 33.2989C47.782 38.4133 44.3269 42.7816 39.6009 45.4454ZM21.2309 27.4256C20.9156 27.6956 20.5035 27.8338 20.0851 27.81C19.6666 27.7861 19.276 27.6021 18.9988 27.2983C16.8716 24.9605 14.3658 22.9751 11.579 21.4195C11.3993 21.3192 11.242 21.1855 11.1159 21.0258C10.9899 20.8662 10.8976 20.6839 10.8444 20.4893C10.7912 20.2946 10.7781 20.0915 10.8059 19.8915C10.8336 19.6915 10.9017 19.4985 11.0062 19.3236C11.1107 19.1487 11.2495 18.9952 11.4148 18.8721C11.5801 18.7489 11.7685 18.6584 11.9694 18.6058C12.1703 18.5531 12.3797 18.5394 12.5857 18.5653C12.7916 18.5911 12.99 18.6562 13.1696 18.7567C16.2516 20.4771 19.0227 22.6729 21.3751 25.2586C21.652 25.5628 21.7923 25.9621 21.7653 26.3685C21.7383 26.7748 21.546 27.1551 21.2309 27.4256ZM36.4533 40.1367C35.9378 40.4265 35.4045 40.6852 34.8565 40.9114C34.6649 40.9903 34.4594 41.0319 34.2516 41.0338C34.0439 41.0358 33.8381 40.998 33.6459 40.9226C33.4537 40.8473 33.2789 40.7359 33.1315 40.5947C32.984 40.4535 32.8669 40.2854 32.7866 40.0999C32.6246 39.7253 32.623 39.3027 32.7821 38.9251C32.8608 38.7381 32.9767 38.5678 33.123 38.4239C33.2693 38.28 33.4433 38.1653 33.6349 38.0864C34.0621 37.9102 34.4778 37.7085 34.8796 37.4825C37.4244 36.0481 39.2849 33.696 40.0528 30.9421C40.8208 28.1882 40.4336 25.2575 38.9762 22.7929C37.9566 21.0733 36.8281 19.4171 35.5971 17.8339C35.3449 17.5099 35.2363 17.1013 35.2951 16.6979C35.3539 16.2945 35.5753 15.9293 35.9106 15.6827C36.2458 15.4361 36.6675 15.3283 37.0829 15.3831C37.4982 15.4378 37.8732 15.6505 38.1253 15.9744C39.435 17.6588 40.6356 19.4207 41.7203 21.2501C43.5942 24.4189 44.092 28.187 43.1046 31.7277C42.1172 35.2684 39.7252 38.2926 36.4533 40.1367ZM33.7743 13.2752C33.6257 13.4169 33.4498 13.5289 33.2569 13.6049C33.064 13.6808 32.8578 13.7192 32.6501 13.7178C32.4423 13.7164 32.2372 13.6752 32.0463 13.5967C31.8554 13.5182 31.6826 13.4038 31.5377 13.2601C30.727 12.4577 29.8765 11.6746 29.01 10.9325C28.8547 10.7995 28.7281 10.638 28.6374 10.4571C28.5467 10.2763 28.4937 10.0797 28.4814 9.87854C28.4691 9.67738 28.4978 9.47562 28.5658 9.28477C28.6338 9.09391 28.7398 8.91771 28.8777 8.76621C29.0157 8.61472 29.1828 8.4909 29.3697 8.40183C29.5565 8.31275 29.7594 8.26017 29.9668 8.24708C30.1741 8.23399 30.3819 8.26064 30.5781 8.32552C30.7744 8.39041 30.9553 8.49225 31.1106 8.62523C32.0338 9.41567 32.9396 10.2497 33.8029 11.1045C33.9479 11.248 34.0621 11.418 34.1392 11.6048C34.2162 11.7915 34.2545 11.9914 34.2518 12.193C34.2492 12.3945 34.2056 12.5939 34.1237 12.7795C34.0418 12.9652 33.923 13.1336 33.7743 13.2752Z" fill="white"/>
</svg>
