<svg width="213" height="55" viewBox="0 0 213 55" fill="none" xmlns="http://www.w3.org/2000/svg">
<path d="M68.2783 14.3901H71.7852L73.0244 21.9136L73.2441 23.7153H73.4199L73.6572 21.9136L74.9668 14.3901H77.4717L75.0635 26.897H71.1875L70.1328 20.1118L69.9482 18.2397H69.7725L69.5703 20.1118L68.3311 26.897H64.4551L62.0469 14.3901H65.1055L66.3447 21.9136L66.5645 23.7153H66.7402L66.9775 21.9136L68.2783 14.3901ZM87.4385 26.897H79.2822V14.3901H87.4385V16.6753H82.1211V19.479H86.8408V21.606H82.1211V24.6118H87.4385V26.897ZM89.8643 14.3901H97.0273L99.0049 16.3677V19.0308L97.7305 20.3052L99.4355 22.019V24.9194L97.458 26.897H89.8643V14.3901ZM96.166 18.811V17.2466L95.4277 16.5083H92.7031V19.4966H95.4805L96.166 18.811ZM96.5967 24.0317V22.2563L95.8584 21.5181H92.7031V24.77H95.8584L96.5967 24.0317ZM106.871 23.3901H100.877V21.105H106.871V23.3901ZM116.548 26.9849H110.65L108.664 25.0073V16.2798L110.65 14.2935H116.442L118.104 16.0073L116.082 17.8442L114.843 16.605H112.25L111.512 17.3433V23.9438L112.25 24.6821H115.001L116.442 23.2583L118.402 25.0952L116.548 26.9849ZM121.892 16.8511H118.49V14.3901H128.132V16.8511H124.73V26.897H121.892V16.8511ZM134.873 26.897H130.61V24.6646H133.739L134.39 24.0317L134.627 22.7222H130.487L128.773 14.3901H131.797L132.878 20.4897H134.961L135.919 14.3901H138.67L136.859 24.9194L134.873 26.897ZM141.509 29.1294H138.661V24.5942H139.522L140.138 23.979L141.201 14.3901H149.067V24.5942H150.324V29.1294H147.485V26.897H141.509V29.1294ZM143.627 16.6929L142.801 23.9263L141.975 24.5942H146.22V16.6929H143.627ZM158.604 19.9097L155.483 26.897H152.302V14.3901H155.141V22.687H155.237L155.615 21.3862L158.727 14.3901H161.908V26.897H159.069V18.6001H158.981L158.604 19.9097ZM170.759 22.4146H169.317L167.015 26.897H163.991L166.619 22.1069L164.615 20.1997V16.3677L166.602 14.3901H173.598V26.897H170.759V22.4146ZM170.759 16.5083H168.201L167.463 17.2466V19.5493L168.201 20.2876H170.759V16.5083ZM182.07 26.9849L180.084 25.0073V16.2798L182.07 14.2935H187.968L189.954 16.2798V25.0073L187.968 26.9849H182.07ZM187.106 23.9438V17.3433L186.368 16.605H183.67L182.932 17.3433V23.9438L183.67 24.6821H186.368L187.106 23.9438ZM194.463 26.9849L192.477 25.0073V16.2798L194.463 14.2935H200.36L202.347 16.2798V25.0073L200.36 26.9849H194.463ZM199.499 23.9438V17.3433L198.761 16.605H196.062L195.324 17.3433V23.9438L196.062 24.6821H198.761L199.499 23.9438ZM208.183 26.897H204.148V24.4272H206.548L207.321 23.6538V16.6929H205.159V14.3901H210.16V24.9194L208.183 26.897Z" fill="#151A2C"/>
<path d="M65.2222 30.8237H66.1943V33.7617L67.0376 32.9668H68.5576L69.5137 33.9229V37.457L68.5576 38.4131H67.0376L66.1943 37.6235H66.146L65.9365 38.4131H65.2222V30.8237ZM67.9937 37.5752L68.5361 37.0381V34.3418L67.9937 33.8047H67.2686L66.1943 34.7285V36.6514L67.2686 37.5752H67.9937ZM75.3505 39.6108L74.3891 40.5669H71.9077L71.0913 39.7559L71.7627 39.0952L72.4018 39.7344H73.8413L74.3784 39.1919V38.1392L74.0293 38.4131H72.1279L71.1665 37.457V32.9668H72.1386V37.0381L72.6757 37.5752H74.3784V32.9668H75.3505V39.6108ZM84.4301 38.4131H83.3397L82.7596 36.5547H80.2191L79.6552 38.4131H78.6454L80.955 30.8237H82.0453L84.4301 38.4131ZM81.4384 32.145L81.2987 32.9668L80.5038 35.6094H82.4642L81.6371 32.9668L81.4921 32.145H81.4384ZM86.2923 33.7617H86.3407L87.1732 32.9668H88.285V33.8584H87.3827L86.3407 34.75V38.4131H85.3685V32.9668H86.0829L86.2923 33.7617ZM89.449 33.8047H88.7776V32.9668H89.449V32.0645L90.3621 31.5381H90.4158V32.9668H91.5062V33.8047H90.4158V36.9844L90.9529 37.5215H91.9144V38.4131H90.4051L89.449 37.457V33.8047ZM97.3054 39.6108L96.344 40.5669H93.8626L93.0462 39.7559L93.7175 39.0952L94.3567 39.7344H95.7962L96.3333 39.1919V38.1392L95.9841 38.4131H94.0828L93.1213 37.457V32.9668H94.0935V37.0381L94.6306 37.5752H96.3333V32.9668H97.3054V39.6108ZM102.38 32.9668L103.336 33.9229V37.457L102.38 38.4131H99.9035L98.9475 37.457V33.9229L99.9035 32.9668H102.38ZM100.457 33.8047L99.9143 34.3418V37.0381L100.457 37.5752H101.832L102.369 37.0381V34.3418L101.832 33.8047H100.457ZM109.436 33.8047L108.893 34.3418V38.4131H107.926V34.3418L107.389 33.8047H106.498L105.961 34.3418V38.4131H104.988V32.9668H105.703L105.912 33.418H105.961L106.412 32.9668H107.749L108.453 33.6704L109.162 32.9668H110.875L111.831 33.9229V38.4131H110.864V34.3418L110.327 33.8047H109.436ZM121.41 38.4131H120.223L118.521 35.4536H117.103V38.4131H116.066V30.8237H119.686L120.895 32.0322V34.1807L119.675 35.3999L121.41 38.4131ZM119.863 32.4619L119.171 31.769H117.103V34.5083H119.171L119.863 33.8154V32.4619ZM125.786 32.9668L126.742 33.9229V38.4131H126.028L125.818 37.6235H125.775L124.927 38.4131H123.412L122.451 37.457V36.1035L123.412 35.1475H125.775V34.3418L125.238 33.8047H123.928L123.289 34.3955L122.628 33.7026L123.412 32.9668H125.786ZM123.96 35.98L123.423 36.5225V37.0381L123.96 37.5752H124.696L125.775 36.6514V35.98H123.96ZM131.865 37.5L132.713 38.3486V39.7129L131.865 40.5562H128.905L128.062 39.7129V38.3486L128.905 37.5H129.91V36.6191H129.292L128.336 35.6631V33.9229L129.292 32.9668H131.483L131.988 33.4717L132.493 32.9668H132.944V34.1431H132.439V35.6631L131.483 36.6191H130.876V37.5H131.865ZM129.84 33.8047L129.303 34.3418V35.2441L129.84 35.7866H130.93L131.473 35.2441V34.3418L130.93 33.8047H129.84ZM129.459 38.3379L129.029 38.7676V39.2939L129.459 39.7236H131.317L131.747 39.2939V38.7676L131.317 38.3379H129.459ZM137.691 32.9668L138.647 33.9229V37.457L137.691 38.4131H135.215L134.259 37.457V33.9229L135.215 32.9668H137.691ZM135.768 33.8047L135.226 34.3418V37.0381L135.768 37.5752H137.143L137.68 37.0381V34.3418L137.143 33.8047H135.768ZM140.16 38.4131L139.859 37.9297L142.658 33.8047H139.994V32.9668H143.732L144.033 33.4502L141.234 37.5752H144.043V38.4131H140.16ZM145.309 32.9668H146.282V38.4131H145.309V32.9668ZM146.282 31.769H145.309V30.8237H146.282V31.769ZM152.215 38.4131H151.248V34.3418L150.706 33.8047H150.024L148.95 34.7285V38.4131H147.977V32.9668H148.692L148.901 33.7617H148.95L149.793 32.9668H151.259L152.215 33.9229V38.4131ZM156.466 40.5562H155.521L158.953 30.1631H159.898L156.466 40.5562ZM164.833 30.8237H165.955L164.349 34.4976L166.272 38.4131H165.107L163.436 35.0024H162.04V38.4131H161.003V30.8237H162.04V34.0571H163.468L164.833 30.8237ZM170.578 32.9668L171.534 33.9229V37.457L170.578 38.4131H168.102L167.146 37.457V33.9229L168.102 32.9668H170.578ZM168.655 33.8047L168.113 34.3418V37.0381L168.655 37.5752H170.03L170.568 37.0381V34.3418L170.03 33.8047H168.655ZM175.454 38.4131H174.224L172.527 32.9668H173.563L174.852 37.355H174.874L176.179 32.9668H177.151L175.454 38.4131ZM181.312 32.9668L182.268 33.9229V38.4131H181.554L181.344 37.6235H181.301L180.453 38.4131H178.938L177.977 37.457V36.1035L178.938 35.1475H181.301V34.3418L180.764 33.8047H179.454L178.815 34.3955L178.154 33.7026L178.938 32.9668H181.312ZM179.486 35.98L178.949 36.5225V37.0381L179.486 37.5752H180.222L181.301 36.6514V35.98H179.486ZM183.969 30.8237H184.941V38.4131H183.969V30.8237ZM190.709 37.457L189.752 38.4131H187.088L186.31 37.645L186.949 36.9844L187.583 37.5752H189.205L189.742 37.0381V36.5869L189.205 36.0498H187.33L186.374 35.0938V33.9229L187.33 32.9668H189.71L190.488 33.7295L189.828 34.3955L189.215 33.8047H187.883L187.341 34.3418V34.6748L187.883 35.2119H189.752L190.709 36.168V37.457ZM195.036 32.9668H196.03L194.794 35.5181L196.336 38.4131H195.235L193.946 35.937H193.06V38.4131H192.087V30.8237H193.06V35.1045H194.016L195.036 32.9668ZM197.376 32.9668H198.349V38.4131H197.376V32.9668ZM198.349 31.769H197.376V30.8237H198.349V31.769ZM204.228 39.6108L203.267 40.5669H200.786L199.969 39.7559L200.641 39.0952L201.28 39.7344H202.719L203.256 39.1919V38.1392L202.907 38.4131H201.006L200.044 37.457V32.9668H201.017V37.0381L201.554 37.5752H203.256V32.9668H204.228V39.6108ZM206.101 40.5562H205.156L208.588 30.1631H209.534L206.101 40.5562Z" fill="#1565D8"/>
<path d="M19.8616 32.5855C17.8047 29.0968 14.9329 26.1269 11.4756 23.9128C11.1263 23.6893 10.6992 23.6099 10.288 23.6919C9.87674 23.7739 9.51504 24.0107 9.28228 24.3502C9.04952 24.6897 8.96471 25.1043 9.04648 25.5028C9.12825 25.9014 9.36991 26.2514 9.7184 26.476C12.7681 28.4296 15.3012 31.05 17.1156 34.1278C18.1752 35.9219 19.6402 37.4586 21.4011 38.6232C23.1621 39.7879 25.1735 40.5504 27.2853 40.854C27.7002 40.9147 28.1237 40.8129 28.4628 40.571C28.8019 40.3292 29.0288 39.9671 29.0935 39.5644C29.1582 39.1617 29.0554 38.7514 28.8078 38.4237C28.5602 38.0961 28.188 37.8779 27.7732 37.8172C26.1303 37.5813 24.5656 36.9882 23.1957 36.0823C21.8258 35.1764 20.6861 33.9811 19.8616 32.5855ZM30.2609 28.5152C29.8968 28.7197 29.4645 28.776 29.0592 28.6716C28.654 28.5672 28.3089 28.3107 28.0998 27.9586C25.0311 22.7854 20.6546 18.459 15.3805 15.3848C15.2024 15.2815 15.0472 15.1451 14.9238 14.9833C14.8004 14.8216 14.7112 14.6376 14.6613 14.4421C14.6114 14.2465 14.6018 14.0431 14.633 13.8435C14.6642 13.6439 14.7356 13.452 14.8431 13.2788C14.9507 13.1056 15.0922 12.9545 15.2597 12.8341C15.4272 12.7137 15.6174 12.6263 15.8193 12.577C16.0213 12.5278 16.231 12.5175 16.4366 12.5469C16.6422 12.5762 16.8397 12.6446 17.0176 12.7482C22.7514 16.0897 27.5094 20.7926 30.8459 26.4163C31.0549 26.7684 31.1107 27.1874 31.001 27.581C30.8912 27.9746 30.625 28.3107 30.2609 28.5152ZM33.413 33.8263C31.5917 34.8465 29.4312 35.1265 27.4056 34.6047C25.3799 34.083 23.6544 32.8022 22.6077 31.0432C22.3987 30.6911 22.3429 30.2721 22.4526 29.8785C22.5624 29.4849 22.8286 29.1488 23.1927 28.9443C23.5569 28.7398 23.9891 28.6835 24.3944 28.7879C24.7997 28.8923 25.1448 29.1488 25.3538 29.5009C25.9808 30.5573 27.0161 31.3268 28.2319 31.6399C29.4477 31.9531 30.7445 31.7843 31.837 31.1708C32.9294 30.5572 33.7281 29.5491 34.0572 28.3682C34.3863 27.1873 34.219 25.9304 33.592 24.874C30.4728 19.5869 26.1746 15.0464 21.0099 11.5826C20.8394 11.468 20.694 11.3219 20.582 11.1526C20.4701 10.9833 20.3937 10.794 20.3572 10.5957C20.3208 10.3974 20.3251 10.1938 20.3697 9.99667C20.4144 9.79952 20.4986 9.61263 20.6176 9.44668C20.7366 9.28073 20.888 9.13897 21.0631 9.02948C21.2383 8.92 21.4338 8.84494 21.6385 8.80858C21.8431 8.77223 22.053 8.7753 22.256 8.81762C22.4591 8.85993 22.6513 8.94066 22.8218 9.0552C28.3698 12.7757 32.9871 17.6527 36.3381 23.3317C37.3806 25.093 37.6581 27.187 37.1098 29.1545C36.5614 31.1219 35.2319 32.802 33.413 33.8263ZM39.7174 44.4486C34.982 47.1013 29.3647 47.8292 24.0979 46.4727C18.8311 45.1161 14.3449 41.7859 11.6235 37.2126C10.6416 35.553 9.37384 34.0697 7.87488 32.8266C7.55688 32.5626 7.36061 32.1864 7.32919 31.7807C7.29777 31.375 7.43378 30.9729 7.70732 30.6629C7.98087 30.3529 8.36957 30.1603 8.78801 30.1274C9.20644 30.0944 9.62038 30.2239 9.93884 30.4874C11.7104 31.9564 13.2088 33.7092 14.3696 35.6703C16.6686 39.5439 20.4646 42.3652 24.9227 43.5134C29.3808 44.6616 34.1356 44.0428 38.1413 41.7931C42.147 39.5433 45.0753 35.8469 46.2821 31.5171C47.4889 27.1872 46.8753 22.5785 44.5764 18.7049C42.7764 15.6707 40.676 12.8147 38.3046 10.1772C38.1681 10.0257 38.0638 9.84952 37.9977 9.65859C37.9316 9.46767 37.905 9.26579 37.9194 9.06449C37.9338 8.8632 37.989 8.66643 38.0818 8.48543C38.1745 8.30443 38.3031 8.14275 38.46 8.00963C38.617 7.8765 38.7993 7.77455 38.9965 7.70959C39.1937 7.64462 39.402 7.61791 39.6095 7.63101C39.8169 7.6441 40.0195 7.69673 40.2056 7.78589C40.3917 7.87504 40.5576 7.99898 40.694 8.15061C43.2003 10.9378 45.4202 13.956 47.3224 17.1626C50.0331 21.7419 50.7547 27.1865 49.329 32.3018C47.9033 37.4172 44.4466 41.7856 39.7174 44.4486ZM21.3248 26.4175C21.0092 26.6875 20.5968 26.8256 20.178 26.8016C19.7592 26.7776 19.3681 26.5934 19.0906 26.2894C16.9607 23.9502 14.452 21.9634 11.6622 20.4065C11.4823 20.3061 11.3247 20.1722 11.1985 20.0125C11.0723 19.8528 10.9799 19.6704 10.9266 19.4757C10.8733 19.281 10.8601 19.0778 10.8878 18.8777C10.9155 18.6777 10.9836 18.4847 11.0881 18.3097C11.1926 18.1348 11.3315 17.9814 11.4969 17.8582C11.6623 17.7351 11.8509 17.6446 12.052 17.592C12.253 17.5395 12.4626 17.5257 12.6687 17.5517C12.8748 17.5777 13.0734 17.6428 13.2532 17.7434C16.3385 19.4654 19.1129 21.6627 21.4683 24.2499C21.7455 24.5543 21.8862 24.9537 21.8592 25.3602C21.8323 25.7667 21.6401 26.147 21.3248 26.4175ZM36.5651 39.1374C36.0493 39.4271 35.5156 39.6857 34.9672 39.9117C34.7754 39.9906 34.5697 40.0321 34.3618 40.034C34.1539 40.0359 33.9479 39.998 33.7555 39.9226C33.5631 39.8471 33.3881 39.7356 33.2405 39.5943C33.0929 39.4531 32.9755 39.2849 32.8952 39.0993C32.7329 38.7245 32.7311 38.3018 32.8902 37.9241C32.969 37.7371 33.0849 37.5668 33.2313 37.4229C33.3777 37.279 33.5517 37.1644 33.7435 37.0855C34.171 36.9093 34.587 36.7077 34.9891 36.4818C37.5356 35.0479 39.3969 32.6957 40.1646 29.9413C40.9323 27.1868 40.5437 24.2552 39.0841 21.7894C38.0631 20.0689 36.933 18.4119 35.7003 16.8278C35.4478 16.5037 35.339 16.0949 35.3977 15.6914C35.4564 15.2878 35.6778 14.9226 36.0133 14.6761C36.3488 14.4296 36.7708 14.3219 37.1866 14.3767C37.6023 14.4316 37.9777 14.6445 38.2302 14.9686C39.5416 16.6539 40.7438 18.4168 41.8302 20.2471C43.7068 23.4174 44.2064 27.1867 43.2194 30.7281C42.2323 34.2695 39.8392 37.2937 36.5651 39.1374ZM33.8743 12.2672C33.7256 12.4089 33.5496 12.5209 33.3566 12.5968C33.1635 12.6727 32.9572 12.711 32.7492 12.7095C32.5413 12.708 32.3359 12.6668 32.1449 12.5882C31.9538 12.5096 31.7808 12.3951 31.6357 12.2513C30.824 11.4484 29.9725 10.6648 29.1049 9.92218C28.9495 9.78911 28.8227 9.6275 28.7318 9.44659C28.641 9.26567 28.5879 9.06899 28.5755 8.86778C28.5631 8.66656 28.5918 8.46475 28.6598 8.27386C28.7278 8.08298 28.8338 7.90676 28.9718 7.75526C29.1098 7.60377 29.2771 7.47997 29.4641 7.39094C29.6511 7.3019 29.8541 7.24937 30.0616 7.23634C30.2692 7.22331 30.4771 7.25005 30.6736 7.31501C30.87 7.37998 31.0512 7.48191 31.2066 7.61498C32.1309 8.40595 33.0378 9.24054 33.9021 10.0959C34.0473 10.2395 34.1617 10.4095 34.2389 10.5964C34.3161 10.7832 34.3545 10.9832 34.3519 11.1848C34.3493 11.3864 34.3058 11.5858 34.2238 11.7715C34.1419 11.9572 34.0231 12.1256 33.8743 12.2672Z" fill="#151A2C"/>
</svg>
