<svg width="27" height="27" viewBox="0 0 27 27" fill="none" xmlns="http://www.w3.org/2000/svg">
<path d="M26.3363 0.771286L26.3366 0.771559C26.4825 0.917673 26.5822 1.10343 26.6234 1.30575C26.6646 1.50795 26.6455 1.7178 26.5685 1.90925C26.5685 1.90936 26.5685 1.90946 26.5684 1.90957L17.215 25.2924L17.215 25.2924C17.1154 25.541 16.9492 25.7574 16.7347 25.9177C16.5201 26.0779 16.2655 26.1759 15.9988 26.2008C15.7322 26.2257 15.4638 26.1765 15.2233 26.0587C14.9828 25.9409 14.7795 25.759 14.6357 25.5331L14.6357 25.533L9.55708 17.5508L1.57514 12.4724L26.3363 0.771286ZM26.3363 0.771286C26.1891 0.624288 26.0029 0.526943 25.8021 0.486048C25.5999 0.444852 25.39 0.463954 25.1985 0.540982C25.1985 0.541013 25.1984 0.541045 25.1983 0.541076L1.81579 9.89119C1.56669 9.9905 1.34986 10.1567 1.18924 10.3714L1.38899 10.5208M26.3363 0.771286L1.38899 10.5208M1.38899 10.5208L1.18924 10.3714C1.02862 10.5862 0.930442 10.8411 0.905547 11.1082C0.880653 11.3752 0.930007 11.6439 1.04816 11.8846C1.16627 12.1252 1.34854 12.3286 1.57486 12.4722L1.38899 10.5208ZM22.704 5.89231L15.7295 23.3277L11.661 16.9353L22.704 5.89231ZM3.77874 11.3767L21.2165 4.40131L10.1726 15.4437L3.77874 11.3767Z" fill="" stroke="white" stroke-width="2"/>
</svg>
