<?xml version="1.0" standalone="no"?>
<!DOCTYPE svg PUBLIC "-//W3C//DTD SVG 1.1//EN" "http://www.w3.org/Graphics/SVG/1.1/DTD/svg11.dtd" >
<svg xmlns="http://www.w3.org/2000/svg" xmlns:xlink="http://www.w3.org/1999/xlink" version="1.1">
<metadata>
Created by FontForge 20170731 at Sun Aug 27 19:26:14 2017
 By Aleksey,,,
Copyright (c) 2017 by TypeType. Designer Ivan Gladkikh, technical designer Victoria Usmanova. All rights reserved.
</metadata>
<defs>
<font id="TTMussels-ExtraBold" horiz-adv-x="1150" >
  <font-face 
    font-family="TT Mussels ExtraBold"
    font-weight="800"
    font-stretch="normal"
    units-per-em="2048"
    panose-1="2 0 9 3 4 0 0 2 0 4"
    ascent="1638"
    descent="-410"
    x-height="1036"
    cap-height="1430"
    bbox="-338 -541 2945 1948"
    underline-thickness="0"
    underline-position="0"
    unicode-range="U+000D-FB06"
  />
<missing-glyph horiz-adv-x="0" 
 />
    <glyph glyph-name="uniFB00" unicode="ff" horiz-adv-x="1333" 
d="M1063 1036h192v-229h-192v-807h-340v807h-236v-807h-340v807h-127v229h127v224l170 170h426v-150l150 150h430v-250h-221l-39 -39v-105zM487 1141v-105h236v144h-197z" />
    <glyph glyph-name="uniFB01" unicode="fi" horiz-adv-x="1185" 
d="M487 1036h576v-1036h-340v807h-236v-807h-340v807h-127v229h127v224l170 170h406v-146l145 146h195v-250h-537l-39 -39v-105z" />
    <glyph glyph-name="uniFB02" unicode="fl" horiz-adv-x="1185" 
d="M868 1430h195v-1430h-340v807h-236v-807h-340v807h-127v229h127v224l170 170h406v-146zM526 1180l-39 -39v-105h236v144h-197z" />
    <glyph glyph-name="f_j.liga" unicode="fj" horiz-adv-x="1185" 
d="M487 1036h576v-1136l-293 -357l-254 219l207 244v801h-236v-807h-340v807h-127v229h127v224l170 170h406v-146l145 146h195v-250h-537l-39 -39v-105z" />
    <glyph glyph-name="f_k.liga" unicode="fk" horiz-adv-x="1720" 
d="M1710 0h-375l-205 426h-67v-426h-340v807h-236v-807h-340v807h-127v229h127v224l170 170h406v-146l145 146h195v-779h92l168 385h317l-235 -481zM526 1180l-39 -39v-105h236v144h-197z" />
    <glyph glyph-name=".notdef" horiz-adv-x="0" 
 />
    <glyph glyph-name="glyph1" horiz-adv-x="0" 
 />
    <glyph glyph-name="glyph1" horiz-adv-x="0" 
 />
    <glyph glyph-name="glyph2" horiz-adv-x="681" 
 />
    <glyph glyph-name="uni000D" unicode="&#xd;" horiz-adv-x="0" 
 />
    <glyph glyph-name="space" unicode=" " horiz-adv-x="440" 
 />
    <glyph glyph-name="exclam" unicode="!" horiz-adv-x="665" 
d="M154 1430h358v-910l-74 -74h-211l-73 74v910zM512 0h-358v311h358v-311z" />
    <glyph glyph-name="quotedbl" unicode="&#x22;" horiz-adv-x="874" 
d="M150 881l-58 57v492h287v-492l-57 -57h-172zM553 881l-57 57v492h286v-492l-57 -57h-172z" />
    <glyph glyph-name="numbersign" unicode="#" horiz-adv-x="1333" 
d="M305 831h-155v259h202l64 340h309l-66 -340h154l64 340h307l-64 -340h172v-259h-221l-43 -233h162v-258h-211l-61 -340h-308l64 340h-154l-63 -340h-307l63 340h-172v258h219zM770 840h-164l-45 -250h164z" />
    <glyph glyph-name="dollar" unicode="$" horiz-adv-x="1263" 
d="M471 -240v230h-233l-187 186l248 234l135 -131h324l45 45v198l-45 45h-441l-225 226v421l225 226h154v229h328v-229h188l187 -193l-265 -223l-123 127h-260l-45 -45v-201l45 -45h441l225 -225v-420l-225 -225h-168v-230h-328z" />
    <glyph glyph-name="percent" unicode="%" horiz-adv-x="1642" 
d="M1083 1430h265l-789 -1430h-264zM61 836v491l113 113h375l113 -113v-491l-113 -113h-375zM397 901l29 29v303l-29 29h-71l-29 -29v-303l29 -29h71zM981 102v492l113 113h374l113 -113v-492l-113 -112h-374zM1317 168l29 29v303l-29 28h-72l-28 -28v-303l28 -29h72z" />
    <glyph glyph-name="ampersand" unicode="&#x26;" horiz-adv-x="1361" 
d="M893 1024l-129 129h-189l-61 -61v-172l59 -60h758v-258h-178v-602h-256l-117 117l-116 -117h-336l-226 225v322q46 44 102 100q74 74 91 90l-170 164v313l225 226h629l184 -199zM764 602h-211l-61 -61v-193l61 -61h149l62 61v254z" />
    <glyph glyph-name="quotesingle" unicode="'" horiz-adv-x="471" 
d="M150 881l-58 57v492h287v-492l-57 -57h-172z" />
    <glyph glyph-name="parenleft" unicode="(" horiz-adv-x="743" 
d="M702 -393h-337l-222 221v1487l222 221h337v-215h-124l-76 -76v-1347l76 -76h124v-215z" />
    <glyph glyph-name="parenright" unicode=")" horiz-adv-x="743" 
d="M600 1315v-1487l-221 -221h-338v215h125l76 76v1347l-76 76h-125v215h338z" />
    <glyph glyph-name="asterisk" unicode="*" horiz-adv-x="954" 
d="M477 1528h119l-23 -248l218 104l81 -208l-247 -70l182 -191l-186 -131l-144 222l-143 -222l-187 131l183 191l-248 70l82 208l217 -104l-23 248h119z" />
    <glyph glyph-name="plus" unicode="+" horiz-adv-x="1064" 
d="M416 494h-324v233h324v344h233v-344h324v-233h-324v-344h-233v344z" />
    <glyph glyph-name="comma" unicode="," horiz-adv-x="481" 
d="M205 0h-144v311h359v-311l-72 -242h-143v242z" />
    <glyph glyph-name="hyphen" unicode="-" horiz-adv-x="886" 
d="M805 383h-723v307h723v-307z" />
    <glyph glyph-name="period" unicode="." horiz-adv-x="481" 
d="M420 0h-359v311h359v-311z" />
    <glyph glyph-name="slash" unicode="/" horiz-adv-x="942" 
d="M635 1536h307l-635 -1927h-307z" />
    <glyph glyph-name="zero" unicode="0" horiz-adv-x="1443" 
d="M358 -10l-225 225v999l225 226h727l226 -226v-999l-226 -225h-727zM522 592l400 489l-62 62h-276l-62 -62v-489zM922 838l-400 -490l62 -61h276l62 61v490z" />
    <glyph glyph-name="one" unicode="1" horiz-adv-x="960" 
d="M899 0h-776v297h194v836h-204v297h594v-1133h192v-297z" />
    <glyph glyph-name="two" unicode="2" horiz-adv-x="1181" 
d="M1110 0h-1067v297l641 627v157l-61 62h-179l-135 -135l-278 227l198 205h619l225 -226v-403l-530 -504v-10h567v-297z" />
    <glyph glyph-name="three" unicode="3" horiz-adv-x="1220" 
d="M1128 608v-393l-225 -225h-704l-189 188l258 246l148 -137h262l61 61v191l-61 61h-399v234l393 290v9h-566v297h981v-297l-382 -289v-10h198z" />
    <glyph glyph-name="four" unicode="4" horiz-adv-x="1230" 
d="M645 281h-625v290l605 859h409v-852h146v-297h-146v-281h-389v281zM592 905l-230 -336h297v482h-6z" />
    <glyph glyph-name="five" unicode="5" horiz-adv-x="1245" 
d="M1153 684v-469l-225 -225h-688l-189 188l268 236l142 -127h241l62 61v215l-62 62h-393l-178 178v627h963v-297h-574v-224h408z" />
    <glyph glyph-name="six" unicode="6" horiz-adv-x="1353" 
d="M133 215v999l225 226h719l164 -170l-244 -205l-104 109h-309l-62 -62v-262l82 82h422l225 -225v-492l-225 -225h-668zM584 256h217l61 61v291l-61 62h-217l-62 -62v-291z" />
    <glyph glyph-name="seven" unicode="7" horiz-adv-x="1165" 
d="M371 0v586l372 506v10h-303v-166h-379v494h920l184 -322l-405 -590v-518h-389z" />
    <glyph glyph-name="eight" unicode="8" horiz-adv-x="1361" 
d="M1260 215l-226 -225h-706l-226 225v334l189 182l-178 170v313l225 226h686l225 -226v-313l-178 -170l189 -182v-334zM870 543l-61 61h-256l-61 -61v-230l61 -61h256l61 61v230zM860 1116l-61 62h-236l-61 -62v-207l59 -59h240l59 59v207z" />
    <glyph glyph-name="nine" unicode="9" horiz-adv-x="1372" 
d="M1239 1214v-999l-225 -225h-748l-164 170l244 205l105 -109h337l62 61v263l-82 -82h-422l-225 225v491l225 226h668zM788 1174h-217l-61 -62v-291l61 -61h217l62 61v291z" />
    <glyph glyph-name="colon" unicode=":" horiz-adv-x="481" 
d="M420 725h-359v311h359v-311zM420 0h-359v311h359v-311z" />
    <glyph glyph-name="semicolon" unicode=";" horiz-adv-x="481" 
d="M420 725h-359v311h359v-311zM205 0h-144v311h359v-311l-72 -242h-143v242z" />
    <glyph glyph-name="less" unicode="&#x3c;" horiz-adv-x="1060" 
d="M958 0l-856 387v262l856 387v-264l-602 -252v-4l602 -252v-264z" />
    <glyph glyph-name="equal" unicode="=" horiz-adv-x="1062" 
d="M961 283h-859v227h859v-227zM961 696h-859v228h859v-228z" />
    <glyph glyph-name="greater" unicode="&#x3e;" horiz-adv-x="1060" 
d="M102 1036l856 -387v-262l-856 -387v264l603 252v4l-603 252v264z" />
    <glyph glyph-name="question" unicode="?" horiz-adv-x="1062" 
d="M0 1268l178 172h608l195 -195v-440l-195 -195h-133v-164h-358v267l143 143h137l48 47v193l-48 47h-215l-122 -111zM653 0h-358v311h358v-311z" />
    <glyph glyph-name="at" unicode="@" horiz-adv-x="1662" 
d="M317 -244l-174 174v1194l174 174h1049l174 -174v-837l-174 -174h-260l-111 120h-8l-110 -120h-238l-133 133v561l133 133h195l100 -104h10l68 104h157v-561l60 -53h35l41 41v684l-43 43h-840l-43 -43v-1047l43 -43h590v-205h-695zM772 727l-31 -31v-340l31 -30h102l60 53
v291l-62 57h-100z" />
    <glyph glyph-name="A" unicode="A" horiz-adv-x="1280" 
d="M1280 0h-430l-66 270h-348l-65 -270h-371l393 1430h461zM606 1073l-33 -176l-86 -336h252l-84 336l-28 176h-21z" />
    <glyph glyph-name="B" unicode="B" horiz-adv-x="1406" 
d="M154 1430h874l225 -226v-319l-143 -144l195 -194v-322l-226 -225h-925v1430zM864 909v193l-61 61h-260v-311h264zM915 328v213l-61 61h-311v-336h311z" />
    <glyph glyph-name="C" unicode="C" horiz-adv-x="1320" 
d="M1085 -10h-727l-225 225v999l225 226h715l207 -213l-281 -238l-151 154h-264l-62 -62v-733l62 -61h276l178 170l262 -252z" />
    <glyph glyph-name="D" unicode="D" horiz-adv-x="1460" 
d="M154 0v1430h948l225 -226v-979l-225 -225h-948zM877 297l61 61v713l-61 62h-334v-836h334z" />
    <glyph glyph-name="E" unicode="E" horiz-adv-x="1232" 
d="M1120 0h-966v1430h966v-297h-577v-271h510v-274h-510v-291h577v-297z" />
    <glyph glyph-name="F" unicode="F" horiz-adv-x="1200" 
d="M543 0h-389v1430h964v-312h-575v-327h506v-293h-506v-498z" />
    <glyph glyph-name="G" unicode="G" horiz-adv-x="1423" 
d="M999 1001l-139 142h-276l-62 -62v-733l62 -61h276l62 61v201h-209v266h598v-600l-226 -225h-727l-225 225v999l225 226h727l195 -201z" />
    <glyph glyph-name="H" unicode="H" horiz-adv-x="1460" 
d="M1307 0h-389v573h-375v-573h-389v1430h389v-529h375v529h389v-1430z" />
    <glyph glyph-name="I" unicode="I" horiz-adv-x="995" 
d="M893 0h-791v297h201v836h-201v297h791v-297h-201v-836h201v-297z" />
    <glyph glyph-name="J" unicode="J" horiz-adv-x="925" 
d="M557 0h-516v328h289l63 65v740h-229v297h618v-1205z" />
    <glyph glyph-name="K" unicode="K" horiz-adv-x="1368" 
d="M1368 0h-444l-246 569h-135v-569h-389v1430h389v-564h147l232 564h387l-305 -666z" />
    <glyph glyph-name="L" unicode="L" horiz-adv-x="1175" 
d="M543 328h592v-328h-981v1430h389v-1102z" />
    <glyph glyph-name="M" unicode="M" horiz-adv-x="1849" 
d="M154 0v1430h524l203 -750l39 -180h14l37 180l205 750h520v-1430h-389v862h-17l-35 -186l-202 -676h-301l-213 676l-35 186h-17v-862h-333z" />
    <glyph glyph-name="N" unicode="N" horiz-adv-x="1462" 
d="M1309 1430v-1430h-512l-256 729l-35 172h-19v-901h-333v1430h512l256 -730l34 -172h19v902h334z" />
    <glyph glyph-name="O" unicode="O" horiz-adv-x="1443" 
d="M358 -10l-225 225v999l225 226h727l226 -226v-999l-226 -225h-727zM922 348v733l-62 62h-276l-62 -62v-733l62 -61h276z" />
    <glyph glyph-name="P" unicode="P" horiz-adv-x="1345" 
d="M154 1430h874l225 -226v-553l-225 -225h-403l-82 61v-487h-389v1430zM864 754v348l-61 61h-260v-471h260z" />
    <glyph glyph-name="Q" unicode="Q" horiz-adv-x="1456" 
d="M358 -10l-225 225v999l225 226h727l226 -226v-999l-226 -225h279v-297h-473q-63 101 -195 297h-338zM922 348v733l-62 62h-276l-62 -62v-733l62 -61h276z" />
    <glyph glyph-name="R" unicode="R" horiz-adv-x="1390" 
d="M1370 0h-426q-25 48 -117.5 221t-160.5 301h-125v-522h-389v1430h880l225 -226v-416l-225 -219zM807 788l61 62v252l-61 61h-266v-375h266z" />
    <glyph glyph-name="S" unicode="S" horiz-adv-x="1298" 
d="M944 1024l-123 123h-295l-45 -45v-197l45 -45h475l226 -225v-420l-226 -225h-763l-187 186l248 234l135 -127h359l45 45v194l-45 45h-476l-225 226v421l225 226h705l186 -193z" />
    <glyph glyph-name="T" unicode="T" horiz-adv-x="1224" 
d="M418 1102h-377v328h1143v-328h-377v-1102h-389v1102z" />
    <glyph glyph-name="U" unicode="U" horiz-adv-x="1402" 
d="M143 215v1215h389v-1082l62 -61h262l62 61v1082h342v-1215l-226 -225h-665z" />
    <glyph glyph-name="V" unicode="V" horiz-adv-x="1292" 
d="M676 360l31 172l202 898h373l-364 -1430h-531l-377 1430h428l191 -898l28 -172h19z" />
    <glyph glyph-name="W" unicode="W" horiz-adv-x="1904" 
d="M758 1430h467l118 -795l19 -178h24l21 178l127 795h340l-277 -1430h-503l-101 723l-14 186h-25l-20 -186l-127 -723h-512l-264 1430h422l112 -795l19 -178h22l23 178z" />
    <glyph glyph-name="X" unicode="X" horiz-adv-x="1257" 
d="M391 0h-401l424 735l-373 695h448l125 -261l50 -155h10l45 155l117 261h391l-373 -695l403 -735h-452l-143 274l-60 164h-10l-57 -164z" />
    <glyph glyph-name="Y" unicode="Y" horiz-adv-x="1257" 
d="M-20 1430h442l205 -525l32 -160h11l37 160l213 525h358l-434 -961v-469h-430v469z" />
    <glyph glyph-name="Z" unicode="Z" horiz-adv-x="1173" 
d="M664 1133h-580v297h917l142 -304l-633 -819v-10h623v-297h-961l-141 303l633 819v11z" />
    <glyph glyph-name="bracketleft" unicode="[" horiz-adv-x="774" 
d="M733 -391h-579v1927h579v-215h-221v-1497h221v-215z" />
    <glyph glyph-name="backslash" unicode="\" horiz-adv-x="942" 
d="M942 -391h-307l-635 1927h307z" />
    <glyph glyph-name="bracketright" unicode="]" horiz-adv-x="774" 
d="M41 1536h580v-1927h-580v215h221v1497h-221v215z" />
    <glyph glyph-name="asciicircum" unicode="^" horiz-adv-x="921" 
d="M41 799l291 631h258l291 -631h-254l-162 387h-8l-162 -387h-254z" />
    <glyph glyph-name="underscore" unicode="_" horiz-adv-x="739" 
d="M780 -326h-821v250h821v-250z" />
    <glyph glyph-name="grave" unicode="`" horiz-adv-x="739" 
d="M61 1475h414l203 -267h-275z" />
    <glyph glyph-name="a" unicode="a" horiz-adv-x="1103" 
d="M233 1047h578l170 -170v-877h-254l-76 129h-10l-170 -139h-250l-170 170v307l170 170h420v143l-41 41h-213l-92 -86l-201 164zM430 424l-39 -39v-131l39 -39h57l154 98v111h-211z" />
    <glyph glyph-name="b" unicode="b" 
d="M868 1047l170 -170v-717l-170 -170h-256l-170 139h-10l-76 -129h-254v1430h340v-517l140 134h286zM659 236l39 38v488l-39 39h-116l-101 -96v-373l150 -96h67z" />
    <glyph glyph-name="c" unicode="c" horiz-adv-x="1036" 
d="M752 692l-109 109h-172l-39 -39v-488l39 -38h186l121 118l238 -200l-164 -164h-590l-170 170v717l170 170h578l147 -156z" />
    <glyph glyph-name="d" unicode="d" 
d="M262 -10l-170 170v717l170 170h287l139 -134v517h340v-1430h-254l-76 129h-10l-170 -139h-256zM471 801l-39 -39v-488l39 -38h68l149 96v373l-100 96h-117z" />
    <glyph glyph-name="e" unicode="e" horiz-adv-x="1134" 
d="M471 215h256l100 98l205 -170l-153 -153h-617l-170 170v717l170 170h586l170 -170v-467h-586v-156zM432 596h246v186l-39 39h-168l-39 -39v-186z" />
    <glyph glyph-name="f" unicode="f" horiz-adv-x="757" 
d="M487 1036h193v-229h-193v-807h-340v807h-127v229h127v224l170 170h431v-250h-222l-39 -39v-105z" />
    <glyph glyph-name="g" unicode="g" horiz-adv-x="1130" 
d="M20 33l166 166h207v112h-141l-170 170v396l170 170h526l121 -121l82 110h98v-317h-131v-238l-170 -170h-141v-112h207l166 -166v-271l-166 -165h-658l-166 165v271zM451 831l-39 -38v-228l39 -39h129l38 39v228l-38 38h-129zM680 -51l-35 35h-260l-35 -35v-103l35 -34
h260l35 34v103z" />
    <glyph glyph-name="h" unicode="h" horiz-adv-x="1161" 
d="M1038 0h-340v762l-39 39h-67l-150 -96v-705h-340v1430h340v-523l170 140h256l170 -170v-877z" />
    <glyph glyph-name="i" unicode="i" horiz-adv-x="565" 
d="M442 0h-340v1036h340v-1036zM442 1163h-340v267h340v-267z" />
    <glyph glyph-name="j" unicode="j" horiz-adv-x="567" 
d="M104 6v1030h340v-1136l-292 -357l-254 219zM442 1163h-338v267h338v-267z" />
    <glyph glyph-name="k" unicode="k" horiz-adv-x="1099" 
d="M1090 0h-375l-205 426h-68v-426h-340v1430h340v-779h93l167 385h318l-236 -481z" />
    <glyph glyph-name="l" unicode="l" horiz-adv-x="565" 
d="M102 0v1430h340v-1430h-340z" />
    <glyph glyph-name="m" unicode="m" horiz-adv-x="1654" 
d="M1532 0h-340v762l-39 39h-66l-100 -80v-721h-340v762l-39 39h-67l-99 -80v-721h-340v1036h254l76 -114h10l140 125h241l133 -134h9l153 134h244l170 -170v-877z" />
    <glyph glyph-name="n" unicode="n" horiz-adv-x="1161" 
d="M1038 0h-340v762l-39 39h-67l-150 -96v-705h-340v1036h254l76 -129h10l170 140h256l170 -170v-877z" />
    <glyph glyph-name="o" unicode="o" horiz-adv-x="1165" 
d="M262 -10l-170 170v717l170 170h621l170 -170v-717l-170 -170h-621zM471 801l-39 -39v-488l39 -38h203l39 38v488l-39 39h-203z" />
    <glyph glyph-name="p" unicode="p" 
d="M868 1047l170 -170v-717l-170 -170h-286l-140 133v-512h-340v1425h254l76 -129h10l170 140h256zM659 236l39 38v488l-39 39h-67l-150 -96v-373l101 -96h116z" />
    <glyph glyph-name="q" unicode="q" 
d="M262 -10l-170 170v717l170 170h256l170 -140h10l76 129h254v-1425h-340v512l-139 -133h-287zM471 801l-39 -39v-488l39 -38h117l100 96v373l-149 96h-68z" />
    <glyph glyph-name="r" unicode="r" horiz-adv-x="856" 
d="M600 1036h205v-307h-246l-117 -88v-641h-340v1036h254l76 -129h10z" />
    <glyph glyph-name="s" unicode="s" horiz-adv-x="1048" 
d="M31 129l188 174l100 -94h269l39 39v125l-39 39h-350l-170 170v295l170 170h565l129 -125l-189 -179l-92 84h-205l-38 -39v-108l38 -39h351l170 -170v-311l-170 -170h-627z" />
    <glyph glyph-name="t" unicode="t" horiz-adv-x="792" 
d="M485 1036h197v-229h-197v-471l39 -39h176v-297h-385l-170 170v637h-125v229h125v88l181 179h159v-267z" />
    <glyph glyph-name="u" unicode="u" horiz-adv-x="1161" 
d="M102 1036h340v-762l39 -38h68l149 96v704h340v-1036h-254l-75 129h-11l-170 -139h-256l-170 170v876z" />
    <glyph glyph-name="v" unicode="v" horiz-adv-x="1007" 
d="M0 1036h352l162 -737h10l176 737h287l-268 -1036h-453z" />
    <glyph glyph-name="w" unicode="w" horiz-adv-x="1552" 
d="M602 1036h383l127 -717h12l121 717h277l-207 -1036h-430l-113 608h-8l-113 -608h-442l-199 1036h334l111 -717h12z" />
    <glyph glyph-name="x" unicode="x" horiz-adv-x="999" 
d="M463 305l-160 -305h-323l329 563l-284 473h370l113 -248h10l109 248h317l-262 -483l317 -553h-374l-150 305h-12z" />
    <glyph glyph-name="y" unicode="y" horiz-adv-x="1142" 
d="M432 -158h207l41 39v193l-96 -74h-312l-170 168v868h340v-751l39 -39h199v790h340v-1269l-168 -170h-606l-144 141l246 182z" />
    <glyph glyph-name="z" unicode="z" horiz-adv-x="1005" 
d="M147 0l-106 150l465 641h-416v245h748l106 -149l-465 -641h451v-246h-783z" />
    <glyph glyph-name="braceleft" unicode="{" horiz-adv-x="819" 
d="M778 -393h-338l-221 221v537l-158 127v155l158 127v541l221 221h338v-215h-125l-75 -76v-495l-230 -181l230 -180v-491l75 -76h125v-215z" />
    <glyph glyph-name="bar" unicode="|" horiz-adv-x="794" 
d="M559 -512h-323v2048h323v-2048z" />
    <glyph glyph-name="braceright" unicode="}" horiz-adv-x="819" 
d="M600 365v-537l-221 -221h-338v215h125l76 76v491l229 180l-229 181v495l-76 76h-125v215h338l221 -221v-541l158 -127v-155z" />
    <glyph glyph-name="asciitilde" unicode="~" horiz-adv-x="1050" 
d="M559 420l-145 127h-45l-27 -27v-110h-229v202l141 142h238l145 -127h45l27 26v111h229v-203l-141 -141h-238z" />
    <glyph glyph-name="uni00A0" unicode="&#xa0;" horiz-adv-x="440" 
 />
    <glyph glyph-name="exclamdown" unicode="&#xa1;" horiz-adv-x="665" 
d="M438 590l74 -74v-905h-358v905l73 74h211zM512 725h-358v311h358v-311z" />
    <glyph glyph-name="cent" unicode="&#xa2;" horiz-adv-x="1036" 
d="M678 -190h-238v180h-178l-170 170v717l170 170h178v180h238v-180h162l147 -156l-235 -199l-109 109h-172l-39 -39v-488l39 -38h186l121 118l238 -200l-164 -164h-174v-180z" />
    <glyph glyph-name="sterling" unicode="&#xa3;" horiz-adv-x="1169" 
d="M590 567v-270h528v-297h-1046v297h129v270h-129v246h129v412l215 215h528l160 -166l-270 -234l-101 103h-92l-51 -51v-279h293v-246h-293z" />
    <glyph glyph-name="currency" unicode="&#xa4;" horiz-adv-x="1306" 
d="M201 559h-150v238h150v643h788l225 -226v-430l-225 -225h-399v-110h387v-238h-387v-211h-389v211h-150v238h150v110zM825 858v275l-61 61h-174v-397h174z" />
    <glyph glyph-name="yen" unicode="&#xa5;" horiz-adv-x="1359" 
d="M31 1430h442l205 -525l33 -160h10l37 160l213 525h358l-242 -531h154v-213h-250l-53 -121h303v-213h-346v-352h-430v352h-348v213h305l-55 121h-250v213h153z" />
    <glyph glyph-name="brokenbar" unicode="&#xa6;" horiz-adv-x="794" 
d="M559 -512h-323v893h323v-893zM236 1536h323v-825h-323v825z" />
    <glyph glyph-name="section" unicode="&#xa7;" horiz-adv-x="1120" 
d="M850 1012l168 -168v-307l-144 -144l107 -106v-301l-168 -168h-598l-133 119l201 202l98 -88h248l39 39v117l-39 39h-359l-168 168v307l144 143l-107 107v301l168 168h561l133 -119l-200 -203l-99 88h-210l-39 -39v-116l39 -39h358zM416 539l39 -39h211l39 39v180l-39 39
h-211l-39 -39v-180z" />
    <glyph glyph-name="dieresis" unicode="&#xa8;" horiz-adv-x="790" 
d="M334 1214h-273v250h273v-250zM729 1214h-272v250h272v-250z" />
    <glyph glyph-name="copyright" unicode="&#xa9;" horiz-adv-x="1681" 
d="M909 502l78 71l164 -135l-111 -104h-374l-117 117v518l117 116h368l107 -102l-162 -133l-76 65h-86l-31 -30v-353l31 -30h92zM143 172v1085l183 183h1030l182 -183v-1085l-182 -182h-1030zM1247 195l53 53v934l-53 53h-813l-53 -53v-934l53 -53h813z" />
    <glyph glyph-name="ordfeminine" unicode="&#xaa;" horiz-adv-x="839" 
d="M301 1466l-86 -65l-137 151l117 95h450l123 -123v-668h-178l-68 94h-8l-133 -100h-197l-123 123v241l123 123h326v103l-27 26h-182zM346 1174l-27 -27v-90l27 -27h55l109 66v78h-164z" />
    <glyph glyph-name="guillemotleft" unicode="&#xab;" horiz-adv-x="968" 
d="M514 145h-281l-172 349l172 348h281l-186 -348zM637 145l-172 349l172 348h281l-187 -348l187 -349h-281z" />
    <glyph glyph-name="logicalnot" unicode="&#xac;" horiz-adv-x="1038" 
d="M682 580h-580v307h834v-471h-254v164z" />
    <glyph glyph-name="uni00AD" unicode="&#xad;" horiz-adv-x="886" 
d="M805 383h-723v307h723v-307z" />
    <glyph glyph-name="registered" unicode="&#xae;" horiz-adv-x="1331" 
d="M942 594h-203l-96 213h-20v-213h-183v575h365l90 -90v-174l-82 -74zM713 946v78l-21 20h-69v-118h69zM133 477v815l148 148h770l147 -148v-815l-147 -147h-770zM958 498l50 49v676l-50 49h-585l-49 -49v-676l49 -49h585z" />
    <glyph glyph-name="overscore" unicode="&#xaf;" horiz-adv-x="684" 
d="M623 1241h-562v203h562v-203z" />
    <glyph glyph-name="degree" unicode="&#xb0;" horiz-adv-x="722" 
d="M518 817h-313l-144 144v335l144 144h313l144 -144v-335zM328 1249l-41 -41v-159l41 -41h67l41 41v159l-41 41h-67z" />
    <glyph glyph-name="plusminus" unicode="&#xb1;" horiz-adv-x="1064" 
d="M973 47h-881v229h324v342h-324v234h324v344h233v-344h324v-234h-324v-342h324v-229z" />
    <glyph glyph-name="uni00B2" unicode="&#xb2;" horiz-adv-x="700" 
d="M649 860h-608v172l352 326v86l-28 29h-101l-84 -76l-149 139l112 109h363l119 -119v-236l-285 -254v-4h309v-172z" />
    <glyph glyph-name="uni00B3" unicode="&#xb3;" horiz-adv-x="694" 
d="M514 850h-399l-105 104l158 140l76 -72h129l28 29v94l-28 29h-219v137l211 147v4h-306v172h553v-172l-213 -147v-4h115l119 -119v-223z" />
    <glyph glyph-name="acute" unicode="&#xb4;" horiz-adv-x="739" 
d="M336 1208h-275l203 267h414z" />
    <glyph glyph-name="mu" unicode="&#xb5;" horiz-adv-x="1161" 
d="M442 -389h-340v1425h340v-751l39 -39h78l139 96v694h340v-1036h-254l-75 139h-11l-159 -139h-97v-389z" />
    <glyph glyph-name="paragraph" unicode="&#xb6;" horiz-adv-x="1107" 
d="M199 750l-138 137v405l138 138h417v-1614h-217v934h-200zM954 -184h-217v1614h217v-1614z" />
    <glyph glyph-name="middot" unicode="&#xb7;" horiz-adv-x="440" 
d="M393 373h-344v340h344v-340z" />
    <glyph glyph-name="cedilla" unicode="&#xb8;" horiz-adv-x="532" 
d="M303 -207h-203v115l82 92h135l-71 -84h149l76 -76v-168l-76 -75h-276l-58 53l115 102l37 -33h90l12 13v49z" />
    <glyph glyph-name="uni00B9" unicode="&#xb9;" horiz-adv-x="602" 
d="M582 860h-551v172h162v430h-130v172h361v-602h158v-172z" />
    <glyph glyph-name="ordmasculine" unicode="&#xba;" horiz-adv-x="831" 
d="M184 850l-123 123v551l123 123h463l123 -123v-551l-123 -123h-463zM346 1030h139l27 27v383l-27 26h-139l-27 -26v-383z" />
    <glyph glyph-name="guillemotright" unicode="&#xbb;" horiz-adv-x="968" 
d="M735 842l172 -348l-172 -349h-280l186 349l-186 348h280zM51 842h281l172 -348l-172 -349h-281l187 349z" />
    <glyph glyph-name="onequarter" unicode="&#xbc;" horiz-adv-x="1609" 
d="M1090 1430h264l-789 -1430h-264zM592 655h-551v172h162v430h-129v173h360v-603h158v-172zM1245 145h-348v172l334 457h246v-457h82v-172h-82v-145h-232v145zM1243 555l-168 -242h174v242h-6z" />
    <glyph glyph-name="onehalf" unicode="&#xbd;" horiz-adv-x="1689" 
d="M1090 1430h264l-789 -1430h-264zM592 655h-551v172h162v430h-129v173h360v-603h158v-172zM1628 0h-608v172l352 326v86l-29 28h-100l-84 -75l-149 139l112 108h363l119 -118v-236l-285 -254v-4h309v-172z" />
    <glyph glyph-name="threequarters" unicode="&#xbe;" horiz-adv-x="1644" 
d="M1124 1430h265l-789 -1430h-264zM1280 145h-348v172l334 457h245v-457h82v-172h-82v-145h-231v145zM1278 555l-168 -242h174v242h-6zM514 645h-399l-105 105l158 139l76 -72h129l28 29v94l-28 29h-219v137l211 147v4h-306v173h553v-173l-213 -147v-4h115l119 -119v-223z
" />
    <glyph glyph-name="questiondown" unicode="&#xbf;" horiz-adv-x="1021" 
d="M1042 -231l-178 -172h-608l-195 194v440l195 195h133v164h359v-266l-144 -144h-137l-47 -47v-192l47 -47h215l123 110zM389 1036h359v-311h-359v311z" />
    <glyph glyph-name="Agrave" unicode="&#xc0;" horiz-adv-x="1280" 
d="M1280 0h-430l-66 270h-348l-65 -270h-371l393 1430h461zM606 1073l-33 -176l-86 -336h252l-84 336l-28 176h-21zM133 1878h414l203 -266h-275z" />
    <glyph glyph-name="Aacute" unicode="&#xc1;" horiz-adv-x="1280" 
d="M1280 0h-430l-66 270h-348l-65 -270h-371l393 1430h461zM606 1073l-33 -176l-86 -336h252l-84 336l-28 176h-21zM770 1612h-274l202 266h414z" />
    <glyph glyph-name="Acircumflex" unicode="&#xc2;" horiz-adv-x="1280" 
d="M1280 0h-430l-66 270h-348l-65 -270h-371l393 1430h461zM606 1073l-33 -176l-86 -336h252l-84 336l-28 176h-21zM463 1878h344l197 -266h-263l-102 147h-8l-103 -147h-262z" />
    <glyph glyph-name="Atilde" unicode="&#xc3;" horiz-adv-x="1280" 
d="M1280 0h-430l-66 270h-348l-65 -270h-371l393 1430h461zM606 1073l-33 -176l-86 -336h252l-84 336l-28 176h-21zM637 1632l-111 90h-47l-22 -22v-74h-174v162l92 92h194l111 -90h47l23 22v74h174v-162l-93 -92h-194z" />
    <glyph glyph-name="Adieresis" unicode="&#xc4;" horiz-adv-x="1280" 
d="M1280 0h-430l-66 270h-348l-65 -270h-371l393 1430h461zM606 1073l-33 -176l-86 -336h252l-84 336l-28 176h-21zM557 1622h-272v250h272v-250zM952 1622h-272v250h272v-250z" />
    <glyph glyph-name="Aring" unicode="&#xc5;" horiz-adv-x="1280" 
d="M1280 0h-430l-66 270h-348l-65 -270h-371l393 1430h461zM606 1073l-33 -176l-86 -336h252l-84 336l-28 176h-21zM717 1948l104 -105v-182l-104 -105h-195l-104 105v182l104 105h195zM561 1780v-56l33 -32h51l33 32v56l-33 32h-51z" />
    <glyph glyph-name="AE" unicode="&#xc6;" horiz-adv-x="1581" 
d="M1468 0h-772v270h-262l-102 -270h-383l547 1430h972v-297h-383v-271h314v-274h-314v-291h383v-297zM682 1085l-43 -204l-111 -320h168v524h-14z" />
    <glyph glyph-name="Ccedilla" unicode="&#xc7;" horiz-adv-x="1320" 
d="M637 -10h-279l-225 225v999l225 226h715l207 -213l-281 -238l-151 154h-264l-62 -62v-733l62 -61h276l178 170l262 -252l-215 -215h-313l-61 -74h149l76 -76v-168l-76 -75h-276l-58 53l115 102l37 -33h90l12 13v49l-12 12h-203v115z" />
    <glyph glyph-name="Egrave" unicode="&#xc8;" horiz-adv-x="1232" 
d="M1120 0h-966v1430h966v-297h-577v-271h510v-274h-510v-291h577v-297zM190 1878h414l203 -266h-275z" />
    <glyph glyph-name="Eacute" unicode="&#xc9;" horiz-adv-x="1232" 
d="M1120 0h-966v1430h966v-297h-577v-271h510v-274h-510v-291h577v-297zM748 1612h-275l203 266h414z" />
    <glyph glyph-name="Ecircumflex" unicode="&#xca;" horiz-adv-x="1232" 
d="M1120 0h-966v1430h966v-297h-577v-271h510v-274h-510v-291h577v-297zM455 1878h344l196 -266h-262l-102 147h-8l-103 -147h-262z" />
    <glyph glyph-name="Edieresis" unicode="&#xcb;" horiz-adv-x="1232" 
d="M1120 0h-966v1430h966v-297h-577v-271h510v-274h-510v-291h577v-297zM580 1622h-273v250h273v-250zM975 1622h-273v250h273v-250z" />
    <glyph glyph-name="Igrave" unicode="&#xcc;" horiz-adv-x="993" 
d="M891 0h-791v297h201v836h-201v297h791v-297h-201v-836h201v-297zM20 1878h414l203 -266h-275z" />
    <glyph glyph-name="Iacute" unicode="&#xcd;" horiz-adv-x="987" 
d="M893 0h-791v297h201v836h-201v297h791v-297h-201v-836h201v-297zM625 1612h-275l203 266h414z" />
    <glyph glyph-name="Icircumflex" unicode="&#xce;" horiz-adv-x="995" 
d="M893 0h-791v297h201v836h-201v297h791v-297h-201v-836h201v-297zM326 1878h344l196 -266h-262l-102 147h-8l-103 -147h-262z" />
    <glyph glyph-name="Idieresis" unicode="&#xcf;" horiz-adv-x="995" 
d="M893 0h-791v297h201v836h-201v297h791v-297h-201v-836h201v-297zM438 1622h-272v250h272v-250zM834 1622h-273v250h273v-250z" />
    <glyph glyph-name="Eth" unicode="&#xd0;" horiz-adv-x="1474" 
d="M168 569h-148v287h148v574h948l225 -226v-979l-225 -225h-948v569zM891 297l61 61v713l-61 62h-334v-277h205v-287h-205v-272h334z" />
    <glyph glyph-name="Ntilde" unicode="&#xd1;" horiz-adv-x="1462" 
d="M1309 1430v-1430h-512l-256 729l-35 172h-19v-901h-333v1430h512l256 -730l34 -172h19v902h334zM762 1632l-111 90h-47l-22 -22v-74h-174v162l92 92h194l111 -90h47l22 22v74h175v-162l-93 -92h-194z" />
    <glyph glyph-name="Ograve" unicode="&#xd2;" horiz-adv-x="1443" 
d="M358 -10l-225 225v999l225 226h727l226 -226v-999l-226 -225h-727zM922 348v733l-62 62h-276l-62 -62v-733l62 -61h276zM244 1878h413l203 -266h-274z" />
    <glyph glyph-name="Oacute" unicode="&#xd3;" horiz-adv-x="1443" 
d="M358 -10l-225 225v999l225 226h727l226 -226v-999l-226 -225h-727zM922 348v733l-62 62h-276l-62 -62v-733l62 -61h276zM846 1612h-275l203 266h414z" />
    <glyph glyph-name="Ocircumflex" unicode="&#xd4;" horiz-adv-x="1443" 
d="M358 -10l-225 225v999l225 226h727l226 -226v-999l-226 -225h-727zM922 348v733l-62 62h-276l-62 -62v-733l62 -61h276zM547 1878h344l196 -266h-262l-102 147h-8l-103 -147h-262z" />
    <glyph glyph-name="Otilde" unicode="&#xd5;" horiz-adv-x="1443" 
d="M358 -10l-225 225v999l225 226h727l226 -226v-999l-226 -225h-727zM922 348v733l-62 62h-276l-62 -62v-733l62 -61h276zM754 1632l-111 90h-47l-23 -22v-74h-174v162l93 92h194l111 -90h47l22 22v74h174v-162l-92 -92h-194z" />
    <glyph glyph-name="Odieresis" unicode="&#xd6;" horiz-adv-x="1443" 
d="M358 -10l-225 225v999l225 226h727l226 -226v-999l-226 -225h-727zM922 348v733l-62 62h-276l-62 -62v-733l62 -61h276zM664 1622h-273v250h273v-250zM1059 1622h-273v250h273v-250z" />
    <glyph glyph-name="multiply" unicode="&#xd7;" horiz-adv-x="1056" 
d="M954 334l-161 -164l-265 272l-264 -272l-162 164l271 262l-271 264l162 164l264 -272l265 272l161 -164l-270 -264z" />
    <glyph glyph-name="Oslash" unicode="&#xd8;" horiz-adv-x="1445" 
d="M240 109l-107 106v999l225 226h664l78 131h254l-148 -252l105 -105v-999l-226 -225h-661l-78 -133h-254zM584 1143l-62 -62v-510l340 572h-278zM582 287h278l62 61v504z" />
    <glyph glyph-name="Ugrave" unicode="&#xd9;" horiz-adv-x="1402" 
d="M143 215v1215h389v-1082l62 -61h262l62 61v1082h342v-1215l-226 -225h-665zM227 1878h414l203 -266h-275z" />
    <glyph glyph-name="Uacute" unicode="&#xda;" horiz-adv-x="1402" 
d="M143 215v1215h389v-1082l62 -61h262l62 61v1082h342v-1215l-226 -225h-665zM821 1612h-274l203 266h413z" />
    <glyph glyph-name="Ucircumflex" unicode="&#xdb;" horiz-adv-x="1402" 
d="M143 215v1215h389v-1082l62 -61h262l62 61v1082h342v-1215l-226 -225h-665zM528 1878h344l197 -266h-262l-102 147h-9l-102 -147h-262z" />
    <glyph glyph-name="Udieresis" unicode="&#xdc;" horiz-adv-x="1402" 
d="M143 215v1215h389v-1082l62 -61h262l62 61v1082h342v-1215l-226 -225h-665zM651 1622h-272v250h272v-250zM1047 1622h-273v250h273v-250z" />
    <glyph glyph-name="Yacute" unicode="&#xdd;" horiz-adv-x="1257" 
d="M-20 1430h442l205 -525l32 -160h11l37 160l213 525h358l-434 -961v-469h-430v469zM750 1612h-275l203 266h414z" />
    <glyph glyph-name="Thorn" unicode="&#xde;" horiz-adv-x="1355" 
d="M543 1182h485l225 -226v-452l-225 -225h-485v-279h-389v1430h389v-248zM864 602v256l-61 62h-260v-379h260z" />
    <glyph glyph-name="germandbls" unicode="&#xdf;" horiz-adv-x="1185" 
d="M492 1219l-39 -39v-1180h-340v1270l170 170h548l170 -170v-412l-96 -92l168 -160v-438l-168 -168h-352v221h141l39 39v332l-39 39h-141v221h70l39 39v289l-39 39h-131z" />
    <glyph glyph-name="agrave" unicode="&#xe0;" horiz-adv-x="1103" 
d="M233 1047h578l170 -170v-877h-254l-76 129h-10l-170 -139h-250l-170 170v307l170 170h420v143l-41 41h-213l-92 -86l-201 164zM430 424l-39 -39v-131l39 -39h57l154 98v111h-211zM82 1475h414l202 -267h-274z" />
    <glyph glyph-name="aacute" unicode="&#xe1;" horiz-adv-x="1103" 
d="M233 1047h578l170 -170v-877h-254l-76 129h-10l-170 -139h-250l-170 170v307l170 170h420v143l-41 41h-213l-92 -86l-201 164zM430 424l-39 -39v-131l39 -39h57l154 98v111h-211zM678 1208h-275l203 267h414z" />
    <glyph glyph-name="acircumflex" unicode="&#xe2;" horiz-adv-x="1103" 
d="M233 1047h578l170 -170v-877h-254l-76 129h-10l-170 -139h-250l-170 170v307l170 170h420v143l-41 41h-213l-92 -86l-201 164zM430 424l-39 -39v-131l39 -39h57l154 98v111h-211zM379 1475h344l197 -267h-263l-102 148h-8l-103 -148h-262z" />
    <glyph glyph-name="atilde" unicode="&#xe3;" horiz-adv-x="1103" 
d="M233 1047h578l170 -170v-877h-254l-76 129h-10l-170 -139h-250l-170 170v307l170 170h420v143l-41 41h-213l-92 -86l-201 164zM430 424l-39 -39v-131l39 -39h57l154 98v111h-211zM584 1214l-111 91h-47l-23 -23v-74h-174v162l93 92h194l111 -90h47l22 23v73h174v-161
l-92 -93h-194z" />
    <glyph glyph-name="adieresis" unicode="&#xe4;" horiz-adv-x="1103" 
d="M233 1047h578l170 -170v-877h-254l-76 129h-10l-170 -139h-250l-170 170v307l170 170h420v143l-41 41h-213l-92 -86l-201 164zM430 424l-39 -39v-131l39 -39h57l154 98v111h-211zM481 1219h-272v249h272v-249zM877 1219h-273v249h273v-249z" />
    <glyph glyph-name="aring" unicode="&#xe5;" horiz-adv-x="1103" 
d="M233 1047h578l170 -170v-877h-254l-76 129h-10l-170 -139h-250l-170 170v307l170 170h420v143l-41 41h-213l-92 -86l-201 164zM430 424l-39 -39v-131l39 -39h57l154 98v111h-211zM647 1538l105 -104v-183l-105 -104h-194l-105 104v183l105 104h194zM492 1370v-55l32 -33
h51l33 33v55l-33 33h-51z" />
    <glyph glyph-name="ae" unicode="&#xe6;" horiz-adv-x="1597" 
d="M973 215h217l100 98l205 -170l-154 -153h-442l-127 127h-10l-127 -127h-414l-170 170v293l170 170h375v157l-41 41h-168l-92 -86l-201 164l139 148h412l117 -117h10l117 117h422l170 -170v-455h-547v-168zM430 422l-39 -39v-129l39 -39h125l41 41v166h-166zM934 608h219
v174l-39 39h-141l-39 -39v-174z" />
    <glyph glyph-name="ccedilla" unicode="&#xe7;" horiz-adv-x="1036" 
d="M606 -207h-203v115l72 82h-213l-170 170v717l170 170h578l147 -156l-235 -199l-109 109h-172l-39 -39v-488l39 -38h186l121 118l238 -200l-164 -164h-242l-61 -74h149l76 -76v-168l-76 -75h-276l-57 53l114 102l37 -33h90l12 13v49z" />
    <glyph glyph-name="egrave" unicode="&#xe8;" horiz-adv-x="1134" 
d="M471 215h256l100 98l205 -170l-153 -153h-617l-170 170v717l170 170h586l170 -170v-467h-586v-156zM432 596h246v186l-39 39h-168l-39 -39v-186zM90 1475h414l203 -267h-275z" />
    <glyph glyph-name="eacute" unicode="&#xe9;" horiz-adv-x="1134" 
d="M471 215h256l100 98l205 -170l-153 -153h-617l-170 170v717l170 170h586l170 -170v-467h-586v-156zM432 596h246v186l-39 39h-168l-39 -39v-186zM676 1208h-275l203 267h414z" />
    <glyph glyph-name="ecircumflex" unicode="&#xea;" horiz-adv-x="1134" 
d="M471 215h256l100 98l205 -170l-153 -153h-617l-170 170v717l170 170h586l170 -170v-467h-586v-156zM432 596h246v186l-39 39h-168l-39 -39v-186zM381 1475h344l197 -267h-263l-102 148h-8l-103 -148h-262z" />
    <glyph glyph-name="edieresis" unicode="&#xeb;" horiz-adv-x="1134" 
d="M471 215h256l100 98l205 -170l-153 -153h-617l-170 170v717l170 170h586l170 -170v-467h-586v-156zM432 596h246v186l-39 39h-168l-39 -39v-186zM508 1219h-272v249h272v-249zM903 1219h-272v249h272v-249z" />
    <glyph glyph-name="igrave" unicode="&#xec;" horiz-adv-x="571" 
d="M449 0h-340v1036h340v-1036zM-195 1475h414l203 -267h-275z" />
    <glyph glyph-name="iacute" unicode="&#xed;" horiz-adv-x="569" 
d="M442 0h-340v1036h340v-1036zM401 1208h-274l203 267h413z" />
    <glyph glyph-name="icircumflex" unicode="&#xee;" horiz-adv-x="573" 
d="M444 0h-340v1036h340v-1036zM104 1475h345l196 -267h-262l-102 148h-9l-102 -148h-262z" />
    <glyph glyph-name="idieresis" unicode="&#xef;" horiz-adv-x="565" 
d="M438 0h-340v1036h340v-1036zM211 1219h-272v249h272v-249zM606 1219h-272v249h272v-249z" />
    <glyph glyph-name="eth" unicode="&#xf0;" horiz-adv-x="1124" 
d="M455 991l-154 117l96 113l-110 90l182 225l119 -96l84 102l153 -119l-88 -104l264 -209v-950l-170 -170h-569l-170 170v600l170 170h311l89 -88v174l-113 86zM623 236l39 40v369l-39 39h-152l-39 -39v-369l39 -40h152z" />
    <glyph glyph-name="ntilde" unicode="&#xf1;" horiz-adv-x="1161" 
d="M1038 0h-340v762l-39 39h-67l-150 -96v-705h-340v1036h254l76 -129h10l170 140h256l170 -170v-877zM600 1214l-111 91h-47l-22 -23v-74h-174v162l92 92h194l111 -90h47l23 23v73h174v-161l-92 -93h-195z" />
    <glyph glyph-name="ograve" unicode="&#xf2;" horiz-adv-x="1165" 
d="M262 -10l-170 170v717l170 170h621l170 -170v-717l-170 -170h-621zM471 801l-39 -39v-488l39 -38h203l39 38v488l-39 39h-203zM92 1475h414l203 -267h-275z" />
    <glyph glyph-name="oacute" unicode="&#xf3;" horiz-adv-x="1165" 
d="M262 -10l-170 170v717l170 170h621l170 -170v-717l-170 -170h-621zM471 801l-39 -39v-488l39 -38h203l39 38v488l-39 39h-203zM698 1208h-274l203 267h413z" />
    <glyph glyph-name="ocircumflex" unicode="&#xf4;" horiz-adv-x="1165" 
d="M262 -10l-170 170v717l170 170h621l170 -170v-717l-170 -170h-621zM471 801l-39 -39v-488l39 -38h203l39 38v488l-39 39h-203zM397 1475h344l197 -267h-262l-103 148h-8l-102 -148h-262z" />
    <glyph glyph-name="otilde" unicode="&#xf5;" horiz-adv-x="1165" 
d="M262 -10l-170 170v717l170 170h621l170 -170v-717l-170 -170h-621zM471 801l-39 -39v-488l39 -38h203l39 38v488l-39 39h-203zM604 1214l-110 91h-48l-22 -23v-74h-174v162l92 92h195l110 -90h47l23 23v73h174v-161l-92 -93h-195z" />
    <glyph glyph-name="odieresis" unicode="&#xf6;" horiz-adv-x="1165" 
d="M262 -10l-170 170v717l170 170h621l170 -170v-717l-170 -170h-621zM471 801l-39 -39v-488l39 -38h203l39 38v488l-39 39h-203zM510 1219h-272v249h272v-249zM905 1219h-272v249h272v-249z" />
    <glyph glyph-name="divide" unicode="&#xf7;" horiz-adv-x="1058" 
d="M680 903h-301v250h301v-250zM967 492h-875v241h875v-241zM680 72h-301v250h301v-250z" />
    <glyph glyph-name="oslash" unicode="&#xf8;" horiz-adv-x="1179" 
d="M188 68l-90 92v717l170 170h527l69 112h223l-118 -192l90 -90v-717l-170 -170h-524l-70 -113h-223zM477 801l-39 -39v-311l217 350h-178zM502 236h178l39 38v310z" />
    <glyph glyph-name="ugrave" unicode="&#xf9;" horiz-adv-x="1161" 
d="M102 1036h340v-762l39 -38h68l149 96v704h340v-1036h-254l-75 129h-11l-170 -139h-256l-170 170v876zM94 1475h414l203 -267h-275z" />
    <glyph glyph-name="uacute" unicode="&#xfa;" horiz-adv-x="1161" 
d="M102 1036h340v-762l39 -38h68l149 96v704h340v-1036h-254l-75 129h-11l-170 -139h-256l-170 170v876zM688 1208h-274l202 267h414z" />
    <glyph glyph-name="ucircumflex" unicode="&#xfb;" horiz-adv-x="1161" 
d="M102 1036h340v-762l39 -38h68l149 96v704h340v-1036h-254l-75 129h-11l-170 -139h-256l-170 170v876zM397 1475h344l197 -267h-262l-103 148h-8l-102 -148h-262z" />
    <glyph glyph-name="udieresis" unicode="&#xfc;" horiz-adv-x="1161" 
d="M102 1036h340v-762l39 -38h68l149 96v704h340v-1036h-254l-75 129h-11l-170 -139h-256l-170 170v876zM510 1219h-272v249h272v-249zM905 1219h-272v249h272v-249z" />
    <glyph glyph-name="yacute" unicode="&#xfd;" horiz-adv-x="1142" 
d="M432 -158h207l41 39v193l-96 -74h-312l-170 168v868h340v-751l39 -39h199v790h340v-1269l-168 -170h-606l-144 141l246 182zM668 1208h-275l203 267h414z" />
    <glyph glyph-name="thorn" unicode="&#xfe;" 
d="M868 1047l170 -170v-717l-170 -170h-286l-140 133v-512h-340v1819h340v-523l170 140h256zM659 236l39 38v488l-39 39h-67l-150 -96v-373l101 -96h116z" />
    <glyph glyph-name="ydieresis" unicode="&#xff;" horiz-adv-x="1142" 
d="M432 -158h207l41 39v193l-96 -74h-312l-170 168v868h340v-751l39 -39h199v790h340v-1269l-168 -170h-606l-144 141l246 182zM498 1219h-273v249h273v-249zM893 1219h-272v249h272v-249z" />
    <glyph glyph-name="Amacron" unicode="&#x100;" horiz-adv-x="1280" 
d="M1280 0h-430l-66 270h-348l-65 -270h-371l393 1430h461zM606 1073l-33 -176l-86 -336h252l-84 336l-28 176h-21zM899 1653h-561v202h561v-202z" />
    <glyph glyph-name="amacron" unicode="&#x101;" horiz-adv-x="1103" 
d="M233 1047h578l170 -170v-877h-254l-76 129h-10l-170 -139h-250l-170 170v307l170 170h420v143l-41 41h-213l-92 -86l-201 164zM430 424l-39 -39v-131l39 -39h57l154 98v111h-211zM834 1237h-562v203h562v-203z" />
    <glyph glyph-name="Abreve" unicode="&#x102;" horiz-adv-x="1280" 
d="M1280 0h-430l-66 270h-348l-65 -270h-371l393 1430h461zM606 1073l-33 -176l-86 -336h252l-84 336l-28 176h-21zM334 1731v135h192v-56l25 -24h137l25 24v56h192v-135l-98 -99h-375z" />
    <glyph glyph-name="abreve" unicode="&#x103;" horiz-adv-x="1103" 
d="M233 1047h578l170 -170v-877h-254l-76 129h-10l-170 -139h-250l-170 170v307l170 170h420v143l-41 41h-213l-92 -86l-201 164zM430 424l-39 -39v-131l39 -39h57l154 98v111h-211zM246 1327v135h192v-55l25 -25h137l25 25v55h192v-135l-98 -98h-375z" />
    <glyph glyph-name="Aogonek" unicode="&#x104;" horiz-adv-x="1280" 
d="M1094 0h-244l-66 270h-348l-65 -270h-371l393 1430h461l426 -1430l-154 -139v-66l13 -12h180v-131h-272l-76 76v163zM606 1073l-33 -176l-86 -336h252l-84 336l-28 176h-21z" />
    <glyph glyph-name="aogonek" unicode="&#x105;" horiz-adv-x="1103" 
d="M672 -109l123 109h-68l-76 129h-10l-170 -139h-250l-170 170v307l170 170h420v143l-41 41h-213l-92 -86l-201 164l139 148h578l170 -170v-877l-154 -139v-66l13 -12h180v-131h-272l-76 76v163zM430 424l-39 -39v-131l39 -39h57l154 98v111h-211z" />
    <glyph glyph-name="Cacute" unicode="&#x106;" horiz-adv-x="1320" 
d="M1085 -10h-727l-225 225v999l225 226h715l207 -213l-281 -238l-151 154h-264l-62 -62v-733l62 -61h276l178 170l262 -252zM786 1612h-274l203 266h413z" />
    <glyph glyph-name="cacute" unicode="&#x107;" horiz-adv-x="1036" 
d="M752 692l-109 109h-172l-39 -39v-488l39 -38h186l121 118l238 -200l-164 -164h-590l-170 170v717l170 170h578l147 -156zM647 1208h-274l202 267h414z" />
    <glyph glyph-name="Ccircumflex" unicode="&#x108;" horiz-adv-x="1320" 
d="M1085 -10h-727l-225 225v999l225 226h715l207 -213l-281 -238l-151 154h-264l-62 -62v-733l62 -61h276l178 170l262 -252zM522 1878h344l197 -266h-262l-103 147h-8l-102 -147h-262z" />
    <glyph glyph-name="ccircumflex" unicode="&#x109;" horiz-adv-x="1036" 
d="M752 692l-109 109h-172l-39 -39v-488l39 -38h186l121 118l238 -200l-164 -164h-590l-170 170v717l170 170h578l147 -156zM348 1475h344l197 -267h-262l-103 148h-8l-102 -148h-262z" />
    <glyph glyph-name="Ccaron" unicode="&#x10c;" horiz-adv-x="1320" 
d="M1085 -10h-727l-225 225v999l225 226h715l207 -213l-281 -238l-151 154h-264l-62 -62v-733l62 -61h276l178 170l262 -252zM795 1878h262l-203 -266h-344l-203 266h262l109 -147h8z" />
    <glyph glyph-name="ccaron" unicode="&#x10d;" horiz-adv-x="1036" 
d="M752 692l-109 109h-172l-39 -39v-488l39 -38h186l121 118l238 -200l-164 -164h-590l-170 170v717l170 170h578l147 -156zM631 1475h262l-203 -267h-344l-203 267h263l108 -148h8z" />
    <glyph glyph-name="Dcaron" unicode="&#x10e;" horiz-adv-x="1460" 
d="M154 0v1430h948l225 -226v-979l-225 -225h-948zM877 297l61 61v713l-61 62h-334v-836h334zM797 1878h262l-203 -266h-344l-203 266h262l109 -147h8z" />
    <glyph glyph-name="dcaron" unicode="&#x10f;" horiz-adv-x="1368" 
d="M262 -10l-170 170v717l170 170h287l139 -134v517h340v-1430h-254l-76 129h-10l-170 -139h-256zM471 801l-39 -39v-488l39 -38h68l149 96v373l-100 96h-117zM1229 1200h-99v230h248v-230l-53 -180h-96v180z" />
    <glyph glyph-name="Dcroat" unicode="&#x110;" horiz-adv-x="1474" 
d="M168 569h-148v287h148v574h948l225 -226v-979l-225 -225h-948v569zM891 297l61 61v713l-61 62h-334v-277h205v-287h-205v-272h334z" />
    <glyph glyph-name="dslash" unicode="&#x111;" horiz-adv-x="1183" 
d="M653 1065h-239v246h239v119h340v-119h181v-246h-181v-1065h-254l-75 129h-11l-170 -139h-221l-170 170v612l170 170h252l139 -133v256zM471 696l-39 -39v-383l39 -38h43l139 86v278l-100 96h-82z" />
    <glyph glyph-name="Emacron" unicode="&#x112;" horiz-adv-x="1232" 
d="M1120 0h-966v1430h966v-297h-577v-271h510v-274h-510v-291h577v-297zM909 1653h-561v202h561v-202z" />
    <glyph glyph-name="emacron" unicode="&#x113;" horiz-adv-x="1134" 
d="M471 215h256l100 98l205 -170l-153 -153h-617l-170 170v717l170 170h586l170 -170v-467h-586v-156zM432 596h246v186l-39 39h-168l-39 -39v-186zM840 1237h-561v203h561v-203z" />
    <glyph glyph-name="Edotaccent" unicode="&#x116;" horiz-adv-x="1232" 
d="M1120 0h-966v1430h966v-297h-577v-271h510v-274h-510v-291h577v-297zM784 1612h-305v260h305v-260z" />
    <glyph glyph-name="edotaccent" unicode="&#x117;" horiz-adv-x="1134" 
d="M471 215h256l100 98l205 -170l-153 -153h-617l-170 170v717l170 170h586l170 -170v-467h-586v-156zM432 596h246v186l-39 39h-168l-39 -39v-186zM723 1198h-305v260h305v-260z" />
    <glyph glyph-name="Eogonek" unicode="&#x118;" horiz-adv-x="1232" 
d="M934 0h-780v1430h966v-297h-577v-271h510v-274h-510v-291h577v-297l-153 -139v-66l12 -12h180v-131h-272l-76 76v163z" />
    <glyph glyph-name="eogonek" unicode="&#x119;" horiz-adv-x="1134" 
d="M471 215h256l100 98l205 -170l-153 -153h-193l-141 -129v-66l12 -12h180v-131h-272l-76 76v163l111 99h-238l-170 170v717l170 170h586l170 -170v-467h-586v-156zM432 596h246v186l-39 39h-168l-39 -39v-186z" />
    <glyph glyph-name="Ecaron" unicode="&#x11a;" horiz-adv-x="1232" 
d="M1120 0h-966v1430h966v-297h-577v-271h510v-274h-510v-291h577v-297zM748 1878h262l-203 -266h-344l-203 266h262l109 -147h8z" />
    <glyph glyph-name="ecaron" unicode="&#x11b;" horiz-adv-x="1134" 
d="M471 215h256l100 98l205 -170l-153 -153h-617l-170 170v717l170 170h586l170 -170v-467h-586v-156zM432 596h246v186l-39 39h-168l-39 -39v-186zM666 1475h262l-203 -267h-344l-203 267h262l109 -148h8z" />
    <glyph glyph-name="Gbreve" unicode="&#x11e;" horiz-adv-x="1423" 
d="M999 1001l-139 142h-276l-62 -62v-733l62 -61h276l62 61v201h-209v266h598v-600l-226 -225h-727l-225 225v999l225 226h727l195 -201zM426 1731v135h192v-56l25 -24h137l25 24v56h192v-135l-98 -99h-375z" />
    <glyph glyph-name="gbreve" unicode="&#x11f;" horiz-adv-x="1130" 
d="M20 33l166 166h207v112h-141l-170 170v396l170 170h526l121 -121l82 110h98v-317h-131v-238l-170 -170h-141v-112h207l166 -166v-271l-166 -165h-658l-166 165v271zM451 831l-39 -38v-228l39 -39h129l38 39v228l-38 38h-129zM680 -51l-35 35h-260l-35 -35v-103l35 -34
h260l35 34v103zM223 1327v135h193v-55l24 -25h138l24 25v55h193v-135l-99 -98h-374z" />
    <glyph glyph-name="uni0122" unicode="&#x122;" horiz-adv-x="1423" 
d="M999 1001l-139 142h-276l-62 -62v-733l62 -61h276l62 61v201h-209v266h598v-600l-226 -225h-727l-225 225v999l225 226h727l195 -201zM690 -352h-98v229h248v-229l-54 -180h-96v180z" />
    <glyph glyph-name="uni0123" unicode="&#x123;" horiz-adv-x="1130" 
d="M547 1413h98v-229h-248v229l54 180h96v-180zM20 33l166 166h207v112h-141l-170 170v396l170 170h526l121 -121l82 110h98v-317h-131v-238l-170 -170h-141v-112h207l166 -166v-271l-166 -165h-658l-166 165v271zM451 831l-39 -38v-228l39 -39h129l38 39v228l-38 38h-129z
M680 -51l-35 35h-260l-35 -35v-103l35 -34h260l35 34v103z" />
    <glyph glyph-name="Imacron" unicode="&#x12a;" horiz-adv-x="995" 
d="M893 0h-791v297h201v836h-201v297h791v-297h-201v-836h201v-297zM780 1653h-561v202h561v-202z" />
    <glyph glyph-name="imacron" unicode="&#x12b;" horiz-adv-x="561" 
d="M551 1237h-561v203h561v-203zM436 0h-340v1036h340v-1036z" />
    <glyph glyph-name="Iogonek" unicode="&#x12e;" horiz-adv-x="993" 
d="M707 0h-605v297h201v836h-201v297h791v-297h-201v-836h201v-297l-154 -139v-66l13 -12h180v-131h-273l-75 76v163z" />
    <glyph glyph-name="iogonek" unicode="&#x12f;" horiz-adv-x="563" 
d="M256 0h-154v1036h340v-1036l-153 -139v-66l12 -12h180v-131h-272l-76 76v163zM442 1163h-340v267h340v-267z" />
    <glyph glyph-name="Idot" unicode="&#x130;" horiz-adv-x="995" 
d="M893 0h-791v297h201v836h-201v297h791v-297h-201v-836h201v-297zM653 1612h-305v260h305v-260z" />
    <glyph glyph-name="dotlessi" unicode="&#x131;" horiz-adv-x="565" 
d="M442 0h-340v1036h340v-1036z" />
    <glyph glyph-name="uni0136" unicode="&#x136;" horiz-adv-x="1368" 
d="M1368 0h-444l-246 569h-135v-569h-389v1430h389v-564h147l232 564h387l-305 -666zM707 -352h-99v229h248v-229l-53 -180h-96v180z" />
    <glyph glyph-name="uni0137" unicode="&#x137;" horiz-adv-x="1099" 
d="M1090 0h-375l-205 426h-68v-426h-340v1430h340v-779h93l167 385h318l-236 -481zM528 -352h-98v229h248v-229l-53 -180h-97v180z" />
    <glyph glyph-name="Lacute" unicode="&#x139;" horiz-adv-x="1175" 
d="M543 328h592v-328h-981v1430h389v-1102zM487 1612h-274l203 266h413z" />
    <glyph glyph-name="lacute" unicode="&#x13a;" horiz-adv-x="561" 
d="M102 0v1430h340v-1430h-340zM403 1612h-274l203 266h413z" />
    <glyph glyph-name="uni013B" unicode="&#x13b;" horiz-adv-x="1175" 
d="M543 328h592v-328h-981v1430h389v-1102zM618 -352h-98v229h248v-229l-53 -180h-97v180z" />
    <glyph glyph-name="uni013C" unicode="&#x13c;" horiz-adv-x="565" 
d="M102 0v1430h340v-1430h-340zM246 -352h-99v229h248v-229l-53 -180h-96v180z" />
    <glyph glyph-name="Lcaron" unicode="&#x13d;" horiz-adv-x="1175" 
d="M543 328h592v-328h-981v1430h389v-1102zM817 1200h-98v230h248v-230l-54 -180h-96v180z" />
    <glyph glyph-name="lcaron" unicode="&#x13e;" horiz-adv-x="782" 
d="M102 0v1430h340v-1430h-340zM643 1200h-98v230h248v-230l-54 -180h-96v180z" />
    <glyph glyph-name="Lslash" unicode="&#x141;" horiz-adv-x="1185" 
d="M162 481l-142 -63v291l142 63v658h389v-490l240 109v-293l-240 -105v-323h594v-328h-983v481z" />
    <glyph glyph-name="lslash" unicode="&#x142;" horiz-adv-x="651" 
d="M141 815v615h340v-410l129 84v-283l-129 -84v-737h-340v532l-121 -73v280z" />
    <glyph glyph-name="Nacute" unicode="&#x143;" horiz-adv-x="1462" 
d="M1309 1430v-1430h-512l-256 729l-35 172h-19v-901h-333v1430h512l256 -730l34 -172h19v902h334zM842 1612h-275l203 266h414z" />
    <glyph glyph-name="nacute" unicode="&#x144;" horiz-adv-x="1161" 
d="M1038 0h-340v762l-39 39h-67l-150 -96v-705h-340v1036h254l76 -129h10l170 140h256l170 -170v-877zM676 1208h-275l203 267h414z" />
    <glyph glyph-name="uni0145" unicode="&#x145;" horiz-adv-x="1462" 
d="M1309 1430v-1430h-512l-256 729l-35 172h-19v-901h-333v1430h512l256 -730l34 -172h19v902h334zM702 -352h-98v229h248v-229l-53 -180h-97v180z" />
    <glyph glyph-name="uni0146" unicode="&#x146;" horiz-adv-x="1161" 
d="M1038 0h-340v762l-39 39h-67l-150 -96v-705h-340v1036h254l76 -129h10l170 140h256l170 -170v-877zM543 -352h-99v229h248v-229l-53 -180h-96v180z" />
    <glyph glyph-name="Ncaron" unicode="&#x147;" horiz-adv-x="1462" 
d="M1309 1430v-1430h-512l-256 729l-35 172h-19v-901h-333v1430h512l256 -730l34 -172h19v902h334zM840 1878h262l-203 -266h-344l-203 266h262l109 -147h8z" />
    <glyph glyph-name="ncaron" unicode="&#x148;" horiz-adv-x="1161" 
d="M1038 0h-340v762l-39 39h-67l-150 -96v-705h-340v1036h254l76 -129h10l170 140h256l170 -170v-877zM680 1475h262l-203 -267h-344l-202 267h262l108 -148h8z" />
    <glyph glyph-name="Omacron" unicode="&#x14c;" horiz-adv-x="1443" 
d="M358 -10l-225 225v999l225 226h727l226 -226v-999l-226 -225h-727zM922 348v733l-62 62h-276l-62 -62v-733l62 -61h276zM1004 1653h-562v202h562v-202z" />
    <glyph glyph-name="omacron" unicode="&#x14d;" horiz-adv-x="1165" 
d="M262 -10l-170 170v717l170 170h621l170 -170v-717l-170 -170h-621zM471 801l-39 -39v-488l39 -38h203l39 38v488l-39 39h-203zM852 1237h-561v203h561v-203z" />
    <glyph glyph-name="Ohungarumlaut" unicode="&#x150;" horiz-adv-x="1443" 
d="M358 -10l-225 225v999l225 226h727l226 -226v-999l-226 -225h-727zM922 348v733l-62 62h-276l-62 -62v-733l62 -61h276zM1042 1612h-221l189 266h301zM633 1612h-221l188 266h301z" />
    <glyph glyph-name="ohungarumlaut" unicode="&#x151;" horiz-adv-x="1161" 
d="M262 -10l-170 170v717l170 170h621l170 -170v-717l-170 -170h-621zM471 801l-39 -39v-488l39 -38h203l39 38v488l-39 39h-203zM872 1208h-221l189 267h301zM463 1208h-221l188 267h301z" />
    <glyph glyph-name="OE" unicode="&#x152;" horiz-adv-x="1652" 
d="M358 0l-225 225v979l225 226h1182v-297h-381v-273h314v-274h-314v-289h381v-297h-1182zM522 358l62 -61h186v836h-186l-62 -62v-713z" />
    <glyph glyph-name="oe" unicode="&#x153;" horiz-adv-x="1638" 
d="M1014 215h217l100 98l205 -170l-154 -153h-442l-127 127h-10l-127 -127h-414l-170 170v717l170 170h424l117 -117h10l117 117h422l170 -170v-455h-547v-168zM596 821h-125l-39 -39v-528l39 -39h125l41 41v524zM975 608h219v174l-39 39h-141l-39 -39v-174z" />
    <glyph glyph-name="Racute" unicode="&#x154;" horiz-adv-x="1392" 
d="M1372 0h-426q-25 48 -117.5 221t-160.5 301h-125v-522h-389v1430h880l226 -226v-416l-226 -219zM809 788l61 62v252l-61 61h-266v-375h266zM831 1612h-274l203 266h414z" />
    <glyph glyph-name="racute" unicode="&#x155;" horiz-adv-x="858" 
d="M600 1036h205v-307h-246l-117 -88v-641h-340v1036h254l76 -129h10zM578 1208h-275l203 267h414z" />
    <glyph glyph-name="uni0156" unicode="&#x156;" horiz-adv-x="1392" 
d="M1372 0h-426q-25 48 -117.5 221t-160.5 301h-125v-522h-389v1430h880l226 -226v-416l-226 -219zM809 788l61 62v252l-61 61h-266v-375h266zM684 -352h-98v229h248v-229l-54 -180h-96v180z" />
    <glyph glyph-name="uni0157" unicode="&#x157;" horiz-adv-x="856" 
d="M600 1036h205v-307h-246l-117 -88v-641h-340v1036h254l76 -129h10zM240 -352h-99v229h248v-229l-53 -180h-96v180z" />
    <glyph glyph-name="Rcaron" unicode="&#x158;" horiz-adv-x="1392" 
d="M1372 0h-426q-25 48 -117.5 221t-160.5 301h-125v-522h-389v1430h880l226 -226v-416l-226 -219zM809 788l61 62v252l-61 61h-266v-375h266zM809 1878h262l-203 -266h-344l-202 266h262l108 -147h8z" />
    <glyph glyph-name="rcaron" unicode="&#x159;" horiz-adv-x="862" 
d="M600 1036h205v-307h-246l-117 -88v-641h-340v1036h254l76 -129h10zM559 1475h262l-203 -267h-344l-202 267h262l108 -148h9z" />
    <glyph glyph-name="Sacute" unicode="&#x15a;" horiz-adv-x="1298" 
d="M944 1024l-123 123h-295l-45 -45v-197l45 -45h475l226 -225v-420l-226 -225h-763l-187 186l248 234l135 -127h359l45 45v194l-45 45h-476l-225 226v421l225 226h705l186 -193zM760 1612h-275l203 266h414z" />
    <glyph glyph-name="sacute" unicode="&#x15b;" horiz-adv-x="1048" 
d="M31 129l188 174l100 -94h269l39 39v125l-39 39h-350l-170 170v295l170 170h565l129 -125l-189 -179l-92 84h-205l-38 -39v-108l38 -39h351l170 -170v-311l-170 -170h-627zM604 1208h-274l202 267h414z" />
    <glyph glyph-name="Scedilla" unicode="&#x15e;" horiz-adv-x="1298" 
d="M684 -207h-203v115l72 82h-315l-187 186l248 234l135 -127h359l45 45v194l-45 45h-476l-225 226v421l225 226h705l186 -193l-264 -223l-123 123h-295l-45 -45v-197l45 -45h475l226 -225v-420l-226 -225h-313l-61 -74h149l76 -76v-168l-76 -75h-276l-58 53l115 102l37 -33
h90l12 13v49z" />
    <glyph glyph-name="scedilla" unicode="&#x15f;" horiz-adv-x="1048" 
d="M551 -207h-203v115l72 82h-250l-139 139l188 174l100 -94h269l39 39v125l-39 39h-350l-170 170v295l170 170h565l129 -125l-189 -179l-92 84h-205l-38 -39v-108l38 -39h351l170 -170v-311l-170 -170h-242l-61 -74h149l76 -76v-168l-76 -75h-276l-58 53l115 102l37 -33h90
l12 13v49z" />
    <glyph glyph-name="Scaron" unicode="&#x160;" horiz-adv-x="1298" 
d="M944 1024l-123 123h-295l-45 -45v-197l45 -45h475l226 -225v-420l-226 -225h-763l-187 186l248 234l135 -127h359l45 45v194l-45 45h-476l-225 226v421l225 226h705l186 -193zM758 1878h262l-203 -266h-344l-203 266h262l109 -147h8z" />
    <glyph glyph-name="scaron" unicode="&#x161;" horiz-adv-x="1048" 
d="M31 129l188 174l100 -94h269l39 39v125l-39 39h-350l-170 170v295l170 170h565l129 -125l-189 -179l-92 84h-205l-38 -39v-108l38 -39h351l170 -170v-311l-170 -170h-627zM610 1475h262l-202 -267h-344l-203 267h262l109 -148h8z" />
    <glyph glyph-name="uni0162" unicode="&#x162;" horiz-adv-x="1224" 
d="M418 1102h-377v328h1143v-328h-377v-1102h-389v1102zM588 -352h-99v229h248v-229l-53 -180h-96v180z" />
    <glyph glyph-name="uni0163" unicode="&#x163;" horiz-adv-x="792" 
d="M485 1036h197v-229h-197v-471l39 -39h176v-297h-385l-170 170v637h-125v229h125v88l181 179h159v-267zM422 -352h-98v229h247v-229l-53 -180h-96v180z" />
    <glyph glyph-name="Tcaron" unicode="&#x164;" horiz-adv-x="1224" 
d="M418 1102h-377v328h1143v-328h-377v-1102h-389v1102zM725 1878h262l-203 -266h-344l-202 266h262l108 -147h8z" />
    <glyph glyph-name="tcaron" unicode="&#x165;" horiz-adv-x="989" 
d="M485 1036h197v-229h-197v-471l39 -39h176v-297h-385l-170 170v637h-125v229h125v88l181 179h159v-267zM850 1073h-98v230h247v-230l-53 -180h-96v180z" />
    <glyph glyph-name="Umacron" unicode="&#x16a;" horiz-adv-x="1402" 
d="M143 215v1215h389v-1082l62 -61h262l62 61v1082h342v-1215l-226 -225h-665zM983 1653h-561v202h561v-202z" />
    <glyph glyph-name="umacron" unicode="&#x16b;" horiz-adv-x="1161" 
d="M102 1036h340v-762l39 -38h68l149 96v704h340v-1036h-254l-75 129h-11l-170 -139h-256l-170 170v876zM850 1237h-561v203h561v-203z" />
    <glyph glyph-name="Uring" unicode="&#x16e;" horiz-adv-x="1402" 
d="M143 215v1215h389v-1082l62 -61h262l62 61v1082h342v-1215l-226 -225h-665zM805 1948l104 -105v-182l-104 -105h-195l-104 105v182l104 105h195zM649 1780v-56l33 -32h51l33 32v56l-33 32h-51z" />
    <glyph glyph-name="uring" unicode="&#x16f;" horiz-adv-x="1161" 
d="M102 1036h340v-762l39 -38h68l149 96v704h340v-1036h-254l-75 129h-11l-170 -139h-256l-170 170v876zM666 1538l104 -104v-183l-104 -104h-195l-104 104v183l104 104h195zM510 1370v-55l33 -33h51l33 33v55l-33 33h-51z" />
    <glyph glyph-name="Uhungarumlaut" unicode="&#x170;" horiz-adv-x="1404" 
d="M143 215v1215h389v-1082l62 -61h262l62 61v1082h342v-1215l-226 -225h-665zM1004 1612h-222l189 266h301zM594 1612h-221l188 266h301z" />
    <glyph glyph-name="uhungarumlaut" unicode="&#x171;" horiz-adv-x="1159" 
d="M102 1036h340v-762l39 -38h68l149 96v704h340v-1036h-254l-75 129h-11l-170 -139h-256l-170 170v876zM850 1208h-221l188 267h301zM440 1208h-221l189 267h301z" />
    <glyph glyph-name="Uogonek" unicode="&#x172;" horiz-adv-x="1402" 
d="M143 215v1215h389v-1082l62 -61h262l62 61v1082h342v-1215l-226 -225h-215l-141 -129v-66l12 -12h180v-131h-272l-76 76v163l111 99h-264z" />
    <glyph glyph-name="uogonek" unicode="&#x173;" horiz-adv-x="1159" 
d="M729 -109l123 109h-68l-75 129h-11l-170 -139h-256l-170 170v876h340v-762l39 -38h68l149 96v704h340v-1036l-153 -139v-66l12 -12h180v-131h-272l-76 76v163z" />
    <glyph glyph-name="Ydieresis" unicode="&#x178;" horiz-adv-x="1257" 
d="M-20 1430h442l205 -525l32 -160h11l37 160l213 525h358l-434 -961v-469h-430v469zM567 1622h-272v250h272v-250zM963 1622h-273v250h273v-250z" />
    <glyph glyph-name="Zacute" unicode="&#x179;" horiz-adv-x="1173" 
d="M664 1133h-580v297h917l142 -304l-633 -819v-10h623v-297h-961l-141 303l633 819v11zM702 1612h-274l203 266h413z" />
    <glyph glyph-name="zacute" unicode="&#x17a;" horiz-adv-x="1005" 
d="M147 0l-106 150l465 641h-416v245h748l106 -149l-465 -641h451v-246h-783zM596 1208h-274l202 267h414z" />
    <glyph glyph-name="Zdotaccent" unicode="&#x17b;" horiz-adv-x="1173" 
d="M664 1133h-580v297h917l142 -304l-633 -819v-10h623v-297h-961l-141 303l633 819v11zM743 1612h-305v260h305v-260z" />
    <glyph glyph-name="zdotaccent" unicode="&#x17c;" horiz-adv-x="1005" 
d="M147 0l-106 150l465 641h-416v245h748l106 -149l-465 -641h451v-246h-783zM645 1198h-305v260h305v-260z" />
    <glyph glyph-name="Zcaron" unicode="&#x17d;" horiz-adv-x="1173" 
d="M664 1133h-580v297h917l142 -304l-633 -819v-10h623v-297h-961l-141 303l633 819v11zM696 1878h262l-202 -266h-344l-203 266h262l109 -147h8z" />
    <glyph glyph-name="zcaron" unicode="&#x17e;" horiz-adv-x="1005" 
d="M147 0l-106 150l465 641h-416v245h748l106 -149l-465 -641h451v-246h-783zM604 1475h262l-202 -267h-345l-202 267h262l108 -148h9z" />
    <glyph glyph-name="florin" unicode="&#x192;" horiz-adv-x="915" 
d="M115 -139l45 39l125 886h-127l30 230h127l37 258l193 170h432l-35 -250h-223l-45 -39l-21 -139h195l-33 -230h-192l-142 -1005l-192 -170h-402l35 250h193z" />
    <glyph glyph-name="uni0218" unicode="&#x218;" horiz-adv-x="1298" 
d="M944 1024l-123 123h-295l-45 -45v-197l45 -45h475l226 -225v-420l-226 -225h-763l-187 186l248 234l135 -127h359l45 45v194l-45 45h-476l-225 226v421l225 226h705l186 -193zM635 -352h-98v229h247v-229l-53 -180h-96v180z" />
    <glyph glyph-name="uni0219" unicode="&#x219;" horiz-adv-x="1048" 
d="M31 129l188 174l100 -94h269l39 39v125l-39 39h-350l-170 170v295l170 170h565l129 -125l-189 -179l-92 84h-205l-38 -39v-108l38 -39h351l170 -170v-311l-170 -170h-627zM473 -352h-98v229h248v-229l-54 -180h-96v180z" />
    <glyph glyph-name="uni021A" unicode="&#x21a;" horiz-adv-x="1224" 
d="M418 1102h-377v328h1143v-328h-377v-1102h-389v1102zM588 -352h-99v229h248v-229l-53 -180h-96v180z" />
    <glyph glyph-name="uni021B" unicode="&#x21b;" horiz-adv-x="792" 
d="M485 1036h197v-229h-197v-471l39 -39h176v-297h-385l-170 170v637h-125v229h125v88l181 179h159v-267zM422 -352h-98v229h247v-229l-53 -180h-96v180z" />
    <glyph glyph-name="uni02BC" unicode="&#x2bc;" horiz-adv-x="370" 
d="M160 1255h-99v230h248v-230l-53 -180h-96v180z" />
    <glyph glyph-name="circumflex" unicode="&#x2c6;" horiz-adv-x="860" 
d="M258 1475h344l197 -267h-262l-103 148h-8l-102 -148h-263z" />
    <glyph glyph-name="caron" unicode="&#x2c7;" horiz-adv-x="872" 
d="M549 1475h262l-203 -267h-344l-203 267h263l108 -148h8z" />
    <glyph glyph-name="breve" unicode="&#x2d8;" horiz-adv-x="694" 
d="M61 1311v135h193v-55l25 -25h137l24 25v55h193v-135l-98 -99h-375z" />
    <glyph glyph-name="dotaccent" unicode="&#x2d9;" horiz-adv-x="428" 
d="M367 1200h-306v260h306v-260z" />
    <glyph glyph-name="ring" unicode="&#x2da;" horiz-adv-x="526" 
d="M360 1554l105 -104v-182l-105 -105h-194l-105 105v182l105 104h194zM205 1386v-55l33 -33h51l33 33v55l-33 33h-51z" />
    <glyph glyph-name="ogonek" unicode="&#x2db;" horiz-adv-x="471" 
d="M61 -109l123 109h187l-154 -139v-66l12 -12h181v-131h-273l-76 76v163z" />
    <glyph glyph-name="tilde" unicode="&#x2dc;" horiz-adv-x="763" 
d="M416 1219l-111 90h-47l-22 -23v-74h-175v162l93 92h194l111 -90h47l22 23v74h174v-162l-92 -92h-194z" />
    <glyph glyph-name="hungarumlaut" unicode="&#x2dd;" horiz-adv-x="1021" 
d="M692 1208h-221l188 267h302zM283 1208h-222l189 267h301z" />
    <glyph glyph-name="uni0401" unicode="&#x401;" horiz-adv-x="1232" 
d="M1120 0h-966v1430h966v-297h-577v-271h510v-274h-510v-291h577v-297zM571 1595h-272v250h272v-250zM967 1595h-273v250h273v-250z" />
    <glyph glyph-name="uni0402" unicode="&#x402;" horiz-adv-x="1445" 
d="M301 1133h-301v297h1049v-297h-359v-273l82 62h346l225 -226v-626l-200 -312l-289 185l100 149v471l-61 62h-203v-625h-389v1133z" />
    <glyph glyph-name="uni0403" unicode="&#x403;" horiz-adv-x="1191" 
d="M780 1585h-274l203 266h413zM154 1430h997v-328h-608v-1102h-389v1430z" />
    <glyph glyph-name="uni0404" unicode="&#x404;" horiz-adv-x="1320" 
d="M1085 -10h-727l-225 225v999l225 226h715l207 -213l-281 -238l-151 154h-264l-62 -62v-217h355v-282h-355v-234l62 -61h276l178 170l262 -252z" />
    <glyph glyph-name="uni0405" unicode="&#x405;" horiz-adv-x="1298" 
d="M944 1024l-123 123h-295l-45 -45v-197l45 -45h475l226 -225v-420l-226 -225h-763l-187 186l248 234l135 -127h359l45 45v194l-45 45h-476l-225 226v421l225 226h705l186 -193z" />
    <glyph glyph-name="uni0406" unicode="&#x406;" horiz-adv-x="995" 
d="M893 0h-791v297h201v836h-201v297h791v-297h-201v-836h201v-297z" />
    <glyph glyph-name="uni0407" unicode="&#x407;" horiz-adv-x="997" 
d="M895 0h-793v297h201v836h-201v297h793v-297h-201v-836h201v-297zM436 1595h-272v250h272v-250zM831 1595h-272v250h272v-250z" />
    <glyph glyph-name="uni0408" unicode="&#x408;" horiz-adv-x="925" 
d="M557 0h-516v328h289l63 65v740h-229v297h618v-1205z" />
    <glyph glyph-name="uni0409" unicode="&#x409;" horiz-adv-x="1869" 
d="M117 389l47 47l98 994h889v-525l82 62h319l226 -226v-516l-226 -225h-790v1102h-168l-90 -905l-207 -207h-277v399h97zM1151 266h176l62 62v311l-62 61h-176v-434z" />
    <glyph glyph-name="uni040A" unicode="&#x40a;" horiz-adv-x="1959" 
d="M1642 0h-802v588h-297v-588h-389v1430h389v-517h297v517h389v-578l82 61h331l226 -225v-463zM1229 266h188l62 62v258l-62 61h-188v-381z" />
    <glyph glyph-name="uni040B" unicode="&#x40b;" horiz-adv-x="1445" 
d="M301 1133h-301v297h1049v-297h-359v-273l82 62h346l225 -226v-696h-389v563l-61 62h-203v-625h-389v1133z" />
    <glyph glyph-name="uni040C" unicode="&#x40c;" horiz-adv-x="1368" 
d="M1368 0h-444l-246 569h-135v-569h-389v1430h389v-564h147l232 564h387l-305 -666zM848 1585h-275l203 266h414z" />
    <glyph glyph-name="uni040E" unicode="&#x40e;" horiz-adv-x="1263" 
d="M293 1675v195h209v-62l26 -26h228l26 26v62h209v-195l-102 -102h-494zM795 0h-547v293h426l31 178h-474l-190 959h416l106 -666h187l98 666h375l-203 -1205z" />
    <glyph glyph-name="uni040F" unicode="&#x40f;" horiz-adv-x="1425" 
d="M907 -250h-389v250h-364v1427h389v-1099h340v1099h389v-1427h-365v-250z" />
    <glyph glyph-name="uni0410" unicode="&#x410;" horiz-adv-x="1280" 
d="M1280 0h-430l-66 270h-348l-65 -270h-371l393 1430h461zM606 1073l-33 -176l-86 -336h252l-84 336l-28 176h-21z" />
    <glyph glyph-name="uni0411" unicode="&#x411;" horiz-adv-x="1378" 
d="M1276 709v-484l-225 -225h-897v1430h1015v-293h-626v-265l82 62h426zM543 287h286l58 57v248l-58 55h-286v-360z" />
    <glyph glyph-name="uni0412" unicode="&#x412;" horiz-adv-x="1406" 
d="M154 1430h874l225 -226v-319l-143 -144l195 -194v-322l-226 -225h-925v1430zM864 909v193l-61 61h-260v-311h264zM915 328v213l-61 61h-311v-336h311z" />
    <glyph glyph-name="uni0413" unicode="&#x413;" horiz-adv-x="1191" 
d="M154 1430h997v-328h-608v-1102h-389v1430z" />
    <glyph glyph-name="uni0414" unicode="&#x414;" horiz-adv-x="1431" 
d="M389 -250h-389v547h100l64 65l112 1068h957v-1133h137v-547h-389v250h-592v-250zM604 1133l-80 -758l-88 -78h408v836h-240z" />
    <glyph glyph-name="uni0415" unicode="&#x415;" horiz-adv-x="1232" 
d="M1120 0h-966v1430h966v-297h-577v-271h510v-274h-510v-291h577v-297z" />
    <glyph glyph-name="uni0416" unicode="&#x416;" horiz-adv-x="1916" 
d="M764 569h-82l-238 -569h-444l358 764l-301 666h387l226 -564h94v564h389v-564h94l226 564h387l-301 -666l358 -764h-444l-238 569h-82v-569h-389v569z" />
    <glyph glyph-name="uni0417" unicode="&#x417;" horiz-adv-x="1245" 
d="M0 195l262 251l160 -159h270l62 61v168l-62 62h-252v290h222l57 58v155l-62 62h-225l-129 -131l-280 237l184 191h676l225 -226v-333l-154 -150l189 -184v-332l-225 -225h-717z" />
    <glyph glyph-name="uni0418" unicode="&#x418;" horiz-adv-x="1466" 
d="M872 711l-292 -711h-426v1430h389v-855h12l39 144l293 711h426v-1430h-389v854h-13z" />
    <glyph glyph-name="uni0419" unicode="&#x419;" horiz-adv-x="1466" 
d="M393 1675v195h209v-62l27 -26h227l27 26v62h209v-195l-103 -102h-493zM872 711l-292 -711h-426v1430h389v-855h12l39 144l293 711h426v-1430h-389v854h-13z" />
    <glyph glyph-name="uni041A" unicode="&#x41a;" horiz-adv-x="1368" 
d="M1368 0h-444l-246 569h-135v-569h-389v1430h389v-564h147l232 564h387l-305 -666z" />
    <glyph glyph-name="uni041B" unicode="&#x41b;" horiz-adv-x="1396" 
d="M117 389l47 47l98 994h981v-1430h-389v1102h-260l-92 -905l-207 -207h-275v399h97z" />
    <glyph glyph-name="uni041C" unicode="&#x41c;" horiz-adv-x="1849" 
d="M154 0v1430h524l203 -750l39 -180h14l37 180l205 750h520v-1430h-389v862h-17l-35 -186l-202 -676h-301l-213 676l-35 186h-17v-862h-333z" />
    <glyph glyph-name="uni041D" unicode="&#x41d;" horiz-adv-x="1460" 
d="M1307 0h-389v573h-375v-573h-389v1430h389v-529h375v529h389v-1430z" />
    <glyph glyph-name="uni041E" unicode="&#x41e;" horiz-adv-x="1443" 
d="M358 -10l-225 225v999l225 226h727l226 -226v-999l-226 -225h-727zM922 348v733l-62 62h-276l-62 -62v-733l62 -61h276z" />
    <glyph glyph-name="uni041F" unicode="&#x41f;" horiz-adv-x="1425" 
d="M1272 0h-389v1102h-340v-1102h-389v1430h1118v-1430z" />
    <glyph glyph-name="uni0420" unicode="&#x420;" horiz-adv-x="1345" 
d="M154 1430h874l225 -226v-553l-225 -225h-403l-82 61v-487h-389v1430zM864 754v348l-61 61h-260v-471h260z" />
    <glyph glyph-name="uni0421" unicode="&#x421;" horiz-adv-x="1320" 
d="M1085 -10h-727l-225 225v999l225 226h715l207 -213l-281 -238l-151 154h-264l-62 -62v-733l62 -61h276l178 170l262 -252z" />
    <glyph glyph-name="uni0422" unicode="&#x422;" horiz-adv-x="1224" 
d="M418 1102h-377v328h1143v-328h-377v-1102h-389v1102z" />
    <glyph glyph-name="uni0423" unicode="&#x423;" horiz-adv-x="1263" 
d="M795 0h-547v293h426l31 178h-474l-190 959h416l106 -666h187l98 666h375l-203 -1205z" />
    <glyph glyph-name="uni0424" unicode="&#x424;" horiz-adv-x="1839" 
d="M1106 1339h385l225 -225v-805l-225 -225h-385v-145h-375v145h-383l-225 225v805l225 225h383v150h375v-150zM481 985v-547l62 -61h188v670h-188zM1106 377h190l62 61v547l-62 62h-190v-670z" />
    <glyph glyph-name="uni0425" unicode="&#x425;" horiz-adv-x="1257" 
d="M391 0h-401l424 735l-373 695h448l125 -261l50 -155h10l45 155l117 261h391l-373 -695l403 -735h-452l-143 274l-60 164h-10l-57 -164z" />
    <glyph glyph-name="uni0426" unicode="&#x426;" horiz-adv-x="1478" 
d="M1417 -250h-389v250h-874v1430h389v-1102h338v1102h389v-1102h147v-578z" />
    <glyph glyph-name="uni0427" unicode="&#x427;" horiz-adv-x="1394" 
d="M358 438l-225 226v766h389v-623l62 -62h268v685h389v-1430h-389v500l-82 -62h-412z" />
    <glyph glyph-name="uni0428" unicode="&#x428;" horiz-adv-x="1929" 
d="M1776 0h-1622v1430h389v-1102h227v1102h389v-1102h227v1102h390v-1430z" />
    <glyph glyph-name="uni0429" unicode="&#x429;" horiz-adv-x="1984" 
d="M1534 0h-1380v1430h389v-1102h227v1102h389v-1102h227v1102h390v-1102h147v-578h-389v250z" />
    <glyph glyph-name="uni042A" unicode="&#x42a;" horiz-adv-x="1417" 
d="M268 1133h-268v297h657v-525l82 62h361l225 -226v-516l-225 -225h-832v1133zM657 266h217l62 62v311l-62 61h-217v-434z" />
    <glyph glyph-name="uni042B" unicode="&#x42b;" horiz-adv-x="1882" 
d="M1729 0h-390v1430h390v-1430zM154 0v1430h389v-525l82 62h333l226 -226v-516l-226 -225h-804zM543 266h190l62 62v311l-62 61h-190v-434z" />
    <glyph glyph-name="uni042C" unicode="&#x42c;" horiz-adv-x="1302" 
d="M154 0v1430h389v-525l82 62h360l225 -226v-516l-225 -225h-831zM543 266h217l61 62v311l-61 61h-217v-434z" />
    <glyph glyph-name="uni042D" unicode="&#x42d;" horiz-adv-x="1300" 
d="M1167 1214v-999l-225 -225h-727l-215 215l262 252l178 -170h277l61 61v234h-354v282h354v217l-61 62h-264l-152 -154l-281 238l207 213h715z" />
    <glyph glyph-name="uni042E" unicode="&#x42e;" horiz-adv-x="1916" 
d="M946 -10l-225 225v346h-178v-561h-389v1430h389v-545h178v329l225 226h613l225 -226v-999l-225 -225h-613zM1395 348v733l-62 62h-162l-61 -62v-733l61 -61h162z" />
    <glyph glyph-name="uni042F" unicode="&#x42f;" horiz-adv-x="1347" 
d="M805 506h-123l-242 -506h-409l303 553l-223 207v444l225 226h858v-1430h-389v506zM805 1163h-244l-61 -61v-268l61 -62h244v391z" />
    <glyph glyph-name="uni0430" unicode="&#x430;" horiz-adv-x="1103" 
d="M233 1047h578l170 -170v-877h-254l-76 129h-10l-170 -139h-250l-170 170v307l170 170h420v143l-41 41h-213l-92 -86l-201 164zM430 424l-39 -39v-131l39 -39h57l154 98v111h-211z" />
    <glyph glyph-name="uni0431" unicode="&#x431;" horiz-adv-x="1185" 
d="M727 1421l123 113l223 -205l-153 -153h-439l-39 -39v-232l88 88h363l170 -170v-663l-170 -170h-621l-170 170v1091l170 170h455zM481 748l-39 -39v-433l39 -40h203l39 40v433l-39 39h-203z" />
    <glyph glyph-name="uni0432" unicode="&#x432;" horiz-adv-x="1153" 
d="M102 0v1036h746l170 -170v-192l-131 -125l153 -143v-236l-170 -170h-768zM662 446h-220v-229h220l38 39v152zM639 819h-197v-192h197l39 39v114z" />
    <glyph glyph-name="uni0433" unicode="&#x433;" horiz-adv-x="894" 
d="M102 1036h752v-256h-412v-780h-340v1036z" />
    <glyph glyph-name="uni0434" unicode="&#x434;" horiz-adv-x="1153" 
d="M330 -203h-340v449h80l34 35l99 755h776v-790h113v-449h-340v203h-422v-203zM481 791l-55 -478l-74 -67h287v545h-158z" />
    <glyph glyph-name="uni0435" unicode="&#x435;" horiz-adv-x="1134" 
d="M471 215h256l100 98l205 -170l-153 -153h-617l-170 170v717l170 170h586l170 -170v-467h-586v-156zM432 596h246v186l-39 39h-168l-39 -39v-186z" />
    <glyph glyph-name="uni0436" unicode="&#x436;" horiz-adv-x="1589" 
d="M614 424h-57l-199 -424h-368l284 565l-231 471h322l170 -383h79v383h340v-383h80l170 383h322l-232 -471l285 -565h-369l-198 424h-58v-424h-340v424z" />
    <glyph glyph-name="uni0437" unicode="&#x437;" horiz-adv-x="1009" 
d="M229 727l-206 174l137 146h542l170 -170v-213l-129 -123l154 -144v-237l-170 -170h-580l-157 157l194 177l111 -109h223l39 39v123l-39 39h-199v209h177l36 37v120l-38 39h-170z" />
    <glyph glyph-name="uni0438" unicode="&#x438;" horiz-adv-x="1175" 
d="M1053 0h-340v553h-8l-263 -553h-340v1036h340v-553h9l262 553h340v-1036z" />
    <glyph glyph-name="uni0439" unicode="&#x439;" horiz-adv-x="1175" 
d="M293 1266v141h194v-55l25 -25h139l25 25v55h194v-141l-96 -97h-385zM1053 0h-340v553h-8l-263 -553h-340v1036h340v-553h9l262 553h340v-1036z" />
    <glyph glyph-name="uni043A" unicode="&#x43a;" horiz-adv-x="1114" 
d="M1104 0h-369l-198 424h-95v-424h-340v1036h340v-383h117l170 383h322l-232 -471z" />
    <glyph glyph-name="uni043B" unicode="&#x43b;" horiz-adv-x="1099" 
d="M221 -10h-231v350h100l35 35l78 661h774v-1036h-340v791h-156l-69 -611z" />
    <glyph glyph-name="uni043C" unicode="&#x43c;" horiz-adv-x="1452" 
d="M102 0v1036h469l150 -581h8l141 581h459v-1036h-340v567h-8l-154 -567h-262l-164 567h-8v-567h-291z" />
    <glyph glyph-name="uni043D" unicode="&#x43d;" horiz-adv-x="1155" 
d="M1032 0h-340v420h-250v-420h-340v1036h340v-370h250v370h340v-1036z" />
    <glyph glyph-name="uni043E" unicode="&#x43e;" horiz-adv-x="1165" 
d="M262 -10l-170 170v717l170 170h621l170 -170v-717l-170 -170h-621zM471 801l-39 -39v-488l39 -38h203l39 38v488l-39 39h-203z" />
    <glyph glyph-name="uni043F" unicode="&#x43f;" horiz-adv-x="1144" 
d="M1022 0h-340v791h-240v-791h-340v1036h920v-1036z" />
    <glyph glyph-name="uni0440" unicode="&#x440;" 
d="M868 1047l170 -170v-717l-170 -170h-286l-140 133v-512h-340v1425h254l76 -129h10l170 140h256zM659 236l39 38v488l-39 39h-67l-150 -96v-373l101 -96h116z" />
    <glyph glyph-name="uni0441" unicode="&#x441;" horiz-adv-x="1036" 
d="M752 692l-109 109h-172l-39 -39v-488l39 -38h186l121 118l238 -200l-164 -164h-590l-170 170v717l170 170h578l147 -156z" />
    <glyph glyph-name="uni0442" unicode="&#x442;" horiz-adv-x="944" 
d="M293 780h-283v256h903v-256h-280v-780h-340v780z" />
    <glyph glyph-name="uni0443" unicode="&#x443;" horiz-adv-x="1107" 
d="M1067 1036l-393 -1425h-289l109 389h-205l-269 1036h355l166 -743h22l193 743h311z" />
    <glyph glyph-name="uni0444" unicode="&#x444;" horiz-adv-x="1546" 
d="M500 1047l96 -74v457h334v-457l96 74h238l170 -170v-717l-170 -170h-238l-96 73v-452h-334v452l-96 -73h-238l-170 170v717l170 170h238zM1061 236l39 38v488l-39 39h-135v-565h135zM465 236h135v565h-135l-39 -39v-488z" />
    <glyph glyph-name="uni0445" unicode="&#x445;" horiz-adv-x="1019" 
d="M473 305l-160 -305h-323l329 563l-284 473h371l112 -248h10l109 248h317l-262 -483l318 -553h-375l-150 305h-12z" />
    <glyph glyph-name="uni0446" unicode="&#x446;" horiz-adv-x="1183" 
d="M1122 -203h-340v203h-680v1036h340v-790h230v790h340v-790h110v-449z" />
    <glyph glyph-name="uni0447" unicode="&#x447;" horiz-adv-x="1122" 
d="M82 1036h340v-461l39 -38h198v499h340v-1036h-340v365l-96 -74h-311l-170 170v575z" />
    <glyph glyph-name="uni0448" unicode="&#x448;" horiz-adv-x="1560" 
d="M1438 1036v-1036h-1336v1036h340v-790h158v790h340v-790h158v790h340z" />
    <glyph glyph-name="uni0449" unicode="&#x449;" horiz-adv-x="1609" 
d="M1548 -203h-340v203h-1106v1036h340v-790h158v790h340v-790h158v790h340v-790h110v-449z" />
    <glyph glyph-name="uni044A" unicode="&#x44a;" 
d="M180 791h-190v245h530v-377l96 72h283l170 -170v-391l-170 -170h-719v791zM690 510h-170v-289h170l39 39v211z" />
    <glyph glyph-name="uni044B" unicode="&#x44b;" horiz-adv-x="1548" 
d="M1085 1036h340v-1036h-340v1036zM102 0v1036h340v-377l97 72h266l170 -170v-391l-170 -170h-703zM596 510h-154v-289h154l39 39v211z" />
    <glyph glyph-name="uni044C" unicode="&#x44c;" horiz-adv-x="1073" 
d="M102 0v1036h340v-377l97 72h282l170 -170v-391l-170 -170h-719zM612 510h-170v-289h170l39 39v211z" />
    <glyph glyph-name="uni044D" unicode="&#x44d;" horiz-adv-x="1015" 
d="M563 762l-39 39h-162l-108 -109l-236 199l148 156h567l170 -170v-717l-170 -170h-579l-164 164l237 200l121 -118h176l39 38v140h-256v213h256v135z" />
    <glyph glyph-name="uni044E" unicode="&#x44e;" horiz-adv-x="1560" 
d="M743 -10l-170 170v256h-131v-416h-340v1036h340v-379h131v220l170 170h535l170 -170v-717l-170 -170h-535zM952 821l-39 -39v-528l39 -39h117l39 39v528l-39 39h-117z" />
    <glyph glyph-name="uni044F" unicode="&#x44f;" horiz-adv-x="1087" 
d="M377 0h-346l213 395l-185 166v305l170 170h736v-1036h-340v375h-72zM438 578h187v241h-187l-39 -39v-164z" />
    <glyph glyph-name="uni0451" unicode="&#x451;" horiz-adv-x="1134" 
d="M471 215h256l100 98l205 -170l-153 -153h-617l-170 170v717l170 170h586l170 -170v-467h-586v-156zM432 596h246v186l-39 39h-168l-39 -39v-186zM483 1163h-272v250h272v-250zM879 1163h-273v250h273v-250z" />
    <glyph glyph-name="uni0452" unicode="&#x452;" horiz-adv-x="1187" 
d="M1065 748v-723l-147 -238l-269 166l76 115v565l-39 39h-55l-99 -62v-610h-339v1053h-203v245h203v132h339v-132h275v-245h-275v-236l121 101h242z" />
    <glyph glyph-name="uni0453" unicode="&#x453;" horiz-adv-x="894" 
d="M604 1147h-274l202 266h414zM102 1036h752v-256h-412v-780h-340v1036z" />
    <glyph glyph-name="uni0454" unicode="&#x454;" horiz-adv-x="1026" 
d="M741 692l-108 109h-162l-39 -39v-135h256v-213h-256v-140l39 -38h176l121 118l238 -200l-164 -164h-580l-170 170v717l170 170h567l148 -156z" />
    <glyph glyph-name="uni0455" unicode="&#x455;" horiz-adv-x="1048" 
d="M31 129l188 174l100 -94h269l39 39v125l-39 39h-350l-170 170v295l170 170h565l129 -125l-189 -179l-92 84h-205l-38 -39v-108l38 -39h351l170 -170v-311l-170 -170h-627z" />
    <glyph glyph-name="uni0456" unicode="&#x456;" horiz-adv-x="565" 
d="M442 0h-340v1036h340v-1036zM442 1163h-340v267h340v-267z" />
    <glyph glyph-name="uni0457" unicode="&#x457;" horiz-adv-x="565" 
d="M438 0h-340v1036h340v-1036zM211 1163h-272v250h272v-250zM606 1163h-272v250h272v-250z" />
    <glyph glyph-name="uni0458" unicode="&#x458;" horiz-adv-x="557" 
d="M94 6v1030h340v-1136l-293 -357l-254 219zM434 1163h-340v267h340v-267z" />
    <glyph glyph-name="uni0459" unicode="&#x459;" horiz-adv-x="1568" 
d="M221 -10h-231v350h100l35 35l78 661h735v-377l96 72h283l170 -170v-391l-170 -170h-719v791h-117l-69 -611zM1108 510h-170v-289h170l39 39v211z" />
    <glyph glyph-name="uni045A" unicode="&#x45a;" horiz-adv-x="1587" 
d="M1335 0h-686v418h-207v-418h-340v1036h340v-372h207v372h340v-405l96 71h250l170 -170v-362zM1126 481h-137v-260h137l39 39v182z" />
    <glyph glyph-name="uni045B" unicode="&#x45b;" horiz-adv-x="1187" 
d="M1065 748v-748h-340v633l-39 39h-55l-99 -62v-610h-339v1053h-203v245h203v132h339v-132h275v-245h-275v-236l121 101h242z" />
    <glyph glyph-name="uni045C" unicode="&#x45c;" horiz-adv-x="1124" 
d="M715 1147h-275l203 266h414zM1104 0h-369l-198 424h-95v-424h-340v1036h340v-383h117l170 383h322l-232 -471z" />
    <glyph glyph-name="uni045E" unicode="&#x45e;" horiz-adv-x="1107" 
d="M252 1266v141h194v-55l25 -25h139l25 25v55h194v-141l-96 -97h-385zM1067 1036l-393 -1425h-289l109 389h-205l-269 1036h355l166 -743h22l193 743h311z" />
    <glyph glyph-name="uni045F" unicode="&#x45f;" horiz-adv-x="1146" 
d="M733 -203h-340v203h-291v1036h340v-788h242v788h340v-1036h-291v-203z" />
    <glyph glyph-name="uni0490" unicode="&#x490;" horiz-adv-x="1191" 
d="M793 1638h358v-536h-608v-1102h-389v1430h639v208z" />
    <glyph glyph-name="uni0491" unicode="&#x491;" horiz-adv-x="894" 
d="M537 1190h317v-399h-412v-791h-340v1036h435v154z" />
    <glyph glyph-name="uni1E9E" unicode="&#x1e9e;" horiz-adv-x="1388" 
d="M575 1163l-32 -33v-1130h-389v1266l163 164h773l129 -132l-267 -483v-4h152l192 -193v-423l-194 -195h-469v266h223l51 51v211l-49 50h-219v233l172 328l-23 24h-213z" />
    <glyph glyph-name="endash" unicode="&#x2013;" 
d="M1090 385h-1029v283h1029v-283z" />
    <glyph glyph-name="emdash" unicode="&#x2014;" horiz-adv-x="1734" 
d="M1673 385h-1612v283h1612v-283z" />
    <glyph glyph-name="quoteleft" unicode="&#x2018;" horiz-adv-x="481" 
d="M276 1188h144v-311h-359v311l72 242h143v-242z" />
    <glyph glyph-name="quoteright" unicode="&#x2019;" horiz-adv-x="481" 
d="M205 1118h-144v312h359v-312l-72 -241h-143v241z" />
    <glyph glyph-name="quotesinglbase" unicode="&#x201a;" horiz-adv-x="481" 
d="M205 0h-144v311h359v-311l-72 -242h-143v242z" />
    <glyph glyph-name="quotedblleft" unicode="&#x201c;" horiz-adv-x="890" 
d="M270 1188h133v-311h-342v311l72 242h137v-242zM696 1188h133v-311h-342v311l72 242h137v-242z" />
    <glyph glyph-name="quotedblright" unicode="&#x201d;" horiz-adv-x="890" 
d="M621 1118h-134v312h342v-312l-71 -241h-137v241zM195 1118h-134v312h342v-312l-71 -241h-137v241z" />
    <glyph glyph-name="quotedblbase" unicode="&#x201e;" horiz-adv-x="890" 
d="M621 0h-134v311h342v-311l-71 -242h-137v242zM195 0h-134v311h342v-311l-71 -242h-137v242z" />
    <glyph glyph-name="dagger" unicode="&#x2020;" horiz-adv-x="1118" 
d="M322 864h-261v316h261l104 -54l-29 99v311h324v-311l-29 -99l105 54h260v-316h-260l-88 54l12 -101v-1167l-162 -162l-162 162v1167l13 101z" />
    <glyph glyph-name="daggerdbl" unicode="&#x2021;" horiz-adv-x="1118" 
d="M322 96h-261v314h261l104 -54l-29 99v362l29 101l-104 -54h-261v316h261l104 -54l-29 99v311h324v-311l-29 -99l105 54h260v-316h-260l-105 54l29 -101v-362l-29 -99l105 54h260v-314h-260l-105 51l29 -100v-397l-162 -162l-162 162v397l29 100z" />
    <glyph glyph-name="bullet" unicode="&#x2022;" horiz-adv-x="886" 
d="M442 324l-278 278l278 281l281 -281z" />
    <glyph glyph-name="ellipsis" unicode="&#x2026;" horiz-adv-x="1497" 
d="M420 0h-359v311h359v-311zM928 0h-359v311h359v-311zM1436 0h-359v311h359v-311z" />
    <glyph glyph-name="perthousand" unicode="&#x2030;" horiz-adv-x="2295" 
d="M1083 1430h265l-789 -1430h-264zM61 836v491l113 113h375l113 -113v-491l-113 -113h-375zM397 901l29 29v303l-29 29h-71l-29 -29v-303l29 -29h71zM961 102v492l112 113h375l113 -113v-492l-113 -112h-375zM1296 168l29 29v303l-29 28h-71l-29 -28v-303l29 -29h71z
M1634 102v492l113 113h375l112 -113v-492l-112 -112h-375zM1970 168l29 29v303l-29 28h-72l-28 -28v-303l28 -29h72z" />
    <glyph glyph-name="guilsinglleft" unicode="&#x2039;" horiz-adv-x="581" 
d="M250 147l-199 349l199 348h280l-215 -348l215 -349h-280z" />
    <glyph glyph-name="guilsinglright" unicode="&#x203a;" horiz-adv-x="581" 
d="M51 844h281l198 -348l-198 -349h-281l215 349z" />
    <glyph glyph-name="fraction" unicode="&#x2044;" horiz-adv-x="376" 
d="M451 1430h264l-789 -1430h-264z" />
    <glyph glyph-name="uni2070" unicode="&#x2070;" horiz-adv-x="765" 
d="M180 1645h406l119 -119v-557l-119 -119h-406l-119 119v557zM322 1473l-29 -29v-254l180 254l-29 29h-122zM473 1305l-180 -254l29 -29h122l29 29v254z" />
    <glyph glyph-name="uni2074" unicode="&#x2074;" horiz-adv-x="681" 
d="M348 1006h-348v172l334 456h246v-456h82v-172h-82v-146h-232v146zM346 1415l-168 -241h174v241h-6z" />
    <glyph glyph-name="uni2075" unicode="&#x2075;" horiz-adv-x="704" 
d="M535 850h-400l-104 104l157 140l76 -72h129l29 29v104l-29 29h-217l-100 96v354h545v-172h-314v-119h228l118 -118v-256z" />
    <glyph glyph-name="uni2076" unicode="&#x2076;" horiz-adv-x="729" 
d="M584 1645l90 -86l-137 -129l-60 55h-155l-29 -29v-145l53 53h213l119 -119v-276l-119 -119h-379l-119 119v557l119 119h404zM322 1010h96l28 28v138l-28 28h-96l-29 -28v-138z" />
    <glyph glyph-name="uni2077" unicode="&#x2077;" horiz-adv-x="690" 
d="M481 1130v-270h-237v305l211 295v2h-162v-80h-232v252h535l104 -178z" />
    <glyph glyph-name="uni2078" unicode="&#x2078;" horiz-adv-x="737" 
d="M686 969l-119 -119h-397l-119 119v186l103 102l-99 99v170l119 119h389l119 -119v-170l-98 -99l102 -102v-186zM455 1155l-29 29h-115l-28 -29v-117l28 -28h115l29 28v117zM451 1456l-29 29h-107l-28 -29v-100l28 -29h107l29 29v100z" />
    <glyph glyph-name="uni2079" unicode="&#x2079;" horiz-adv-x="749" 
d="M141 850l-90 86l137 129l60 -55h180l29 28v146l-54 -54h-213l-118 119v277l118 119h379l119 -119v-557l-119 -119h-428zM428 1485h-96l-29 -29v-137l29 -29h96l29 29v137z" />
    <glyph glyph-name="uni2080" unicode="&#x2080;" horiz-adv-x="765" 
d="M180 580h406l119 -119v-557l-119 -119h-406l-119 119v557zM322 408l-29 -29v-254l180 254l-29 29h-122zM473 240l-180 -254l29 -29h122l29 29v254z" />
    <glyph glyph-name="uni2081" unicode="&#x2081;" horiz-adv-x="602" 
d="M582 -205h-551v172h162v430h-130v172h361v-602h158v-172z" />
    <glyph glyph-name="uni2082" unicode="&#x2082;" horiz-adv-x="700" 
d="M649 -205h-608v172l352 326v86l-28 29h-101l-84 -76l-149 139l112 109h363l119 -119v-236l-285 -254v-4h309v-172z" />
    <glyph glyph-name="uni2083" unicode="&#x2083;" horiz-adv-x="694" 
d="M514 -215h-399l-105 104l158 140l76 -72h129l28 29v94l-28 29h-219v137l211 147v4h-306v172h553v-172l-213 -147v-4h115l119 -119v-223z" />
    <glyph glyph-name="uni2084" unicode="&#x2084;" horiz-adv-x="681" 
d="M348 -59h-348v172l334 456h246v-456h82v-172h-82v-146h-232v146zM346 350l-168 -241h174v241h-6z" />
    <glyph glyph-name="uni2085" unicode="&#x2085;" horiz-adv-x="704" 
d="M535 -215h-400l-104 104l157 140l76 -72h129l29 29v104l-29 29h-217l-100 96v354h545v-172h-314v-118h228l118 -119v-256z" />
    <glyph glyph-name="uni2086" unicode="&#x2086;" horiz-adv-x="729" 
d="M584 580l90 -86l-137 -129l-60 55h-155l-29 -29v-145l53 53h213l119 -119v-276l-119 -119h-379l-119 119v557l119 119h404zM322 -55h96l28 28v138l-28 28h-96l-29 -28v-138z" />
    <glyph glyph-name="uni2087" unicode="&#x2087;" horiz-adv-x="690" 
d="M481 66v-271h-237v305l211 295v2h-162v-80h-232v252h535l104 -178z" />
    <glyph glyph-name="uni2088" unicode="&#x2088;" horiz-adv-x="737" 
d="M686 -96l-119 -119h-397l-119 119v186l103 103l-99 98v170l119 119h389l119 -119v-170l-98 -98l102 -103v-186zM455 90l-29 29h-115l-28 -29v-117l28 -28h115l29 28v117zM451 391l-29 29h-107l-28 -29v-100l28 -29h107l29 29v100z" />
    <glyph glyph-name="uni2089" unicode="&#x2089;" horiz-adv-x="749" 
d="M141 -215l-90 86l137 129l60 -55h180l29 28v146l-54 -53h-213l-118 118v277l118 119h379l119 -119v-557l-119 -119h-428zM428 420h-96l-29 -29v-137l29 -29h96l29 29v137z" />
    <glyph glyph-name="Euro" unicode="&#x20ac;" horiz-adv-x="1337" 
d="M1102 -10h-707l-225 225v268h-109v183h109v92h-109v182h109v274l225 226h695l206 -213l-280 -238l-152 154h-243l-62 -62v-141h318v-182h-318v-92h318v-183h-318v-135l62 -61h256l178 170l262 -252z" />
    <glyph glyph-name="uni20B4" unicode="&#x20b4;" horiz-adv-x="1159" 
d="M246 502h-107v164h834v-164h-385l-139 -191l18 -20h309l107 115l245 -222l-163 -184h-725l-199 227zM973 758h-834v164h398l143 196l-18 21h-232l-102 -111l-252 221l170 181h643l198 -228l-208 -280h94v-164z" />
    <glyph glyph-name="uni20BD" unicode="&#x20bd;" horiz-adv-x="1306" 
d="M201 559h-150v238h150v643h788l225 -226v-430l-225 -225h-399v-110h387v-238h-387v-211h-389v211h-150v238h150v110zM825 858v275l-61 61h-174v-397h174z" />
    <glyph glyph-name="uni2116" unicode="&#x2116;" horiz-adv-x="2097" 
d="M1225 1430v-1430h-518l-183 729l-24 193h-19v-922h-327v1430h518l182 -730l25 -192h18v922h328zM1999 406h-623v237h623v-237zM1890 1440l115 -115v-481l-115 -115h-405l-115 115v481l115 115h405zM1642 903h93l30 31v301l-30 31h-93l-30 -31v-301z" />
    <glyph glyph-name="trademark" unicode="&#x2122;" horiz-adv-x="1359" 
d="M156 1272h-156v158h512v-158h-156v-461h-200v461zM575 811v619h279l72 -283l14 -94h8l17 94l71 283h262v-619h-200v342h-8l-15 -80l-71 -262h-162l-84 262l-15 80h-8v-342h-160z" />
    <glyph glyph-name="minus" unicode="&#x2212;" horiz-adv-x="1064" 
d="M963 492h-861v235h861v-235z" />
    <glyph glyph-name="uniF6C3" unicode="&#xf6c3;" horiz-adv-x="370" 
d="M160 -360h-99v229h248v-229l-53 -181h-96v181z" />
    <glyph glyph-name="uniF6D1" unicode="&#xf6d1;" horiz-adv-x="821" 
d="M61 1675v195h209v-62l27 -26h227l27 26v62h209v-195l-103 -102h-493z" />
    <glyph glyph-name="uniF6D4" unicode="&#xf6d4;" horiz-adv-x="700" 
d="M61 1266v141h195v-55l25 -25h139l24 25v55h195v-141l-96 -97h-385z" />
    <glyph glyph-name="uniF6DE" unicode="&#xf6de;" horiz-adv-x="925" 
d="M557 0h-516v328h289l63 65v1037h389v-1205z" />
    <glyph glyph-name="uniF730" unicode="&#xf730;" horiz-adv-x="1128" 
d="M272 -10l-170 170v717l170 170h584l170 -170v-717l-170 -170h-584zM686 606l-244 -332l39 -38h166l39 38v332zM481 801l-39 -39v-332l244 332l-39 39h-166z" />
    <glyph glyph-name="uniF731" unicode="&#xf731;" horiz-adv-x="759" 
d="M719 0h-647v246h151v545h-137v245h477v-790h156v-246z" />
    <glyph glyph-name="uniF732" unicode="&#xf732;" horiz-adv-x="989" 
d="M918 0h-881v246l516 418v98l-39 39h-152l-108 -96l-223 208l135 134h557l170 -170v-289l-428 -336v-6h453v-246z" />
    <glyph glyph-name="uniF733" unicode="&#xf733;" horiz-adv-x="989" 
d="M928 276v-509l-170 -170h-645l-144 143l230 209l116 -107h234l39 39v285l-39 39h-373v241l369 338v7h-504v245h848v-245l-371 -338v-7h240z" />
    <glyph glyph-name="uniF734" unicode="&#xf734;" horiz-adv-x="1044" 
d="M545 0h-525v246l478 790h387v-790h119v-246h-119v-391h-340v391zM543 662l-230 -416h238v416h-8z" />
    <glyph glyph-name="uniF735" unicode="&#xf735;" horiz-adv-x="1050" 
d="M930 1036v-245h-498v-304h387l170 -170v-550l-170 -170h-645l-143 143l227 211l119 -109h233l39 39v326l-39 39h-340l-176 176v614h836z" />
    <glyph glyph-name="uniF736" unicode="&#xf736;" horiz-adv-x="1144" 
d="M1042 160l-170 -170h-589l-170 170v1100l170 170h598l145 -140l-225 -205l-103 99h-206l-39 -39v-314l86 87h333l170 -170v-588zM453 274l39 -38h172l38 38v359l-38 39h-172l-39 -39v-359z" />
    <glyph glyph-name="uniF737" unicode="&#xf737;" horiz-adv-x="1069" 
d="M336 -391v596l342 565v8h-297v-151h-340v409h825l183 -260l-373 -645v-522h-340z" />
    <glyph glyph-name="uniF738" unicode="&#xf738;" horiz-adv-x="1132" 
d="M1030 160l-170 -170h-588l-170 170v432l160 149l-153 148v381l170 170h575l170 -170v-381l-154 -148l160 -149v-432zM690 578l-39 38h-170l-39 -38v-304l39 -38h170l39 38v304zM684 1155l-39 39h-158l-38 -39v-258l38 -39h158l39 39v258z" />
    <glyph glyph-name="uniF739" unicode="&#xf739;" horiz-adv-x="1153" 
d="M111 877l170 170h589l170 -170v-1100l-170 -170h-632l-146 139l225 205l103 -98h242l38 38v314l-86 -86h-333l-170 170v588zM700 762l-38 39h-173l-38 -39v-359l38 -38h173l38 38v359z" />
    <glyph glyph-name="uniFB03" unicode="&#xfb03;" horiz-adv-x="1761" 
d="M1063 1036h575v-1036h-340v807h-235v-807h-340v807h-236v-807h-340v807h-127v229h127v224l170 170h426v-150l150 150h405v-146l146 146h194v-250h-536l-39 -39v-105zM487 1141v-105h236v144h-197z" />
    <glyph glyph-name="uniFB04" unicode="&#xfb04;" horiz-adv-x="1761" 
d="M1444 1430h194v-1430h-340v807h-235v-807h-340v807h-236v-807h-340v807h-127v229h127v224l170 170h426v-150l150 150h405v-146zM487 1141v-105h236v144h-197zM1063 1036h235v144h-196l-39 -39v-105z" />
    <glyph glyph-name="uniFB06" unicode="&#xfb06;" horiz-adv-x="1800" 
d="M1493 1036h197v-217h-197v-483l39 -39h176v-297h-385l-170 170v649h-182v111l-105 -113h-420l-38 -39v-98l38 -39h351l170 -170v-301l-170 -170h-627l-139 139l188 174l100 -94h269l39 39v115l-39 39h-350l-170 170v284l170 170h915v88l180 179h160v-267z" />
    <glyph glyph-name="uni0409.salt" horiz-adv-x="1859" 
d="M106 389l48 47l69 713l256 281h662v-525l82 62h319l225 -226v-516l-225 -225h-790v1102h-115l-57 -58l-86 -847l-207 -207h-277v399h96zM1141 266h176l61 62v311l-61 61h-176v-434z" />
    <glyph glyph-name="uni0459.salt" horiz-adv-x="1568" 
d="M221 -10h-231v350h100l35 35l55 461l207 200h551v-377l96 72h283l170 -170v-391l-170 -170h-719v791h-76l-45 -48l-65 -563zM1108 510h-170v-289h170l39 39v211z" />
    <glyph glyph-name="lslash.salt" horiz-adv-x="679" 
d="M170 1184h-180v246h520v-410l129 84v-283l-129 -84v-737h-340v532l-121 -73v280l121 76v369z" />
    <glyph glyph-name="glyph453" horiz-adv-x="1388" 
d="M575 1163l-32 -33v-1130h-389v1266l163 164h773l129 -132l-267 -483v-4h152l192 -193v-423l-194 -195h-469v266h223l51 51v211l-49 50h-219v233l172 328l-23 24h-213z" />
    <glyph glyph-name="agrave.salt" 
d="M774 1036h254v-1036h-254l-76 129h-10l-170 -139h-256l-170 170v717l170 170h256l170 -140h10zM471 801l-39 -39v-488l39 -38h68l149 96v373l-149 96h-68zM104 1475h414l203 -267h-275z" />
    <glyph glyph-name="aacute.salt" 
d="M774 1036h254v-1036h-254l-76 129h-10l-170 -139h-256l-170 170v717l170 170h256l170 -140h10zM471 801l-39 -39v-488l39 -38h68l149 96v373l-149 96h-68zM678 1208h-275l203 267h414z" />
    <glyph glyph-name="abreve.salt" 
d="M774 1036h254v-1036h-254l-76 129h-10l-170 -139h-256l-170 170v717l170 170h256l170 -140h10zM471 801l-39 -39v-488l39 -38h68l149 96v373l-149 96h-68zM281 1327v135h192v-55l25 -25h137l24 25v55h193v-135l-98 -98h-375z" />
    <glyph glyph-name="acircumflex.salt" 
d="M774 1036h254v-1036h-254l-76 129h-10l-170 -139h-256l-170 170v717l170 170h256l170 -140h10zM471 801l-39 -39v-488l39 -38h68l149 96v373l-149 96h-68zM389 1475h344l197 -267h-262l-103 148h-8l-102 -148h-262z" />
    <glyph glyph-name="adieresis.salt" 
d="M774 1036h254v-1036h-254l-76 129h-10l-170 -139h-256l-170 170v717l170 170h256l170 -140h10zM471 801l-39 -39v-488l39 -38h68l149 96v373l-149 96h-68zM494 1219h-273v249h273v-249zM889 1219h-273v249h273v-249z" />
    <glyph glyph-name="amacron.salt" 
d="M774 1036h254v-1036h-254l-76 129h-10l-170 -139h-256l-170 170v717l170 170h256l170 -140h10zM471 801l-39 -39v-488l39 -38h68l149 96v373l-149 96h-68zM842 1237h-561v203h561v-203z" />
    <glyph glyph-name="aring.salt" 
d="M774 1036h254v-1036h-254l-76 129h-10l-170 -139h-256l-170 170v717l170 170h256l170 -140h10zM471 801l-39 -39v-488l39 -38h68l149 96v373l-149 96h-68zM647 1538l105 -104v-183l-105 -104h-194l-105 104v183l105 104h194zM492 1370v-55l32 -33h51l33 33v55l-33 33h-51
z" />
    <glyph glyph-name="atilde.salt" 
d="M774 1036h254v-1036h-254l-76 129h-10l-170 -139h-256l-170 170v717l170 170h256l170 -140h10zM471 801l-39 -39v-488l39 -38h68l149 96v373l-149 96h-68zM582 1214l-111 91h-47l-23 -23v-74h-174v162l92 92h195l111 -90h47l22 23v73h174v-161l-92 -93h-194z" />
    <glyph glyph-name="lcaron.salt" horiz-adv-x="849" 
d="M170 1184h-180v246h520v-1430h-340v1184zM711 1200h-99v230h248v-230l-53 -180h-96v180z" />
    <glyph glyph-name="lacute.salt" horiz-adv-x="628" 
d="M172 1182h-182v248h520v-1430h-338v1182zM399 1612h-274l203 266h413z" />
    <glyph glyph-name="uni013C.salt" horiz-adv-x="632" 
d="M170 1184h-180v246h520v-1430h-340v1184zM313 -352h-98v229h248v-229l-53 -180h-97v180z" />
    <glyph glyph-name="Igrave.salt" horiz-adv-x="702" 
d="M549 1430v-1430h-389v1430h389zM-123 1878h414l203 -266h-275z" />
    <glyph glyph-name="Iacute.salt" horiz-adv-x="698" 
d="M543 1430v-1430h-389v1430h389zM479 1612h-274l203 266h413z" />
    <glyph glyph-name="Icircumflex.salt" horiz-adv-x="696" 
d="M543 1430v-1430h-389v1430h389zM176 1878h344l197 -266h-262l-103 147h-8l-102 -147h-262z" />
    <glyph glyph-name="Idieresis.salt" horiz-adv-x="688" 
d="M537 1430v-1430h-390v1430h390zM283 1622h-273v250h273v-250zM678 1622h-272v250h272v-250z" />
    <glyph glyph-name="Idotaccent.salt" horiz-adv-x="696" 
d="M543 1430v-1430h-389v1430h389zM500 1612h-305v260h305v-260z" />
    <glyph glyph-name="Imacron.salt" horiz-adv-x="704" 
d="M547 1430v-1430h-389v1430h389zM633 1653h-561v202h561v-202z" />
    <glyph glyph-name="uni0430.salt" 
d="M774 1036h254v-1036h-254l-76 129h-10l-170 -139h-256l-170 170v717l170 170h256l170 -140h10zM471 801l-39 -39v-488l39 -38h68l149 96v373l-149 96h-68z" />
    <glyph glyph-name="g.salt" 
d="M262 -10l-170 170v717l170 170h256l170 -140h10l76 129h254v-1269l-168 -170h-606l-143 141l245 182l84 -78h207l41 39v242l-139 -133h-287zM471 801l-39 -39v-488l39 -38h117l100 96v373l-149 96h-68z" />
    <glyph glyph-name="I.salt" horiz-adv-x="696" 
d="M543 1430v-1430h-389v1430h389z" />
    <glyph glyph-name="l.salt" horiz-adv-x="634" 
d="M182 1184h-182v246h522v-1430h-340v1184z" />
    <glyph glyph-name="zero.salt" horiz-adv-x="1443" 
d="M358 -10l-225 225v999l225 226h727l226 -226v-999l-226 -225h-727zM522 1081v-733l62 -61h276l62 61v733l-62 62h-276z" />
    <glyph glyph-name="one.salt" horiz-adv-x="864" 
d="M711 1430v-1430h-389v1051l-152 -107l-170 256l338 230h373z" />
    <glyph glyph-name="uni0414.salt" horiz-adv-x="1431" 
d="M389 -250h-389v547h100l64 65q1 9 86 795l264 273h719v-1133h137v-547h-389v250h-592v-250zM602 1092l-78 -717l-88 -78h408v836h-203z" />
    <glyph glyph-name="uni0434.salt" horiz-adv-x="1153" 
d="M338 -203h-348v449h80l34 35l72 553l203 202h600v-790h113v-449h-340v203h-414v-203zM477 754l-51 -441l-74 -67h287v545h-125z" />
    <glyph glyph-name="uni041B.salt" horiz-adv-x="1376" 
d="M106 389l48 47l69 713l256 281h744v-1430h-389v1102h-197l-57 -58l-86 -847l-207 -207h-277v399h96z" />
    <glyph glyph-name="uni043B.salt" horiz-adv-x="1101" 
d="M221 -10h-231v350h100l35 35l55 461l207 200h592v-1036h-340v791h-117l-45 -48l-65 -563z" />
    <glyph glyph-name="y.salt" horiz-adv-x="1107" 
d="M1067 1036l-393 -1425h-289l109 389h-205l-269 1036h355l166 -743h22l193 743h311z" />
    <glyph glyph-name="c_t.dlig" horiz-adv-x="1738" 
d="M901 905l-102 -114h-328l-39 -39v-467l39 -39h186l117 104l213 -213l-135 -137h-590l-170 170v696l170 170h830v88l180 179h160v-267h196v-245h-196v-455l38 -39h177v-297h-385l-170 170v621h-191v114z" />
    <glyph glyph-name="c_h.dlig" horiz-adv-x="2152" 
d="M735 707l-94 94h-170l-39 -39v-488l39 -38h186l121 118l238 -200l-164 -164h-590l-170 170v717l170 170h459v210l172 173h541v-523l170 140h256l170 -170v-877h-340v762l-39 39h-68l-149 -96v-705h-340v1225h-99l-41 -41v-293z" />
    <glyph glyph-name="c_k.dlig" horiz-adv-x="2091" 
d="M2081 0h-375l-205 426h-67v-426h-340v1225h-99l-41 -41v-293l-219 -184l-94 94h-170l-39 -39v-488l39 -38h186l121 118l238 -200l-164 -164h-590l-170 170v717l170 170h459v210l172 173h541v-779h92l168 385h317l-235 -481z" />
    <glyph glyph-name="Iogonek.salt" horiz-adv-x="694" 
d="M223 -109l123 109h-203v1430h389v-1430l-153 -139v-66l12 -12h180v-131h-272l-76 76v163z" />
    <glyph glyph-name="aogonek.salt" horiz-adv-x="1159" 
d="M719 -109l123 109h-68l-76 129h-10l-170 -139h-256l-170 170v717l170 170h256l170 -140h10l76 129h254v-1036l-154 -139v-66l13 -12h180v-131h-272l-76 76v163zM471 801l-39 -39v-488l39 -38h68l149 96v373l-149 96h-68z" />
    <glyph glyph-name="a.salt" 
d="M774 1036h254v-1036h-254l-76 129h-10l-170 -139h-256l-170 170v717l170 170h256l170 -140h10zM471 801l-39 -39v-488l39 -38h68l149 96v373l-149 96h-68z" />
    <glyph glyph-name="gbreve.salt" 
d="M262 -10l-170 170v717l170 170h256l170 -140h10l76 129h254v-1269l-168 -170h-606l-143 141l245 182l84 -78h207l41 39v242l-139 -133h-287zM471 801l-39 -39v-488l39 -38h117l100 96v373l-149 96h-68zM285 1327v135h192v-55l25 -25h137l25 25v55h192v-135l-98 -98h-375z
" />
    <glyph glyph-name="uni0123.salt" 
d="M262 -10l-170 170v717l170 170h256l170 -140h10l76 129h254v-1269l-168 -170h-606l-143 141l245 182l84 -78h207l41 39v242l-139 -133h-287zM471 801l-39 -39v-488l39 -38h117l100 96v373l-149 96h-68zM606 1413h99v-229h-248v229l53 180h96v-180z" />
    <glyph glyph-name="glyph492" horiz-adv-x="3149" 
d="M205 942h364v-63h-147v-408h-72v408h-145v63zM1063 811q65 0 112 -51q46 -50 46 -121q0 -75 -46 -124q-47 -50 -112 -50q-59 0 -96 43v-162h-70v459h49l19 -39q39 45 98 45zM1057 528q39 0 67.5 33t28.5 78q0 43 -28.5 74.5t-67.5 31.5t-67.5 -31.5t-28.5 -74.5
q0 -46 27.5 -78.5t68.5 -32.5zM592 805l90 -238l90 238h76l-158 -389q-33 -70 -100 -70q-11 0 -21 2v58q48 0 64 40l12 33l-129 326h76zM1323 761q47 50 113 50q65 0 110 -50q45 -49 45 -120l-2 -31h-243q4 -36 29.5 -60t60.5 -24q55 0 75 35h72q-18 -45 -58 -70.5
t-89 -25.5q-66 0 -113 50t-47 124q0 72 47 122zM1346 666h180q-2 34 -29.5 58t-60.5 24q-34 0 -60 -23t-30 -59zM1559 942h364v-63h-147v-408h-72v408h-145v63zM2417 811q65 0 112 -51q45 -51 45 -121q0 -75 -46 -124q-47 -50 -111 -50q-60 0 -97 43v-162h-69v459h49l18 -39
q40 45 99 45zM2410 528q40 0 68 33q29 34 29 78q0 43 -29 75q-28 31 -67 31q-40 0 -68 -31q-29 -32 -29 -75q0 -46 27.5 -78.5t68.5 -32.5zM1946 805l90 -238l90 238h76l-158 -389q-33 -70 -100 -70q-11 0 -21 2v58q48 0 64 40l12 33l-129 326h76zM2677 761q47 50 113 50
q65 0 110 -50q45 -49 45 -120l-2 -31h-244q4 -35 30 -59.5t60 -24.5q55 0 76 35h72q-18 -45 -57.5 -70.5t-90.5 -25.5q-65 0 -112 50t-47 124q0 72 47 122zM2699 666h180q-2 34 -29 58t-60 24q-34 0 -60.5 -23t-30.5 -59z" />
    <glyph glyph-name="J.salt" horiz-adv-x="925" 
d="M557 0h-516v328h289l63 65v1037h389v-1205z" />
    <glyph glyph-name="uni0407.salt" horiz-adv-x="688" 
d="M539 1430v-1430h-389v1430h389zM283 1595h-273v250h273v-250zM678 1595h-272v250h272v-250z" />
    <glyph glyph-name="uni0406.salt" horiz-adv-x="696" 
d="M543 1430v-1430h-389v1430h389z" />
    <glyph glyph-name="zero.tnum" horiz-adv-x="1249" 
d="M260 -10l-225 225v999l225 226h727l225 -226v-999l-225 -225h-727zM424 592l399 489l-61 62h-277l-61 -62v-489zM823 838l-399 -490l61 -61h277l61 61v490z" />
    <glyph glyph-name="one.tnum" horiz-adv-x="1249" 
d="M1141 0h-981v297h297v836h-307v297h696v-1133h295v-297z" />
    <glyph glyph-name="two.tnum" horiz-adv-x="1249" 
d="M1143 0h-1067v297l641 627v157l-62 62h-178l-135 -135l-279 227l199 205h619l225 -226v-403l-531 -504v-10h568v-297z" />
    <glyph glyph-name="three.tnum" horiz-adv-x="1249" 
d="M1143 608v-393l-225 -225h-705l-188 188l258 246l147 -137h262l62 61v191l-62 61h-399v234l393 290v9h-565v297h981v-297l-383 -289v-10h199z" />
    <glyph glyph-name="four.tnum" horiz-adv-x="1249" 
d="M670 281h-625v290l604 859h410v-852h145v-297h-145v-281h-389v281zM616 905l-229 -336h297v482h-6z" />
    <glyph glyph-name="five.tnum" horiz-adv-x="1249" 
d="M1155 684v-469l-225 -225h-688l-189 188l269 236l141 -127h242l61 61v215l-61 62h-394l-178 178v627h963v-297h-574v-224h408z" />
    <glyph glyph-name="six.tnum" horiz-adv-x="1249" 
d="M76 215v999l225 226h719l164 -170l-244 -205l-104 109h-310l-61 -62v-262l82 82h422l225 -225v-492l-225 -225h-668zM526 256h217l62 61v291l-62 62h-217l-61 -62v-291z" />
    <glyph glyph-name="seven.tnum" horiz-adv-x="1249" 
d="M414 0v586l372 506v10h-303v-166h-379v494h920l184 -322l-405 -590v-518h-389z" />
    <glyph glyph-name="eight.tnum" horiz-adv-x="1249" 
d="M1202 215l-225 -225h-707l-225 225v334l188 182l-178 170v313l226 226h686l225 -226v-313l-178 -170l188 -182v-334zM813 543l-61 61h-256l-62 -61v-230l62 -61h256l61 61v230zM803 1116l-62 62h-235l-62 -62v-207l60 -59h239l60 59v207z" />
    <glyph glyph-name="nine.tnum" horiz-adv-x="1249" 
d="M1184 1214v-999l-226 -225h-747l-164 170l244 205l104 -109h338l62 61v263l-82 -82h-422l-225 225v491l225 226h667zM733 1174h-217l-61 -62v-291l61 -61h217l62 61v291z" />
    <glyph glyph-name="zero.dnom" horiz-adv-x="765" 
d="M180 784h406l119 -118v-557l-119 -119h-406l-119 119v557zM322 612l-29 -28v-254l180 254l-29 28h-122zM473 444l-180 -254l29 -28h122l29 28v254z" />
    <glyph glyph-name="one.dnom" horiz-adv-x="602" 
d="M582 0h-551v172h162v430h-130v172h361v-602h158v-172z" />
    <glyph glyph-name="two.dnom" horiz-adv-x="700" 
d="M649 0h-608v172l352 326v86l-28 28h-101l-84 -75l-149 139l112 108h363l119 -118v-236l-285 -254v-4h309v-172z" />
    <glyph glyph-name="three.dnom" horiz-adv-x="694" 
d="M514 -10h-399l-105 104l158 139l76 -71h129l28 28v95l-28 28h-219v138l211 147v4h-306v172h553v-172l-213 -147v-4h115l119 -119v-223z" />
    <glyph glyph-name="four.dnom" horiz-adv-x="681" 
d="M348 145h-348v172l334 457h246v-457h82v-172h-82v-145h-232v145zM346 555l-168 -242h174v242h-6z" />
    <glyph glyph-name="five.dnom" horiz-adv-x="704" 
d="M535 -10h-400l-104 104l157 139l76 -71h129l29 28v105l-29 29h-217l-100 96v354h545v-172h-314v-119h228l118 -118v-256z" />
    <glyph glyph-name="six.dnom" horiz-adv-x="729" 
d="M584 784l90 -86l-137 -129l-60 56h-155l-29 -29v-145l53 53h213l119 -119v-276l-119 -119h-379l-119 119v557l119 118h404zM322 150h96l28 28v137l-28 29h-96l-29 -29v-137z" />
    <glyph glyph-name="seven.dnom" horiz-adv-x="690" 
d="M481 270v-270h-237v305l211 295v2h-162v-80h-232v252h535l104 -178z" />
    <glyph glyph-name="eight.dnom" horiz-adv-x="737" 
d="M686 109l-119 -119h-397l-119 119v186l103 102l-99 99v170l119 118h389l119 -118v-170l-98 -99l102 -102v-186zM455 295l-29 29h-115l-28 -29v-117l28 -28h115l29 28v117zM451 596l-29 29h-107l-28 -29v-100l28 -29h107l29 29v100z" />
    <glyph glyph-name="nine.dnom" horiz-adv-x="749" 
d="M141 -10l-90 86l137 129l60 -55h180l29 28v146l-54 -54h-213l-118 119v277l118 118h379l119 -118v-557l-119 -119h-428zM428 625h-96l-29 -29v-137l29 -29h96l29 29v137z" />
    <glyph glyph-name="zero.numr" horiz-adv-x="765" 
d="M180 1440h406l119 -119v-557l-119 -119h-406l-119 119v557zM322 1268l-29 -29v-254l180 254l-29 29h-122zM473 1100l-180 -254l29 -29h122l29 29v254z" />
    <glyph glyph-name="one.numr" horiz-adv-x="602" 
d="M582 655h-551v172h162v430h-130v173h361v-603h158v-172z" />
    <glyph glyph-name="two.numr" horiz-adv-x="700" 
d="M649 655h-608v172l352 326v86l-28 29h-101l-84 -76l-149 139l112 109h363l119 -119v-236l-285 -254v-4h309v-172z" />
    <glyph glyph-name="three.numr" horiz-adv-x="694" 
d="M514 645h-399l-105 105l158 139l76 -72h129l28 29v94l-28 29h-219v137l211 147v4h-306v173h553v-173l-213 -147v-4h115l119 -119v-223z" />
    <glyph glyph-name="four.numr" horiz-adv-x="681" 
d="M348 801h-348v172l334 457h246v-457h82v-172h-82v-146h-232v146zM346 1210l-168 -241h174v241h-6z" />
    <glyph glyph-name="five.numr" horiz-adv-x="704" 
d="M535 645h-400l-104 105l157 139l76 -72h129l29 29v104l-29 29h-217l-100 96v355h545v-173h-314v-118h228l118 -119v-256z" />
    <glyph glyph-name="six.numr" horiz-adv-x="729" 
d="M584 1440l90 -86l-137 -129l-60 55h-155l-29 -29v-145l53 53h213l119 -119v-276l-119 -119h-379l-119 119v557l119 119h404zM322 805h96l28 29v137l-28 28h-96l-29 -28v-137z" />
    <glyph glyph-name="seven.numr" horiz-adv-x="690" 
d="M481 926v-271h-237v306l211 294v2h-162v-79h-232v252h535l104 -179z" />
    <glyph glyph-name="eight.numr" horiz-adv-x="737" 
d="M686 764l-119 -119h-397l-119 119v186l103 103l-99 98v170l119 119h389l119 -119v-170l-98 -98l102 -103v-186zM455 950l-29 29h-115l-28 -29v-116l28 -29h115l29 29v116zM451 1251l-29 29h-107l-28 -29v-100l28 -29h107l29 29v100z" />
    <glyph glyph-name="nine.numr" horiz-adv-x="749" 
d="M141 645l-90 86l137 129l60 -55h180l29 29v145l-54 -53h-213l-118 118v277l118 119h379l119 -119v-557l-119 -119h-428zM428 1280h-96l-29 -29v-137l29 -29h96l29 29v137z" />
    <glyph glyph-name="at.case" horiz-adv-x="1662" 
d="M317 -102l-174 174v1194l174 174h1049l174 -174v-838l-174 -174h-260l-111 121h-8l-110 -121h-238l-133 133v561l133 133h195l100 -104h10l68 104h157v-561l60 -53h35l41 41v684l-43 43h-840l-43 -43v-1047l43 -43h590v-204h-695zM772 868l-31 -30v-340l31 -31h102l60 53
v291l-62 57h-100z" />
    <glyph glyph-name="parenleft.case" horiz-adv-x="743" 
d="M702 -250h-337l-222 221v1487l222 221h337v-215h-124l-76 -75v-1348l76 -76h124v-215z" />
    <glyph glyph-name="parenright.case" horiz-adv-x="743" 
d="M600 1458v-1487l-221 -221h-338v215h125l76 76v1348l-76 75h-125v215h338z" />
    <glyph glyph-name="bracketleft.case" horiz-adv-x="774" 
d="M733 -248h-579v1927h579v-215h-221v-1497h221v-215z" />
    <glyph glyph-name="bracketright.case" horiz-adv-x="774" 
d="M41 1679h580v-1927h-580v215h221v1497h-221v215z" />
    <glyph glyph-name="braceleft.case" horiz-adv-x="819" 
d="M778 -250h-338l-221 221v537l-158 127v156l158 127v540l221 221h338v-215h-125l-75 -75v-496l-230 -180l230 -181v-491l75 -76h125v-215z" />
    <glyph glyph-name="braceright.case" horiz-adv-x="819" 
d="M600 508v-537l-221 -221h-338v215h125l76 76v491l229 181l-229 180v496l-76 75h-125v215h338l221 -221v-540l158 -127v-156z" />
    <glyph glyph-name="exclamdown.case" horiz-adv-x="665" 
d="M438 983l74 -74v-909h-358v909l73 74h211zM512 1118h-358v312h358v-312z" />
    <glyph glyph-name="questiondown.case" horiz-adv-x="1021" 
d="M1042 162l-178 -172h-608l-195 194v441l195 194h133v164h359v-266l-144 -144h-137l-47 -47v-192l47 -47h215l123 110zM389 1430h359v-312h-359v312z" />
    <glyph glyph-name="guillemotleft.case" horiz-adv-x="968" 
d="M514 309h-281l-172 348l172 349h281l-186 -349zM637 309l-172 348l172 349h281l-187 -349l187 -348h-281z" />
    <glyph glyph-name="guillemotright.case" horiz-adv-x="968" 
d="M735 1006l172 -349l-172 -348h-280l186 348l-186 349h280zM51 1006h281l172 -349l-172 -348h-281l187 348z" />
    <glyph glyph-name="guilsinglleft.case" horiz-adv-x="581" 
d="M250 311l-199 348l199 349h280l-215 -349l215 -348h-280z" />
    <glyph glyph-name="guilsinglright.case" horiz-adv-x="581" 
d="M51 1008h281l198 -349l-198 -348h-281l215 348z" />
    <glyph glyph-name="hyphen.case" horiz-adv-x="886" 
d="M805 547h-723v307h723v-307z" />
    <glyph glyph-name="endash.case" 
d="M1090 549h-1029v282h1029v-282z" />
    <glyph glyph-name="emdash.case" horiz-adv-x="1734" 
d="M1673 549h-1612v282h1612v-282z" />
    <glyph glyph-name="periodcentered.case" horiz-adv-x="440" 
d="M393 537h-344v340h344v-340z" />
    <glyph glyph-name="yacute.salt" horiz-adv-x="1107" 
d="M1067 1036l-393 -1425h-289l109 389h-205l-269 1036h355l166 -743h22l193 743h311zM668 1208h-275l203 267h414z" />
    <glyph glyph-name="ydieresis.salt" horiz-adv-x="1107" 
d="M1067 1036l-393 -1425h-289l109 389h-205l-269 1036h355l166 -743h22l193 743h311zM498 1219h-273v249h273v-249zM893 1219h-272v249h272v-249z" />
    </font>
</defs>
</svg>
