<?xml version="1.0" standalone="no"?>
<!DOCTYPE svg PUBLIC "-//W3C//DTD SVG 1.1//EN" "http://www.w3.org/Graphics/SVG/1.1/DTD/svg11.dtd" >
<svg xmlns="http://www.w3.org/2000/svg" xmlns:xlink="http://www.w3.org/1999/xlink" version="1.1">
<metadata>
Created by FontForge 20170731 at Sun Aug 27 19:26:12 2017
 By Aleksey,,,
Copyright (c) 2017 by TypeType. Designer Ivan Gladkikh, technical designer Victoria Usmanova. All rights reserved.
</metadata>
<defs>
<font id="TTMussels-Regular" horiz-adv-x="1071" >
  <font-face 
    font-family="TT Mussels"
    font-weight="400"
    font-stretch="normal"
    units-per-em="2048"
    panose-1="2 0 5 6 3 0 0 2 0 4"
    ascent="1638"
    descent="-410"
    x-height="1010"
    cap-height="1405"
    bbox="-307 -512 2945 1890"
    underline-thickness="0"
    underline-position="0"
    unicode-range="U+000D-FB06"
  />
<missing-glyph horiz-adv-x="0" 
 />
    <glyph glyph-name="uniFB00" unicode="ff" horiz-adv-x="1101" 
d="M668 897h-349v-897h-122v897h-125v113h125v215l180 180h291l90 -90l90 90h264v-119h-203l-118 -119v-157h241v-113h-241v-897h-123v897zM438 1286l-119 -119v-157h349v215l-62 61h-168z" />
    <glyph glyph-name="uniFB01" unicode="fi" horiz-adv-x="968" 
d="M319 1010h486v-1010h-123v897h-363v-897h-122v897h-125v113h125v215l180 180h428v-234h-123v115h-244l-119 -119v-157z" />
    <glyph glyph-name="uniFB02" unicode="fl" horiz-adv-x="968" 
d="M377 1405h428v-1405h-123v897h-363v-897h-122v897h-125v113h125v215zM438 1286l-119 -119v-157h363v276h-244z" />
    <glyph glyph-name="f_j.liga" unicode="fj" horiz-adv-x="968" 
d="M319 1010h486v-1143l-219 -273l-90 76l186 232v995h-363v-897h-122v897h-125v113h125v215l180 180h428v-234h-123v115h-244l-119 -119v-157z" />
    <glyph glyph-name="f_k.liga" unicode="fk" horiz-adv-x="1452" 
d="M1227 1010h129l-226 -473l281 -537h-141l-250 481h-215v-481h-123v897h-363v-897h-122v897h-125v113h125v215l180 180h428v-811h223zM438 1286l-119 -119v-157h363v276h-244z" />
    <glyph glyph-name=".notdef" horiz-adv-x="0" 
 />
    <glyph glyph-name="glyph1" horiz-adv-x="0" 
 />
    <glyph glyph-name="glyph1" horiz-adv-x="0" 
 />
    <glyph glyph-name="glyph2" horiz-adv-x="681" 
 />
    <glyph glyph-name="uni000D" unicode="&#xd;" horiz-adv-x="0" 
 />
    <glyph glyph-name="space" unicode=" " horiz-adv-x="399" 
 />
    <glyph glyph-name="exclam" unicode="!" horiz-adv-x="501" 
d="M184 1405h133v-1030l-30 -31h-72l-31 31v1030zM317 0h-133v154h133v-154z" />
    <glyph glyph-name="quotedbl" unicode="&#x22;" horiz-adv-x="628" 
d="M102 1405h121v-506l-28 -29h-64l-29 29v506zM406 1405h120v-506l-28 -29h-64l-28 29v506z" />
    <glyph glyph-name="numbersign" unicode="#" horiz-adv-x="1142" 
d="M709 0h-123l78 403h-304l-77 -403h-123l78 403h-177v113h197l74 383h-193v113h215l76 393h123l-76 -393h303l76 393h123l-76 -393h178v-113h-200l-74 -383h197v-113h-218zM758 899h-303l-74 -383h303z" />
    <glyph glyph-name="dollar" unicode="$" horiz-adv-x="1126" 
d="M637 -225h-133v225h-197l-215 215l94 92l187 -184h360l158 158v211l-158 157h-383l-225 225v306l225 225h154v225h133v-225h147l191 -191l-94 -90l-162 158h-303l-158 -158v-194l158 -158h383l225 -225v-322l-225 -225h-162v-225z" />
    <glyph glyph-name="percent" unicode="%" horiz-adv-x="1470" 
d="M408 0h-129l784 1405h129zM221 739l-139 140v387l139 139h271l139 -139v-387l-139 -140h-271zM434 836l84 84v305l-84 84h-155l-84 -84v-305l84 -84h155zM1249 666l140 -140v-387l-140 -139h-270l-139 139v387l139 140h270zM1036 569l-84 -84v-305l84 -84h156l84 84v305
l-84 84h-156z" />
    <glyph glyph-name="ampersand" unicode="&#x26;" horiz-adv-x="1232" 
d="M895 1118l-166 164h-272l-158 -158v-206l133 -134h709v-122h-178v-416l122 -123h127v-123h-186l-133 133l-133 -133h-412l-225 225v324l186 186l-143 144v301l225 225h404l194 -195zM256 281l158 -158h293l122 123v416h-415l-158 -158v-223z" />
    <glyph glyph-name="quotesingle" unicode="'" horiz-adv-x="325" 
d="M102 1405h121v-506l-28 -29h-64l-29 29v506z" />
    <glyph glyph-name="parenleft" unicode="(" horiz-adv-x="618" 
d="M451 1405l-144 -143v-1399l144 -144h147v-112h-209l-205 205v1501l205 205h209v-113h-147z" />
    <glyph glyph-name="parenright" unicode=")" horiz-adv-x="618" 
d="M168 -281l143 144v1399l-143 143h-148v113h209l205 -205v-1501l-205 -205h-209v112h148z" />
    <glyph glyph-name="asterisk" unicode="*" horiz-adv-x="790" 
d="M395 1503h60l-11 -266l244 96l41 -106l-258 -82l188 -215l-94 -68l-170 225l-170 -225l-94 68l188 215l-258 82l41 106l244 -96l-10 266h59z" />
    <glyph glyph-name="plus" unicode="+" horiz-adv-x="987" 
d="M123 553v109h315v333h113v-333h313v-109h-313v-330h-113v330h-315z" />
    <glyph glyph-name="comma" unicode="," horiz-adv-x="256" 
d="M119 0h-58v154h134v-154l-33 -213h-43v213z" />
    <glyph glyph-name="hyphen" unicode="-" horiz-adv-x="692" 
d="M631 457h-570v112h570v-112z" />
    <glyph glyph-name="period" unicode="." horiz-adv-x="256" 
d="M195 0h-134v154h134v-154z" />
    <glyph glyph-name="slash" unicode="/" horiz-adv-x="761" 
d="M125 -395h-125l637 1915h125z" />
    <glyph glyph-name="zero" unicode="0" horiz-adv-x="1275" 
d="M1102 1180v-955l-225 -225h-478l-225 225v955l225 225h478zM465 123h346l158 158v696l-662 -696zM465 1282l-158 -158v-696l662 696l-158 158h-346z" />
    <glyph glyph-name="one" unicode="1" horiz-adv-x="811" 
d="M354 1282h-204v123h337v-1282h232v-123h-596v123h231v1159z" />
    <glyph glyph-name="two" unicode="2" horiz-adv-x="1064" 
d="M78 1200l205 205h426l225 -225v-346l-703 -709v-2h721v-123h-891v127l740 756v241l-158 158h-295l-176 -174z" />
    <glyph glyph-name="three" unicode="3" horiz-adv-x="1107" 
d="M760 821l225 -225v-371l-225 -225h-498l-190 190l94 93l162 -160h366l158 158v260l-158 157h-444v123l516 459v2h-635v123h813v-129l-514 -453v-2h330z" />
    <glyph glyph-name="four" unicode="4" horiz-adv-x="1060" 
d="M989 344h-143v-344h-133v344h-672v127l661 934h144v-938h143v-123zM709 1200l-521 -733h525v733h-4z" />
    <glyph glyph-name="five" unicode="5" horiz-adv-x="1136" 
d="M961 1282h-648v-477l76 76h399l226 -226v-430l-226 -225h-489l-186 186l94 93l158 -156h358l158 158v319l-158 158h-305l-105 -105h-133v752h781v-123z" />
    <glyph glyph-name="six" unicode="6" horiz-adv-x="1224" 
d="M1081 657v-432l-225 -225h-457l-225 225v955l225 225h453l199 -199l-95 -92l-170 168h-321l-158 -158v-364l123 123h426zM465 760l-158 -158v-321l158 -158h326l157 158v321l-157 158h-326z" />
    <glyph glyph-name="seven" unicode="7" horiz-adv-x="997" 
d="M205 1096h-133v309h829l66 -113l-439 -700v-592h-133v629l418 653h-608v-186z" />
    <glyph glyph-name="eight" unicode="8" horiz-adv-x="1193" 
d="M1071 225l-225 -225h-498l-225 225v332l186 186l-141 142v295l225 225h408l225 -225v-295l-141 -142l186 -186v-332zM938 514l-156 156h-370l-156 -156v-233l158 -158h366l158 158v233zM893 1124l-158 158h-276l-158 -158v-196l135 -135h322l135 135v196z" />
    <glyph glyph-name="nine" unicode="9" horiz-adv-x="1234" 
d="M154 748v432l225 225h457l225 -225v-955l-225 -225h-514l-199 199l94 92l170 -168h383l158 158v364l-123 -123h-426zM770 645l158 158v321l-158 158h-326l-157 -158v-321l157 -158h326z" />
    <glyph glyph-name="colon" unicode=":" horiz-adv-x="256" 
d="M195 0h-134v154h134v-154zM195 856h-134v154h134v-154z" />
    <glyph glyph-name="semicolon" unicode=";" horiz-adv-x="256" 
d="M195 856h-134v154h134v-154zM119 0h-58v154h134v-154l-33 -213h-43v213z" />
    <glyph glyph-name="less" unicode="&#x3c;" horiz-adv-x="997" 
d="M885 20l-772 426v115l772 426v-137l-645 -344v-4l645 -344v-138z" />
    <glyph glyph-name="equal" unicode="=" horiz-adv-x="987" 
d="M123 731v113h741v-113h-741zM123 358v113h741v-113h-741z" />
    <glyph glyph-name="greater" unicode="&#x3e;" horiz-adv-x="997" 
d="M113 987l772 -426v-115l-772 -426v138l645 344v4l-645 344v137z" />
    <glyph glyph-name="question" unicode="?" horiz-adv-x="983" 
d="M487 575v-231h-133v277l99 98h147l158 158v247l-158 158h-301l-164 -162l-94 92l192 193h433l225 -225v-359l-225 -225h-158zM487 0h-133v154h133v-154z" />
    <glyph glyph-name="at" unicode="@" horiz-adv-x="1576" 
d="M1296 111h-151l-115 114h-2l-115 -114h-280l-139 139v536l137 138h252l84 -86h2l26 86h95v-600l100 -101h53l68 68v780l-97 96h-831l-96 -96v-1102l96 -96h543v-113h-611l-151 152v1216l151 152h967l152 -152v-880zM698 811l-82 -82v-422l84 -84h166l101 101v374
l-117 113h-152z" />
    <glyph glyph-name="A" unicode="A" horiz-adv-x="1064" 
d="M461 1405h143l440 -1405h-135l-118 379h-517l-118 -379h-136zM535 1237h-5l-217 -735h437z" />
    <glyph glyph-name="B" unicode="B" horiz-adv-x="1224" 
d="M1049 1180v-301l-144 -144l187 -186v-324l-226 -225h-682v1405h639zM317 662v-539h484l157 158v223l-157 158h-484zM915 1124l-157 158h-441v-498h465l133 134v206z" />
    <glyph glyph-name="C" unicode="C" horiz-adv-x="1193" 
d="M465 1282l-158 -158v-843l158 -158h377l186 184l94 -92l-215 -215h-508l-225 225v955l225 225h488l205 -205l-95 -92l-176 174h-356z" />
    <glyph glyph-name="D" unicode="D" horiz-adv-x="1302" 
d="M1128 1180v-955l-225 -225h-719v1405h719zM838 1282h-521v-1159h521l157 158v843z" />
    <glyph glyph-name="E" unicode="E" horiz-adv-x="1120" 
d="M934 657h-617v-534h680v-123h-813v1405h813v-123h-680v-502h617v-123z" />
    <glyph glyph-name="F" unicode="F" horiz-adv-x="1064" 
d="M918 616h-601v-616h-133v1405h799v-123h-666v-543h601v-123z" />
    <glyph glyph-name="G" unicode="G" horiz-adv-x="1275" 
d="M1008 1108l-177 174h-366l-158 -158v-841l158 -160h377l157 158v319h-362v123h496v-498l-226 -225h-508l-225 225v955l225 225h498l205 -205z" />
    <glyph glyph-name="H" unicode="H" horiz-adv-x="1290" 
d="M1106 0h-133v668h-656v-668h-133v1405h133v-614h656v614h133v-1405z" />
    <glyph glyph-name="I" unicode="I" horiz-adv-x="806" 
d="M336 1282h-234v123h603v-123h-236v-1159h236v-123h-603v123h234v1159z" />
    <glyph glyph-name="J" unicode="J" horiz-adv-x="747" 
d="M51 123h221l158 158v1001h-283v123h416v-1180l-225 -225h-287v123z" />
    <glyph glyph-name="K" unicode="K" horiz-adv-x="1155" 
d="M889 1405h145l-293 -680l353 -725h-150l-321 659h-306v-659h-133v1405h133v-623h306z" />
    <glyph glyph-name="L" unicode="L" horiz-adv-x="1007" 
d="M317 123h670v-123h-803v1405h133v-1282z" />
    <glyph glyph-name="M" unicode="M" horiz-adv-x="1622" 
d="M1305 1210h-5l-413 -1210h-152l-413 1210h-5v-1210h-133v1405h201l424 -1237h2h2l424 1237h201v-1405h-133v1210z" />
    <glyph glyph-name="N" unicode="N" horiz-adv-x="1290" 
d="M1106 1405v-1405h-178l-606 1204h-5v-1204h-133v1405h178l607 -1204h4v1204h133z" />
    <glyph glyph-name="O" unicode="O" horiz-adv-x="1306" 
d="M1133 1180v-955l-226 -225h-508l-225 225v955l225 225h508zM465 1282l-158 -158v-841l158 -160h377l157 158v843l-157 158h-377z" />
    <glyph glyph-name="P" unicode="P" horiz-adv-x="1181" 
d="M317 506v-506h-133v1405h639l226 -225v-449l-226 -225h-506zM915 1124l-157 158h-441v-653h441l157 157v338z" />
    <glyph glyph-name="Q" unicode="Q" horiz-adv-x="1306" 
d="M1092 -197h-322l-141 197h-230l-225 225v955l225 225h508l226 -225v-955l-226 -225h-114l53 -74h246v-123zM465 1282l-158 -158v-841l158 -160h377l157 158v843l-157 158h-377z" />
    <glyph glyph-name="R" unicode="R" horiz-adv-x="1191" 
d="M1130 0h-151l-330 565h-332v-565h-133v1405h615l225 -225v-381l-225 -226zM891 1124l-158 158h-416v-594h416l158 158v278z" />
    <glyph glyph-name="S" unicode="S" horiz-adv-x="1167" 
d="M416 1282l-158 -158v-194l158 -158h424l225 -225v-322l-225 -225h-533l-215 215l94 92l187 -184h401l158 158v211l-158 157h-424l-225 225v306l225 225h475l191 -191l-94 -90l-162 158h-344z" />
    <glyph glyph-name="T" unicode="T" horiz-adv-x="989" 
d="M969 1405v-123h-408v-1282h-133v1282h-408v123h949z" />
    <glyph glyph-name="U" unicode="U" horiz-adv-x="1310" 
d="M993 1405h133v-1180l-225 -225h-491l-226 225v1180h133v-1122l158 -160h361l157 158v1124z" />
    <glyph glyph-name="V" unicode="V" horiz-adv-x="1134" 
d="M565 158h2h2l381 1247h144l-437 -1405h-180l-436 1405h143z" />
    <glyph glyph-name="W" unicode="W" horiz-adv-x="1646" 
d="M827 1182h-8l-266 -1182h-184l-308 1405h140l260 -1249h4l283 1249h151l283 -1249h4l260 1249h139l-307 -1405h-184z" />
    <glyph glyph-name="X" unicode="X" horiz-adv-x="1050" 
d="M834 1405h151l-385 -676l430 -729h-151l-355 618l-352 -618h-152l429 729l-383 676h151l307 -567z" />
    <glyph glyph-name="Y" unicode="Y" horiz-adv-x="1007" 
d="M504 696h2l354 709h148l-433 -852v-553h-143v553l-432 852h147l355 -709h2z" />
    <glyph glyph-name="Z" unicode="Z" horiz-adv-x="1050" 
d="M125 0l-53 109l739 1169v4h-719v123h828l53 -109l-740 -1169v-4h746v-123h-854z" />
    <glyph glyph-name="bracketleft" unicode="[" horiz-adv-x="561" 
d="M541 1405h-234v-1688h234v-112h-357v1913h357v-113z" />
    <glyph glyph-name="backslash" unicode="\" horiz-adv-x="761" 
d="M0 1520h125l637 -1915h-125z" />
    <glyph glyph-name="bracketright" unicode="]" horiz-adv-x="561" 
d="M20 -283h234v1688h-234v113h357v-1913h-357v112z" />
    <glyph glyph-name="asciicircum" unicode="^" horiz-adv-x="821" 
d="M72 799l284 606h109l285 -606h-123l-211 471h-10l-211 -471h-123z" />
    <glyph glyph-name="underscore" unicode="_" horiz-adv-x="661" 
d="M702 -223h-743v102h743v-102z" />
    <glyph glyph-name="grave" unicode="`" horiz-adv-x="532" 
d="M61 1475h162l248 -267h-123z" />
    <glyph glyph-name="a" unicode="a" horiz-adv-x="1048" 
d="M162 858l155 152h388l180 -181v-829h-94l-23 150h-6l-156 -150h-303l-180 180v230l180 180h459v182l-125 125h-254l-131 -125zM371 477l-125 -125v-114l125 -125h202l189 170v194h-391z" />
    <glyph glyph-name="b" unicode="b" 
d="M164 1405h123v-545l155 150h295l181 -181v-649l-181 -180h-295l-155 150h-6l-23 -150h-94v1405zM670 113l125 125v534l-125 125h-195l-188 -170v-444l188 -170h195z" />
    <glyph glyph-name="c" unicode="c" horiz-adv-x="968" 
d="M907 147l-147 -147h-426l-180 180v649l180 181h409l144 -144l-90 -86l-119 117h-277l-125 -125v-534l125 -125h293l123 120z" />
    <glyph glyph-name="d" unicode="d" 
d="M629 1010l155 -150v545h123v-1405h-94l-22 150h-7l-155 -150h-295l-180 180v649l180 181h295zM401 897l-125 -125v-534l125 -125h195l188 170v444l-188 170h-195z" />
    <glyph glyph-name="e" unicode="e" horiz-adv-x="1044" 
d="M911 147l-147 -147h-430l-180 180v649l180 181h387l180 -181v-389h-625v-202l125 -125h297l123 120zM401 897l-125 -125v-219h502v219l-125 125h-252z" />
    <glyph glyph-name="f" unicode="f" horiz-adv-x="630" 
d="M197 897h-125v113h125v215l180 180h264v-119h-203l-119 -119v-157h242v-113h-242v-897h-122v897z" />
    <glyph glyph-name="g" unicode="g" horiz-adv-x="1042" 
d="M760 154l162 -162v-230l-162 -161h-508l-160 159v234l160 160h192v192h-125l-180 180v303l180 181h371l72 -72l69 72h125v-119h-94l-26 -27l34 -35v-303l-180 -180h-123v-192h193zM387 897l-125 -125v-188l125 -125h236l125 125v188l-125 125h-236zM319 41l-104 -104
v-119l104 -105h373l107 107v114l-107 107h-373z" />
    <glyph glyph-name="h" unicode="h" horiz-adv-x="1069" 
d="M905 0h-123v772l-125 125h-182l-188 -170v-727h-123v1405h123v-545l155 150h283l180 -181v-829z" />
    <glyph glyph-name="i" unicode="i" horiz-adv-x="450" 
d="M164 1010h123v-1010h-123v1010zM287 1253h-123v152h123v-152z" />
    <glyph glyph-name="j" unicode="j" horiz-adv-x="452" 
d="M166 1010h123v-1143l-219 -273l-90 76l186 232v1108zM289 1253h-123v152h123v-152z" />
    <glyph glyph-name="k" unicode="k" horiz-adv-x="933" 
d="M709 1010h129l-226 -473l281 -537h-141l-250 481h-215v-481h-123v1405h123v-811h223z" />
    <glyph glyph-name="l" unicode="l" horiz-adv-x="450" 
d="M164 1405h123v-1405h-123v1405z" />
    <glyph glyph-name="m" unicode="m" horiz-adv-x="1542" 
d="M958 897l-124 -125v-772h-123v772l-125 125h-170l-129 -127v-770h-123v1010h94l23 -111h6l112 111h234l141 -142l141 142h283l180 -181v-829h-123v772l-125 125h-172z" />
    <glyph glyph-name="n" unicode="n" horiz-adv-x="1069" 
d="M905 0h-123v772l-125 125h-182l-188 -170v-727h-123v1010h94l23 -150h6l155 150h283l180 -181v-829z" />
    <glyph glyph-name="o" unicode="o" horiz-adv-x="1079" 
d="M745 1010l181 -181v-649l-181 -180h-411l-180 180v649l180 181h411zM401 897l-125 -125v-534l125 -125h277l125 125v534l-125 125h-277z" />
    <glyph glyph-name="p" unicode="p" 
d="M442 0l-155 150v-539h-123v1399h94l23 -150h6l155 150h295l181 -181v-649l-181 -180h-295zM670 113l125 125v534l-125 125h-195l-188 -170v-444l188 -170h195z" />
    <glyph glyph-name="q" unicode="q" 
d="M907 -389h-123v539l-155 -150h-295l-180 180v649l180 181h295l155 -150h7l22 150h94v-1399zM401 897l-125 -125v-534l125 -125h195l188 170v444l-188 170h-195z" />
    <glyph glyph-name="r" unicode="r" horiz-adv-x="679" 
d="M281 860h6l155 150h217v-119h-190l-182 -164v-727h-123v1010h94z" />
    <glyph glyph-name="s" unicode="s" horiz-adv-x="978" 
d="M877 170l-170 -170h-457l-148 147l91 86l122 -120h324l115 114v113l-115 115h-350l-170 170v215l170 170h403l144 -144l-91 -86l-118 117h-271l-114 -115v-100l114 -115h351l170 -170v-227z" />
    <glyph glyph-name="t" unicode="t" horiz-adv-x="667" 
d="M186 897h-125v113h125v223l97 41h26v-264h213v-113h-213v-659l119 -119h188v-119h-249l-181 180v717z" />
    <glyph glyph-name="u" unicode="u" horiz-adv-x="1069" 
d="M164 1010h123v-772l125 -125h182l188 170v727h123v-1010h-94l-23 150h-6l-155 -150h-283l-180 180v830z" />
    <glyph glyph-name="v" unicode="v" horiz-adv-x="884" 
d="M727 1010h127l-328 -1010h-168l-327 1010h127l282 -883h2h2z" />
    <glyph glyph-name="w" unicode="w" horiz-adv-x="1355" 
d="M680 817h-4l-219 -817h-168l-238 1010h125l201 -860h4l225 860h144l225 -860h4l201 860h125l-238 -1010h-168z" />
    <glyph glyph-name="x" unicode="x" horiz-adv-x="860" 
d="M799 1010l-295 -471l336 -539h-144l-264 428h-4l-264 -428h-144l336 539l-295 471h144l221 -367h8l221 367h144z" />
    <glyph glyph-name="y" unicode="y" horiz-adv-x="1064" 
d="M901 -219l-180 -180h-430l-148 147l90 86l123 -121h297l125 125v277l-114 -115h-322l-180 180v830h123v-772l125 -125h213l155 155v742h123v-1229z" />
    <glyph glyph-name="z" unicode="z" horiz-adv-x="868" 
d="M102 0l-41 70l576 827h-557v113h680l41 -70l-576 -827h582v-113h-705z" />
    <glyph glyph-name="braceleft" unicode="{" horiz-adv-x="667" 
d="M500 1405l-144 -143v-562l-143 -145l143 -145v-547l144 -144h147v-112h-209l-205 205v563l-131 131v98l131 131v578l205 205h209v-113h-147z" />
    <glyph glyph-name="bar" unicode="|" horiz-adv-x="737" 
d="M430 -512h-123v2032h123v-2032z" />
    <glyph glyph-name="braceright" unicode="}" horiz-adv-x="667" 
d="M455 555l-144 145v562l-143 143h-148v113h209l205 -205v-578l131 -131v-98l-131 -131v-563l-205 -205h-209v112h148l143 144v547z" />
    <glyph glyph-name="asciitilde" unicode="~" horiz-adv-x="1007" 
d="M707 549l63 63v93h125v-136l-131 -131h-195l-178 150h-90l-63 -64v-92h-125v135l131 131h194l178 -149h91z" />
    <glyph glyph-name="uni00A0" unicode="&#xa0;" horiz-adv-x="399" 
 />
    <glyph glyph-name="exclamdown" unicode="&#xa1;" horiz-adv-x="501" 
d="M287 666l30 -31v-1024h-133v1024l31 31h72zM317 856h-133v154h133v-154z" />
    <glyph glyph-name="cent" unicode="&#xa2;" horiz-adv-x="968" 
d="M907 147l-147 -147h-158v-209h-123v209h-145l-180 180v649l180 181h145v209h123v-209h141l144 -144l-90 -86l-119 117h-277l-125 -125v-534l125 -125h293l123 120z" />
    <glyph glyph-name="sterling" unicode="&#xa3;" horiz-adv-x="940" 
d="M213 647h-121v123h121v438l197 197h305l149 -150l-94 -90l-119 117h-176l-129 -129v-383h356v-123h-356v-524h543v-123h-797v123h121v524z" />
    <glyph glyph-name="currency" unicode="&#xa4;" horiz-adv-x="1167" 
d="M227 578h-155v122h155v705h582l225 -225v-377l-225 -225h-449v-158h441v-123h-441v-297h-133v297h-155v123h155v158zM901 1124l-158 158h-383v-582h383l158 158v266z" />
    <glyph glyph-name="yen" unicode="&#xa5;" horiz-adv-x="1089" 
d="M934 784v-94h-248l-70 -137v-49h320v-94h-320v-410h-143v410h-317v94h317v49l-70 137h-247v94h198l-313 621h147l355 -709h4l354 709h148l-316 -621h201z" />
    <glyph glyph-name="brokenbar" unicode="&#xa6;" horiz-adv-x="737" 
d="M430 -512h-123v868h123v-868zM307 1520h123v-836h-123v836z" />
    <glyph glyph-name="section" unicode="&#xa7;" horiz-adv-x="993" 
d="M395 1292l-125 -125v-123l113 -112h307l180 -180v-244l-147 -148l127 -127v-219l-180 -180h-400l-147 148l90 86l123 -121h266l125 125v129l-113 112h-307l-180 181v243l147 148l-127 127v213l181 180h352l143 -143l-90 -86l-119 116h-219zM250 700v-149l125 -125h254
l119 119v149l-125 125h-254z" />
    <glyph glyph-name="dieresis" unicode="&#xa8;" horiz-adv-x="530" 
d="M174 1249h-113v150h113v-150zM469 1249h-113v150h113v-150z" />
    <glyph glyph-name="copyright" unicode="&#xa9;" horiz-adv-x="1617" 
d="M1110 457l-129 -129h-293l-151 151v445l151 151h277l112 -112l-88 -84l-84 82h-155l-91 -91v-340l91 -90h172l100 101zM1264 1405l180 -180v-1045l-180 -180h-910l-180 180v1045l180 180h910zM424 1292l-127 -127v-925l127 -127h770l127 127v925l-127 127h-770z" />
    <glyph glyph-name="ordfeminine" unicode="&#xaa;" horiz-adv-x="776" 
d="M541 1642l133 -133v-651h-60l-49 103h-4l-110 -103h-236l-133 133v193l133 133h346v153l-80 80h-188l-103 -100l-75 72l121 120h305zM274 1225l-79 -80v-115l79 -80h142l145 121v154h-287z" />
    <glyph glyph-name="guillemotleft" unicode="&#xab;" horiz-adv-x="774" 
d="M391 121h-123l-196 348l196 348h123l-198 -348zM702 121h-124l-197 348l197 348h124l-200 -348z" />
    <glyph glyph-name="logicalnot" unicode="&#xac;" horiz-adv-x="845" 
d="M743 743v-239h-102v127h-539v112h641z" />
    <glyph glyph-name="uni00AD" unicode="&#xad;" horiz-adv-x="712" 
d="M631 457h-570v112h570v-112z" />
    <glyph glyph-name="registered" unicode="&#xae;" horiz-adv-x="1216" 
d="M831 602h-104l-113 232h-90v-232h-96v578h281l90 -90v-166l-84 -84zM702 1049l-45 45h-133v-174h133l45 45v84zM123 555v684l166 166h637l166 -166v-684l-166 -166h-637zM864 481l125 125v582l-125 125h-514l-125 -125v-582l125 -125h514z" />
    <glyph glyph-name="overscore" unicode="&#xaf;" horiz-adv-x="587" 
d="M526 1280h-465v92h465v-92z" />
    <glyph glyph-name="degree" unicode="&#xb0;" horiz-adv-x="655" 
d="M207 850l-146 145v265l146 145h242l145 -145v-265l-145 -145h-242zM481 1210l-92 93h-123l-92 -93v-166l92 -92h123l92 92v166z" />
    <glyph glyph-name="plusminus" unicode="&#xb1;" horiz-adv-x="987" 
d="M123 168v108h315v349h-315v108h315v332h113v-332h313v-108h-313v-349h313v-108h-741z" />
    <glyph glyph-name="uni00B2" unicode="&#xb2;" horiz-adv-x="659" 
d="M43 860v101l420 354v127l-70 69h-174l-102 -98l-76 76l121 119h291l122 -123v-207l-374 -322h397v-96h-555z" />
    <glyph glyph-name="uni00B3" unicode="&#xb3;" horiz-adv-x="645" 
d="M573 1180v-197l-122 -123h-318l-113 111l78 76l92 -91h201l70 70v115l-70 69h-241v97l260 204h-347v97h488v-101l-258 -204h158z" />
    <glyph glyph-name="acute" unicode="&#xb4;" horiz-adv-x="532" 
d="M184 1208h-123l248 267h162z" />
    <glyph glyph-name="mu" unicode="&#xb5;" horiz-adv-x="1069" 
d="M287 -389h-123v1399h123v-772l125 -125h182l188 170v727h123v-1010h-94l-23 150h-6l-155 -150h-258l-82 82v-471z" />
    <glyph glyph-name="paragraph" unicode="&#xb6;" horiz-adv-x="911" 
d="M123 1292l113 113h237v-1589h-113v985h-124l-113 112v379zM727 -184h-113v1589h113v-1589z" />
    <glyph glyph-name="middot" unicode="&#xb7;" horiz-adv-x="399" 
d="M266 475h-133v154h133v-154z" />
    <glyph glyph-name="cedilla" unicode="&#xb8;" horiz-adv-x="456" 
d="M121 -362l-60 59l60 59l39 -39h121l28 29v37l-28 29h-166v77l100 111h94l-96 -109h113l69 -69v-115l-69 -69h-205z" />
    <glyph glyph-name="uni00B9" unicode="&#xb9;" horiz-adv-x="559" 
d="M231 1513h-125v97h238v-654h164v-96h-447v96h170v557z" />
    <glyph glyph-name="ordmasculine" unicode="&#xba;" horiz-adv-x="786" 
d="M92 991v518l133 133h336l133 -133v-518l-133 -133h-336zM502 950l80 80v440l-80 80h-217l-80 -80v-440l80 -80h217z" />
    <glyph glyph-name="guillemotright" unicode="&#xbb;" horiz-adv-x="774" 
d="M506 817l196 -348l-196 -348h-123l199 348l-199 348h123zM197 817l196 -348l-196 -348h-125l200 348l-200 348h125z" />
    <glyph glyph-name="onequarter" unicode="&#xbc;" horiz-adv-x="1458" 
d="M428 0h-129l784 1405h129zM262 1309h-125v96h238v-653h164v-97h-447v97h170v557zM1366 164h-96v-164h-113v164h-385v98l367 486h131v-488h96v-96zM1157 625l-270 -365h270v365z" />
    <glyph glyph-name="onehalf" unicode="&#xbd;" horiz-adv-x="1560" 
d="M428 0h-129l784 1405h129zM262 1309h-125v96h238v-653h164v-97h-447v97h170v557zM903 0v100l420 355v127l-70 69h-174l-102 -98l-76 76l121 119h291l123 -123v-207l-375 -322h397v-96h-555z" />
    <glyph glyph-name="threequarters" unicode="&#xbe;" horiz-adv-x="1509" 
d="M479 0h-129l785 1405h129zM1417 164h-96v-164h-113v164h-385v98l367 486h131v-488h96v-96zM1208 625l-270 -365h270v365zM604 977v-197l-123 -123h-317l-113 111l78 76l92 -90h201l70 69v115l-70 70h-242v96l260 205h-346v96h488v-100l-258 -205h157z" />
    <glyph glyph-name="questiondown" unicode="&#xbf;" horiz-adv-x="942" 
d="M496 434v232h133v-277l-99 -98h-147l-158 -158v-252l158 -157h301l164 161l94 -92l-192 -192h-433l-225 225v362l225 226h158zM496 1010h133v-154h-133v154z" />
    <glyph glyph-name="Agrave" unicode="&#xc0;" horiz-adv-x="1064" 
d="M461 1405h143l440 -1405h-135l-118 379h-517l-118 -379h-136zM535 1237h-5l-217 -735h437zM174 1864h162l248 -267h-123z" />
    <glyph glyph-name="Aacute" unicode="&#xc1;" horiz-adv-x="1064" 
d="M461 1405h143l440 -1405h-135l-118 379h-517l-118 -379h-136zM535 1237h-5l-217 -735h437zM598 1597h-123l248 267h162z" />
    <glyph glyph-name="Acircumflex" unicode="&#xc2;" horiz-adv-x="1064" 
d="M461 1405h143l440 -1405h-135l-118 379h-517l-118 -379h-136zM535 1237h-5l-217 -735h437zM807 1597h-113l-157 209l-158 -209h-113l205 267h131z" />
    <glyph glyph-name="Atilde" unicode="&#xc3;" horiz-adv-x="1064" 
d="M461 1405h143l440 -1405h-135l-118 379h-517l-118 -379h-136zM535 1237h-5l-217 -735h437zM664 1743l30 31v57h84v-92l-78 -80h-127l-114 86h-66l-31 -31v-57h-83v92l77 80h127l115 -86h66z" />
    <glyph glyph-name="Adieresis" unicode="&#xc4;" horiz-adv-x="1064" 
d="M461 1405h143l440 -1405h-135l-118 379h-517l-118 -379h-136zM535 1237h-5l-217 -735h437zM444 1659h-112v149h112v-149zM739 1659h-112v149h112v-149z" />
    <glyph glyph-name="Aring" unicode="&#xc5;" horiz-adv-x="1064" 
d="M461 1405h143l440 -1405h-135l-118 379h-517l-118 -379h-136zM535 1237h-5l-217 -735h437zM696 1653l-82 -82h-157l-82 82v155l82 82h157l82 -82v-155zM504 1815l-47 -48v-73l47 -47h63l47 47v73l-47 48h-63z" />
    <glyph glyph-name="AE" unicode="&#xc6;" horiz-adv-x="1439" 
d="M115 0h-135l622 1405h715v-123h-516v-502h450v-123h-450v-534h516v-123h-649v385h-383q-103 -240 -170 -385zM340 508h328v731h-4z" />
    <glyph glyph-name="Ccedilla" unicode="&#xc7;" horiz-adv-x="1193" 
d="M522 -362l-59 59l59 59l39 -39h121l29 29v37l-29 29h-166v77l100 111h-217l-225 225v955l225 225h488l205 -205l-95 -92l-176 174h-356l-158 -158v-843l158 -158h377l186 184l94 -92l-215 -215h-196l-97 -109h113l70 -69v-115l-70 -69h-205z" />
    <glyph glyph-name="Egrave" unicode="&#xc8;" horiz-adv-x="1120" 
d="M934 657h-617v-534h680v-123h-813v1405h813v-123h-680v-502h617v-123zM276 1864h162l248 -267h-123z" />
    <glyph glyph-name="Eacute" unicode="&#xc9;" horiz-adv-x="1120" 
d="M934 657h-617v-534h680v-123h-813v1405h813v-123h-680v-502h617v-123zM618 1597h-122l247 267h162z" />
    <glyph glyph-name="Ecircumflex" unicode="&#xca;" horiz-adv-x="1120" 
d="M934 657h-617v-534h680v-123h-813v1405h813v-123h-680v-502h617v-123zM864 1597h-112l-158 209l-158 -209h-112l204 267h131z" />
    <glyph glyph-name="Edieresis" unicode="&#xcb;" horiz-adv-x="1120" 
d="M934 657h-617v-534h680v-123h-813v1405h813v-123h-680v-502h617v-123zM506 1659h-113v149h113v-149zM801 1659h-113v149h113v-149z" />
    <glyph glyph-name="Igrave" unicode="&#xcc;" horiz-adv-x="806" 
d="M336 1282h-234v123h603v-123h-236v-1159h236v-123h-603v123h234v1159zM66 1864h161l248 -267h-123z" />
    <glyph glyph-name="Iacute" unicode="&#xcd;" horiz-adv-x="806" 
d="M336 1282h-234v123h603v-123h-236v-1159h236v-123h-603v123h234v1159zM440 1597h-123l248 267h162z" />
    <glyph glyph-name="Icircumflex" unicode="&#xce;" horiz-adv-x="806" 
d="M336 1282h-234v123h603v-123h-236v-1159h236v-123h-603v123h234v1159zM672 1597h-113l-158 209l-157 -209h-113l205 267h131z" />
    <glyph glyph-name="Idieresis" unicode="&#xcf;" horiz-adv-x="806" 
d="M336 1282h-234v123h603v-123h-236v-1159h236v-123h-603v123h234v1159zM311 1659h-112v149h112v-149zM606 1659h-112v149h112v-149z" />
    <glyph glyph-name="Eth" unicode="&#xd0;" horiz-adv-x="1320" 
d="M205 653h-164v123h164v629h717l225 -225v-955l-225 -225h-717v653zM856 1282h-518v-506h309v-123h-309v-530h518l158 158v843z" />
    <glyph glyph-name="Ntilde" unicode="&#xd1;" horiz-adv-x="1290" 
d="M1106 1405v-1405h-178l-606 1204h-5v-1204h-133v1405h178l607 -1204h4v1204h133zM778 1743l31 31v57h84v-92l-78 -80h-127l-115 86h-65l-31 -31v-57h-84v92l78 80h127l115 -86h65z" />
    <glyph glyph-name="Ograve" unicode="&#xd2;" horiz-adv-x="1306" 
d="M1133 1180v-955l-226 -225h-508l-225 225v955l225 225h508zM465 1282l-158 -158v-841l158 -160h377l157 158v843l-157 158h-377zM319 1864h162l248 -267h-123z" />
    <glyph glyph-name="Oacute" unicode="&#xd3;" horiz-adv-x="1306" 
d="M1133 1180v-955l-226 -225h-508l-225 225v955l225 225h508zM465 1282l-158 -158v-841l158 -160h377l157 158v843l-157 158h-377zM672 1597h-123l248 267h161z" />
    <glyph glyph-name="Ocircumflex" unicode="&#xd4;" horiz-adv-x="1306" 
d="M1133 1180v-955l-226 -225h-508l-225 225v955l225 225h508zM465 1282l-158 -158v-841l158 -160h377l157 158v843l-157 158h-377zM920 1597h-113l-158 209l-157 -209h-113l205 267h131z" />
    <glyph glyph-name="Otilde" unicode="&#xd5;" horiz-adv-x="1306" 
d="M1133 1180v-955l-226 -225h-508l-225 225v955l225 225h508zM465 1282l-158 -158v-841l158 -160h377l157 158v843l-157 158h-377zM786 1743l31 31v57h84v-92l-78 -80h-127l-114 86h-66l-31 -31v-57h-84v92l78 80h127l115 -86h65z" />
    <glyph glyph-name="Odieresis" unicode="&#xd6;" horiz-adv-x="1306" 
d="M1133 1180v-955l-226 -225h-508l-225 225v955l225 225h508zM465 1282l-158 -158v-841l158 -160h377l157 158v843l-157 158h-377zM563 1659h-112v149h112v-149zM858 1659h-113v149h113v-149z" />
    <glyph glyph-name="multiply" unicode="&#xd7;" horiz-adv-x="950" 
d="M729 229l-254 258l-254 -258l-78 78l258 256l-258 254l76 78l256 -260l256 260l76 -78l-258 -254l258 -256z" />
    <glyph glyph-name="Oslash" unicode="&#xd8;" horiz-adv-x="1300" 
d="M1133 1180v-955l-226 -225h-508l-45 43l-96 -176h-135l145 264l-94 94v955l225 225h508l39 -41l96 174h136l-144 -260zM999 281v843l-32 31l-545 -989l43 -43h377zM465 1282l-158 -158v-841l29 -29l545 989l-39 39h-377z" />
    <glyph glyph-name="Ugrave" unicode="&#xd9;" horiz-adv-x="1310" 
d="M993 1405h133v-1180l-225 -225h-491l-226 225v1180h133v-1122l158 -160h361l157 158v1124zM336 1864h162l247 -267h-122z" />
    <glyph glyph-name="Uacute" unicode="&#xda;" horiz-adv-x="1310" 
d="M993 1405h133v-1180l-225 -225h-491l-226 225v1180h133v-1122l158 -160h361l157 158v1124zM672 1597h-123l248 267h161z" />
    <glyph glyph-name="Ucircumflex" unicode="&#xdb;" horiz-adv-x="1310" 
d="M993 1405h133v-1180l-225 -225h-491l-226 225v1180h133v-1122l158 -160h361l157 158v1124zM924 1597h-113l-158 209l-157 -209h-113l205 267h131z" />
    <glyph glyph-name="Udieresis" unicode="&#xdc;" horiz-adv-x="1310" 
d="M993 1405h133v-1180l-225 -225h-491l-226 225v1180h133v-1122l158 -160h361l157 158v1124zM569 1659h-112v149h112v-149zM864 1659h-112v149h112v-149z" />
    <glyph glyph-name="Yacute" unicode="&#xdd;" horiz-adv-x="1028" 
d="M514 696h2l354 709h148l-432 -852v-553h-144v553l-432 852h148l354 -709h2zM555 1595h-123l248 267h162z" />
    <glyph glyph-name="Thorn" unicode="&#xde;" horiz-adv-x="1171" 
d="M317 281v-281h-133v1405h133v-254h506l226 -225v-420l-226 -225h-506zM915 870l-157 158h-441v-625h441l157 158v309z" />
    <glyph glyph-name="germandbls" unicode="&#xdf;" horiz-adv-x="1097" 
d="M287 0h-123v1225l180 180h363l180 -180v-367l-121 -121l178 -178v-379l-180 -180h-320v113h252l125 125v282l-157 158h-220v113h209l111 110v266l-125 125h-227l-125 -125v-1167z" />
    <glyph glyph-name="agrave" unicode="&#xe0;" horiz-adv-x="1048" 
d="M162 858l155 152h388l180 -181v-829h-94l-23 150h-6l-156 -150h-303l-180 180v230l180 180h459v182l-125 125h-254l-131 -125zM371 477l-125 -125v-114l125 -125h202l189 170v194h-391zM213 1464h162l248 -266h-123z" />
    <glyph glyph-name="aacute" unicode="&#xe1;" horiz-adv-x="1048" 
d="M162 858l155 152h388l180 -181v-829h-94l-23 150h-6l-156 -150h-303l-180 180v230l180 180h459v182l-125 125h-254l-131 -125zM371 477l-125 -125v-114l125 -125h202l189 170v194h-391zM573 1198h-122l247 266h162z" />
    <glyph glyph-name="acircumflex" unicode="&#xe2;" horiz-adv-x="1048" 
d="M162 858l155 152h388l180 -181v-829h-94l-23 150h-6l-156 -150h-303l-180 180v230l180 180h459v182l-125 125h-254l-131 -125zM371 477l-125 -125v-114l125 -125h202l189 170v194h-391zM813 1198h-113l-157 209l-158 -209h-113l205 266h131z" />
    <glyph glyph-name="atilde" unicode="&#xe3;" horiz-adv-x="1048" 
d="M162 858l155 152h388l180 -181v-829h-94l-23 150h-6l-156 -150h-303l-180 180v230l180 180h459v182l-125 125h-254l-131 -125zM371 477l-125 -125v-114l125 -125h202l189 170v194h-391zM680 1333l31 31v57h84v-92l-78 -80h-127l-115 86h-65l-31 -30v-58h-84v92l78 80h127
l114 -86h66z" />
    <glyph glyph-name="adieresis" unicode="&#xe4;" horiz-adv-x="1048" 
d="M162 858l155 152h388l180 -181v-829h-94l-23 150h-6l-156 -150h-303l-180 180v230l180 180h459v182l-125 125h-254l-131 -125zM371 477l-125 -125v-114l125 -125h202l189 170v194h-391zM453 1270h-113v149h113v-149zM748 1270h-113v149h113v-149z" />
    <glyph glyph-name="aring" unicode="&#xe5;" horiz-adv-x="1048" 
d="M162 858l155 152h388l180 -181v-829h-94l-23 150h-6l-156 -150h-303l-180 180v230l180 180h459v182l-125 125h-254l-131 -125zM371 477l-125 -125v-114l125 -125h202l189 170v194h-391zM709 1253l-82 -82h-158l-82 82v156l82 82h158l82 -82v-156zM516 1415l-47 -47v-74
l47 -47h64l47 47v74l-47 47h-64z" />
    <glyph glyph-name="ae" unicode="&#xe6;" horiz-adv-x="1542" 
d="M1409 147l-147 -147h-365l-129 129h-4l-129 -129h-332l-180 180v209l180 180h402v207l-121 121h-222l-131 -125l-90 86l156 152h338l129 -129h4l129 129h322l180 -181v-372h-572v-224l121 -120h248l123 120zM584 113l121 120v224h-334l-125 -125v-94l125 -125h213z
M948 897l-121 -121v-207h449v203l-125 125h-203z" />
    <glyph glyph-name="ccedilla" unicode="&#xe7;" horiz-adv-x="968" 
d="M420 -362l-60 59l60 59l39 -39h121l28 29v37l-28 29h-166v77l100 111h-180l-180 180v649l180 181h409l144 -144l-90 -86l-119 117h-277l-125 -125v-534l125 -125h293l123 120l90 -86l-147 -147h-152l-96 -109h113l69 -69v-115l-69 -69h-205z" />
    <glyph glyph-name="egrave" unicode="&#xe8;" horiz-adv-x="1044" 
d="M911 147l-147 -147h-430l-180 180v649l180 181h387l180 -181v-389h-625v-202l125 -125h297l123 120zM401 897l-125 -125v-219h502v219l-125 125h-252zM205 1464h162l247 -266h-122z" />
    <glyph glyph-name="eacute" unicode="&#xe9;" horiz-adv-x="1044" 
d="M911 147l-147 -147h-430l-180 180v649l180 181h387l180 -181v-389h-625v-202l125 -125h297l123 120zM401 897l-125 -125v-219h502v219l-125 125h-252zM561 1198h-123l248 266h162z" />
    <glyph glyph-name="ecircumflex" unicode="&#xea;" horiz-adv-x="1044" 
d="M911 147l-147 -147h-430l-180 180v649l180 181h387l180 -181v-389h-625v-202l125 -125h297l123 120zM401 897l-125 -125v-219h502v219l-125 125h-252zM803 1198h-113l-158 209l-157 -209h-113l205 266h131z" />
    <glyph glyph-name="edieresis" unicode="&#xeb;" horiz-adv-x="1044" 
d="M911 147l-147 -147h-430l-180 180v649l180 181h387l180 -181v-389h-625v-202l125 -125h297l123 120zM401 897l-125 -125v-219h502v219l-125 125h-252zM451 1270h-113v149h113v-149zM745 1270h-112v149h112v-149z" />
    <glyph glyph-name="igrave" unicode="&#xec;" horiz-adv-x="450" 
d="M164 1010h123v-1010h-123v1010zM-119 1464h162l248 -266h-123z" />
    <glyph glyph-name="iacute" unicode="&#xed;" horiz-adv-x="450" 
d="M164 1010h123v-1010h-123v1010zM285 1198h-123l248 266h161z" />
    <glyph glyph-name="icircumflex" unicode="&#xee;" horiz-adv-x="450" 
d="M164 1010h123v-1010h-123v1010zM496 1198h-113l-158 209l-157 -209h-113l205 266h131z" />
    <glyph glyph-name="idieresis" unicode="&#xef;" horiz-adv-x="450" 
d="M164 1010h123v-1010h-123v1010zM135 1270h-112v149h112v-149zM430 1270h-113v149h113v-149z" />
    <glyph glyph-name="eth" unicode="&#xf0;" horiz-adv-x="1073" 
d="M690 922l96 -97v201l-225 166l-82 -109l-90 66l82 108l-113 82l74 99l113 -84l80 110l90 -65l-82 -109l276 -205v-905l-180 -180h-395l-180 180v561l180 181h356zM662 113l124 125v446l-124 125h-261l-125 -125v-446l125 -125h261z" />
    <glyph glyph-name="ntilde" unicode="&#xf1;" horiz-adv-x="1069" 
d="M905 0h-123v772l-125 125h-182l-188 -170v-727h-123v1010h94l23 -150h6l155 150h283l180 -181v-829zM662 1333l30 31v57h84v-92l-78 -80h-127l-114 86h-66l-31 -30v-58h-84v92l78 80h127l115 -86h66z" />
    <glyph glyph-name="ograve" unicode="&#xf2;" horiz-adv-x="1079" 
d="M745 1010l181 -181v-649l-181 -180h-411l-180 180v649l180 181h411zM401 897l-125 -125v-534l125 -125h277l125 125v534l-125 125h-277zM207 1464h162l247 -266h-122z" />
    <glyph glyph-name="oacute" unicode="&#xf3;" horiz-adv-x="1079" 
d="M745 1010l181 -181v-649l-181 -180h-411l-180 180v649l180 181h411zM401 897l-125 -125v-534l125 -125h277l125 125v534l-125 125h-277zM565 1198h-123l248 266h162z" />
    <glyph glyph-name="ocircumflex" unicode="&#xf4;" horiz-adv-x="1079" 
d="M745 1010l181 -181v-649l-181 -180h-411l-180 180v649l180 181h411zM401 897l-125 -125v-534l125 -125h277l125 125v534l-125 125h-277zM809 1198h-113l-157 209l-158 -209h-113l205 266h131z" />
    <glyph glyph-name="otilde" unicode="&#xf5;" horiz-adv-x="1079" 
d="M745 1010l181 -181v-649l-181 -180h-411l-180 180v649l180 181h411zM401 897l-125 -125v-534l125 -125h277l125 125v534l-125 125h-277zM674 1333l31 31v57h83v-92l-77 -80h-127l-115 86h-66l-30 -30v-58h-84v92l78 80h127l114 -86h66z" />
    <glyph glyph-name="odieresis" unicode="&#xf6;" horiz-adv-x="1079" 
d="M745 1010l181 -181v-649l-181 -180h-411l-180 180v649l180 181h411zM401 897l-125 -125v-534l125 -125h277l125 125v534l-125 125h-277zM451 1270h-113v149h113v-149zM745 1270h-112v149h112v-149z" />
    <glyph glyph-name="divide" unicode="&#xf7;" horiz-adv-x="966" 
d="M844 662v-113h-721v113h721zM424 297h119v-141h-119v141zM424 1055h119v-142h-119v142z" />
    <glyph glyph-name="oslash" unicode="&#xf8;" horiz-adv-x="1089" 
d="M850 903l76 -74v-649l-181 -180h-411l-27 25l-84 -138h-121l131 213l-79 80v649l180 181h411l31 -31l90 145h121zM401 897l-125 -125v-534l25 -27l406 655l-29 31h-277zM803 238v534l-21 21l-405 -656l24 -24h277z" />
    <glyph glyph-name="ugrave" unicode="&#xf9;" horiz-adv-x="1069" 
d="M164 1010h123v-772l125 -125h182l188 170v727h123v-1010h-94l-23 150h-6l-155 -150h-283l-180 180v830zM215 1464h162l248 -266h-123z" />
    <glyph glyph-name="uacute" unicode="&#xfa;" horiz-adv-x="1069" 
d="M164 1010h123v-772l125 -125h182l188 170v727h123v-1010h-94l-23 150h-6l-155 -150h-283l-180 180v830zM555 1198h-123l248 266h162z" />
    <glyph glyph-name="ucircumflex" unicode="&#xfb;" horiz-adv-x="1069" 
d="M164 1010h123v-772l125 -125h182l188 170v727h123v-1010h-94l-23 150h-6l-155 -150h-283l-180 180v830zM807 1198h-113l-157 209l-158 -209h-113l205 266h131z" />
    <glyph glyph-name="udieresis" unicode="&#xfc;" horiz-adv-x="1069" 
d="M164 1010h123v-772l125 -125h182l188 170v727h123v-1010h-94l-23 150h-6l-155 -150h-283l-180 180v830zM449 1270h-113v149h113v-149zM743 1270h-112v149h112v-149z" />
    <glyph glyph-name="yacute" unicode="&#xfd;" horiz-adv-x="1067" 
d="M903 -219l-180 -180h-430l-148 147l91 86l122 -121h297l125 125v277l-114 -115h-322l-180 180v830h123v-772l125 -125h213l155 155v742h123v-1229zM551 1198h-123l248 266h162z" />
    <glyph glyph-name="thorn" unicode="&#xfe;" 
d="M442 0l-155 150v-539h-123v1794h123v-545l155 150h295l181 -181v-649l-181 -180h-295zM670 113l125 125v534l-125 125h-195l-188 -170v-444l188 -170h195z" />
    <glyph glyph-name="ydieresis" unicode="&#xff;" horiz-adv-x="1067" 
d="M903 -219l-180 -180h-430l-148 147l91 86l122 -121h297l125 125v277l-114 -115h-322l-180 180v830h123v-772l125 -125h213l155 155v742h123v-1229zM438 1270h-112v149h112v-149zM733 1270h-112v149h112v-149z" />
    <glyph glyph-name="Amacron" unicode="&#x100;" horiz-adv-x="1064" 
d="M461 1405h143l440 -1405h-135l-118 379h-517l-118 -379h-136zM535 1237h-5l-217 -735h437zM766 1659h-465v92h465v-92z" />
    <glyph glyph-name="amacron" unicode="&#x101;" horiz-adv-x="1048" 
d="M162 858l155 152h388l180 -181v-829h-94l-23 150h-6l-156 -150h-303l-180 180v230l180 180h459v182l-125 125h-254l-131 -125zM371 477l-125 -125v-114l125 -125h202l189 170v194h-391zM778 1270h-465v92h465v-92z" />
    <glyph glyph-name="Abreve" unicode="&#x102;" horiz-adv-x="1064" 
d="M461 1405h143l440 -1405h-135l-118 379h-517l-118 -379h-136zM535 1237h-5l-217 -735h437zM444 1737h174l41 41v63h91v-100l-84 -82h-269l-84 82v100h90v-63z" />
    <glyph glyph-name="abreve" unicode="&#x103;" horiz-adv-x="1048" 
d="M162 858l155 152h388l180 -181v-829h-94l-23 150h-6l-156 -150h-303l-180 180v230l180 180h459v182l-125 125h-254l-131 -125zM371 477l-125 -125v-114l125 -125h202l189 170v194h-391zM446 1317h175l41 41v63h90v-100l-84 -82h-269l-84 82v100h91v-63z" />
    <glyph glyph-name="Aogonek" unicode="&#x104;" horiz-adv-x="1064" 
d="M915 -238h158v-79h-203l-69 69v131l131 117h-23l-118 379h-517l-118 -379h-136l441 1405h143l440 -1405l-157 -143v-66zM535 1237h-5l-217 -735h437z" />
    <glyph glyph-name="aogonek" unicode="&#x105;" horiz-adv-x="1046" 
d="M756 -238h157v-79h-202l-70 69v131l147 131l-20 136h-6l-156 -150h-303l-180 180v230l180 180h459v182l-125 125h-254l-131 -125l-90 86l155 152h388l180 -181v-829l-158 -143v-66zM371 477l-125 -125v-114l125 -125h202l189 170v194h-391z" />
    <glyph glyph-name="Cacute" unicode="&#x106;" horiz-adv-x="1193" 
d="M465 1282l-158 -158v-843l158 -158h377l186 184l94 -92l-215 -215h-508l-225 225v955l225 225h488l205 -205l-95 -92l-176 174h-356zM698 1597h-123l248 267h162z" />
    <glyph glyph-name="cacute" unicode="&#x107;" horiz-adv-x="968" 
d="M907 147l-147 -147h-426l-180 180v649l180 181h409l144 -144l-90 -86l-119 117h-277l-125 -125v-534l125 -125h293l123 120zM582 1198h-123l248 266h161z" />
    <glyph glyph-name="Ccircumflex" unicode="&#x108;" horiz-adv-x="1193" 
d="M465 1282l-158 -158v-843l158 -158h377l186 184l94 -92l-215 -215h-508l-225 225v955l225 225h488l205 -205l-95 -92l-176 174h-356zM907 1597h-112l-158 209l-158 -209h-112l204 267h131z" />
    <glyph glyph-name="ccircumflex" unicode="&#x109;" horiz-adv-x="968" 
d="M907 147l-147 -147h-426l-180 180v649l180 181h409l144 -144l-90 -86l-119 117h-277l-125 -125v-534l125 -125h293l123 120zM805 1198h-113l-157 209l-158 -209h-113l205 266h131z" />
    <glyph glyph-name="Ccaron" unicode="&#x10c;" horiz-adv-x="1193" 
d="M465 1282l-158 -158v-843l158 -158h377l186 184l94 -92l-215 -215h-508l-225 225v955l225 225h488l205 -205l-95 -92l-176 174h-356zM465 1864l170 -209l170 209h113l-218 -267h-131l-217 267h113z" />
    <glyph glyph-name="ccaron" unicode="&#x10d;" horiz-adv-x="968" 
d="M907 147l-147 -147h-426l-180 180v649l180 181h409l144 -144l-90 -86l-119 117h-277l-125 -125v-534l125 -125h293l123 120zM350 1464l170 -209l170 209h113l-217 -266h-131l-217 266h112z" />
    <glyph glyph-name="Dcaron" unicode="&#x10e;" horiz-adv-x="1302" 
d="M1128 1180v-955l-225 -225h-719v1405h719zM838 1282h-521v-1159h521l157 158v843zM424 1864l170 -209l170 209h113l-218 -267h-131l-217 267h113z" />
    <glyph glyph-name="dcaron" unicode="&#x10f;" horiz-adv-x="1177" 
d="M629 1010l155 -150v545h123v-1405h-94l-22 150h-7l-155 -150h-295l-180 180v649l180 181h295zM401 897l-125 -125v-534l125 -125h195l188 170v444l-188 170h-195zM1128 1264h-47v141h117v-141l-27 -166h-43v166z" />
    <glyph glyph-name="Dcroat" unicode="&#x110;" horiz-adv-x="1320" 
d="M205 653h-164v123h164v629h717l225 -225v-955l-225 -225h-717v653zM856 1282h-518v-506h309v-123h-309v-530h518l158 158v843z" />
    <glyph glyph-name="dslash" unicode="&#x111;" horiz-adv-x="1085" 
d="M629 1010l155 -150v295h-272v113h272v137h123v-137h158v-113h-158v-1155h-94l-22 150h-7l-155 -150h-295l-180 180v649l180 181h295zM401 897l-125 -125v-534l125 -125h195l188 170v444l-188 170h-195z" />
    <glyph glyph-name="Emacron" unicode="&#x112;" horiz-adv-x="1120" 
d="M934 657h-617v-534h680v-123h-813v1405h813v-123h-680v-502h617v-123zM817 1659h-465v92h465v-92z" />
    <glyph glyph-name="emacron" unicode="&#x113;" horiz-adv-x="1044" 
d="M911 147l-147 -147h-430l-180 180v649l180 181h387l180 -181v-389h-625v-202l125 -125h297l123 120zM401 897l-125 -125v-219h502v219l-125 125h-252zM768 1270h-465v92h465v-92z" />
    <glyph glyph-name="Edotaccent" unicode="&#x116;" horiz-adv-x="1120" 
d="M934 657h-617v-534h680v-123h-813v1405h813v-123h-680v-502h617v-123zM651 1659h-123v149h123v-149z" />
    <glyph glyph-name="edotaccent" unicode="&#x117;" horiz-adv-x="1044" 
d="M911 147l-147 -147h-430l-180 180v649l180 181h387l180 -181v-389h-625v-202l125 -125h297l123 120zM401 897l-125 -125v-219h502v219l-125 125h-252zM596 1270h-123v149h123v-149z" />
    <glyph glyph-name="Eogonek" unicode="&#x118;" horiz-adv-x="1120" 
d="M868 -238h158v-79h-203l-69 69v131l131 117h-701v1405h813v-123h-680v-502h617v-123h-617v-534h680v-123l-157 -143v-66z" />
    <glyph glyph-name="eogonek" unicode="&#x119;" horiz-adv-x="1044" 
d="M489 -238h158v-79h-203l-69 69v131l131 117h-172l-180 180v649l180 181h387l180 -181v-389h-625v-202l125 -125h297l123 120l90 -86l-147 -147h-146l-157 -143v-66zM401 897l-125 -125v-219h502v219l-125 125h-252z" />
    <glyph glyph-name="Ecaron" unicode="&#x11a;" horiz-adv-x="1120" 
d="M934 657h-617v-534h680v-123h-813v1405h813v-123h-680v-502h617v-123zM420 1864l170 -209l170 209h112l-217 -267h-131l-217 267h113z" />
    <glyph glyph-name="ecaron" unicode="&#x11b;" horiz-adv-x="1044" 
d="M911 147l-147 -147h-430l-180 180v649l180 181h387l180 -181v-389h-625v-202l125 -125h297l123 120zM401 897l-125 -125v-219h502v219l-125 125h-252zM360 1464l170 -209l170 209h113l-217 -266h-131l-217 266h112z" />
    <glyph glyph-name="Gbreve" unicode="&#x11e;" horiz-adv-x="1275" 
d="M1008 1108l-177 174h-366l-158 -158v-841l158 -160h377l157 158v319h-362v123h496v-498l-226 -225h-508l-225 225v955l225 225h498l205 -205zM559 1737h174l41 41v63h90v-100l-84 -82h-268l-84 82v100h90v-63z" />
    <glyph glyph-name="gbreve" unicode="&#x11f;" horiz-adv-x="1042" 
d="M760 154l162 -162v-230l-162 -161h-508l-160 159v234l160 160h192v192h-125l-180 180v303l180 181h371l72 -72l69 72h125v-119h-94l-26 -27l34 -35v-303l-180 -180h-123v-192h193zM387 897l-125 -125v-188l125 -125h236l125 125v188l-125 125h-236zM319 41l-104 -104
v-119l104 -105h373l107 107v114l-107 107h-373zM412 1317h174l41 41v63h90v-100l-84 -82h-268l-84 82v100h90v-63z" />
    <glyph glyph-name="uni0122" unicode="&#x122;" horiz-adv-x="1275" 
d="M1008 1108l-177 174h-366l-158 -158v-841l158 -160h377l157 158v319h-362v123h496v-498l-226 -225h-508l-225 225v955l225 225h498l205 -205zM649 -244h-47v142h117v-142l-27 -166h-43v166z" />
    <glyph glyph-name="uni0123" unicode="&#x123;" horiz-adv-x="1042" 
d="M524 1290h47v-141h-116v141l26 166h43v-166zM760 154l162 -162v-230l-162 -161h-508l-160 159v234l160 160h192v192h-125l-180 180v303l180 181h371l72 -72l69 72h125v-119h-94l-26 -27l34 -35v-303l-180 -180h-123v-192h193zM387 897l-125 -125v-188l125 -125h236
l125 125v188l-125 125h-236zM319 41l-104 -104v-119l104 -105h373l107 107v114l-107 107h-373z" />
    <glyph glyph-name="Imacron" unicode="&#x12a;" horiz-adv-x="806" 
d="M336 1282h-234v123h603v-123h-236v-1159h236v-123h-603v123h234v1159zM635 1659h-465v92h465v-92z" />
    <glyph glyph-name="imacron" unicode="&#x12b;" horiz-adv-x="450" 
d="M164 1010h123v-1010h-123v1010zM459 1270h-465v92h465v-92z" />
    <glyph glyph-name="Iogonek" unicode="&#x12e;" horiz-adv-x="806" 
d="M575 -238h158v-79h-203l-69 69v131l131 117h-490v123h234v1159h-234v123h603v-123h-236v-1159h236v-123l-158 -143v-66z" />
    <glyph glyph-name="iogonek" unicode="&#x12f;" horiz-adv-x="450" 
d="M158 -238h157v-79h-202l-70 69v131l131 117h-10v1010h123v-1010l-158 -143v-66zM287 1253h-123v152h123v-152z" />
    <glyph glyph-name="Idot" unicode="&#x130;" horiz-adv-x="806" 
d="M336 1282h-234v123h603v-123h-236v-1159h236v-123h-603v123h234v1159zM465 1659h-123v149h123v-149z" />
    <glyph glyph-name="dotlessi" unicode="&#x131;" horiz-adv-x="450" 
d="M164 1010h123v-1010h-123v1010z" />
    <glyph glyph-name="uni0136" unicode="&#x136;" horiz-adv-x="1155" 
d="M889 1405h145l-293 -680l353 -725h-150l-321 659h-306v-659h-133v1405h133v-623h306zM586 -244h-47v142h116v-142l-26 -166h-43v166z" />
    <glyph glyph-name="uni0137" unicode="&#x137;" horiz-adv-x="933" 
d="M709 1010h129l-226 -473l281 -537h-141l-250 481h-215v-481h-123v1405h123v-811h223zM489 -244h-47v142h117v-142l-27 -166h-43v166z" />
    <glyph glyph-name="Lacute" unicode="&#x139;" horiz-adv-x="1007" 
d="M317 123h670v-123h-803v1405h133v-1282zM309 1597h-123l248 267h162z" />
    <glyph glyph-name="lacute" unicode="&#x13a;" horiz-adv-x="450" 
d="M164 1405h123v-1405h-123v1405zM287 1597h-123l248 267h161z" />
    <glyph glyph-name="uni013B" unicode="&#x13b;" horiz-adv-x="1007" 
d="M317 123h670v-123h-803v1405h133v-1282zM582 -244h-47v142h116v-142l-26 -166h-43v166z" />
    <glyph glyph-name="uni013C" unicode="&#x13c;" horiz-adv-x="450" 
d="M164 1405h123v-1405h-123v1405zM215 -244h-47v142h117v-142l-27 -166h-43v166z" />
    <glyph glyph-name="Lcaron" unicode="&#x13d;" horiz-adv-x="1007" 
d="M317 123h670v-123h-803v1405h133v-1282zM588 1264h-47v141h116v-141l-26 -166h-43v166z" />
    <glyph glyph-name="lcaron" unicode="&#x13e;" horiz-adv-x="557" 
d="M164 1405h123v-1405h-123v1405zM508 1264h-47v141h117v-141l-27 -166h-43v166z" />
    <glyph glyph-name="Lslash" unicode="&#x141;" horiz-adv-x="1015" 
d="M195 498l-134 -92v129l134 92v778h133v-684l252 178v-129l-252 -178v-469h667v-123h-800v498z" />
    <glyph glyph-name="lslash" unicode="&#x142;" horiz-adv-x="491" 
d="M164 537l-113 -84v127l113 84v741h123v-649l164 125v-127l-164 -125v-629h-123v537z" />
    <glyph glyph-name="Nacute" unicode="&#x143;" horiz-adv-x="1290" 
d="M1106 1405v-1405h-178l-606 1204h-5v-1204h-133v1405h178l607 -1204h4v1204h133zM657 1597h-122l247 267h162z" />
    <glyph glyph-name="nacute" unicode="&#x144;" horiz-adv-x="1069" 
d="M905 0h-123v772l-125 125h-182l-188 -170v-727h-123v1010h94l23 -150h6l155 150h283l180 -181v-829zM543 1198h-123l248 266h161z" />
    <glyph glyph-name="uni0145" unicode="&#x145;" horiz-adv-x="1290" 
d="M1106 1405v-1405h-178l-606 1204h-5v-1204h-133v1405h178l607 -1204h4v1204h133zM633 -244h-47v142h116v-142l-26 -166h-43v166z" />
    <glyph glyph-name="uni0146" unicode="&#x146;" horiz-adv-x="1069" 
d="M905 0h-123v772l-125 125h-182l-188 -170v-727h-123v1010h94l23 -150h6l155 150h283l180 -181v-829zM520 -244h-47v142h117v-142l-27 -166h-43v166z" />
    <glyph glyph-name="Ncaron" unicode="&#x147;" horiz-adv-x="1290" 
d="M1106 1405v-1405h-178l-606 1204h-5v-1204h-133v1405h178l607 -1204h4v1204h133zM471 1864l170 -209l170 209h113l-217 -267h-132l-217 267h113z" />
    <glyph glyph-name="ncaron" unicode="&#x148;" horiz-adv-x="1069" 
d="M905 0h-123v772l-125 125h-182l-188 -170v-727h-123v1010h94l23 -150h6l155 150h283l180 -181v-829zM354 1464l170 -209l170 209h113l-217 -266h-131l-217 266h112z" />
    <glyph glyph-name="Omacron" unicode="&#x14c;" horiz-adv-x="1306" 
d="M1133 1180v-955l-226 -225h-508l-225 225v955l225 225h508zM465 1282l-158 -158v-841l158 -160h377l157 158v843l-157 158h-377zM885 1659h-465v92h465v-92z" />
    <glyph glyph-name="omacron" unicode="&#x14d;" horiz-adv-x="1079" 
d="M745 1010l181 -181v-649l-181 -180h-411l-180 180v649l180 181h411zM401 897l-125 -125v-534l125 -125h277l125 125v534l-125 125h-277zM770 1270h-465v92h465v-92z" />
    <glyph glyph-name="Ohungarumlaut" unicode="&#x150;" horiz-adv-x="1306" 
d="M1133 1180v-955l-226 -225h-508l-225 225v955l225 225h508zM465 1282l-158 -158v-841l158 -160h377l157 158v843l-157 158h-377zM555 1597h-98l215 267h131zM836 1597h-99l215 267h131z" />
    <glyph glyph-name="ohungarumlaut" unicode="&#x151;" horiz-adv-x="1081" 
d="M745 1010l181 -181v-649l-181 -180h-411l-180 180v649l180 181h411zM401 897l-125 -125v-534l125 -125h277l125 125v534l-125 125h-277zM440 1198h-98l215 266h131zM721 1198h-98l215 266h131z" />
    <glyph glyph-name="OE" unicode="&#x152;" horiz-adv-x="1548" 
d="M1425 123v-123h-1026l-225 225v955l225 225h1026v-123h-512v-502h449v-123h-449v-534h512zM465 1282l-158 -158v-841l158 -160h315v1159h-315z" />
    <glyph glyph-name="oe" unicode="&#x153;" horiz-adv-x="1564" 
d="M154 180v649l180 181h323l129 -129h5l129 129h321l180 -181v-372h-571v-224l121 -120h248l122 120l91 -86l-148 -147h-364l-129 129h-5l-129 -129h-323zM606 113l121 120v543l-121 121h-205l-125 -125v-534l125 -125h205zM971 897l-121 -121v-207h448v203l-124 125h-203z
" />
    <glyph glyph-name="Racute" unicode="&#x154;" horiz-adv-x="1191" 
d="M1130 0h-151l-330 565h-332v-565h-133v1405h615l225 -225v-381l-225 -226zM891 1124l-158 158h-416v-594h416l158 158v278zM627 1597h-123l248 267h161z" />
    <glyph glyph-name="racute" unicode="&#x155;" horiz-adv-x="677" 
d="M281 860h6l155 150h217v-119h-190l-182 -164v-727h-123v1010h94zM459 1198h-123l248 266h161z" />
    <glyph glyph-name="uni0156" unicode="&#x156;" horiz-adv-x="1191" 
d="M1130 0h-151l-330 565h-332v-565h-133v1405h615l225 -225v-381l-225 -226zM891 1124l-158 158h-416v-594h416l158 158v278zM618 -244h-47v142h117v-142l-26 -166h-44v166z" />
    <glyph glyph-name="uni0157" unicode="&#x157;" horiz-adv-x="679" 
d="M281 860h6l155 150h217v-119h-190l-182 -164v-727h-123v1010h94zM215 -244h-47v142h117v-142l-27 -166h-43v166z" />
    <glyph glyph-name="Rcaron" unicode="&#x158;" horiz-adv-x="1191" 
d="M1130 0h-151l-330 565h-332v-565h-133v1405h615l225 -225v-381l-225 -226zM891 1124l-158 158h-416v-594h416l158 158v278zM422 1864l170 -209l170 209h112l-217 -267h-131l-217 267h113z" />
    <glyph glyph-name="rcaron" unicode="&#x159;" horiz-adv-x="679" 
d="M281 860h6l155 150h217v-119h-190l-182 -164v-727h-123v1010h94zM240 1464l170 -209l170 209h112l-217 -266h-131l-217 266h113z" />
    <glyph glyph-name="Sacute" unicode="&#x15a;" horiz-adv-x="1167" 
d="M416 1282l-158 -158v-194l158 -158h424l225 -225v-322l-225 -225h-533l-215 215l94 92l187 -184h401l158 158v211l-158 157h-424l-225 225v306l225 225h475l191 -191l-94 -90l-162 158h-344zM625 1597h-123l248 267h161z" />
    <glyph glyph-name="sacute" unicode="&#x15b;" horiz-adv-x="978" 
d="M877 170l-170 -170h-457l-148 147l91 86l122 -120h324l115 114v113l-115 115h-350l-170 170v215l170 170h403l144 -144l-91 -86l-118 117h-271l-114 -115v-100l114 -115h351l170 -170v-227zM500 1198h-123l248 266h161z" />
    <glyph glyph-name="Scedilla" unicode="&#x15e;" horiz-adv-x="1167" 
d="M459 -362l-60 59l60 59l39 -39h120l29 29v37l-29 29h-165v77l100 111h-246l-215 215l94 92l187 -184h401l158 158v211l-158 157h-424l-225 225v306l225 225h475l191 -191l-94 -90l-162 158h-344l-158 -158v-194l158 -158h424l225 -225v-322l-225 -225h-193l-96 -109h113
l69 -69v-115l-69 -69h-205z" />
    <glyph glyph-name="scedilla" unicode="&#x15f;" horiz-adv-x="978" 
d="M362 -362l-59 59l59 59l39 -39h121l29 29v37l-29 29h-166v77l101 111h-207l-148 147l91 86l122 -120h324l115 114v113l-115 115h-350l-170 170v215l170 170h403l144 -144l-91 -86l-118 117h-271l-114 -115v-100l114 -115h351l170 -170v-227l-170 -170h-156l-96 -109h112
l70 -69v-115l-70 -69h-205z" />
    <glyph glyph-name="Scaron" unicode="&#x160;" horiz-adv-x="1167" 
d="M416 1282l-158 -158v-194l158 -158h424l225 -225v-322l-225 -225h-533l-215 215l94 92l187 -184h401l158 158v211l-158 157h-424l-225 225v306l225 225h475l191 -191l-94 -90l-162 158h-344zM414 1864l170 -209l170 209h112l-217 -267h-131l-217 267h113z" />
    <glyph glyph-name="scaron" unicode="&#x161;" horiz-adv-x="978" 
d="M877 170l-170 -170h-457l-148 147l91 86l122 -120h324l115 114v113l-115 115h-350l-170 170v215l170 170h403l144 -144l-91 -86l-118 117h-271l-114 -115v-100l114 -115h351l170 -170v-227zM303 1464l170 -209l170 209h113l-217 -266h-131l-218 266h113z" />
    <glyph glyph-name="uni0162" unicode="&#x162;" horiz-adv-x="989" 
d="M969 1405v-123h-408v-1282h-133v1282h-408v123h949zM485 -244h-47v142h117v-142l-27 -166h-43v166z" />
    <glyph glyph-name="uni0163" unicode="&#x163;" horiz-adv-x="667" 
d="M186 897h-125v113h125v223l97 41h26v-264h213v-113h-213v-659l119 -119h188v-119h-249l-181 180v717zM389 -244h-47v142h117v-142l-27 -166h-43v166z" />
    <glyph glyph-name="Tcaron" unicode="&#x164;" horiz-adv-x="989" 
d="M969 1405v-123h-408v-1282h-133v1282h-408v123h949zM322 1864l170 -209l170 209h112l-217 -267h-131l-217 267h113z" />
    <glyph glyph-name="tcaron" unicode="&#x165;" horiz-adv-x="729" 
d="M186 897h-125v113h125v223l97 41h26v-264h213v-113h-213v-659l119 -119h188v-119h-249l-181 180v717zM680 1133h-47v141h117v-141l-27 -166h-43v166z" />
    <glyph glyph-name="Umacron" unicode="&#x16a;" horiz-adv-x="1310" 
d="M993 1405h133v-1180l-225 -225h-491l-226 225v1180h133v-1122l158 -160h361l157 158v1124zM887 1659h-465v92h465v-92z" />
    <glyph glyph-name="umacron" unicode="&#x16b;" horiz-adv-x="1069" 
d="M164 1010h123v-772l125 -125h182l188 170v727h123v-1010h-94l-23 150h-6l-155 -150h-283l-180 180v830zM770 1270h-465v92h465v-92z" />
    <glyph glyph-name="Uring" unicode="&#x16e;" horiz-adv-x="1310" 
d="M993 1405h133v-1180l-225 -225h-491l-226 225v1180h133v-1122l158 -160h361l157 158v1124zM817 1653l-82 -82h-157l-82 82v155l82 82h157l82 -82v-155zM625 1815l-47 -48v-73l47 -47h63l47 47v73l-47 48h-63z" />
    <glyph glyph-name="uring" unicode="&#x16f;" horiz-adv-x="1069" 
d="M164 1010h123v-772l125 -125h182l188 170v727h123v-1010h-94l-23 150h-6l-155 -150h-283l-180 180v830zM696 1253l-82 -82h-157l-82 82v156l82 82h157l82 -82v-156zM504 1415l-47 -47v-74l47 -47h63l47 47v74l-47 47h-63z" />
    <glyph glyph-name="Uhungarumlaut" unicode="&#x170;" horiz-adv-x="1310" 
d="M993 1405h133v-1180l-225 -225h-491l-226 225v1180h133v-1122l158 -160h361l157 158v1124zM539 1597h-99l215 267h131zM819 1597h-98l215 267h131z" />
    <glyph glyph-name="uhungarumlaut" unicode="&#x171;" horiz-adv-x="1075" 
d="M164 1010h123v-772l125 -125h182l188 170v727h123v-1010h-94l-23 150h-6l-155 -150h-283l-180 180v830zM424 1198h-98l215 266h131zM705 1198h-99l215 266h131z" />
    <glyph glyph-name="Uogonek" unicode="&#x172;" horiz-adv-x="1310" 
d="M600 -238h158v-79h-203l-70 69v131l131 117h-206l-226 225v1180h133v-1122l158 -160h361l157 158v1124h133v-1180l-225 -225h-172l-158 -143v-66z" />
    <glyph glyph-name="uogonek" unicode="&#x173;" horiz-adv-x="1077" 
d="M776 -238h158v-79h-203l-69 69v131l147 129l-21 138h-6l-155 -150h-283l-180 180v830h123v-772l125 -125h182l188 170v727h123v-1010l-157 -143v-66z" />
    <glyph glyph-name="Ydieresis" unicode="&#x178;" horiz-adv-x="1028" 
d="M514 696h2l354 709h148l-432 -852v-553h-144v553l-432 852h148l354 -709h2zM426 1659h-113v149h113v-149zM721 1659h-113v149h113v-149z" />
    <glyph glyph-name="Zacute" unicode="&#x179;" horiz-adv-x="1050" 
d="M125 0l-53 109l739 1169v4h-719v123h828l53 -109l-740 -1169v-4h746v-123h-854zM543 1597h-123l248 267h161z" />
    <glyph glyph-name="zacute" unicode="&#x17a;" horiz-adv-x="868" 
d="M102 0l-41 70l576 827h-557v113h680l41 -70l-576 -827h582v-113h-705zM446 1198h-122l247 266h162z" />
    <glyph glyph-name="Zdotaccent" unicode="&#x17b;" horiz-adv-x="1050" 
d="M125 0l-53 109l739 1169v4h-719v123h828l53 -109l-740 -1169v-4h746v-123h-854zM592 1659h-123v149h123v-149z" />
    <glyph glyph-name="zdotaccent" unicode="&#x17c;" horiz-adv-x="868" 
d="M102 0l-41 70l576 827h-557v113h680l41 -70l-576 -827h582v-113h-705zM494 1270h-123v149h123v-149z" />
    <glyph glyph-name="Zcaron" unicode="&#x17d;" horiz-adv-x="1050" 
d="M125 0l-53 109l739 1169v4h-719v123h828l53 -109l-740 -1169v-4h746v-123h-854zM352 1864l170 -209l170 209h113l-217 -267h-131l-217 267h112z" />
    <glyph glyph-name="zcaron" unicode="&#x17e;" horiz-adv-x="868" 
d="M102 0l-41 70l576 827h-557v113h680l41 -70l-576 -827h582v-113h-705zM260 1464l170 -209l170 209h113l-217 -266h-131l-218 266h113z" />
    <glyph glyph-name="florin" unicode="&#x192;" horiz-adv-x="761" 
d="M338 897h-125l16 113h125l31 215l205 180h264l-16 -119h-203l-135 -119l-23 -157h242l-17 -113h-241l-156 -1106l-207 -180h-200l18 119h139l135 118z" />
    <glyph glyph-name="uni0218" unicode="&#x218;" horiz-adv-x="1167" 
d="M416 1282l-158 -158v-194l158 -158h424l225 -225v-322l-225 -225h-533l-215 215l94 92l187 -184h401l158 158v211l-158 157h-424l-225 225v306l225 225h475l191 -191l-94 -90l-162 158h-344zM621 -244h-48v142h117v-142l-26 -166h-43v166z" />
    <glyph glyph-name="uni0219" unicode="&#x219;" horiz-adv-x="978" 
d="M877 170l-170 -170h-457l-148 147l91 86l122 -120h324l115 114v113l-115 115h-350l-170 170v215l170 170h403l144 -144l-91 -86l-118 117h-271l-114 -115v-100l114 -115h351l170 -170v-227zM483 -244h-47v142h117v-142l-27 -166h-43v166z" />
    <glyph glyph-name="uni021A" unicode="&#x21a;" horiz-adv-x="989" 
d="M969 1405v-123h-408v-1282h-133v1282h-408v123h949zM485 -244h-47v142h117v-142l-27 -166h-43v166z" />
    <glyph glyph-name="uni021B" unicode="&#x21b;" horiz-adv-x="667" 
d="M186 897h-125v113h125v223l97 41h26v-264h213v-113h-213v-659l119 -119h188v-119h-249l-181 180v717zM389 -244h-47v142h117v-142l-27 -166h-43v166z" />
    <glyph glyph-name="uni02BC" unicode="&#x2bc;" horiz-adv-x="239" 
d="M109 1335h-48v142h117v-142l-26 -166h-43v166z" />
    <glyph glyph-name="circumflex" unicode="&#x2c6;" horiz-adv-x="663" 
d="M602 1208h-113l-157 209l-158 -209h-113l205 267h131z" />
    <glyph glyph-name="caron" unicode="&#x2c7;" horiz-adv-x="688" 
d="M174 1475l170 -209l170 209h113l-217 -267h-131l-218 267h113z" />
    <glyph glyph-name="breve" unicode="&#x2d8;" horiz-adv-x="559" 
d="M193 1298h174l41 41v64h90v-100l-84 -82h-269l-84 82v100h91v-64z" />
    <glyph glyph-name="dotaccent" unicode="&#x2d9;" horiz-adv-x="245" 
d="M184 1247h-123v150h123v-150z" />
    <glyph glyph-name="ring" unicode="&#x2da;" horiz-adv-x="444" 
d="M383 1276l-82 -82h-158l-82 82v156l82 81h158l82 -81v-156zM190 1438l-47 -47v-74l47 -47h64l47 47v74l-47 47h-64z" />
    <glyph glyph-name="ogonek" unicode="&#x2db;" horiz-adv-x="395" 
d="M176 -238h158v-79h-203l-70 69v131l132 117h112l-158 -143v-66z" />
    <glyph glyph-name="tilde" unicode="&#x2dc;" horiz-adv-x="622" 
d="M446 1311l31 30v58h84v-92l-78 -80h-127l-114 86h-66l-31 -31v-57h-84v92l78 80h127l115 -86h65z" />
    <glyph glyph-name="hungarumlaut" unicode="&#x2dd;" horiz-adv-x="749" 
d="M160 1208h-99l215 267h132zM440 1208h-98l215 267h131z" />
    <glyph glyph-name="uni0401" unicode="&#x401;" horiz-adv-x="1120" 
d="M934 657h-617v-534h680v-123h-813v1405h813v-123h-680v-502h617v-123zM508 1583h-113v150h113v-150zM803 1583h-113v150h113v-150z" />
    <glyph glyph-name="uni0402" unicode="&#x402;" horiz-adv-x="1218" 
d="M788 -172l154 207v604l-160 160h-192l-182 -183v-616h-134v1282h-274v123h801v-123h-393v-498l137 138h305l225 -226v-686l-186 -256z" />
    <glyph glyph-name="uni0403" unicode="&#x403;" horiz-adv-x="1013" 
d="M629 1522h-123l248 266h161zM184 1405h809v-123h-676v-1282h-133v1405z" />
    <glyph glyph-name="uni0404" unicode="&#x404;" horiz-adv-x="1193" 
d="M780 659h-473v-378l158 -158h377l186 184l94 -92l-215 -215h-508l-225 225v955l225 225h488l205 -205l-95 -92l-176 174h-356l-158 -158v-342h473v-123z" />
    <glyph glyph-name="uni0405" unicode="&#x405;" horiz-adv-x="1167" 
d="M416 1282l-158 -158v-194l158 -158h424l225 -225v-322l-225 -225h-533l-215 215l94 92l187 -184h401l158 158v211l-158 157h-424l-225 225v306l225 225h475l191 -191l-94 -90l-162 158h-344z" />
    <glyph glyph-name="uni0406" unicode="&#x406;" horiz-adv-x="806" 
d="M336 1282h-234v123h603v-123h-236v-1159h236v-123h-603v123h234v1159z" />
    <glyph glyph-name="uni0407" unicode="&#x407;" horiz-adv-x="806" 
d="M336 1282h-234v123h603v-123h-236v-1159h236v-123h-603v123h234v1159zM311 1583h-112v150h112v-150zM606 1583h-112v150h112v-150z" />
    <glyph glyph-name="uni0408" unicode="&#x408;" horiz-adv-x="747" 
d="M51 123h221l158 158v1001h-283v123h416v-1180l-225 -225h-287v123z" />
    <glyph glyph-name="uni0409" unicode="&#x409;" horiz-adv-x="1814" 
d="M178 0h-158v133h99l80 80l137 1192h678v-514h452l226 -225v-441l-226 -225h-585v1282h-426l-136 -1139zM1014 768v-645h387l158 158v329l-158 158h-387z" />
    <glyph glyph-name="uni040A" unicode="&#x40a;" horiz-adv-x="1845" 
d="M1497 0h-586v694h-594v-694h-133v1405h133v-588h594v588h133v-588h453l225 -225v-367zM1044 694v-571h388l157 158v256l-157 157h-388z" />
    <glyph glyph-name="uni040B" unicode="&#x40b;" horiz-adv-x="1239" 
d="M1075 0h-133v639l-160 160h-192l-182 -183v-616h-134v1282h-274v123h801v-123h-393v-498l137 138h305l225 -226v-696z" />
    <glyph glyph-name="uni040C" unicode="&#x40c;" horiz-adv-x="1155" 
d="M889 1405h145l-293 -680l353 -725h-150l-321 659h-306v-659h-133v1405h133v-623h306zM618 1522h-122l247 266h162z" />
    <glyph glyph-name="uni040E" unicode="&#x40e;" horiz-adv-x="1136" 
d="M492 1653h180l39 39v65h114v-117l-84 -84h-321l-84 84v117h117v-65zM745 494h-454l-199 911h131l172 -789h373l143 789h133l-225 -1227l-180 -178h-342v123h287l114 117z" />
    <glyph glyph-name="uni040F" unicode="&#x40f;" horiz-adv-x="1267" 
d="M700 -274h-133v274h-383v1405h133v-1282h633v1282h133v-1405h-383v-274z" />
    <glyph glyph-name="uni0410" unicode="&#x410;" horiz-adv-x="1064" 
d="M461 1405h143l440 -1405h-135l-118 379h-517l-118 -379h-136zM535 1237h-5l-217 -735h437z" />
    <glyph glyph-name="uni0411" unicode="&#x411;" horiz-adv-x="1193" 
d="M317 856h539l225 -225v-406l-225 -225h-672v1405h807v-123h-674v-426zM317 733v-610h474l157 158v294l-157 158h-474z" />
    <glyph glyph-name="uni0412" unicode="&#x412;" horiz-adv-x="1224" 
d="M1049 1180v-301l-144 -144l187 -186v-324l-226 -225h-682v1405h639zM317 662v-539h484l157 158v223l-157 158h-484zM915 1124l-157 158h-441v-498h465l133 134v206z" />
    <glyph glyph-name="uni0413" unicode="&#x413;" horiz-adv-x="1013" 
d="M184 1405h809v-123h-676v-1282h-133v1405z" />
    <glyph glyph-name="uni0414" unicode="&#x414;" horiz-adv-x="1263" 
d="M324 1405h714v-1282h154v-395h-133v272h-926v-272h-133v395h94l84 94zM905 1282h-463l-135 -1071l-71 -88h669v1159z" />
    <glyph glyph-name="uni0415" unicode="&#x415;" horiz-adv-x="1120" 
d="M934 657h-617v-534h680v-123h-813v1405h813v-123h-680v-502h617v-123z" />
    <glyph glyph-name="uni0416" unicode="&#x416;" horiz-adv-x="1669" 
d="M61 0l353 725l-293 680h145l266 -623h236v623h133v-623h236l266 623h145l-293 -680l353 -725h-150l-321 659h-236v-659h-133v659h-236l-321 -659h-150z" />
    <glyph glyph-name="uni0417" unicode="&#x417;" horiz-adv-x="1126" 
d="M51 215l94 92l187 -184h381l157 158v221l-157 157h-332v123h315l131 131v211l-157 158h-318l-176 -174l-94 92l205 205h448l226 -225v-301l-144 -144l187 -186v-324l-226 -225h-512z" />
    <glyph glyph-name="uni0418" unicode="&#x418;" horiz-adv-x="1284" 
d="M932 1405h168v-1405h-133v1192h-4l-611 -1192h-168v1405h133v-1192h5z" />
    <glyph glyph-name="uni0419" unicode="&#x419;" horiz-adv-x="1284" 
d="M559 1653h180l39 39v65h115v-117l-84 -84h-322l-84 84v117h117v-65zM932 1405h168v-1405h-133v1192h-4l-611 -1192h-168v1405h133v-1192h5z" />
    <glyph glyph-name="uni041A" unicode="&#x41a;" horiz-adv-x="1155" 
d="M889 1405h145l-293 -680l353 -725h-150l-321 659h-306v-659h-133v1405h133v-623h306z" />
    <glyph glyph-name="uni041B" unicode="&#x41b;" horiz-adv-x="1253" 
d="M178 0h-158v133h99l80 80l137 1192h733v-1405h-133v1282h-481l-136 -1139z" />
    <glyph glyph-name="uni041C" unicode="&#x41c;" horiz-adv-x="1622" 
d="M1305 1210h-5l-413 -1210h-152l-413 1210h-5v-1210h-133v1405h201l424 -1237h2h2l424 1237h201v-1405h-133v1210z" />
    <glyph glyph-name="uni041D" unicode="&#x41d;" horiz-adv-x="1290" 
d="M1106 0h-133v668h-656v-668h-133v1405h133v-614h656v614h133v-1405z" />
    <glyph glyph-name="uni041E" unicode="&#x41e;" horiz-adv-x="1306" 
d="M1133 1180v-955l-226 -225h-508l-225 225v955l225 225h508zM465 1282l-158 -158v-841l158 -160h377l157 158v843l-157 158h-377z" />
    <glyph glyph-name="uni041F" unicode="&#x41f;" horiz-adv-x="1284" 
d="M1100 0h-133v1282h-650v-1282h-133v1405h916v-1405z" />
    <glyph glyph-name="uni0420" unicode="&#x420;" horiz-adv-x="1181" 
d="M317 506v-506h-133v1405h639l226 -225v-449l-226 -225h-506zM915 1124l-157 158h-441v-653h441l157 157v338z" />
    <glyph glyph-name="uni0421" unicode="&#x421;" horiz-adv-x="1193" 
d="M465 1282l-158 -158v-843l158 -158h377l186 184l94 -92l-215 -215h-508l-225 225v955l225 225h488l205 -205l-95 -92l-176 174h-356z" />
    <glyph glyph-name="uni0422" unicode="&#x422;" horiz-adv-x="989" 
d="M969 1405v-123h-408v-1282h-133v1282h-408v123h949z" />
    <glyph glyph-name="uni0423" unicode="&#x423;" horiz-adv-x="1136" 
d="M745 494h-454l-199 911h131l172 -789h373l143 789h133l-225 -1227l-180 -178h-342v123h287l114 117z" />
    <glyph glyph-name="uni0424" unicode="&#x424;" horiz-adv-x="1619" 
d="M369 1294h374v170h134v-170h374l226 -225v-739l-226 -226h-374v-165h-134v165h-374l-226 226v739zM743 227v944h-309l-158 -157v-629l158 -158h309zM1186 1171h-309v-944h309l157 158v629q-5 5 -21 21.5t-28 28.5q-11 11 -30.5 30t-27.5 27q-35 33 -50 50z" />
    <glyph glyph-name="uni0425" unicode="&#x425;" horiz-adv-x="1050" 
d="M829 1405h152l-385 -676l430 -729h-152l-354 618l-352 -618h-152l428 729l-383 676h152l307 -567z" />
    <glyph glyph-name="uni0426" unicode="&#x426;" horiz-adv-x="1306" 
d="M948 1405h133v-1282h154v-395h-133v272h-918v1405h133v-1282h631v1282z" />
    <glyph glyph-name="uni0427" unicode="&#x427;" horiz-adv-x="1202" 
d="M748 475h-369l-225 225v705h133v-647l159 -160h256l183 182v625h133v-1405h-133v612z" />
    <glyph glyph-name="uni0428" unicode="&#x428;" horiz-adv-x="1759" 
d="M1575 1405v-1405h-1391v1405h133v-1282h496v1282h133v-1282h496v1282h133z" />
    <glyph glyph-name="uni0429" unicode="&#x429;" horiz-adv-x="1796" 
d="M1438 1405h133v-1282h153v-395h-133v272h-1407v1405h133v-1282h494v1282h133v-1282h494v1282z" />
    <glyph glyph-name="uni042A" unicode="&#x42a;" horiz-adv-x="1259" 
d="M285 1282h-285v123h418v-514h493l226 -225v-441l-226 -225h-626v1282zM418 768v-645h428l158 158v329l-158 158h-428z" />
    <glyph glyph-name="uni042B" unicode="&#x42b;" horiz-adv-x="1576" 
d="M1260 1405h133v-1405h-133v1405zM184 0v1405h133v-514h471l226 -225v-441l-226 -225h-604zM317 768v-645h406l158 158v329l-158 158h-406z" />
    <glyph glyph-name="uni042C" unicode="&#x42c;" horiz-adv-x="1159" 
d="M184 0v1405h133v-514h494l225 -225v-441l-225 -225h-627zM317 768v-645h428l158 158v329l-158 158h-428z" />
    <glyph glyph-name="uni042D" unicode="&#x42d;" horiz-adv-x="1173" 
d="M709 123l157 158v378h-473v123h473v342l-157 158h-357l-176 -174l-94 92l205 205h487l225 -225v-955l-225 -225h-508l-215 215l94 92l187 -184h377z" />
    <glyph glyph-name="uni042E" unicode="&#x42e;" horiz-adv-x="1685" 
d="M1511 1180v-955l-225 -225h-461l-225 225v443h-283v-668h-133v1405h133v-614h283v389l225 225h461zM891 1282l-158 -158v-841l158 -160h330l157 158v843l-157 158h-330z" />
    <glyph glyph-name="uni042F" unicode="&#x42f;" horiz-adv-x="1187" 
d="M870 541h-338l-284 -541h-146l285 545l-227 227v408l225 225h619v-1405h-134v541zM870 664v618h-419l-158 -158v-301l160 -159h417z" />
    <glyph glyph-name="uni0430" unicode="&#x430;" horiz-adv-x="1048" 
d="M162 858l155 152h388l180 -181v-829h-94l-23 150h-6l-156 -150h-303l-180 180v230l180 180h459v182l-125 125h-254l-131 -125zM371 477l-125 -125v-114l125 -125h202l189 170v194h-391z" />
    <glyph glyph-name="uni0431" unicode="&#x431;" horiz-adv-x="1089" 
d="M412 1257l-125 -124v-273l96 96h373l180 -180v-596l-180 -180h-412l-180 180v1010l180 180h369l112 111l90 -86l-137 -138h-366zM412 844l-125 -125v-481l125 -125h276l125 125v481l-125 125h-276z" />
    <glyph glyph-name="uni0432" unicode="&#x432;" horiz-adv-x="1030" 
d="M741 0h-577v1010h557l166 -166v-191l-127 -127l147 -147v-213zM784 344l-118 119h-379v-350h387l110 110v121zM764 786l-111 111h-366v-326h370l107 107v108z" />
    <glyph glyph-name="uni0433" unicode="&#x433;" horiz-adv-x="796" 
d="M164 0v1010h622v-113h-499v-897h-123z" />
    <glyph glyph-name="uni0434" unicode="&#x434;" horiz-adv-x="1017" 
d="M946 -229h-123v229h-700v-229h-123v342h78l61 75l105 822h598v-897h104v-342zM350 897l-86 -713l-59 -71h514v784h-369z" />
    <glyph glyph-name="uni0435" unicode="&#x435;" horiz-adv-x="1044" 
d="M911 147l-147 -147h-430l-180 180v649l180 181h387l180 -181v-389h-625v-202l125 -125h297l123 120zM401 897l-125 -125v-219h502v219l-125 125h-252z" />
    <glyph glyph-name="uni0436" unicode="&#x436;" horiz-adv-x="1323" 
d="M41 0l281 530l-226 480h129l199 -424h176v424h123v-424h176l199 424h129l-226 -480l281 -530h-141l-250 473h-168v-473h-123v473h-168l-250 -473h-141z" />
    <glyph glyph-name="uni0437" unicode="&#x437;" horiz-adv-x="911" 
d="M158 780l-90 86l143 144h395l172 -172v-193l-123 -123l144 -143v-207l-172 -172h-439l-147 147l90 86l123 -120h305l117 116v111l-119 119h-262v112h254l106 107v102l-116 117h-263z" />
    <glyph glyph-name="uni0438" unicode="&#x438;" horiz-adv-x="1089" 
d="M926 0h-123v817h-4l-492 -817h-143v1010h123v-817h4l491 817h144v-1010z" />
    <glyph glyph-name="uni0439" unicode="&#x439;" horiz-adv-x="1089" 
d="M463 1239h164l41 41v57h102v-108l-84 -82h-283l-84 82v108h103v-57zM926 0h-123v817h-4l-492 -817h-143v1010h123v-817h4l491 817h144v-1010z" />
    <glyph glyph-name="uni043A" unicode="&#x43a;" horiz-adv-x="942" 
d="M717 1010h129l-225 -480l280 -530h-141l-250 473h-223v-473h-123v1010h123v-424h231z" />
    <glyph glyph-name="uni043B" unicode="&#x43b;" horiz-adv-x="1034" 
d="M162 0h-152v123h90l68 78l98 809h604v-1010h-122v897h-373l-92 -764z" />
    <glyph glyph-name="uni043C" unicode="&#x43c;" horiz-adv-x="1286" 
d="M999 840h-4l-288 -840h-127l-289 840h-4v-840h-123v1010h194l283 -846h2h2l283 846h194v-1010h-123v840z" />
    <glyph glyph-name="uni043D" unicode="&#x43d;" 
d="M907 0h-123v473h-497v-473h-123v1010h123v-424h497v424h123v-1010z" />
    <glyph glyph-name="uni043E" unicode="&#x43e;" horiz-adv-x="1079" 
d="M745 1010l181 -181v-649l-181 -180h-411l-180 180v649l180 181h411zM401 897l-125 -125v-534l125 -125h277l125 125v534l-125 125h-277z" />
    <glyph glyph-name="uni043F" unicode="&#x43f;" horiz-adv-x="1064" 
d="M901 0h-123v897h-491v-897h-123v1010h737v-1010z" />
    <glyph glyph-name="uni0440" unicode="&#x440;" 
d="M442 0l-155 150v-539h-123v1399h94l23 -150h6l155 150h295l181 -181v-649l-181 -180h-295zM670 113l125 125v534l-125 125h-195l-188 -170v-444l188 -170h195z" />
    <glyph glyph-name="uni0441" unicode="&#x441;" horiz-adv-x="968" 
d="M907 147l-147 -147h-426l-180 180v649l180 181h409l144 -144l-90 -86l-119 117h-277l-125 -125v-534l125 -125h293l123 120z" />
    <glyph glyph-name="uni0442" unicode="&#x442;" horiz-adv-x="806" 
d="M342 897h-322v113h766v-113h-321v-897h-123v897z" />
    <glyph glyph-name="uni0443" unicode="&#x443;" horiz-adv-x="946" 
d="M481 0h-153l-267 1010h123l236 -897h92l250 897h123l-389 -1399h-123z" />
    <glyph glyph-name="uni0444" unicode="&#x444;" horiz-adv-x="1388" 
d="M633 1405h123v-471l75 76h224l180 -181v-649l-180 -180h-224l-75 76v-465h-123v465l-76 -76h-223l-180 180v649l180 181h223l76 -76v471zM401 897l-125 -125v-534l125 -125h127l105 104v576l-105 104h-127zM987 113l125 125v534l-125 125h-127l-104 -104v-576l104 -104
h127z" />
    <glyph glyph-name="uni0445" unicode="&#x445;" horiz-adv-x="860" 
d="M799 1010l-295 -471l336 -539h-144l-264 428h-4l-264 -428h-144l336 539l-295 471h144l221 -367h8l221 367h144z" />
    <glyph glyph-name="uni0446" unicode="&#x446;" horiz-adv-x="1058" 
d="M987 -229h-123v229h-700v1010h123v-897h473v897h123v-897h104v-342z" />
    <glyph glyph-name="uni0447" unicode="&#x447;" horiz-adv-x="1028" 
d="M602 436l139 139v435h123v-1010h-123v428l-104 -104h-313l-181 180v506h123v-449l125 -125h211z" />
    <glyph glyph-name="uni0448" unicode="&#x448;" horiz-adv-x="1384" 
d="M1221 1010v-1010h-1057v1010h123v-897h344v897h123v-897h344v897h123z" />
    <glyph glyph-name="uni0449" unicode="&#x449;" horiz-adv-x="1394" 
d="M1323 -229h-123v229h-1036v1010h123v-899h344v899h123v-899h344v899h123v-899h102v-340z" />
    <glyph glyph-name="uni044A" unicode="&#x44a;" horiz-adv-x="1017" 
d="M213 897h-213v113h336v-359h409l181 -180v-291l-181 -180h-532v897zM678 539h-342v-426h342l125 125v176z" />
    <glyph glyph-name="uni044B" unicode="&#x44b;" horiz-adv-x="1314" 
d="M1028 0v1010h123v-1010h-123zM164 0v1010h123v-359h387l180 -180v-291l-180 -180h-510zM606 539h-319v-426h319l125 125v176z" />
    <glyph glyph-name="uni044C" unicode="&#x44c;" horiz-adv-x="968" 
d="M164 0v1010h123v-359h409l181 -180v-291l-181 -180h-532zM629 539h-342v-426h342l125 125v176z" />
    <glyph glyph-name="uni044D" unicode="&#x44d;" horiz-adv-x="948" 
d="M795 180l-181 -180h-426l-147 147l90 86l123 -120h293l125 125v219h-377v112h377v203l-125 125h-277l-118 -117l-91 86l144 144h409l181 -181v-649z" />
    <glyph glyph-name="uni044E" unicode="&#x44e;" horiz-adv-x="1402" 
d="M1069 1010l180 -181v-649l-180 -180h-375l-180 180v287h-227v-467h-123v1010h123v-430h227v249l180 181h375zM762 897l-125 -125v-534l125 -125h239l125 125v534l-125 125h-239z" />
    <glyph glyph-name="uni044F" unicode="&#x44f;" horiz-adv-x="1017" 
d="M854 1010v-1010h-123v385h-299l-196 -385h-134l207 403l-178 179v247l180 181h543zM381 498h350v399h-352l-125 -125v-147z" />
    <glyph glyph-name="uni0451" unicode="&#x451;" horiz-adv-x="1044" 
d="M911 147l-147 -147h-430l-180 180v649l180 181h387l180 -181v-389h-625v-202l125 -125h297l123 120zM401 897l-125 -125v-219h502v219l-125 125h-252zM434 1167h-112v150h112v-150zM729 1167h-113v150h113v-150z" />
    <glyph glyph-name="uni0452" unicode="&#x452;" horiz-adv-x="1054" 
d="M639 -176l149 201v645l-124 125h-160l-189 -170v-625h-122v1112h-193v113h193v180h122v-180h299v-113h-299v-354l156 149h260l180 -180v-721l-180 -250z" />
    <glyph glyph-name="uni0453" unicode="&#x453;" horiz-adv-x="796" 
d="M524 1106h-123l248 266h162zM164 0v1010h622v-113h-499v-897h-123z" />
    <glyph glyph-name="uni0454" unicode="&#x454;" horiz-adv-x="968" 
d="M907 147l-147 -147h-426l-180 180v649l180 181h409l144 -144l-90 -86l-119 117h-277l-125 -125v-203h377v-112h-377v-219l125 -125h293l123 120z" />
    <glyph glyph-name="uni0455" unicode="&#x455;" horiz-adv-x="978" 
d="M877 170l-170 -170h-457l-148 147l91 86l122 -120h324l115 114v113l-115 115h-350l-170 170v215l170 170h403l144 -144l-91 -86l-118 117h-271l-114 -115v-100l114 -115h351l170 -170v-227z" />
    <glyph glyph-name="uni0456" unicode="&#x456;" horiz-adv-x="450" 
d="M164 1010h123v-1010h-123v1010zM287 1253h-123v152h123v-152z" />
    <glyph glyph-name="uni0457" unicode="&#x457;" horiz-adv-x="448" 
d="M162 1010h123v-1010h-123v1010zM133 1167h-113v150h113v-150zM428 1167h-113v150h113v-150z" />
    <glyph glyph-name="uni0458" unicode="&#x458;" horiz-adv-x="452" 
d="M166 1010h123v-1143l-219 -273l-90 76l186 232v1108zM289 1253h-123v152h123v-152z" />
    <glyph glyph-name="uni0459" unicode="&#x459;" horiz-adv-x="1470" 
d="M162 0h-152v123h90l68 78l98 809h563v-359h369l180 -180v-291l-180 -180h-491v897h-332l-92 -764zM1130 539h-301v-426h301l125 125v176z" />
    <glyph glyph-name="uni045A" unicode="&#x45a;" horiz-adv-x="1499" 
d="M1237 0h-504v494h-446v-494h-123v1010h123v-404h446v404h123v-404h381l170 -170v-266zM1169 494h-313v-381h313l115 114v152z" />
    <glyph glyph-name="uni045B" unicode="&#x45b;" horiz-adv-x="1054" 
d="M911 0h-123v670l-124 125h-160l-189 -170v-625h-122v1112h-193v113h193v180h122v-180h299v-113h-299v-354l156 149h260l180 -180v-727z" />
    <glyph glyph-name="uni045C" unicode="&#x45c;" horiz-adv-x="942" 
d="M535 1106h-123l247 266h162zM717 1010h129l-225 -480l280 -530h-141l-250 473h-223v-473h-123v1010h123v-424h231z" />
    <glyph glyph-name="uni045E" unicode="&#x45e;" horiz-adv-x="946" 
d="M395 1239h164l41 41v57h102v-108l-84 -82h-282l-84 82v108h102v-57zM481 0h-153l-267 1010h123l236 -897h92l250 897h123l-389 -1399h-123z" />
    <glyph glyph-name="uni045F" unicode="&#x45f;" horiz-adv-x="1044" 
d="M584 -229h-123v229h-297v1010h123v-897h471v897h123v-1010h-297v-229z" />
    <glyph glyph-name="uni0490" unicode="&#x490;" horiz-adv-x="1013" 
d="M860 1638h133v-356h-676v-1282h-133v1405h676v233z" />
    <glyph glyph-name="uni0491" unicode="&#x491;" horiz-adv-x="796" 
d="M164 0v1010h500v182h122v-295h-499v-897h-123z" />
    <glyph glyph-name="uni1E9E" unicode="&#x1e9e;" horiz-adv-x="1234" 
d="M317 1186v-1186h-133v1241l164 164h496l157 -158l-319 -438v-4h215l225 -225v-355l-225 -225h-379v123h313l158 158v243l-158 158h-292v123l290 420l-57 57h-358z" />
    <glyph glyph-name="endash" unicode="&#x2013;" horiz-adv-x="864" 
d="M803 442h-742v103h742v-103z" />
    <glyph glyph-name="emdash" unicode="&#x2014;" horiz-adv-x="1417" 
d="M1356 442h-1295v103h1295v-103z" />
    <glyph glyph-name="quoteleft" unicode="&#x2018;" horiz-adv-x="256" 
d="M137 1192h58v-154h-134v154l33 213h43v-213z" />
    <glyph glyph-name="quoteright" unicode="&#x2019;" horiz-adv-x="256" 
d="M119 1251h-58v154h134v-154l-33 -213h-43v213z" />
    <glyph glyph-name="quotesinglbase" unicode="&#x201a;" horiz-adv-x="256" 
d="M119 0h-58v154h134v-154l-33 -213h-43v213z" />
    <glyph glyph-name="quotedblleft" unicode="&#x201c;" horiz-adv-x="526" 
d="M408 1192h57v-154h-133v154l33 213h43v-213zM137 1192h58v-154h-134v154l33 213h43v-213z" />
    <glyph glyph-name="quotedblright" unicode="&#x201d;" horiz-adv-x="526" 
d="M119 1251h-58v154h134v-154l-33 -213h-43v213zM389 1251h-57v154h133v-154l-33 -213h-43v213z" />
    <glyph glyph-name="quotedblbase" unicode="&#x201e;" horiz-adv-x="526" 
d="M119 0h-58v154h134v-154l-33 -213h-43v213zM389 0h-57v154h133v-154l-33 -213h-43v213z" />
    <glyph glyph-name="dagger" unicode="&#x2020;" horiz-adv-x="868" 
d="M61 1008v118h252l82 -22l-22 84v332h123v-332l-23 -84l84 22h250v-118h-250l-84 22l23 -84v-1386l-62 -62l-61 62v1386l22 84l-82 -22h-252z" />
    <glyph glyph-name="daggerdbl" unicode="&#x2021;" horiz-adv-x="868" 
d="M61 205v119h252l82 -23l-22 84v561l22 84l-82 -22h-252v118h252l82 -22l-22 84v332h123v-332l-23 -84l84 22h250v-118h-250l-84 22l23 -84v-561l-23 -84l84 23h250v-119h-250l-84 22l23 -84v-583l-62 -62l-61 62v583l22 84l-82 -22h-252z" />
    <glyph glyph-name="bullet" unicode="&#x2022;" horiz-adv-x="729" 
d="M365 414l-181 180l181 182l180 -182z" />
    <glyph glyph-name="ellipsis" unicode="&#x2026;" horiz-adv-x="1026" 
d="M195 0h-134v154h134v-154zM580 0h-134v154h134v-154zM965 0h-134v154h134v-154z" />
    <glyph glyph-name="perthousand" unicode="&#x2030;" horiz-adv-x="2088" 
d="M408 0h-129l784 1405h129zM221 739l-139 140v387l139 139h271l139 -139v-387l-139 -140h-271zM434 836l84 84v305l-84 84h-155l-84 -84v-305l84 -84h155zM1210 666l140 -140v-387l-140 -139h-270l-139 139v387l139 140h270zM997 569l-84 -84v-305l84 -84h156l84 84v305
l-84 84h-156zM1868 666l139 -140v-387l-139 -139h-271l-139 139v387l139 140h271zM1655 569l-84 -84v-305l84 -84h155l84 84v305l-84 84h-155z" />
    <glyph glyph-name="guilsinglleft" unicode="&#x2039;" horiz-adv-x="450" 
d="M379 121h-125l-182 348l182 348h125l-186 -348z" />
    <glyph glyph-name="guilsinglright" unicode="&#x203a;" horiz-adv-x="450" 
d="M197 817l182 -348l-182 -348h-125l186 348l-186 348h125z" />
    <glyph glyph-name="fraction" unicode="&#x2044;" horiz-adv-x="299" 
d="M-178 0h-129l784 1405h129z" />
    <glyph glyph-name="uni2070" unicode="&#x2070;" horiz-adv-x="710" 
d="M205 860l-123 123v502l123 123h301l123 -123v-502l-123 -123h-301zM516 1335l-321 -309l69 -70h182l70 70v309zM264 1511l-69 -69v-309l321 309l-70 69h-182z" />
    <glyph glyph-name="uni2074" unicode="&#x2074;" horiz-adv-x="645" 
d="M594 1024h-96v-164h-113v164h-385v98l367 486h131v-488h96v-96zM385 1485l-270 -365h270v365z" />
    <glyph glyph-name="uni2075" unicode="&#x2075;" horiz-adv-x="673" 
d="M602 1212v-229l-123 -123h-309l-109 107l78 75l88 -86h193l69 70v143l-69 70h-156l-55 -55h-113v424h473v-97h-360v-221l45 45h225z" />
    <glyph glyph-name="uni2076" unicode="&#x2076;" horiz-adv-x="681" 
d="M264 1511l-69 -69v-164l57 57h246l123 -123v-229l-123 -123h-293l-123 123v502l123 123h295l100 -99l-76 -75l-82 77h-178zM195 1169v-143l69 -70h174l70 70v143l-70 70h-174z" />
    <glyph glyph-name="uni2077" unicode="&#x2077;" horiz-adv-x="567" 
d="M240 860v311l219 340h-283v-84h-115v181h478l49 -82l-236 -379v-287h-112z" />
    <glyph glyph-name="uni2078" unicode="&#x2078;" horiz-adv-x="720" 
d="M639 983l-123 -123h-311l-123 123v178l98 99l-80 79v146l123 123h275l123 -123v-146l-80 -79l98 -99v-178zM526 1133l-71 71h-189l-71 -71v-107l69 -70h193l69 70v107zM508 1442l-70 69h-155l-70 -69v-74l68 -68h159l68 68v74z" />
    <glyph glyph-name="uni2079" unicode="&#x2079;" horiz-adv-x="688" 
d="M424 956l70 70v164l-58 -57h-246l-122 122v230l122 123h293l123 -123v-502l-123 -123h-321l-101 98l76 76l82 -78h205zM494 1298v144l-70 69h-174l-70 -69v-144l70 -69h174z" />
    <glyph glyph-name="uni2080" unicode="&#x2080;" horiz-adv-x="710" 
d="M205 -205l-123 123v502l123 123h301l123 -123v-502l-123 -123h-301zM516 270l-321 -309l69 -70h182l70 70v309zM264 446l-69 -69v-309l321 309l-70 69h-182z" />
    <glyph glyph-name="uni2081" unicode="&#x2081;" horiz-adv-x="559" 
d="M231 446h-125v97h238v-654h164v-96h-447v96h170v557z" />
    <glyph glyph-name="uni2082" unicode="&#x2082;" horiz-adv-x="659" 
d="M43 -205v101l420 354v127l-70 69h-174l-102 -98l-76 76l121 119h291l122 -123v-207l-374 -322h397v-96h-555z" />
    <glyph glyph-name="uni2083" unicode="&#x2083;" horiz-adv-x="645" 
d="M573 117v-199l-122 -123h-318l-113 111l78 76l92 -91h201l70 70v113l-70 69h-241v101l260 202h-347v97h488v-101l-258 -202h158z" />
    <glyph glyph-name="uni2084" unicode="&#x2084;" horiz-adv-x="645" 
d="M594 -41h-96v-164h-113v164h-385v98l367 486h131v-488h96v-96zM385 420l-270 -365h270v365z" />
    <glyph glyph-name="uni2085" unicode="&#x2085;" horiz-adv-x="673" 
d="M602 147v-229l-123 -123h-309l-109 107l78 75l88 -86h193l69 70v143l-69 70h-156l-55 -55h-113v424h473v-97h-360v-221l45 45h225z" />
    <glyph glyph-name="uni2086" unicode="&#x2086;" horiz-adv-x="681" 
d="M264 446l-69 -69v-164l57 57h246l123 -123v-229l-123 -123h-293l-123 123v502l123 123h295l100 -99l-76 -75l-82 77h-178zM195 104v-143l69 -70h174l70 70v143l-70 70h-174z" />
    <glyph glyph-name="uni2087" unicode="&#x2087;" horiz-adv-x="567" 
d="M240 -205v311l219 340h-283v-84h-115v181h478l49 -82l-236 -379v-287h-112z" />
    <glyph glyph-name="uni2088" unicode="&#x2088;" horiz-adv-x="720" 
d="M639 -82l-123 -123h-311l-123 123v178l98 99l-80 79v146l123 123h275l123 -123v-146l-80 -79l98 -99v-178zM526 68l-71 71h-189l-71 -71v-107l69 -70h193l69 70v107zM508 377l-70 69h-155l-70 -69v-74l68 -67h159l68 67v74z" />
    <glyph glyph-name="uni2089" unicode="&#x2089;" horiz-adv-x="688" 
d="M424 -109l70 70v164l-58 -57h-246l-122 122v230l122 123h293l123 -123v-502l-123 -123h-321l-101 99l76 75l82 -78h205zM494 233v144l-70 69h-174l-70 -69v-144l70 -69h174z" />
    <glyph glyph-name="Euro" unicode="&#x20ac;" horiz-adv-x="1198" 
d="M498 1282l-158 -158v-243h451v-103h-451v-141h451v-100h-451v-256l158 -158h348l186 184l94 -92l-215 -215h-479l-225 225v312h-135v100h135v141h-135v103h135v299l225 225h459l205 -205l-95 -92l-176 174h-327z" />
    <glyph glyph-name="uni20B4" unicode="&#x20b4;" horiz-adv-x="1054" 
d="M313 535h-139v102h700v-102h-401l-205 -287l101 -125h352l158 158l94 -93l-187 -188h-499l-185 231zM874 756h-700v102h369l213 299l-101 125h-307l-149 -149l-93 92l177 180h454l185 -231l-220 -316h172v-102z" />
    <glyph glyph-name="uni20BD" unicode="&#x20bd;" horiz-adv-x="1169" 
d="M229 578h-155v122h155v705h582l225 -225v-377l-225 -225h-449v-158h441v-123h-441v-297h-133v297h-155v123h155v158zM903 1124l-158 158h-383v-582h383l158 158v266z" />
    <glyph glyph-name="uni2116" unicode="&#x2116;" horiz-adv-x="1826" 
d="M1700 569h-496v103h496v-103zM1024 1405v-1405h-186l-516 1204h-5v-1204h-133v1405h187l516 -1204h4v1204h133zM1323 788l-133 134v350l133 133h258l133 -133v-350l-133 -134h-258zM1524 885l78 78v268l-78 78h-144l-77 -78v-268l77 -78h144z" />
    <glyph glyph-name="trademark" unicode="&#x2122;" horiz-adv-x="1183" 
d="M444 1405v-80h-176v-512h-94v512h-174v80h444zM997 1294h-4l-129 -481h-110l-129 481h-4v-481h-95v592h152l129 -494h2h2l129 494h152v-592h-95v481z" />
    <glyph glyph-name="minus" unicode="&#x2212;" horiz-adv-x="987" 
d="M864 553h-741v109h741v-109z" />
    <glyph glyph-name="uniF6C3" unicode="&#xf6c3;" horiz-adv-x="239" 
d="M109 -311h-48v141h117v-141l-26 -166h-43v166z" />
    <glyph glyph-name="uniF6D1" unicode="&#xf6d1;" horiz-adv-x="612" 
d="M217 1653h180l39 39v65h115v-117l-84 -84h-322l-84 84v117h117v-65z" />
    <glyph glyph-name="uniF6D4" unicode="&#xf6d4;" horiz-adv-x="573" 
d="M205 1239h164l41 41v57h102v-108l-84 -82h-283l-84 82v108h103v-57z" />
    <glyph glyph-name="uniF730" unicode="&#xf730;" horiz-adv-x="1058" 
d="M725 1010l180 -181v-649l-180 -180h-391l-180 180v649l180 181h391zM782 647l-506 -409l125 -125h256l125 125v409zM401 897l-125 -125v-410l506 410l-125 125h-256z" />
    <glyph glyph-name="uniF731" unicode="&#xf731;" horiz-adv-x="673" 
d="M283 897h-166v113h289v-897h206v-113h-530v113h201v784z" />
    <glyph glyph-name="uniF732" unicode="&#xf732;" horiz-adv-x="872" 
d="M582 1010l180 -181v-241l-535 -473v-2h553v-113h-719v119l578 516v137l-125 125h-227l-129 -127l-90 86l153 154h361z" />
    <glyph glyph-name="uniF733" unicode="&#xf733;" horiz-adv-x="874" 
d="M602 428l180 -180v-463l-180 -180h-457l-145 145l90 86l121 -119h324l124 125v348l-124 125h-385v117l444 463v2h-561v113h712v-117l-444 -463v-2h301z" />
    <glyph glyph-name="uniF734" unicode="&#xf734;" horiz-adv-x="915" 
d="M854 0h-137v-389h-123v389h-563v119l549 891h137v-897h137v-113zM592 823l-434 -710h436v710h-2z" />
    <glyph glyph-name="uniF735" unicode="&#xf735;" horiz-adv-x="966" 
d="M684 477l180 -180v-512l-180 -180h-457l-145 145l90 86l121 -119h323l125 125v398l-125 125h-262l-104 -105h-121v750h680v-113h-559v-491l72 71h362z" />
    <glyph glyph-name="uniF736" unicode="&#xf736;" horiz-adv-x="1075" 
d="M287 1167v-385l108 109h357l180 -180v-531l-180 -180h-408l-180 180v1045l180 180h408l145 -145l-90 -86l-121 118h-274zM809 653l-125 125h-274l-123 -123v-417l125 -125h272l125 125v415z" />
    <glyph glyph-name="uniF737" unicode="&#xf737;" horiz-adv-x="868" 
d="M174 713h-123v297h711l65 -117l-374 -694v-594h-123v624l360 664v4h-516v-184z" />
    <glyph glyph-name="uniF738" unicode="&#xf738;" horiz-adv-x="1005" 
d="M295 741l-129 129v355l180 180h313l181 -180v-355l-129 -129l161 -161v-400l-180 -180h-379l-180 180v400zM750 553l-123 123h-248l-123 -123v-315l125 -125h244l125 125v315zM717 1167l-125 125h-178l-125 -125v-270l108 -109h211l109 109v270z" />
    <glyph glyph-name="uniF739" unicode="&#xf739;" horiz-adv-x="1073" 
d="M786 -158v385l-108 -108h-356l-181 180v530l181 181h407l180 -181v-1044l-180 -180h-448l-146 145l90 86l121 -119h316zM264 356l125 -125h275l122 123v418l-124 125h-273l-125 -125v-416z" />
    <glyph glyph-name="uniFB03" unicode="&#xfb03;" horiz-adv-x="1439" 
d="M909 1286l-118 -119v-157h485v-1010h-123v897h-362v-897h-123v897h-349v-897h-122v897h-125v113h125v215l180 180h291l90 -90l90 90h428v-234h-123v115h-244zM438 1286l-119 -119v-157h349v215l-62 61h-168z" />
    <glyph glyph-name="uniFB04" unicode="&#xfb04;" horiz-adv-x="1439" 
d="M848 1405h428v-1405h-123v897h-362v-897h-123v897h-349v-897h-122v897h-125v113h125v215l180 180h291l90 -90zM909 1286l-118 -119v-157h362v276h-244zM438 1286l-119 -119v-157h349v215l-62 61h-168z" />
    <glyph glyph-name="uniFB06" unicode="&#xfb06;" horiz-adv-x="1570" 
d="M854 170l-170 -170h-457l-147 147l90 86l123 -120h323l115 114v113l-115 115h-350l-170 170v215l170 170h824v223l96 41h26v-264h213v-113h-213v-659l119 -119h189v-119h-250l-180 180v717h-756l-115 -115v-100l115 -115h350l170 -170v-227z" />
    <glyph glyph-name="uni0409.salt" horiz-adv-x="1804" 
d="M178 0h-158v133h99l80 80l110 956l228 236h477v-514h452l226 -225v-441l-226 -225h-585v1282h-295l-150 -158l-117 -981zM1014 768v-645h387l158 158v329l-158 158h-387z" />
    <glyph glyph-name="uni0459.salt" horiz-adv-x="1472" 
d="M709 0v897h-228l-123 -129l-75 -635l-121 -133h-152v123h90l68 78l76 620l178 189h405v-4l4 4v-359h369l180 -180v-291l-180 -180h-491zM1133 539h-302v-426h302l124 125v176z" />
    <glyph glyph-name="lslash.salt" horiz-adv-x="493" 
d="M166 1292h-166v113h289v-649l164 125v-127l-164 -125v-629h-123v537l-113 -84v127l113 84v628z" />
    <glyph glyph-name="glyph452" horiz-adv-x="1234" 
d="M317 1186v-1186h-133v1241l164 164h496l157 -158l-319 -438v-4h215l225 -225v-355l-225 -225h-379v123h313l158 158v243l-158 158h-292v123l290 420l-57 57h-358z" />
    <glyph glyph-name="uni0430.salt" 
d="M334 0l-180 180v649l180 181h295l155 -150h7l22 150h94v-1010h-94l-22 150h-7l-155 -150h-295zM401 897l-125 -125v-534l125 -125h195l188 170v444l-188 170h-195z" />
    <glyph glyph-name="g.salt" horiz-adv-x="1075" 
d="M911 -219l-180 -180h-430l-147 147l90 86l123 -121h297l124 125v312l-155 -150h-295l-180 180v649l180 181h295l155 -150h7l22 150h94v-1229zM406 897l-125 -125v-534l125 -125h194l188 170v444l-188 170h-194z" />
    <glyph glyph-name="I.salt" horiz-adv-x="501" 
d="M184 0v1405h133v-1405h-133z" />
    <glyph glyph-name="l.salt" horiz-adv-x="464" 
d="M178 1292h-178v113h301v-1405h-123v1292z" />
    <glyph glyph-name="zero.salt" horiz-adv-x="1275" 
d="M1102 1180v-955l-225 -225h-478l-225 225v955l225 225h478zM465 1282l-158 -158v-841l158 -160h346l158 158v843l-158 158h-346z" />
    <glyph glyph-name="one.salt" horiz-adv-x="577" 
d="M260 1260l-141 -99l-68 96l207 148h135v-1405h-133v1260z" />
    <glyph glyph-name="uni0414.salt" horiz-adv-x="1325" 
d="M582 1405h518v-1282h153v-395h-133v272h-925v-272h-134v395h95l84 94l116 950zM631 1282l-148 -158l-114 -913l-72 -88h670v1159h-336z" />
    <glyph glyph-name="uni0434.salt" horiz-adv-x="1017" 
d="M946 -229h-123v229h-700v-229h-123v342h78l61 75l80 631l178 191h445v-897h104v-342zM336 780l-72 -596l-59 -71h514v784h-266z" />
    <glyph glyph-name="uni041B.salt" horiz-adv-x="1253" 
d="M178 0h-158v133h99l80 80l110 956l228 236h532v-1405h-133v1282h-350l-150 -158l-117 -981z" />
    <glyph glyph-name="uni043B.salt" horiz-adv-x="1034" 
d="M162 0h-152v123h90l68 78l76 620l178 189h448v-1010h-122v897h-267l-123 -129l-75 -635z" />
    <glyph glyph-name="y.salt" horiz-adv-x="946" 
d="M481 0h-153l-267 1010h123l236 -897h92l250 897h123l-389 -1399h-123z" />
    <glyph glyph-name="c_t.dlig" horiz-adv-x="1552" 
d="M907 147l-147 -147h-426l-180 180v649l180 181h737v223l96 41h27v-264h213v-113h-213v-659l119 -119h188v-119h-250l-180 180v717h-670l-125 -125v-534l125 -125h293l123 120z" />
    <glyph glyph-name="c_h.dlig" horiz-adv-x="2039" 
d="M1876 0h-123v772l-125 125h-182l-189 -170v-727h-122v1292h-125l-123 -123v-303l-82 -78l-111 109h-293l-125 -125v-534l125 -125h293l123 120l90 -86l-147 -147h-426l-180 180v649l180 181h409h21v217l178 178h315v-545l156 150h283l180 -181v-829z" />
    <glyph glyph-name="c_k.dlig" horiz-adv-x="1902" 
d="M1677 1010h129l-225 -473l281 -537h-142l-250 481h-213v-481h-122v1292h-125l-123 -123v-303l-82 -78l-111 109h-293l-125 -125v-534l125 -125h293l123 120l90 -86l-147 -147h-426l-180 180v649l180 181h430v217l178 178h315v-811h222z" />
    <glyph glyph-name="Iogonek.salt" horiz-adv-x="530" 
d="M193 -238h157v-79h-203l-69 69v131l131 117h-21v1405h134v-1405l-158 -143v-66z" />
    <glyph glyph-name="a.salt" 
d="M334 0l-180 180v649l180 181h295l155 -150h7l22 150h94v-1010h-94l-22 150h-7l-155 -150h-295zM401 897l-125 -125v-534l125 -125h195l188 170v444l-188 170h-195z" />
    <glyph glyph-name="glyph470" horiz-adv-x="3149" 
d="M205 942h364v-63h-147v-408h-72v408h-145v63zM1063 811q65 0 112 -51q46 -50 46 -121q0 -75 -46 -124q-47 -50 -112 -50q-59 0 -96 43v-162h-70v459h49l19 -39q39 45 98 45zM1057 528q39 0 67.5 33t28.5 78q0 43 -28.5 74.5t-67.5 31.5t-67.5 -31.5t-28.5 -74.5
q0 -46 27.5 -78.5t68.5 -32.5zM592 805l90 -238l90 238h76l-158 -389q-33 -70 -100 -70q-11 0 -21 2v58q48 0 64 40l12 33l-129 326h76zM1323 761q47 50 113 50q65 0 110 -50q45 -49 45 -120l-2 -31h-243q4 -36 29.5 -60t60.5 -24q55 0 75 35h72q-18 -45 -58 -70.5
t-89 -25.5q-66 0 -113 50t-47 124q0 72 47 122zM1346 666h180q-2 34 -29.5 58t-60.5 24q-34 0 -60 -23t-30 -59zM1559 942h364v-63h-147v-408h-72v408h-145v63zM2417 811q65 0 112 -51q45 -51 45 -121q0 -75 -46 -124q-47 -50 -111 -50q-60 0 -97 43v-162h-69v459h49l18 -39
q40 45 99 45zM2410 528q40 0 68 33q29 34 29 78q0 43 -29 75q-28 31 -67 31q-40 0 -68 -31q-29 -32 -29 -75q0 -46 27.5 -78.5t68.5 -32.5zM1946 805l90 -238l90 238h76l-158 -389q-33 -70 -100 -70q-11 0 -21 2v58q48 0 64 40l12 33l-129 326h76zM2677 761q47 50 113 50
q65 0 110 -50q45 -49 45 -120l-2 -31h-244q4 -35 30 -59.5t60 -24.5q55 0 76 35h72q-18 -45 -57.5 -70.5t-90.5 -25.5q-65 0 -112 50t-47 124q0 72 47 122zM2699 666h180q-2 34 -29 58t-60 24q-34 0 -60.5 -23t-30.5 -59z" />
    <glyph glyph-name="agrave.salt" 
d="M334 0l-180 180v649l180 181h295l155 -150h7l22 150h94v-1010h-94l-22 150h-7l-155 -150h-295zM401 897l-125 -125v-534l125 -125h195l188 170v444l-188 170h-195zM203 1464h162l247 -266h-123z" />
    <glyph glyph-name="aacute.salt" 
d="M334 0l-180 180v649l180 181h295l155 -150h7l22 150h94v-1010h-94l-22 150h-7l-155 -150h-295zM401 897l-125 -125v-534l125 -125h195l188 170v444l-188 170h-195zM559 1198h-123l248 266h162z" />
    <glyph glyph-name="abreve.salt" 
d="M334 0l-180 180v649l180 181h295l155 -150h7l22 150h94v-1010h-94l-22 150h-7l-155 -150h-295zM401 897l-125 -125v-534l125 -125h195l188 170v444l-188 170h-195zM434 1317h174l41 41v63h90v-100l-84 -82h-268l-84 82v100h90v-63z" />
    <glyph glyph-name="acircumflex.salt" 
d="M334 0l-180 180v649l180 181h295l155 -150h7l22 150h94v-1010h-94l-22 150h-7l-155 -150h-295zM401 897l-125 -125v-534l125 -125h195l188 170v444l-188 170h-195zM799 1198h-113l-158 209l-157 -209h-113l205 266h131z" />
    <glyph glyph-name="adieresis.salt" 
d="M334 0l-180 180v649l180 181h295l155 -150h7l22 150h94v-1010h-94l-22 150h-7l-155 -150h-295zM401 897l-125 -125v-534l125 -125h195l188 170v444l-188 170h-195zM446 1270h-112v149h112v-149zM741 1270h-112v149h112v-149z" />
    <glyph glyph-name="amacron.salt" 
d="M334 0l-180 180v649l180 181h295l155 -150h7l22 150h94v-1010h-94l-22 150h-7l-155 -150h-295zM401 897l-125 -125v-534l125 -125h195l188 170v444l-188 170h-195zM758 1270h-465v92h465v-92z" />
    <glyph glyph-name="aring.salt" 
d="M334 0l-180 180v649l180 181h295l155 -150h7l22 150h94v-1010h-94l-22 150h-7l-155 -150h-295zM401 897l-125 -125v-534l125 -125h195l188 170v444l-188 170h-195zM684 1253l-82 -82h-158l-82 82v156l82 82h158l82 -82v-156zM492 1415l-48 -47v-74l48 -47h63l47 47v74
l-47 47h-63z" />
    <glyph glyph-name="atilde.salt" 
d="M334 0l-180 180v649l180 181h295l155 -150h7l22 150h94v-1010h-94l-22 150h-7l-155 -150h-295zM401 897l-125 -125v-534l125 -125h195l188 170v444l-188 170h-195zM672 1333l30 31v57h84v-92l-77 -80h-127l-115 86h-66l-30 -30v-58h-84v92l78 80h127l114 -86h66z" />
    <glyph glyph-name="aogonek.salt" 
d="M778 -238h158v-79h-203l-69 69v131l147 131l-20 136h-7l-155 -150h-295l-180 180v649l180 181h295l155 -150h7l22 150h94v-1010l-157 -143v-66zM401 897l-125 -125v-534l125 -125h195l188 170v444l-188 170h-195z" />
    <glyph glyph-name="gbreve.salt" horiz-adv-x="1075" 
d="M911 -219l-180 -180h-430l-147 147l90 86l123 -121h297l124 125v312l-155 -150h-295l-180 180v649l180 181h295l155 -150h7l22 150h94v-1229zM406 897l-125 -125v-534l125 -125h194l188 170v444l-188 170h-194zM442 1317h174l41 41v63h91v-100l-84 -82h-269l-84 82v100
h90v-63z" />
    <glyph glyph-name="uni0123.salt" horiz-adv-x="1075" 
d="M911 -219l-180 -180h-430l-147 147l90 86l123 -121h297l124 125v312l-155 -150h-295l-180 180v649l180 181h295l155 -150h7l22 150h94v-1229zM406 897l-125 -125v-534l125 -125h194l188 170v444l-188 170h-194zM547 1290h47v-141h-117v141l27 166h43v-166z" />
    <glyph glyph-name="lcaron.salt" horiz-adv-x="571" 
d="M178 1292h-178v113h301v-1405h-123v1292zM522 1264h-47v141h117v-141l-27 -166h-43v166z" />
    <glyph glyph-name="lacute.salt" horiz-adv-x="458" 
d="M178 1292h-178v113h301v-1405h-123v1292zM240 1597h-123l248 267h161z" />
    <glyph glyph-name="uni013C.salt" horiz-adv-x="460" 
d="M178 1292h-178v113h301v-1405h-123v1292zM227 -244h-47v142h117v-142l-27 -166h-43v166z" />
    <glyph glyph-name="Igrave.salt" horiz-adv-x="503" 
d="M186 0v1405h133v-1405h-133zM-90 1864h162l247 -267h-122z" />
    <glyph glyph-name="Iacute.salt" horiz-adv-x="503" 
d="M184 0v1405h133v-1405h-133zM307 1597h-123l248 267h162z" />
    <glyph glyph-name="Icircumflex.salt" horiz-adv-x="505" 
d="M186 0v1405h133v-1405h-133zM524 1597h-112l-158 209l-158 -209h-112l204 267h131z" />
    <glyph glyph-name="Idieresis.salt" horiz-adv-x="505" 
d="M319 0h-133v1405h133v-1405zM164 1645h-113v149h113v-149zM459 1645h-113v149h113v-149z" />
    <glyph glyph-name="Idotaccent.salt" horiz-adv-x="501" 
d="M317 0h-133v1405h133v-1405zM313 1649h-123v149h123v-149z" />
    <glyph glyph-name="Imacron.salt" horiz-adv-x="505" 
d="M319 0h-133v1405h133v-1405zM487 1683h-464v93h464v-93z" />
    <glyph glyph-name="zero.numr" horiz-adv-x="710" 
d="M205 657l-123 123v502l123 123h301l123 -123v-502l-123 -123h-301zM516 1133l-321 -310l69 -69h182l70 69v310zM264 1309l-69 -70v-309l321 309l-70 70h-182z" />
    <glyph glyph-name="six.numr" horiz-adv-x="681" 
d="M264 1309l-69 -70v-164l57 58h246l123 -123v-230l-123 -123h-293l-123 123v502l123 123h295l100 -98l-76 -76l-82 78h-178zM195 967v-144l69 -69h174l70 69v144l-70 69h-174z" />
    <glyph glyph-name="seven.numr" horiz-adv-x="567" 
d="M240 657v312l219 340h-283v-84h-115v180h478l49 -82l-236 -379v-287h-112z" />
    <glyph glyph-name="eight.numr" horiz-adv-x="720" 
d="M639 780l-123 -123h-311l-123 123v178l98 99l-80 80v145l123 123h275l123 -123v-145l-80 -80l98 -99v-178zM526 930l-71 71h-189l-71 -71v-107l69 -69h193l69 69v107zM508 1239l-70 70h-155l-70 -70v-74l68 -67h159l68 67v74z" />
    <glyph glyph-name="nine.numr" horiz-adv-x="688" 
d="M424 754l70 69v164l-58 -57h-246l-122 123v229l122 123h293l123 -123v-502l-123 -123h-321l-101 99l76 75l82 -77h205zM494 1096v143l-70 70h-174l-70 -70v-143l70 -70h174z" />
    <glyph glyph-name="five.numr" horiz-adv-x="673" 
d="M602 1010v-230l-123 -123h-309l-109 107l78 76l88 -86h193l69 69v144l-69 69h-156l-55 -55h-113v424h473v-96h-360v-222l45 46h225z" />
    <glyph glyph-name="J.salt" horiz-adv-x="737" 
d="M41 123h221l158 158v1124h133v-1180l-225 -225h-287v123z" />
    <glyph glyph-name="uni0408.salt" horiz-adv-x="737" 
d="M41 123h221l158 158v1124h133v-1180l-225 -225h-287v123z" />
    <glyph glyph-name="one.numr" horiz-adv-x="559" 
d="M231 1309h-125v96h238v-653h164v-97h-447v97h170v557z" />
    <glyph glyph-name="two.numr" horiz-adv-x="659" 
d="M43 657v101l420 354v127l-70 70h-174l-102 -99l-76 76l121 119h291l122 -123v-207l-374 -321h397v-97h-555z" />
    <glyph glyph-name="three.numr" horiz-adv-x="645" 
d="M573 979v-199l-122 -123h-318l-113 111l78 76l92 -90h201l70 69v113l-70 70h-241v100l260 203h-347v96h488v-100l-258 -203h158z" />
    <glyph glyph-name="four.numr" horiz-adv-x="645" 
d="M594 821h-96v-164h-113v164h-385v99l367 485h131v-487h96v-97zM385 1282l-270 -364h270v364z" />
    <glyph glyph-name="one.tnum" horiz-adv-x="1105" 
d="M506 1282h-307v123h440v-1282h334v-123h-801v123h334v1159z" />
    <glyph glyph-name="two.tnum" horiz-adv-x="1105" 
d="M102 1200l205 205h426l225 -225v-346l-702 -709v-2h721v-123h-891v127l739 756v241l-157 158h-295l-176 -174z" />
    <glyph glyph-name="three.tnum" horiz-adv-x="1105" 
d="M764 821l225 -225v-371l-225 -225h-498l-190 190l94 93l162 -160h366l158 158v260l-158 157h-444v123l516 459v2h-635v123h813v-129l-514 -453v-2h330z" />
    <glyph glyph-name="four.tnum" horiz-adv-x="1105" 
d="M1026 344h-143v-344h-133v344h-672v127l661 934h144v-938h143v-123zM745 1200l-520 -733h525v733h-5z" />
    <glyph glyph-name="five.tnum" horiz-adv-x="1105" 
d="M938 1282h-647v-477l76 76h399l225 -226v-430l-225 -225h-490l-186 186l94 93l158 -156h358l158 158v319l-158 158h-305l-104 -105h-133v752h780v-123z" />
    <glyph glyph-name="six.tnum" horiz-adv-x="1105" 
d="M1018 657v-432l-225 -225h-457l-225 225v955l225 225h452l199 -199l-94 -92l-170 168h-322l-157 -158v-364l123 123h426zM401 760l-157 -158v-321l157 -158h326l158 158v321l-158 158h-326z" />
    <glyph glyph-name="seven.tnum" horiz-adv-x="1105" 
d="M279 1096h-134v309h830l65 -113l-438 -700v-592h-133v629l418 653h-608v-186z" />
    <glyph glyph-name="eight.tnum" horiz-adv-x="1105" 
d="M1026 225l-225 -225h-498l-225 225v332l186 186l-141 142v295l225 225h408l225 -225v-295l-141 -142l186 -186v-332zM893 514l-156 156h-370l-156 -156v-233l158 -158h366l158 158v233zM848 1124l-158 158h-276l-158 -158v-196l135 -135h322l135 135v196z" />
    <glyph glyph-name="nine.tnum" horiz-adv-x="1105" 
d="M102 748v432l226 225h456l226 -225v-955l-226 -225h-514l-198 199l94 92l170 -168h383l158 158v364l-123 -123h-426zM719 645l158 158v321l-158 158h-326l-157 -158v-321l157 -158h326z" />
    <glyph glyph-name="zero.tnum" horiz-adv-x="1105" 
d="M1016 1180v-955l-225 -225h-478l-225 225v955l225 225h478zM379 123h346l158 158v696l-662 -696zM379 1282l-158 -158v-696l662 696l-158 158h-346z" />
    <glyph glyph-name="uni0406.salt" horiz-adv-x="501" 
d="M184 0v1405h133v-1405h-133z" />
    <glyph glyph-name="uni0407.salt" horiz-adv-x="501" 
d="M184 0v1405h133v-1405h-133zM160 1583h-113v150h113v-150zM455 1583h-113v150h113v-150z" />
    <glyph glyph-name="zero.dnom" horiz-adv-x="710" 
d="M205 0l-123 123v502l123 123h301l123 -123v-502l-123 -123h-301zM516 475l-321 -309l69 -70h182l70 70v309zM264 651l-69 -69v-310l321 310l-70 69h-182z" />
    <glyph glyph-name="one.dnom" horiz-adv-x="559" 
d="M231 651h-125v97h238v-654h164v-96h-447v96h170v557z" />
    <glyph glyph-name="two.dnom" horiz-adv-x="659" 
d="M43 0v100l420 355v127l-70 69h-174l-102 -98l-76 76l121 119h291l122 -123v-207l-374 -322h397v-96h-555z" />
    <glyph glyph-name="three.dnom" horiz-adv-x="645" 
d="M573 322v-199l-122 -123h-318l-113 111l78 75l92 -90h201l70 70v113l-70 69h-241v101l260 202h-347v97h488v-101l-258 -203h158z" />
    <glyph glyph-name="four.dnom" horiz-adv-x="645" 
d="M594 164h-96v-164h-113v164h-385v98l367 486h131v-488h96v-96zM385 625l-270 -365h270v365z" />
    <glyph glyph-name="five.dnom" horiz-adv-x="673" 
d="M602 352v-229l-123 -123h-309l-109 106l78 76l88 -86h193l69 70v143l-69 70h-156l-55 -55h-113v424h473v-97h-360v-221l45 45h225z" />
    <glyph glyph-name="six.dnom" horiz-adv-x="681" 
d="M264 651l-69 -69v-164l57 57h246l123 -123v-229l-123 -123h-293l-123 123v502l123 123h295l100 -99l-76 -76l-82 78h-178zM195 309v-143l69 -70h174l70 70v143l-70 70h-174z" />
    <glyph glyph-name="seven.dnom" horiz-adv-x="567" 
d="M240 0v311l219 340h-283v-84h-115v181h478l49 -82l-236 -379v-287h-112z" />
    <glyph glyph-name="eight.dnom" horiz-adv-x="720" 
d="M639 123l-123 -123h-311l-123 123v178l98 98l-80 80v146l123 123h275l123 -123v-146l-80 -80l98 -98v-178zM526 272l-71 72h-189l-71 -72v-106l69 -70h193l69 70v106zM508 582l-70 69h-155l-70 -69v-74l68 -68h159l68 68v74z" />
    <glyph glyph-name="nine.dnom" horiz-adv-x="688" 
d="M424 96l70 70v164l-58 -58h-246l-122 123v230l122 123h293l123 -123v-502l-123 -123h-321l-101 98l76 76l82 -78h205zM494 438v144l-70 69h-174l-70 -69v-144l70 -69h174z" />
    <glyph glyph-name="at.case" horiz-adv-x="1576" 
d="M1296 236h-151l-115 114h-2l-115 -114h-280l-139 139v536l137 138h252l84 -86h2l26 86h95v-600l100 -101h53l68 68v780l-97 96h-831l-96 -96v-1102l96 -96h543v-113h-611l-151 152v1216l151 152h967l152 -152v-880zM698 936l-82 -82v-422l84 -84h166l101 101v374
l-117 113h-152z" />
    <glyph glyph-name="parenleft.case" horiz-adv-x="618" 
d="M451 1538l-144 -143v-1399l144 -143h147v-113h-209l-205 205v1501l205 205h209v-113h-147z" />
    <glyph glyph-name="parenright.case" horiz-adv-x="618" 
d="M168 -147l143 143v1399l-143 143h-148v113h209l205 -205v-1501l-205 -205h-209v113h148z" />
    <glyph glyph-name="bracketleft.case" horiz-adv-x="561" 
d="M541 1538h-234v-1688h234v-112h-357v1913h357v-113z" />
    <glyph glyph-name="bracketright.case" horiz-adv-x="561" 
d="M20 -150h234v1688h-234v113h357v-1913h-357v112z" />
    <glyph glyph-name="braceleft.case" horiz-adv-x="667" 
d="M500 1538l-144 -143v-561l-143 -146l143 -145v-547l144 -143h147v-113h-209l-205 205v563l-131 131v98l131 131v578l205 205h209v-113h-147z" />
    <glyph glyph-name="braceright.case" horiz-adv-x="667" 
d="M455 688l-144 146v561l-143 143h-148v113h209l205 -205v-578l131 -131v-98l-131 -131v-563l-205 -205h-209v113h148l143 143v547z" />
    <glyph glyph-name="exclamdown.case" horiz-adv-x="501" 
d="M287 1061l30 -31v-1030h-133v1030l31 31h72zM317 1251h-133v154h133v-154z" />
    <glyph glyph-name="questiondown.case" horiz-adv-x="942" 
d="M496 829v232h133v-277l-99 -98h-147l-158 -158v-247l158 -158h301l164 162l94 -92l-192 -193h-433l-225 225v359l225 225h158zM496 1405h133v-154h-133v154z" />
    <glyph glyph-name="guillemotleft.case" horiz-adv-x="774" 
d="M391 285h-123l-196 348l196 348h123l-198 -348zM702 285h-124l-197 348l197 348h124l-200 -348z" />
    <glyph glyph-name="guillemotright.case" horiz-adv-x="774" 
d="M506 981l196 -348l-196 -348h-123l199 348l-199 348h123zM197 981l196 -348l-196 -348h-125l200 348l-200 348h125z" />
    <glyph glyph-name="guilsinglleft.case" horiz-adv-x="450" 
d="M379 285h-125l-182 348l182 348h125l-186 -348z" />
    <glyph glyph-name="guilsinglright.case" horiz-adv-x="450" 
d="M197 981l182 -348l-182 -348h-125l186 348l-186 348h125z" />
    <glyph glyph-name="hyphen.case" horiz-adv-x="692" 
d="M631 662h-570v112h570v-112z" />
    <glyph glyph-name="endash.case" horiz-adv-x="864" 
d="M803 647h-742v103h742v-103z" />
    <glyph glyph-name="emdash.case" horiz-adv-x="1417" 
d="M1356 647h-1295v103h1295v-103z" />
    <glyph glyph-name="periodcentered.case" horiz-adv-x="399" 
d="M266 639h-133v154h133v-154z" />
    <glyph glyph-name="yacute.salt" horiz-adv-x="946" 
d="M481 0h-153l-267 1010h123l236 -897h92l250 897h123l-389 -1399h-123zM528 1198h-122l247 266h162z" />
    <glyph glyph-name="ydieresis.salt" horiz-adv-x="946" 
d="M481 0h-153l-267 1010h123l236 -897h92l250 897h123l-389 -1399h-123zM377 1270h-113v149h113v-149zM672 1270h-113v149h113v-149z" />
    </font>
</defs>
</svg>
