<?xml version="1.0" standalone="no"?>
<!DOCTYPE svg PUBLIC "-//W3C//DTD SVG 1.1//EN" "http://www.w3.org/Graphics/SVG/1.1/DTD/svg11.dtd" >
<svg xmlns="http://www.w3.org/2000/svg" xmlns:xlink="http://www.w3.org/1999/xlink" version="1.1">
<metadata>
Created by FontForge 20170731 at Sun Aug 27 19:26:13 2017
 By Aleksey,,,
Copyright (c) 2017 by TypeType. Designer Ivan Gladkikh, technical designer Victoria Usmanova. All rights reserved.
</metadata>
<defs>
<font id="TTMussels-Bold" horiz-adv-x="1122" >
  <font-face 
    font-family="TT Mussels Bold"
    font-weight="700"
    font-stretch="normal"
    units-per-em="2048"
    panose-1="2 0 8 3 3 0 0 2 0 4"
    ascent="1638"
    descent="-410"
    x-height="1028"
    cap-height="1423"
    bbox="-348 -537 2945 1911"
    underline-thickness="0"
    underline-position="0"
    unicode-range="U+000D-FB06"
  />
<missing-glyph horiz-adv-x="0" 
 />
    <glyph glyph-name="uniFB00" unicode="ff" horiz-adv-x="1261" 
d="M989 1028h201v-205h-201v-823h-287v823h-258v-823h-286v823h-127v205h127v219l172 174h413v-137l129 137h390v-225h-220l-53 -59v-109zM444 1137v-109h258v168h-198z" />
    <glyph glyph-name="uniFB01" unicode="fi" horiz-adv-x="1110" 
d="M442 1028h545v-1028h-287v823h-258v-823h-286v823h-125v205h125v221l172 172h372v-129l129 129h158v-225h-483l-62 -61v-107z" />
    <glyph glyph-name="uniFB02" unicode="fl" horiz-adv-x="1110" 
d="M829 1421h158v-1421h-287v823h-258v-823h-286v823h-125v205h125v221l172 172h372v-129zM504 1196l-62 -61v-107h258v168h-196z" />
    <glyph glyph-name="f_j.liga" unicode="fj" horiz-adv-x="1110" 
d="M442 1028h545v-1167l-272 -334l-213 186l198 238v872h-258v-823h-286v823h-125v205h125v223l172 172h372v-129l129 129h158v-225h-483l-62 -61v-109z" />
    <glyph glyph-name="f_k.liga" unicode="fk" horiz-adv-x="1632" 
d="M1622 0h-315l-224 436h-96v-436h-287v823h-258v-823h-286v823h-125v205h125v221l172 172h372v-129l129 129h158v-780h119l180 387h270l-233 -479zM504 1196l-62 -61v-107h258v168h-196z" />
    <glyph glyph-name=".notdef" horiz-adv-x="0" 
 />
    <glyph glyph-name="glyph1" horiz-adv-x="0" 
 />
    <glyph glyph-name="glyph1" horiz-adv-x="0" 
 />
    <glyph glyph-name="glyph2" horiz-adv-x="681" 
 />
    <glyph glyph-name="uni000D" unicode="&#xd;" horiz-adv-x="0" 
 />
    <glyph glyph-name="space" unicode=" " horiz-adv-x="430" 
 />
    <glyph glyph-name="exclam" unicode="!" horiz-adv-x="630" 
d="M164 1423h303v-940l-64 -63h-176l-63 63v940zM467 0h-303v270h303v-270z" />
    <glyph glyph-name="quotedbl" unicode="&#x22;" horiz-adv-x="821" 
d="M154 881l-52 51v491h246v-491l-51 -51h-143zM524 881l-51 51v491h246v-491l-51 -51h-144z" />
    <glyph glyph-name="numbersign" unicode="#" horiz-adv-x="1284" 
d="M313 846h-163v225h204l68 352h266l-67 -352h184l67 352h267l-68 -352h172v-225h-215l-49 -266h170v-226h-213l-66 -354h-266l68 354h-185l-67 -354h-266l67 354h-180v226h223zM766 852h-195l-49 -279h197z" />
    <glyph glyph-name="dollar" unicode="$" horiz-adv-x="1220" 
d="M895 1044l-133 136h-256l-74 -74v-193l74 -73h418l225 -226v-399l-225 -225h-168v-226h-283v226h-211l-190 194l213 201l143 -141h324l73 73v195l-73 74h-418l-225 225v397l225 226h139v225h283v-225h180l180 -189z" />
    <glyph glyph-name="percent" unicode="%" horiz-adv-x="1583" 
d="M1065 1423h240l-787 -1423h-239zM51 854v459l121 121h346l121 -121v-459l-121 -121h-346zM387 901l39 39v287l-39 39h-84l-39 -39v-287l39 -39h84zM1532 569v-458l-121 -121h-346l-121 121v458l121 121h346zM1196 522l-39 -39v-286l39 -39h84l39 39v286l-39 39h-84z" />
    <glyph glyph-name="ampersand" unicode="&#x26;" horiz-adv-x="1312" 
d="M899 1051l-141 141h-199l-84 -84v-188l78 -78h698v-230h-168v-286l84 -84h84v-242h-211l-118 119l-119 -119h-475l-226 225v330l195 195l-145 145v313l225 226h541l188 -195zM760 612h-250l-84 -84v-202l84 -84h166l84 84v286z" />
    <glyph glyph-name="quotesingle" unicode="'" horiz-adv-x="450" 
d="M154 881l-52 51v491h246v-491l-51 -51h-143z" />
    <glyph glyph-name="parenleft" unicode="(" horiz-adv-x="704" 
d="M684 -393h-303l-217 217v1495l217 217h303v-195h-127l-90 -90v-1360l90 -90h127v-194z" />
    <glyph glyph-name="parenright" unicode=")" horiz-adv-x="704" 
d="M541 1319v-1495l-217 -217h-304v194h127l91 90v1360l-91 90h-127v195h304z" />
    <glyph glyph-name="asterisk" unicode="*" horiz-adv-x="901" 
d="M451 1522h106l-20 -250l219 104l73 -188l-247 -72l184 -194l-170 -119l-145 221l-146 -221l-170 119l184 194l-247 72l73 188l220 -104l-21 250h107z" />
    <glyph glyph-name="plus" unicode="+" horiz-adv-x="1032" 
d="M412 504h-320v207h320v340h209v-340h319v-207h-319v-340h-209v340z" />
    <glyph glyph-name="comma" unicode="," horiz-adv-x="425" 
d="M184 0h-123v270h304v-270l-62 -236h-119v236z" />
    <glyph glyph-name="hyphen" unicode="-" horiz-adv-x="804" 
d="M743 399h-682v260h682v-260z" />
    <glyph glyph-name="period" unicode="." horiz-adv-x="425" 
d="M365 0h-304v270h304v-270z" />
    <glyph glyph-name="slash" unicode="/" horiz-adv-x="899" 
d="M635 1536h264l-637 -1929h-262z" />
    <glyph glyph-name="zero" unicode="0" horiz-adv-x="1398" 
d="M369 -10l-226 225v993l226 226h661l225 -226v-993l-225 -225h-661zM467 557l465 530l-84 84h-297l-84 -84v-530zM932 866l-465 -530l84 -84h297l84 84v530z" />
    <glyph glyph-name="one" unicode="1" horiz-adv-x="915" 
d="M854 0h-729v262h203v899h-205v262h528v-1161h203v-262z" />
    <glyph glyph-name="two" unicode="2" horiz-adv-x="1146" 
d="M1065 0h-1022v262l666 651v174l-84 84h-213l-142 -141l-229 209l188 195h578l225 -226v-391l-563 -547v-8h596v-262z" />
    <glyph glyph-name="three" unicode="3" horiz-adv-x="1177" 
d="M1085 604v-391l-225 -223h-651l-189 194l230 209l141 -141h287l84 84v188l-84 84h-414v221l412 324v8h-567v262h935v-262l-407 -323v-9h223z" />
    <glyph glyph-name="four" unicode="4" horiz-adv-x="1183" 
d="M664 297h-633v252l592 874h364v-872h146v-254h-146v-297h-323v297zM627 979l-295 -432h342v553h-6z" />
    <glyph glyph-name="five" unicode="5" horiz-adv-x="1210" 
d="M1118 674v-461l-225 -223h-643l-189 194l230 209l141 -141h279l84 84v217l-84 84h-385l-183 182v604h918v-262h-594v-262h426z" />
    <glyph glyph-name="six" unicode="6" horiz-adv-x="1310" 
d="M143 213v997l226 224h651l188 -170l-209 -203l-141 135h-307l-84 -84v-264l82 74h432l225 -226v-483l-225 -223h-612zM551 227h248l84 84v289l-84 84h-248l-84 -84v-289z" />
    <glyph glyph-name="seven" unicode="7" horiz-adv-x="1107" 
d="M373 0v618l370 521v10h-358v-172h-324v446h893l154 -268l-412 -600v-555h-323z" />
    <glyph glyph-name="eight" unicode="8" horiz-adv-x="1327" 
d="M1214 215l-225 -225h-651l-225 225v338l184 184l-162 162v309l225 226h607l225 -226v-309l-162 -162l184 -184v-338zM891 532l-84 84h-287l-84 -84v-225l84 -84h287l84 84v225zM784 1200h-241l-84 -84v-201l78 -77h254l77 77v201z" />
    <glyph glyph-name="nine" unicode="9" horiz-adv-x="1343" 
d="M1200 1210v-997l-225 -223h-684l-189 170l209 202l142 -135h340l84 84v264l-82 -73h-433l-225 225v483l225 224h613zM793 1196h-248l-84 -84v-289l84 -84h248l84 84v289z" />
    <glyph glyph-name="colon" unicode=":" horiz-adv-x="425" 
d="M365 0h-304v270h304v-270zM365 758h-304v270h304v-270z" />
    <glyph glyph-name="semicolon" unicode=";" horiz-adv-x="425" 
d="M184 0h-123v270h304v-270l-62 -236h-119v236zM365 758h-304v270h304v-270z" />
    <glyph glyph-name="less" unicode="&#x3c;" horiz-adv-x="1036" 
d="M934 0l-832 399v230l832 399v-242l-602 -270v-4l602 -270v-242z" />
    <glyph glyph-name="equal" unicode="=" horiz-adv-x="1052" 
d="M950 305h-848v207h848v-207zM950 696h-848v207h848v-207z" />
    <glyph glyph-name="greater" unicode="&#x3e;" horiz-adv-x="1036" 
d="M102 1028l832 -399v-230l-832 -399v242l603 270v4l-603 270v242z" />
    <glyph glyph-name="question" unicode="?" horiz-adv-x="1034" 
d="M20 1245l181 189h557l205 -205v-426l-205 -205h-144v-178h-303v262l140 139h135l73 74v211l-73 74h-211l-133 -136zM614 0h-303v270h303v-270z" />
    <glyph glyph-name="at" unicode="@" horiz-adv-x="1632" 
d="M305 -244l-162 162v1217l162 161h1043l161 -161v-861l-161 -161h-187l-121 131h-8l-127 -131h-272l-133 133v561l133 133h225l80 -92h10l60 92h139v-573l67 -72h43l39 39v727l-51 51h-837l-52 -51v-1069l52 -51h577v-185h-680zM754 752l-41 -41v-369l41 -41h106l74 66
v313l-78 72h-102z" />
    <glyph glyph-name="A" unicode="A" horiz-adv-x="1212" 
d="M1212 0h-354l-80 295h-389l-80 -295h-309l406 1423h374zM578 1104l-31 -168l-107 -387h289l-106 387l-29 168h-16z" />
    <glyph glyph-name="B" unicode="B" horiz-adv-x="1355" 
d="M164 1423h815l225 -225v-303l-145 -145l194 -195v-330l-225 -225h-864v1423zM881 920v178l-84 84h-310v-340h316zM930 326v202l-84 84h-359v-370h359z" />
    <glyph glyph-name="C" unicode="C" horiz-adv-x="1271" 
d="M1040 -10h-671l-226 225v993l226 226h659l189 -195l-230 -209l-141 141h-295l-84 -84v-751l84 -84h313l164 162l223 -209z" />
    <glyph glyph-name="D" unicode="D" horiz-adv-x="1421" 
d="M164 0v1423h889l225 -225v-973l-225 -225h-889zM870 262l84 84v731l-84 84h-383v-899h383z" />
    <glyph glyph-name="E" unicode="E" horiz-adv-x="1204" 
d="M1092 0h-928v1423h928v-260h-605v-319h537v-242h-537v-342h605v-260z" />
    <glyph glyph-name="F" unicode="F" horiz-adv-x="1167" 
d="M487 0h-323v1423h921v-268h-598v-373h531v-254h-531v-528z" />
    <glyph glyph-name="G" unicode="G" horiz-adv-x="1388" 
d="M999 1030l-141 141h-307l-84 -84v-751l84 -84h307l84 84v223h-248v252h572v-598l-226 -223h-671l-226 225v993l226 226h671l189 -195z" />
    <glyph glyph-name="H" unicode="H" horiz-adv-x="1421" 
d="M1257 0h-323v596h-447v-596h-323v1423h323v-546h447v546h323v-1423z" />
    <glyph glyph-name="I" unicode="I" horiz-adv-x="948" 
d="M846 0h-744v262h209v899h-209v262h744v-262h-211v-899h211v-262z" />
    <glyph glyph-name="J" unicode="J" horiz-adv-x="899" 
d="M520 0h-459v281h273l88 88v792h-246v262h569v-1198z" />
    <glyph glyph-name="K" unicode="K" horiz-adv-x="1320" 
d="M1300 0h-368l-270 588h-175v-588h-323v1423h323v-573h185l241 573h328l-303 -671z" />
    <glyph glyph-name="L" unicode="L" horiz-adv-x="1140" 
d="M487 281h613v-281h-936v1423h323v-1142z" />
    <glyph glyph-name="M" unicode="M" horiz-adv-x="1796" 
d="M164 0v1423h448l238 -829l45 -203h12l41 203l240 829h444v-1423h-323v977h-15l-37 -211l-233 -766h-279l-247 766l-37 211h-15v-977h-282z" />
    <glyph glyph-name="N" unicode="N" horiz-adv-x="1423" 
d="M1260 1423v-1423h-426l-334 805l-37 188h-17v-993h-282v1423h426l334 -807l37 -186h16v993h283z" />
    <glyph glyph-name="O" unicode="O" horiz-adv-x="1409" 
d="M369 -10l-226 225v993l226 226h671l226 -226v-993l-226 -225h-671zM942 336v751l-84 84h-307l-84 -84v-751l84 -84h307z" />
    <glyph glyph-name="P" unicode="P" horiz-adv-x="1316" 
d="M164 1423h815l225 -225v-530l-225 -226h-410l-82 62v-504h-323v1423zM881 768v330l-84 84h-310v-498h310z" />
    <glyph glyph-name="Q" unicode="Q" horiz-adv-x="1415" 
d="M369 -10l-226 225v993l226 226h671l226 -226v-993l-226 -225h273v-262h-443l-172 262h-329zM942 336v751l-84 84h-307l-84 -84v-751l84 -84h307z" />
    <glyph glyph-name="R" unicode="R" horiz-adv-x="1347" 
d="M1307 0h-357l-295 535h-168v-535h-323v1423h811l225 -225v-405l-225 -226zM793 768l84 84v246l-84 84h-306v-414h306z" />
    <glyph glyph-name="S" unicode="S" horiz-adv-x="1263" 
d="M938 1044l-133 136h-299l-74 -74v-193l74 -73h461l225 -226v-399l-225 -225h-705l-190 194l213 201l143 -141h367l73 73v195l-73 74h-461l-225 225v397l225 226h645l180 -189z" />
    <glyph glyph-name="T" unicode="T" horiz-adv-x="1159" 
d="M418 1143h-387v280h1097v-280h-387v-1143h-323v1143z" />
    <glyph glyph-name="U" unicode="U" horiz-adv-x="1378" 
d="M154 215v1208h323v-1087l84 -84h297l84 84v1087h283v-1208l-226 -225h-620z" />
    <glyph glyph-name="V" unicode="V" horiz-adv-x="1230" 
d="M643 309l35 168l227 946h316l-375 -1423h-443l-393 1423h357l227 -946l33 -168h16z" />
    <glyph glyph-name="W" unicode="W" horiz-adv-x="1837" 
d="M750 1423h399l141 -856l25 -205h20l27 205l149 856h285l-274 -1423h-441l-120 772l-21 213h-20l-23 -213l-141 -772h-441l-274 1423h348l141 -856l25 -205h20l27 205z" />
    <glyph glyph-name="X" unicode="X" horiz-adv-x="1198" 
d="M342 0h-342l420 731l-373 692h377l170 -342l35 -125h10l37 125l155 342h334l-370 -692l403 -731h-379l-188 350l-49 139h-11l-47 -139z" />
    <glyph glyph-name="Y" unicode="Y" horiz-adv-x="1179" 
d="M-20 1423h370l228 -534l36 -158h11l39 158l227 534h309l-430 -934v-489h-358v489z" />
    <glyph glyph-name="Z" unicode="Z" horiz-adv-x="1144" 
d="M700 1161h-614v262h899l119 -254l-658 -899v-8h648v-262h-961l-92 252l659 901v8z" />
    <glyph glyph-name="bracketleft" unicode="[" horiz-adv-x="704" 
d="M684 -393h-520v1929h520v-195h-217v-1540h217v-194z" />
    <glyph glyph-name="backslash" unicode="\" horiz-adv-x="899" 
d="M899 -393h-262l-637 1929h264z" />
    <glyph glyph-name="bracketright" unicode="]" horiz-adv-x="704" 
d="M20 1536h521v-1929h-521v194h218v1540h-218v195z" />
    <glyph glyph-name="asciicircum" unicode="^" horiz-adv-x="880" 
d="M41 799l287 624h225l287 -624h-226l-170 401h-8l-170 -401h-225z" />
    <glyph glyph-name="underscore" unicode="_" horiz-adv-x="718" 
d="M760 -303h-801v211h801v-211z" />
    <glyph glyph-name="grave" unicode="`" horiz-adv-x="690" 
d="M61 1475h353l215 -267h-240z" />
    <glyph glyph-name="a" unicode="a" horiz-adv-x="1091" 
d="M260 1038h537l172 -172v-866h-211l-68 135h-8l-168 -145h-260l-172 172v293l172 172h428v151l-61 62h-224l-112 -90l-166 155zM428 434l-59 -59v-125l61 -62h82l170 131v115h-254z" />
    <glyph glyph-name="b" unicode="b" 
d="M838 1038l172 -172v-704l-172 -172h-263l-165 145h-11l-67 -135h-209v1421h287v-528l145 145h283zM664 209l59 59v492l-59 59h-119l-135 -121v-368l165 -121h89z" />
    <glyph glyph-name="c" unicode="c" horiz-adv-x="1009" 
d="M766 723l-111 96h-196l-60 -59v-492l60 -59h213l102 106l215 -161l-158 -164h-546l-172 172v704l172 172h532l146 -147z" />
    <glyph glyph-name="d" unicode="d" 
d="M285 -10l-172 172v704l172 172h282l146 -145v528h286v-1421h-208l-68 135h-10l-166 -145h-262zM459 819l-60 -59v-492l60 -59h88l166 121v368l-135 121h-119z" />
    <glyph glyph-name="e" unicode="e" horiz-adv-x="1114" 
d="M461 188h260l102 107l189 -141l-158 -164h-569l-172 172v704l172 172h530l172 -172v-450h-588v-166zM399 598h303v180l-61 62h-180l-62 -62v-180z" />
    <glyph glyph-name="f" unicode="f" horiz-adv-x="716" 
d="M444 1028h203v-205h-203v-823h-286v823h-127v205h127v221l172 172h387v-225h-213l-60 -59v-109z" />
    <glyph glyph-name="g" unicode="g" horiz-adv-x="1101" 
d="M41 25l164 163h201v134h-134l-172 172v372l172 172h488l117 -116l81 106h93v-285h-119v-249l-172 -172h-131v-134h202l164 -163v-267l-164 -164h-626l-164 164v267zM440 840l-59 -60v-200l59 -60h152l59 60v200l-59 60h-152zM715 -59l-49 49h-295l-49 -49v-99l49 -49h295
l49 49v99z" />
    <glyph glyph-name="h" unicode="h" horiz-adv-x="1132" 
d="M1010 0h-287v760l-59 59h-89l-165 -121v-698h-287v1421h287v-528l165 145h263l172 -172v-866z" />
    <glyph glyph-name="i" unicode="i" horiz-adv-x="532" 
d="M410 0h-287v1028h287v-1028zM410 1186h-287v237h287v-237z" />
    <glyph glyph-name="j" unicode="j" horiz-adv-x="532" 
d="M123 -18v1046h287v-1137l-277 -333l-215 176zM410 1186h-287v237h287v-237z" />
    <glyph glyph-name="k" unicode="k" horiz-adv-x="1054" 
d="M1044 0h-315l-223 436h-96v-436h-287v1421h287v-780h118l181 387h270l-234 -479z" />
    <glyph glyph-name="l" unicode="l" horiz-adv-x="532" 
d="M123 0v1421h287v-1421h-287z" />
    <glyph glyph-name="m" unicode="m" horiz-adv-x="1622" 
d="M1499 0h-287v760l-59 59h-98l-101 -86v-733h-286v760l-60 59h-100l-98 -86v-733h-287v1028h209l67 -104h11l120 114h240l135 -133h6l146 133h270l172 -172v-866z" />
    <glyph glyph-name="n" unicode="n" horiz-adv-x="1132" 
d="M1010 0h-287v760l-59 59h-89l-165 -121v-698h-287v1028h209l67 -135h11l165 145h263l172 -172v-866z" />
    <glyph glyph-name="o" unicode="o" horiz-adv-x="1138" 
d="M285 -10l-172 172v704l172 172h569l172 -172v-706l-172 -170h-569zM459 819l-60 -59v-492l60 -59h221l59 59v492l-59 59h-221z" />
    <glyph glyph-name="p" unicode="p" 
d="M838 1038l172 -172v-704l-172 -172h-283l-145 145v-528h-287v1421h209l67 -135h11l165 145h263zM664 209l59 59v492l-59 59h-89l-165 -121v-368l135 -121h119z" />
    <glyph glyph-name="q" unicode="q" 
d="M285 -10l-172 172v704l172 172h262l166 -145h10l68 135h208v-1421h-286v528l-146 -145h-282zM459 819l-60 -59v-492l60 -59h119l135 121v368l-166 121h-88z" />
    <glyph glyph-name="r" unicode="r" horiz-adv-x="813" 
d="M563 1028h209v-258h-221l-141 -115v-655h-287v1028h209l67 -135h11z" />
    <glyph glyph-name="s" unicode="s" horiz-adv-x="1046" 
d="M61 154l189 141l102 -107h277l59 60v110l-59 60h-350l-173 172v276l173 172h526l145 -147l-172 -148l-110 97h-213l-62 -62v-94l60 -59h350l172 -172v-291l-172 -172h-584z" />
    <glyph glyph-name="t" unicode="t" horiz-adv-x="718" 
d="M422 1028h199v-205h-199v-506l59 -59h176v-258h-350l-172 172v651h-125v205h125v115l176 151h111v-266z" />
    <glyph glyph-name="u" unicode="u" horiz-adv-x="1132" 
d="M123 1028h287v-760l59 -59h88l166 121v698h287v-1028h-209l-68 135h-10l-166 -145h-262l-172 172v866z" />
    <glyph glyph-name="v" unicode="v" horiz-adv-x="985" 
d="M20 1028h297l189 -764h8l199 764h252l-285 -1028h-379z" />
    <glyph glyph-name="w" unicode="w" horiz-adv-x="1507" 
d="M606 1028h332l147 -745h11l139 745h242l-211 -1028h-375l-131 651h-8l-129 -651h-381l-211 1028h286l129 -745h11z" />
    <glyph glyph-name="x" unicode="x" horiz-adv-x="968" 
d="M461 328l-185 -328h-276l326 551l-285 477h319l138 -270h8l133 270h274l-266 -477l322 -551h-326l-172 328h-10z" />
    <glyph glyph-name="y" unicode="y" 
d="M428 -184h225l60 59v191l-86 -66h-328l-172 172v856h287v-749l59 -60h240v809h286v-1259l-172 -172h-559l-145 141l205 172z" />
    <glyph glyph-name="z" unicode="z" horiz-adv-x="962" 
d="M139 0l-88 129l484 680h-443v219h729l90 -129l-473 -680h465v-219h-764z" />
    <glyph glyph-name="braceleft" unicode="{" horiz-adv-x="753" 
d="M733 -393h-303l-217 217v536l-152 132v149l152 131v547l217 217h303v-195h-127l-90 -90v-508l-209 -178l209 -176v-498l90 -90h127v-194z" />
    <glyph glyph-name="bar" unicode="|" horiz-adv-x="788" 
d="M532 -512h-276v2048h276v-2048z" />
    <glyph glyph-name="braceright" unicode="}" horiz-adv-x="753" 
d="M541 360v-536l-217 -217h-304v194h127l91 90v498l208 176l-208 178v508l-91 90h-127v195h304l217 -217v-547l151 -131v-149z" />
    <glyph glyph-name="asciitilde" unicode="~" horiz-adv-x="1036" 
d="M557 422l-147 129h-54l-30 -31v-108h-213v190l139 139h227l148 -129h53l31 31v109h213v-191l-140 -139h-227z" />
    <glyph glyph-name="uni00A0" unicode="&#xa0;" horiz-adv-x="430" 
 />
    <glyph glyph-name="exclamdown" unicode="&#xa1;" horiz-adv-x="630" 
d="M467 -393h-303v938l63 63h176l64 -63v-938zM164 1028h303v-270h-303v270z" />
    <glyph glyph-name="cent" unicode="&#xa2;" horiz-adv-x="1009" 
d="M766 723l-111 96h-196l-60 -59v-492l60 -59h213l102 106l215 -161l-158 -164h-167v-197h-220v197h-159l-172 172v704l172 172h159v189h220v-189h153l146 -147z" />
    <glyph glyph-name="sterling" unicode="&#xa3;" horiz-adv-x="1124" 
d="M530 584v-322h533v-262h-981v262h125v322h-125v223h125v422l205 205h467l165 -170l-223 -205l-119 112h-108l-64 -63v-301h308v-223h-308z" />
    <glyph glyph-name="currency" unicode="&#xa4;" horiz-adv-x="1288" 
d="M217 565h-156v217h156v641h733l226 -225v-407l-226 -226h-409v-121h407v-217h-407v-227h-324v227h-156v217h156v121zM852 866v256l-84 84h-227v-424h227z" />
    <glyph glyph-name="yen" unicode="&#xa5;" horiz-adv-x="1282" 
d="M31 1423h370l228 -534l37 -158h10l39 158l227 534h309l-254 -551h162v-184h-246l-63 -135h309v-186h-338v-367h-358v367h-336v186h305l-61 135h-244v184h158z" />
    <glyph glyph-name="brokenbar" unicode="&#xa6;" horiz-adv-x="788" 
d="M532 -512h-276v887h276v-887zM256 1536h276v-831h-276v831z" />
    <glyph glyph-name="section" unicode="&#xa7;" horiz-adv-x="1114" 
d="M504 1225l-60 -60v-118l56 -56h329l172 -172v-297l-139 -139l107 -107v-286l-172 -172h-547l-158 164l207 161l111 -116h213l59 59v119l-55 55h-324l-172 172v299l141 141l-110 111v279l172 172h512l145 -148l-192 -168l-107 107h-188zM711 725l-56 55h-219l-55 -55v-166
l55 -55h219l56 55v166z" />
    <glyph glyph-name="dieresis" unicode="&#xa8;" horiz-adv-x="724" 
d="M297 1229h-236v223h236v-223zM664 1229h-236v223h236v-223z" />
    <glyph glyph-name="copyright" unicode="&#xa9;" horiz-adv-x="1654" 
d="M143 1251l183 183h1003l182 -183v-1079l-182 -182h-1003l-183 182v1079zM1223 180l69 70v924l-69 69h-791l-70 -69v-924l70 -70h791zM909 494l82 73l148 -123l-117 -112h-352l-131 131v491l131 131h342l112 -106l-149 -127l-78 72h-100l-43 -43v-344l43 -43h112z" />
    <glyph glyph-name="ordfeminine" unicode="&#xaa;" horiz-adv-x="833" 
d="M303 1481l-78 -66l-131 131l117 101h418l123 -123v-670h-144l-61 96h-6l-138 -102h-206q-29 27 -125 123v233l125 123h340v117l-37 37h-197zM326 1178l-37 -37v-90l37 -37h75l136 86v78h-211z" />
    <glyph glyph-name="guillemotleft" unicode="&#xab;" horiz-adv-x="925" 
d="M485 139h-245l-179 348l179 349h245l-190 -349zM618 139l-178 348l178 349h246l-190 -349l190 -348h-246z" />
    <glyph glyph-name="logicalnot" unicode="&#xac;" horiz-adv-x="989" 
d="M668 590h-566v260h785v-418h-219v158z" />
    <glyph glyph-name="uni00AD" unicode="&#xad;" horiz-adv-x="804" 
d="M743 399h-682v260h682v-260z" />
    <glyph glyph-name="registered" unicode="&#xae;" horiz-adv-x="1290" 
d="M123 494v786l153 154h738l153 -154v-786l-153 -154h-738zM922 494l71 71v643l-71 72h-553l-72 -72v-643l72 -71h553zM909 598h-186l-100 217h-23v-217h-170v578h342l90 -91v-170l-80 -79zM692 956v72l-24 25h-68v-121h68z" />
    <glyph glyph-name="overscore" unicode="&#xaf;" horiz-adv-x="659" 
d="M598 1255h-537v179h537v-179z" />
    <glyph glyph-name="degree" unicode="&#xb0;" horiz-adv-x="708" 
d="M61 975v309l148 150h291l147 -150v-309l-147 -150h-291zM391 999l53 54v153l-53 54h-74l-53 -54v-153l53 -54h74z" />
    <glyph glyph-name="plusminus" unicode="&#xb1;" horiz-adv-x="1032" 
d="M621 276h319v-206h-848v206h320v357h-320v207h320v340h209v-340h319v-207h-319v-357z" />
    <glyph glyph-name="uni00B2" unicode="&#xb2;" horiz-adv-x="686" 
d="M635 860h-596v158l364 328v94l-36 37h-113l-86 -84l-137 127l114 114h347l120 -121v-229l-309 -262v-4h332v-158z" />
    <glyph glyph-name="uni00B3" unicode="&#xb3;" horiz-adv-x="686" 
d="M504 854h-369l-115 115l138 127l86 -84h135l37 37v90l-37 37h-223v133l219 157v4h-305v158h538v-158l-231 -157v-4h127l121 -121v-213z" />
    <glyph glyph-name="acute" unicode="&#xb4;" horiz-adv-x="690" 
d="M301 1208h-240l215 267h353z" />
    <glyph glyph-name="mu" unicode="&#xb5;" horiz-adv-x="1132" 
d="M410 -393h-287v1421h287v-760l59 -59h109l145 121v698h287v-1028h-209l-68 135h-10l-145 -145h-107l-61 51v-434z" />
    <glyph glyph-name="paragraph" unicode="&#xb6;" horiz-adv-x="1062" 
d="M203 762l-131 131v399l131 131h372v-1607h-198v946h-174zM899 -184h-199v1607h199v-1607z" />
    <glyph glyph-name="middot" unicode="&#xb7;" horiz-adv-x="430" 
d="M362 397h-292v291h292v-291z" />
    <glyph glyph-name="cedilla" unicode="&#xb8;" horiz-adv-x="512" 
d="M295 -205h-191v109l86 96h129l-79 -90h135l76 -76v-151l-76 -76h-256l-58 55l101 94l37 -35h96l14 15v45z" />
    <glyph glyph-name="uni00B9" unicode="&#xb9;" horiz-adv-x="602" 
d="M571 860h-530v158h164v452h-127v158h336v-610h157v-158z" />
    <glyph glyph-name="ordmasculine" unicode="&#xba;" horiz-adv-x="823" 
d="M197 848l-125 123v553l125 123h432l123 -123v-553l-123 -123h-432zM326 1014h174l37 37v393l-37 37h-174l-37 -37v-393z" />
    <glyph glyph-name="guillemotright" unicode="&#xbb;" horiz-adv-x="925" 
d="M686 836l178 -349l-178 -348h-246l191 348l-191 349h246zM61 836h246l178 -349l-178 -348h-246l191 348z" />
    <glyph glyph-name="onequarter" unicode="&#xbc;" horiz-adv-x="1597" 
d="M592 655h-531v158h164v453h-127v157h336v-610h158v-158zM1241 147h-352v158l336 463h225v-463h86v-158h-86v-147h-209v147zM1239 567l-184 -264h188v264h-4zM1094 1423h239l-786 -1423h-240z" />
    <glyph glyph-name="onehalf" unicode="&#xbd;" horiz-adv-x="1669" 
d="M592 655h-531v158h164v453h-127v157h336v-610h158v-158zM1597 0h-596v158l365 327v95l-37 36h-112l-87 -84l-137 127l115 115h346l121 -121v-229l-309 -262v-4h331v-158zM1094 1423h239l-786 -1423h-240z" />
    <glyph glyph-name="threequarters" unicode="&#xbe;" horiz-adv-x="1624" 
d="M1268 147h-353v158l336 463h226v-463h86v-158h-86v-147h-209v147zM1266 567l-185 -264h189v264h-4zM504 649h-369l-115 115l138 127l86 -84h135l37 37v90l-37 37h-223v133l219 158v4h-305v157h538v-157l-231 -158v-4h127l121 -121v-213zM1120 1423h240l-787 -1423h-239z
" />
    <glyph glyph-name="questiondown" unicode="&#xbf;" horiz-adv-x="983" 
d="M1014 -217l-180 -189h-558l-204 205v426l204 205h144v178h303v-262l-139 -139h-135l-74 -74v-211l74 -74h210l134 136zM420 1028h303v-270h-303v270z" />
    <glyph glyph-name="Agrave" unicode="&#xc0;" horiz-adv-x="1212" 
d="M1212 0h-354l-80 295h-389l-80 -295h-309l406 1423h374zM578 1104l-31 -168l-107 -387h289l-106 387l-29 168h-16zM133 1874h352l215 -266h-239z" />
    <glyph glyph-name="Aacute" unicode="&#xc1;" horiz-adv-x="1212" 
d="M1212 0h-354l-80 295h-389l-80 -295h-309l406 1423h374zM578 1104l-31 -168l-107 -387h289l-106 387l-29 168h-16zM719 1608h-240l215 266h353z" />
    <glyph glyph-name="Acircumflex" unicode="&#xc2;" horiz-adv-x="1212" 
d="M1212 0h-354l-80 295h-389l-80 -295h-309l406 1423h374zM578 1104l-31 -168l-107 -387h289l-106 387l-29 168h-16zM477 1608h-227l207 266h288l207 -266h-227l-121 161h-6z" />
    <glyph glyph-name="Atilde" unicode="&#xc3;" horiz-adv-x="1212" 
d="M1212 0h-354l-80 295h-389l-80 -295h-309l406 1423h374zM578 1104l-31 -168l-107 -387h289l-106 387l-29 168h-16zM616 1647l-110 84h-53l-25 -25v-64h-154v144l91 90h172l110 -84h53l25 25v63h154v-143l-91 -90h-172z" />
    <glyph glyph-name="Adieresis" unicode="&#xc4;" horiz-adv-x="1212" 
d="M1212 0h-354l-80 295h-389l-80 -295h-309l406 1423h374zM578 1104l-31 -168l-107 -387h289l-106 387l-29 168h-16zM520 1636h-235v224h235v-224zM887 1636h-236v224h236v-224z" />
    <glyph glyph-name="Aring" unicode="&#xc5;" horiz-adv-x="1212" 
d="M1212 0h-354l-80 295h-389l-80 -295h-309l406 1423h374zM578 1104l-31 -168l-107 -387h289l-106 387l-29 168h-16zM686 1911l96 -96v-181l-96 -96h-190l-97 96v181l97 96h190zM530 1753v-57l35 -35h51l35 35v57l-35 35h-51z" />
    <glyph glyph-name="AE" unicode="&#xc6;" horiz-adv-x="1548" 
d="M1436 0h-744v295h-291l-112 -295h-330l569 1423h908v-260h-420v-319h352v-242h-352v-342h420v-260zM680 1130l-53 -206l-142 -375h207v581h-12z" />
    <glyph glyph-name="Ccedilla" unicode="&#xc7;" horiz-adv-x="1271" 
d="M645 -10h-276l-226 225v993l226 226h659l189 -195l-230 -209l-141 141h-295l-84 -84v-751l84 -84h313l164 162l223 -209l-211 -215h-266l-69 -80h135l75 -76v-151l-75 -76h-256l-58 55l101 94l37 -35h96l14 15v45l-14 14h-191v109z" />
    <glyph glyph-name="Egrave" unicode="&#xc8;" horiz-adv-x="1204" 
d="M1092 0h-928v1423h928v-260h-605v-319h537v-242h-537v-342h605v-260zM213 1874h352l215 -266h-239z" />
    <glyph glyph-name="Eacute" unicode="&#xc9;" horiz-adv-x="1204" 
d="M1092 0h-928v1423h928v-260h-605v-319h537v-242h-537v-342h605v-260zM719 1608h-240l215 266h353z" />
    <glyph glyph-name="Ecircumflex" unicode="&#xca;" horiz-adv-x="1204" 
d="M1092 0h-928v1423h928v-260h-605v-319h537v-242h-537v-342h605v-260zM496 1608h-228l207 266h289l207 -266h-228l-120 161h-7z" />
    <glyph glyph-name="Edieresis" unicode="&#xcb;" horiz-adv-x="1204" 
d="M1092 0h-928v1423h928v-260h-605v-319h537v-242h-537v-342h605v-260zM567 1634h-235v224h235v-224zM934 1634h-236v224h236v-224z" />
    <glyph glyph-name="Igrave" unicode="&#xcc;" horiz-adv-x="948" 
d="M846 0h-744v262h209v899h-209v262h744v-262h-211v-899h211v-262zM33 1874h352l215 -266h-240z" />
    <glyph glyph-name="Iacute" unicode="&#xcd;" horiz-adv-x="948" 
d="M846 0h-744v262h209v899h-209v262h744v-262h-211v-899h211v-262zM578 1608h-240l215 266h352z" />
    <glyph glyph-name="Icircumflex" unicode="&#xce;" horiz-adv-x="948" 
d="M846 0h-744v262h209v899h-209v262h744v-262h-211v-899h211v-262zM348 1608h-227l207 266h288l207 -266h-227l-121 161h-6z" />
    <glyph glyph-name="Idieresis" unicode="&#xcf;" horiz-adv-x="948" 
d="M846 0h-744v262h209v899h-209v262h744v-262h-211v-899h211v-262zM410 1634h-236v224h236v-224zM776 1634h-235v224h235v-224z" />
    <glyph glyph-name="Eth" unicode="&#xd0;" horiz-adv-x="1437" 
d="M180 588h-149v248h149v587h889l225 -225v-973l-225 -225h-889v588zM887 262l84 84v731l-84 84h-383v-325h239v-248h-239v-326h383z" />
    <glyph glyph-name="Ntilde" unicode="&#xd1;" horiz-adv-x="1423" 
d="M1260 1423v-1423h-426l-334 805l-37 188h-17v-993h-282v1423h426l334 -807l37 -186h16v993h283zM750 1647l-111 84h-53l-25 -25v-64h-153v144l90 90h172l110 -84h54l24 25v63h154v-143l-90 -90h-172z" />
    <glyph glyph-name="Ograve" unicode="&#xd2;" horiz-adv-x="1409" 
d="M369 -10l-226 225v993l226 226h671l226 -226v-993l-226 -225h-671zM942 336v751l-84 84h-307l-84 -84v-751l84 -84h307zM262 1874h352l215 -266h-239z" />
    <glyph glyph-name="Oacute" unicode="&#xd3;" horiz-adv-x="1409" 
d="M369 -10l-226 225v993l226 226h671l226 -226v-993l-226 -225h-671zM942 336v751l-84 84h-307l-84 -84v-751l84 -84h307zM803 1608h-240l215 266h352z" />
    <glyph glyph-name="Ocircumflex" unicode="&#xd4;" horiz-adv-x="1409" 
d="M369 -10l-226 225v993l226 226h671l226 -226v-993l-226 -225h-671zM942 336v751l-84 84h-307l-84 -84v-751l84 -84h307zM580 1608h-228l207 266h289l207 -266h-228l-120 161h-7z" />
    <glyph glyph-name="Otilde" unicode="&#xd5;" horiz-adv-x="1409" 
d="M369 -10l-226 225v993l226 226h671l226 -226v-993l-226 -225h-671zM942 336v751l-84 84h-307l-84 -84v-751l84 -84h307zM743 1628l-110 84h-53l-25 -24v-64h-154v143l91 91h172l110 -84h53l25 24v64h154v-144l-91 -90h-172z" />
    <glyph glyph-name="Odieresis" unicode="&#xd6;" horiz-adv-x="1409" 
d="M369 -10l-226 225v993l226 226h671l226 -226v-993l-226 -225h-671zM942 336v751l-84 84h-307l-84 -84v-751l84 -84h307zM643 1634h-235v224h235v-224zM1010 1634h-236v224h236v-224z" />
    <glyph glyph-name="multiply" unicode="&#xd7;" horiz-adv-x="1036" 
d="M780 180l-262 271l-262 -271l-143 146l270 260l-270 262l143 145l262 -270l262 270l144 -145l-271 -262l271 -260z" />
    <glyph glyph-name="Oslash" unicode="&#xd8;" horiz-adv-x="1433" 
d="M258 113l-102 102v993l225 226h631l75 133h234l-145 -256l102 -103v-993l-225 -225h-631l-76 -133h-233zM563 252h307l84 84v602zM563 1171l-84 -84v-602l391 686h-307z" />
    <glyph glyph-name="Ugrave" unicode="&#xd9;" horiz-adv-x="1378" 
d="M154 215v1208h323v-1087l84 -84h297l84 84v1087h283v-1208l-226 -225h-620zM252 1874h352l215 -266h-239z" />
    <glyph glyph-name="Uacute" unicode="&#xda;" horiz-adv-x="1378" 
d="M154 215v1208h323v-1087l84 -84h297l84 84v1087h283v-1208l-226 -225h-620zM782 1608h-239l215 266h352z" />
    <glyph glyph-name="Ucircumflex" unicode="&#xdb;" horiz-adv-x="1378" 
d="M154 215v1208h323v-1087l84 -84h297l84 84v1087h283v-1208l-226 -225h-620zM565 1608h-227l207 266h289l206 -266h-227l-121 161h-6z" />
    <glyph glyph-name="Udieresis" unicode="&#xdc;" horiz-adv-x="1378" 
d="M154 215v1208h323v-1087l84 -84h297l84 84v1087h283v-1208l-226 -225h-620zM635 1634h-236v224h236v-224zM1001 1634h-235v224h235v-224z" />
    <glyph glyph-name="Yacute" unicode="&#xdd;" horiz-adv-x="1179" 
d="M-20 1423h370l228 -534l36 -158h11l39 158l227 534h309l-430 -934v-489h-358v489zM688 1606h-239l215 266h352z" />
    <glyph glyph-name="Thorn" unicode="&#xde;" horiz-adv-x="1306" 
d="M487 1171h492l225 -225v-440l-225 -225h-492v-281h-323v1423h323v-252zM881 596v258l-84 84h-310v-426h310z" />
    <glyph glyph-name="germandbls" unicode="&#xdf;" horiz-adv-x="1155" 
d="M469 1231l-59 -60v-1171h-287v1262l172 172h500l172 -172v-406l-99 -98l164 -164v-422l-172 -172h-338v197h164l59 59v307l-71 72h-152v207h105l53 55v272l-62 62h-149z" />
    <glyph glyph-name="agrave" unicode="&#xe0;" horiz-adv-x="1091" 
d="M260 1038h537l172 -172v-866h-211l-68 135h-8l-168 -145h-260l-172 172v293l172 172h428v151l-61 62h-224l-112 -90l-166 155zM428 434l-59 -59v-125l61 -62h82l170 131v115h-254zM104 1473h353l215 -267h-240z" />
    <glyph glyph-name="aacute" unicode="&#xe1;" horiz-adv-x="1093" 
d="M260 1038h537l172 -172v-866h-211l-68 135h-8l-168 -145h-260l-172 172v293l172 172h428v151l-61 62h-224l-112 -90l-166 155zM428 434l-59 -59v-125l61 -62h82l170 131v115h-254zM643 1208h-240l215 267h353z" />
    <glyph glyph-name="acircumflex" unicode="&#xe2;" horiz-adv-x="1091" 
d="M260 1038h537l172 -172v-866h-211l-68 135h-8l-168 -145h-260l-172 172v293l172 172h428v151l-61 62h-224l-112 -90l-166 155zM428 434l-59 -59v-125l61 -62h82l170 131v115h-254zM416 1208h-228l207 267h289l207 -267h-227l-121 162h-6z" />
    <glyph glyph-name="atilde" unicode="&#xe3;" horiz-adv-x="1091" 
d="M260 1038h537l172 -172v-866h-211l-68 135h-8l-168 -145h-260l-172 172v293l172 172h428v151l-61 62h-224l-112 -90l-166 155zM428 434l-59 -59v-125l61 -62h82l170 131v115h-254zM580 1229l-111 84h-53l-25 -25v-63h-153v143l90 90h172l110 -84h54l24 25v63h154v-143
l-90 -90h-172z" />
    <glyph glyph-name="adieresis" unicode="&#xe4;" horiz-adv-x="1091" 
d="M260 1038h537l172 -172v-866h-211l-68 135h-8l-168 -145h-260l-172 172v293l172 172h428v151l-61 62h-224l-112 -90l-166 155zM428 434l-59 -59v-125l61 -62h82l170 131v115h-254zM469 1229h-236v223h236v-223zM836 1229h-236v223h236v-223z" />
    <glyph glyph-name="aring" unicode="&#xe5;" horiz-adv-x="1091" 
d="M260 1038h537l172 -172v-866h-211l-68 135h-8l-168 -145h-260l-172 172v293l172 172h428v151l-61 62h-224l-112 -90l-166 155zM428 434l-59 -59v-125l61 -62h82l170 131v115h-254zM637 1526l96 -96v-181l-96 -96h-191l-96 96v181l96 96h191zM481 1368v-57l35 -35h51
l35 35v57l-35 35h-51z" />
    <glyph glyph-name="ae" unicode="&#xe6;" horiz-adv-x="1599" 
d="M983 188h223l103 107l188 -141l-158 -164h-438l-119 119h-8l-119 -119h-401l-172 172v278l172 172h381v166l-62 62h-176l-112 -90l-166 155l141 133h395l119 -118h8l119 118h399l173 -172v-436h-551v-180zM428 430l-59 -59v-121l61 -62h143l62 62v180h-207zM922 612h264
v166l-62 62h-141l-61 -62v-166z" />
    <glyph glyph-name="ccedilla" unicode="&#xe7;" horiz-adv-x="1009" 
d="M618 -205h-190v109l76 86h-219l-172 172v704l172 172h532l146 -147l-197 -168l-111 96h-196l-60 -59v-492l60 -59h213l102 106l215 -161l-158 -164h-198l-70 -80h135l76 -76v-151l-76 -76h-256l-57 55l100 94l37 -35h96l15 15v45z" />
    <glyph glyph-name="egrave" unicode="&#xe8;" horiz-adv-x="1114" 
d="M461 188h260l102 107l189 -141l-158 -164h-569l-172 172v704l172 172h530l172 -172v-450h-588v-166zM399 598h303v180l-61 62h-180l-62 -62v-180zM121 1473h352l215 -267h-239z" />
    <glyph glyph-name="eacute" unicode="&#xe9;" horiz-adv-x="1114" 
d="M461 188h260l102 107l189 -141l-158 -164h-569l-172 172v704l172 172h530l172 -172v-450h-588v-166zM399 598h303v180l-61 62h-180l-62 -62v-180zM653 1206h-239l215 267h352z" />
    <glyph glyph-name="ecircumflex" unicode="&#xea;" horiz-adv-x="1114" 
d="M461 188h260l102 107l189 -141l-158 -164h-569l-172 172v704l172 172h530l172 -172v-450h-588v-166zM399 598h303v180l-61 62h-180l-62 -62v-180zM430 1206h-227l207 267h288l207 -267h-227l-121 162h-6z" />
    <glyph glyph-name="edieresis" unicode="&#xeb;" horiz-adv-x="1114" 
d="M461 188h260l102 107l189 -141l-158 -164h-569l-172 172v704l172 172h530l172 -172v-450h-588v-166zM399 598h303v180l-61 62h-180l-62 -62v-180zM502 1229h-236v223h236v-223zM868 1229h-235v223h235v-223z" />
    <glyph glyph-name="igrave" unicode="&#xec;" horiz-adv-x="538" 
d="M416 0h-287v1028h287v-1028zM-166 1475h352l215 -267h-239z" />
    <glyph glyph-name="iacute" unicode="&#xed;" horiz-adv-x="552" 
d="M410 0h-287v1028h287v-1028zM379 1208h-240l215 267h353z" />
    <glyph glyph-name="icircumflex" unicode="&#xee;" horiz-adv-x="579" 
d="M430 0h-287v1028h287v-1028zM166 1208h-227l206 267h289l207 -267h-227l-121 162h-6z" />
    <glyph glyph-name="idieresis" unicode="&#xef;" horiz-adv-x="540" 
d="M410 0h-287v1028h287v-1028zM205 1229h-236v223h236v-223zM571 1229h-235v223h235v-223z" />
    <glyph glyph-name="eth" unicode="&#xf0;" horiz-adv-x="1107" 
d="M473 1006l-143 108l90 111l-117 90l162 190l117 -88l82 105l143 -111l-84 -104l262 -199v-946l-172 -172h-528l-172 172v594l172 172h331l82 -64v152l-135 100zM639 209l59 59v381l-59 60h-180l-60 -60v-381l60 -59h180z" />
    <glyph glyph-name="ntilde" unicode="&#xf1;" horiz-adv-x="1132" 
d="M1010 0h-287v760l-59 59h-89l-165 -121v-698h-287v1028h209l67 -135h11l165 145h263l172 -172v-866zM602 1229l-110 84h-54l-24 -25v-63h-154v143l90 90h172l111 -84h53l25 25v63h153v-143l-90 -90h-172z" />
    <glyph glyph-name="ograve" unicode="&#xf2;" horiz-adv-x="1138" 
d="M285 -10l-172 172v704l172 172h569l172 -172v-706l-172 -170h-569zM459 819l-60 -59v-492l60 -59h221l59 59v492l-59 59h-221zM125 1473h352l215 -267h-239z" />
    <glyph glyph-name="oacute" unicode="&#xf3;" horiz-adv-x="1138" 
d="M285 -10l-172 172v704l172 172h569l172 -172v-706l-172 -170h-569zM459 819l-60 -59v-492l60 -59h221l59 59v492l-59 59h-221zM672 1206h-240l215 267h352z" />
    <glyph glyph-name="ocircumflex" unicode="&#xf4;" horiz-adv-x="1138" 
d="M285 -10l-172 172v704l172 172h569l172 -172v-706l-172 -170h-569zM459 819l-60 -59v-492l60 -59h221l59 59v492l-59 59h-221zM444 1206h-227l207 267h289l207 -267h-228l-121 162h-6z" />
    <glyph glyph-name="otilde" unicode="&#xf5;" horiz-adv-x="1138" 
d="M285 -10l-172 172v704l172 172h569l172 -172v-706l-172 -170h-569zM459 819l-60 -59v-492l60 -59h221l59 59v492l-59 59h-221zM608 1229l-110 84h-54l-24 -25v-63h-154v143l90 90h172l111 -84h53l25 25v63h153v-143l-90 -90h-172z" />
    <glyph glyph-name="odieresis" unicode="&#xf6;" horiz-adv-x="1138" 
d="M285 -10l-172 172v704l172 172h569l172 -172v-706l-172 -170h-569zM459 819l-60 -59v-492l60 -59h221l59 59v492l-59 59h-221zM506 1229h-236v223h236v-223zM872 1229h-235v223h235v-223z" />
    <glyph glyph-name="divide" unicode="&#xf7;" horiz-adv-x="1048" 
d="M397 342h254v-219h-254v219zM102 721h844v-217h-844v217zM397 1102h254v-219h-254v219z" />
    <glyph glyph-name="oslash" unicode="&#xf8;" horiz-adv-x="1148" 
d="M205 76l-86 86v704l172 172h506l69 113h201l-123 -199l88 -86v-706l-172 -170h-508l-69 -113h-201zM483 209h203l59 59v381zM465 819l-59 -59v-379l260 438h-201z" />
    <glyph glyph-name="ugrave" unicode="&#xf9;" horiz-adv-x="1132" 
d="M123 1028h287v-760l59 -59h88l166 121v698h287v-1028h-209l-68 135h-10l-166 -145h-262l-172 172v866zM127 1473h352l215 -267h-239z" />
    <glyph glyph-name="uacute" unicode="&#xfa;" horiz-adv-x="1132" 
d="M123 1028h287v-760l59 -59h88l166 121v698h287v-1028h-209l-68 135h-10l-166 -145h-262l-172 172v866zM662 1206h-240l215 267h352z" />
    <glyph glyph-name="ucircumflex" unicode="&#xfb;" horiz-adv-x="1132" 
d="M123 1028h287v-760l59 -59h88l166 121v698h287v-1028h-209l-68 135h-10l-166 -145h-262l-172 172v866zM442 1206h-227l207 267h289l207 -267h-228l-121 162h-6z" />
    <glyph glyph-name="udieresis" unicode="&#xfc;" horiz-adv-x="1132" 
d="M123 1028h287v-760l59 -59h88l166 121v698h287v-1028h-209l-68 135h-10l-166 -145h-262l-172 172v866zM504 1229h-236v223h236v-223zM870 1229h-235v223h235v-223z" />
    <glyph glyph-name="yacute" unicode="&#xfd;" 
d="M428 -184h225l60 59v191l-86 -66h-328l-172 172v856h287v-749l59 -60h240v809h286v-1259l-172 -172h-559l-145 141l205 172zM647 1206h-239l215 267h352z" />
    <glyph glyph-name="thorn" unicode="&#xfe;" 
d="M838 1038l172 -172v-704l-172 -172h-283l-145 145v-528h-287v1814h287v-528l165 145h263zM664 209l59 59v492l-59 59h-89l-165 -121v-368l135 -121h119z" />
    <glyph glyph-name="ydieresis" unicode="&#xff;" 
d="M428 -184h225l60 59v191l-86 -66h-328l-172 172v856h287v-749l59 -60h240v809h286v-1259l-172 -172h-559l-145 141l205 172zM494 1229h-236v223h236v-223zM860 1229h-235v223h235v-223z" />
    <glyph glyph-name="Amacron" unicode="&#x100;" horiz-adv-x="1212" 
d="M1212 0h-354l-80 295h-389l-80 -295h-309l406 1423h374zM578 1104l-31 -168l-107 -387h289l-106 387l-29 168h-16zM858 1665h-536v178h536v-178z" />
    <glyph glyph-name="amacron" unicode="&#x101;" horiz-adv-x="1091" 
d="M260 1038h537l172 -172v-866h-211l-68 135h-8l-168 -145h-260l-172 172v293l172 172h428v151l-61 62h-224l-112 -90l-166 155zM428 434l-59 -59v-125l61 -62h82l170 131v115h-254zM811 1249h-537v178h537v-178z" />
    <glyph glyph-name="Abreve" unicode="&#x102;" horiz-adv-x="1212" 
d="M1212 0h-354l-80 295h-389l-80 -295h-309l406 1423h374zM578 1104l-31 -168l-107 -387h289l-106 387l-29 168h-16zM322 1745v127h165v-62l29 -28h143l29 28v62h166v-127l-94 -94h-344z" />
    <glyph glyph-name="abreve" unicode="&#x103;" horiz-adv-x="1091" 
d="M260 1038h537l172 -172v-866h-211l-68 135h-8l-168 -145h-260l-172 172v293l172 172h428v151l-61 62h-224l-112 -90l-166 155zM428 434l-59 -59v-125l61 -62h82l170 131v115h-254zM256 1323v127h166v-61l29 -29h143l29 29v61h165v-127l-94 -94h-344z" />
    <glyph glyph-name="Aogonek" unicode="&#x104;" horiz-adv-x="1214" 
d="M1042 0h-184l-80 295h-389l-80 -295h-309l406 1423h374l432 -1423l-153 -139v-68l14 -14h172v-119h-252l-75 76v153zM578 1104l-31 -168l-107 -387h289l-106 387l-29 168h-16z" />
    <glyph glyph-name="aogonek" unicode="&#x105;" horiz-adv-x="1093" 
d="M674 -111l125 111h-41l-68 135h-8l-168 -145h-260l-172 172v293l172 172h428v151l-61 62h-224l-112 -90l-166 155l141 133h537l172 -172v-866l-154 -139v-68l14 -14h172v-119h-251l-76 76v153zM428 434l-59 -59v-125l61 -62h82l170 131v115h-254z" />
    <glyph glyph-name="Cacute" unicode="&#x106;" horiz-adv-x="1271" 
d="M1040 -10h-671l-226 225v993l226 226h659l189 -195l-230 -209l-141 141h-295l-84 -84v-751l84 -84h313l164 162l223 -209zM766 1608h-240l215 266h353z" />
    <glyph glyph-name="cacute" unicode="&#x107;" horiz-adv-x="1009" 
d="M766 723l-111 96h-196l-60 -59v-492l60 -59h213l102 106l215 -161l-158 -164h-546l-172 172v704l172 172h532l146 -147zM635 1208h-240l215 267h353z" />
    <glyph glyph-name="Ccircumflex" unicode="&#x108;" horiz-adv-x="1271" 
d="M1040 -10h-671l-226 225v993l226 226h659l189 -195l-230 -209l-141 141h-295l-84 -84v-751l84 -84h313l164 162l223 -209zM557 1608h-227l207 266h288l207 -266h-227l-121 161h-6z" />
    <glyph glyph-name="ccircumflex" unicode="&#x109;" horiz-adv-x="1009" 
d="M766 723l-111 96h-196l-60 -59v-492l60 -59h213l102 106l215 -161l-158 -164h-546l-172 172v704l172 172h532l146 -147zM403 1206h-227l207 267h289l207 -267h-228l-121 162h-6z" />
    <glyph glyph-name="Ccaron" unicode="&#x10c;" horiz-adv-x="1271" 
d="M1040 -10h-671l-226 225v993l226 226h659l189 -195l-230 -209l-141 141h-295l-84 -84v-751l84 -84h313l164 162l223 -209zM799 1874h227l-207 -266h-289l-206 266h227l121 -162h6z" />
    <glyph glyph-name="ccaron" unicode="&#x10d;" horiz-adv-x="1009" 
d="M766 723l-111 96h-196l-60 -59v-492l60 -59h213l102 106l215 -161l-158 -164h-546l-172 172v704l172 172h532l146 -147zM647 1475h227l-206 -267h-289l-207 267h227l121 -162h6z" />
    <glyph glyph-name="Dcaron" unicode="&#x10e;" horiz-adv-x="1421" 
d="M164 0v1423h889l225 -225v-973l-225 -225h-889zM870 262l84 84v731l-84 84h-383v-899h383zM791 1874h227l-207 -266h-289l-207 266h228l121 -162h6z" />
    <glyph glyph-name="dcaron" unicode="&#x10f;" horiz-adv-x="1314" 
d="M1214 1212h-92v209h224v-209l-48 -186h-84v186zM285 -10l-172 172v704l172 172h282l146 -145v528h286v-1421h-208l-68 135h-10l-166 -145h-262zM459 819l-60 -59v-492l60 -59h88l166 121v368l-135 121h-119z" />
    <glyph glyph-name="Dcroat" unicode="&#x110;" horiz-adv-x="1437" 
d="M180 588h-149v248h149v587h889l225 -225v-973l-225 -225h-889v588zM887 262l84 84v731l-84 84h-383v-325h239v-248h-239v-326h383z" />
    <glyph glyph-name="dslash" unicode="&#x111;" horiz-adv-x="1148" 
d="M686 1083h-246v220h246v118h287v-118h176v-220h-176v-1083h-209l-68 135h-10l-166 -145h-235l-172 172v618l172 172h256l145 -145v276zM459 733l-60 -59v-406l60 -59h61l166 121v282l-135 121h-92z" />
    <glyph glyph-name="Emacron" unicode="&#x112;" horiz-adv-x="1204" 
d="M1092 0h-928v1423h928v-260h-605v-319h537v-242h-537v-342h605v-260zM889 1665h-537v178h537v-178z" />
    <glyph glyph-name="emacron" unicode="&#x113;" horiz-adv-x="1114" 
d="M461 188h260l102 107l189 -141l-158 -164h-569l-172 172v704l172 172h530l172 -172v-450h-588v-166zM399 598h303v180l-61 62h-180l-62 -62v-180zM827 1249h-536v178h536v-178z" />
    <glyph glyph-name="Edotaccent" unicode="&#x116;" horiz-adv-x="1204" 
d="M1092 0h-928v1423h928v-260h-605v-319h537v-242h-537v-342h605v-260zM756 1636h-258v232h258v-232z" />
    <glyph glyph-name="edotaccent" unicode="&#x117;" horiz-adv-x="1114" 
d="M461 188h260l102 107l189 -141l-158 -164h-569l-172 172v704l172 172h530l172 -172v-450h-588v-166zM399 598h303v180l-61 62h-180l-62 -62v-180zM696 1229h-258v231h258v-231z" />
    <glyph glyph-name="Eogonek" unicode="&#x118;" horiz-adv-x="1204" 
d="M922 0h-758v1423h928v-260h-605v-319h537v-242h-537v-342h605v-260l-154 -139v-68l14 -14h172v-119h-252l-75 76v153z" />
    <glyph glyph-name="eogonek" unicode="&#x119;" horiz-adv-x="1114" 
d="M461 188h260l102 107l189 -141l-158 -164h-186l-142 -129v-68l15 -14h172v-119h-252l-76 76v153l113 101h-213l-172 172v704l172 172h530l172 -172v-450h-588v-166zM399 598h303v180l-61 62h-180l-62 -62v-180z" />
    <glyph glyph-name="Ecaron" unicode="&#x11a;" horiz-adv-x="1204" 
d="M1092 0h-928v1423h928v-260h-605v-319h537v-242h-537v-342h605v-260zM752 1874h227l-207 -266h-289l-207 266h228l121 -162h6z" />
    <glyph glyph-name="ecaron" unicode="&#x11b;" horiz-adv-x="1114" 
d="M461 188h260l102 107l189 -141l-158 -164h-569l-172 172v704l172 172h530l172 -172v-450h-588v-166zM399 598h303v180l-61 62h-180l-62 -62v-180zM678 1473h227l-207 -267h-288l-207 267h227l121 -162h6z" />
    <glyph glyph-name="Gbreve" unicode="&#x11e;" horiz-adv-x="1384" 
d="M999 1030l-141 141h-307l-84 -84v-751l84 -84h307l84 84v223h-248v252h572v-598l-226 -223h-671l-226 225v993l226 226h671l189 -195zM426 1745v127h166v-62l29 -28h143l29 28v62h165v-127l-94 -94h-344z" />
    <glyph glyph-name="gbreve" unicode="&#x11f;" horiz-adv-x="1101" 
d="M41 25l164 163h201v134h-134l-172 172v372l172 172h488l117 -116l81 106h93v-285h-119v-249l-172 -172h-131v-134h202l164 -163v-267l-164 -164h-626l-164 164v267zM440 840l-59 -60v-200l59 -60h152l59 60v200l-59 60h-152zM715 -59l-49 49h-295l-49 -49v-99l49 -49h295
l49 49v99zM242 1323v127h166v-61l28 -29h144l28 29v61h166v-127l-94 -94h-344z" />
    <glyph glyph-name="uni0122" unicode="&#x122;" horiz-adv-x="1384" 
d="M999 1030l-141 141h-307l-84 -84v-751l84 -84h307l84 84v223h-248v252h572v-598l-226 -223h-671l-226 225v993l226 226h671l189 -195zM680 -332h-92v209h223v-209l-47 -186h-84v186z" />
    <glyph glyph-name="uni0123" unicode="&#x123;" horiz-adv-x="1101" 
d="M543 1386h92v-208h-223v208l47 187h84v-187zM41 25l164 163h201v134h-134l-172 172v372l172 172h488l117 -116l81 106h93v-285h-119v-249l-172 -172h-131v-134h202l164 -163v-267l-164 -164h-626l-164 164v267zM440 840l-59 -60v-200l59 -60h152l59 60v200l-59 60h-152z
M715 -59l-49 49h-295l-49 -49v-99l49 -49h295l49 49v99z" />
    <glyph glyph-name="Imacron" unicode="&#x12a;" horiz-adv-x="948" 
d="M846 0h-744v262h209v899h-209v262h744v-262h-211v-899h211v-262zM743 1665h-536v178h536v-178z" />
    <glyph glyph-name="imacron" unicode="&#x12b;" horiz-adv-x="536" 
d="M399 0h-284v1028h284v-1028zM537 1249h-537v178h537v-178z" />
    <glyph glyph-name="Iogonek" unicode="&#x12e;" horiz-adv-x="950" 
d="M676 0h-574v262h209v899h-209v262h744v-262h-211v-899h211v-262l-154 -139v-68l15 -14h172v-119h-252l-76 76v153z" />
    <glyph glyph-name="iogonek" unicode="&#x12f;" horiz-adv-x="542" 
d="M248 0h-117v1028h287v-1028l-154 -139v-68l15 -14h172v-119h-252l-76 76v153zM418 1186h-287v237h287v-237z" />
    <glyph glyph-name="Idot" unicode="&#x130;" horiz-adv-x="948" 
d="M846 0h-744v262h209v899h-209v262h744v-262h-211v-899h211v-262zM606 1636h-258v232h258v-232z" />
    <glyph glyph-name="dotlessi" unicode="&#x131;" horiz-adv-x="530" 
d="M408 0h-285v1028h285v-1028z" />
    <glyph glyph-name="uni0136" unicode="&#x136;" horiz-adv-x="1320" 
d="M1300 0h-368l-270 588h-175v-588h-323v1423h323v-573h185l241 573h328l-303 -671zM680 -332h-92v209h223v-209l-47 -186h-84v186z" />
    <glyph glyph-name="uni0137" unicode="&#x137;" horiz-adv-x="1054" 
d="M1044 0h-315l-223 436h-96v-436h-287v1421h287v-780h118l181 387h270l-234 -479zM541 -332h-92v209h223v-209l-47 -186h-84v186z" />
    <glyph glyph-name="Lacute" unicode="&#x139;" horiz-adv-x="1130" 
d="M487 281h613v-281h-936v1423h323v-1142zM446 1608h-239l215 266h352z" />
    <glyph glyph-name="lacute" unicode="&#x13a;" horiz-adv-x="542" 
d="M123 0v1421h287v-1421h-287zM379 1608h-240l215 266h353z" />
    <glyph glyph-name="uni013B" unicode="&#x13b;" horiz-adv-x="1130" 
d="M487 281h613v-281h-936v1423h323v-1142zM612 -332h-92v209h223v-209l-47 -186h-84v186z" />
    <glyph glyph-name="uni013C" unicode="&#x13c;" horiz-adv-x="532" 
d="M123 0v1421h287v-1421h-287zM244 -332h-92v209h223v-209l-47 -186h-84v186z" />
    <glyph glyph-name="Lcaron" unicode="&#x13d;" horiz-adv-x="1130" 
d="M756 1217h-84v206h209v-206l-41 -170h-84v170zM487 281h613v-281h-936v1423h323v-1142z" />
    <glyph glyph-name="lcaron" unicode="&#x13e;" horiz-adv-x="724" 
d="M625 1212h-93v209h224v-209l-47 -186h-84v186zM123 0v1421h287v-1421h-287z" />
    <glyph glyph-name="Lslash" unicode="&#x141;" horiz-adv-x="1136" 
d="M170 481l-139 -67v252l139 67v690h324v-530l245 121v-254l-245 -121v-358h612v-281h-936v481z" />
    <glyph glyph-name="lslash" unicode="&#x142;" horiz-adv-x="624" 
d="M160 774v647h286v-467l138 93v-244l-138 -94v-709h-286v530l-119 -75v243z" />
    <glyph glyph-name="Nacute" unicode="&#x143;" horiz-adv-x="1423" 
d="M1260 1423v-1423h-426l-334 805l-37 188h-17v-993h-282v1423h426l334 -807l37 -186h16v993h283zM799 1608h-240l215 266h352z" />
    <glyph glyph-name="nacute" unicode="&#x144;" horiz-adv-x="1132" 
d="M1010 0h-287v760l-59 59h-89l-165 -121v-698h-287v1028h209l67 -135h11l165 145h263l172 -172v-866zM649 1206h-239l215 267h352z" />
    <glyph glyph-name="uni0145" unicode="&#x145;" horiz-adv-x="1423" 
d="M1260 1423v-1423h-426l-334 805l-37 188h-17v-993h-282v1423h426l334 -807l37 -186h16v993h283zM688 -332h-92v209h223v-209l-47 -186h-84v186z" />
    <glyph glyph-name="uni0146" unicode="&#x146;" horiz-adv-x="1132" 
d="M1010 0h-287v760l-59 59h-89l-165 -121v-698h-287v1028h209l67 -135h11l165 145h263l172 -172v-866zM543 -332h-92v209h223v-209l-47 -186h-84v186z" />
    <glyph glyph-name="Ncaron" unicode="&#x147;" horiz-adv-x="1423" 
d="M1260 1423v-1423h-426l-334 805l-37 188h-17v-993h-282v1423h426l334 -807l37 -186h16v993h283zM834 1874h227l-207 -266h-289l-207 266h228l121 -162h6z" />
    <glyph glyph-name="ncaron" unicode="&#x148;" horiz-adv-x="1132" 
d="M1010 0h-287v760l-59 59h-89l-165 -121v-698h-287v1028h209l67 -135h11l165 145h263l172 -172v-866zM686 1473h227l-206 -267h-289l-207 267h227l121 -162h6z" />
    <glyph glyph-name="Omacron" unicode="&#x14c;" horiz-adv-x="1409" 
d="M369 -10l-226 225v993l226 226h671l226 -226v-993l-226 -225h-671zM942 336v751l-84 84h-307l-84 -84v-751l84 -84h307zM975 1665h-537v178h537v-178z" />
    <glyph glyph-name="omacron" unicode="&#x14d;" horiz-adv-x="1138" 
d="M285 -10l-172 172v704l172 172h569l172 -172v-706l-172 -170h-569zM459 819l-60 -59v-492l60 -59h221l59 59v492l-59 59h-221zM838 1249h-537v178h537v-178z" />
    <glyph glyph-name="Ohungarumlaut" unicode="&#x150;" horiz-adv-x="1411" 
d="M369 -10l-226 225v993l226 226h671l226 -226v-993l-226 -225h-671zM942 336v751l-84 84h-307l-84 -84v-751l84 -84h307zM623 1608h-191l195 266h262zM1001 1608h-190l195 266h262z" />
    <glyph glyph-name="ohungarumlaut" unicode="&#x151;" horiz-adv-x="1138" 
d="M285 -10l-172 172v704l172 172h569l172 -172v-706l-172 -170h-569zM459 819l-60 -59v-492l60 -59h221l59 59v492l-59 59h-221zM473 1206h-190l194 267h262zM852 1206h-190l194 267h262z" />
    <glyph glyph-name="OE" unicode="&#x152;" horiz-adv-x="1628" 
d="M369 0l-226 225v973l226 225h403h744v-260h-420v-319h352v-242h-352v-342h420v-260h-1147zM467 344l84 -84h221v903h-221l-84 -84v-735z" />
    <glyph glyph-name="oe" unicode="&#x153;" horiz-adv-x="1626" 
d="M1010 188h223l102 107l189 -141l-158 -164h-438l-119 119h-8l-119 -119h-397l-172 172v704l172 172h397l119 -118h8l119 118h399l172 -172v-436h-551v-180zM459 840l-60 -60v-532l60 -60h141l62 62v528l-62 62h-141zM948 612h264v166l-61 62h-141l-62 -62v-166z" />
    <glyph glyph-name="Racute" unicode="&#x154;" horiz-adv-x="1337" 
d="M1307 0h-357l-295 535h-168v-535h-323v1423h811l225 -225v-405l-225 -226zM793 768l84 84v246l-84 84h-306v-414h306zM776 1608h-239l215 266h352z" />
    <glyph glyph-name="racute" unicode="&#x155;" horiz-adv-x="813" 
d="M563 1028h209v-258h-221l-141 -115v-655h-287v1028h209l67 -135h11zM553 1206h-240l215 267h353z" />
    <glyph glyph-name="uni0156" unicode="&#x156;" horiz-adv-x="1337" 
d="M1307 0h-357l-295 535h-168v-535h-323v1423h811l225 -225v-405l-225 -226zM793 768l84 84v246l-84 84h-306v-414h306zM670 -332h-92v209h223v-209l-47 -186h-84v186z" />
    <glyph glyph-name="uni0157" unicode="&#x157;" horiz-adv-x="813" 
d="M563 1028h209v-258h-221l-141 -115v-655h-287v1028h209l67 -135h11zM236 -332h-93v209h224v-209l-48 -186h-83v186z" />
    <glyph glyph-name="Rcaron" unicode="&#x158;" horiz-adv-x="1337" 
d="M1307 0h-357l-295 535h-168v-535h-323v1423h811l225 -225v-405l-225 -226zM793 768l84 84v246l-84 84h-306v-414h306zM791 1874h227l-207 -266h-289l-207 266h228l121 -162h6z" />
    <glyph glyph-name="rcaron" unicode="&#x159;" horiz-adv-x="823" 
d="M573 1028h209v-258h-221l-141 -115v-655h-287v1028h209l68 -135h10zM575 1473h228l-207 -267h-289l-207 267h228l121 -162h6z" />
    <glyph glyph-name="Sacute" unicode="&#x15a;" horiz-adv-x="1263" 
d="M938 1044l-133 136h-299l-74 -74v-193l74 -73h461l225 -226v-399l-225 -225h-705l-190 194l213 201l143 -141h367l73 73v195l-73 74h-461l-225 225v397l225 226h645l180 -189zM729 1608h-240l216 266h352z" />
    <glyph glyph-name="sacute" unicode="&#x15b;" horiz-adv-x="1046" 
d="M61 154l189 141l102 -107h277l59 60v110l-59 60h-350l-173 172v276l173 172h526l145 -147l-172 -148l-110 97h-213l-62 -62v-94l60 -59h350l172 -172v-291l-172 -172h-584zM604 1206h-239l215 267h352z" />
    <glyph glyph-name="Scedilla" unicode="&#x15e;" horiz-adv-x="1263" 
d="M692 -205h-190v109l76 86h-316l-190 194l213 201l143 -141h367l73 73v195l-73 74h-461l-225 225v397l225 226h645l180 -189l-221 -201l-133 136h-299l-74 -74v-193l74 -73h461l225 -226v-399l-225 -225h-260l-70 -80h135l76 -76v-151l-76 -76h-256l-57 55l100 94l37 -35
h96l15 15v45z" />
    <glyph glyph-name="scedilla" unicode="&#x15f;" horiz-adv-x="1046" 
d="M586 -205h-191v109l76 86h-252l-158 164l189 141l102 -107h277l59 60v110l-59 60h-350l-173 172v276l173 172h526l145 -147l-172 -148l-110 97h-213l-62 -62v-94l60 -59h350l172 -172v-291l-172 -172h-203l-70 -80h136l75 -76v-151l-75 -76h-256l-58 55l101 94l36 -35h97
l14 15v45z" />
    <glyph glyph-name="Scaron" unicode="&#x160;" horiz-adv-x="1263" 
d="M938 1044l-133 136h-299l-74 -74v-193l74 -73h461l225 -226v-399l-225 -225h-705l-190 194l213 201l143 -141h367l73 73v195l-73 74h-461l-225 225v397l225 226h645l180 -189zM762 1874h227l-207 -266h-288l-207 266h227l121 -162h6z" />
    <glyph glyph-name="scaron" unicode="&#x161;" horiz-adv-x="1046" 
d="M61 154l189 141l102 -107h277l59 60v110l-59 60h-350l-173 172v276l173 172h526l145 -147l-172 -148l-110 97h-213l-62 -62v-94l60 -59h350l172 -172v-291l-172 -172h-584zM643 1473h227l-206 -267h-289l-207 267h227l121 -162h6z" />
    <glyph glyph-name="uni0162" unicode="&#x162;" horiz-adv-x="1159" 
d="M418 1143h-387v280h1097v-280h-387v-1143h-323v1143zM559 -332h-92v209h223v-209l-47 -186h-84v186z" />
    <glyph glyph-name="uni0163" unicode="&#x163;" horiz-adv-x="718" 
d="M422 1028h199v-205h-199v-506l59 -59h176v-258h-350l-172 172v651h-125v205h125v115l176 151h111v-266zM389 -332h-92v209h223v-209l-47 -186h-84v186z" />
    <glyph glyph-name="Tcaron" unicode="&#x164;" horiz-adv-x="1159" 
d="M418 1143h-387v280h1097v-280h-387v-1143h-323v1143zM705 1874h227l-207 -266h-289l-207 266h228l121 -162h6z" />
    <glyph glyph-name="tcaron" unicode="&#x165;" horiz-adv-x="917" 
d="M797 1085h-92v209h223v-209l-47 -186h-84v186zM422 1028h199v-205h-199v-506l59 -59h176v-258h-350l-172 172v651h-125v205h125v115l176 151h111v-266z" />
    <glyph glyph-name="Umacron" unicode="&#x16a;" horiz-adv-x="1378" 
d="M154 215v1208h323v-1087l84 -84h297l84 84v1087h283v-1208l-226 -225h-620zM958 1665h-536v178h536v-178z" />
    <glyph glyph-name="umacron" unicode="&#x16b;" horiz-adv-x="1132" 
d="M123 1028h287v-760l59 -59h88l166 121v698h287v-1028h-209l-68 135h-10l-166 -145h-262l-172 172v866zM836 1249h-537v178h537v-178z" />
    <glyph glyph-name="Uring" unicode="&#x16e;" horiz-adv-x="1378" 
d="M154 215v1208h323v-1087l84 -84h297l84 84v1087h283v-1208l-226 -225h-620zM791 1911l96 -96v-181l-96 -96h-191l-96 96v181l96 96h191zM635 1753v-57l35 -35h51l35 35v57l-35 35h-51z" />
    <glyph glyph-name="uring" unicode="&#x16f;" horiz-adv-x="1132" 
d="M123 1028h287v-760l59 -59h88l166 121v698h287v-1028h-209l-68 135h-10l-166 -145h-262l-172 172v866zM662 1526l96 -96v-181l-96 -96h-191l-96 96v181l96 96h191zM506 1368v-57l35 -35h51l35 35v57l-35 35h-51z" />
    <glyph glyph-name="Uhungarumlaut" unicode="&#x170;" horiz-adv-x="1380" 
d="M154 215v1208h323v-1087l84 -84h297l84 84v1087h283v-1208l-226 -225h-620zM592 1608h-191l195 266h262zM971 1608h-191l195 266h262z" />
    <glyph glyph-name="uhungarumlaut" unicode="&#x171;" horiz-adv-x="1136" 
d="M123 1028h287v-760l59 -59h88l166 121v698h287v-1028h-209l-68 135h-10l-166 -145h-262l-172 172v866zM471 1206h-190l194 267h262zM850 1206h-191l195 267h262z" />
    <glyph glyph-name="Uogonek" unicode="&#x172;" horiz-adv-x="1378" 
d="M154 215v1208h323v-1087l84 -84h297l84 84v1087h283v-1208l-226 -225h-198l-142 -129v-68l15 -14h172v-119h-252l-76 76v153l113 101h-252z" />
    <glyph glyph-name="uogonek" unicode="&#x173;" horiz-adv-x="1134" 
d="M715 -111l125 111h-39l-68 135h-10l-166 -145h-262l-172 172v866h287v-760l59 -59h88l166 121v698h287v-1028l-154 -139v-68l14 -14h172v-119h-251l-76 76v153z" />
    <glyph glyph-name="Ydieresis" unicode="&#x178;" horiz-adv-x="1179" 
d="M-20 1423h370l228 -534l36 -158h11l39 158l227 534h309l-430 -934v-489h-358v489zM526 1634h-235v224h235v-224zM893 1634h-236v224h236v-224z" />
    <glyph glyph-name="Zacute" unicode="&#x179;" horiz-adv-x="1144" 
d="M700 1161h-614v262h899l119 -254l-658 -899v-8h648v-262h-961l-92 252l659 901v8zM664 1608h-240l215 266h352z" />
    <glyph glyph-name="zacute" unicode="&#x17a;" horiz-adv-x="962" 
d="M139 0l-88 129l484 680h-443v219h729l90 -129l-473 -680h465v-219h-764zM563 1208h-239l215 267h352z" />
    <glyph glyph-name="Zdotaccent" unicode="&#x17b;" horiz-adv-x="1144" 
d="M700 1161h-614v262h899l119 -254l-658 -899v-8h648v-262h-961l-92 252l659 901v8zM707 1636h-258v232h258v-232z" />
    <glyph glyph-name="zdotaccent" unicode="&#x17c;" horiz-adv-x="962" 
d="M139 0l-88 129l484 680h-443v219h729l90 -129l-473 -680h465v-219h-764zM610 1227h-258v231h258v-231z" />
    <glyph glyph-name="Zcaron" unicode="&#x17d;" horiz-adv-x="1144" 
d="M700 1161h-614v262h899l119 -254l-658 -899v-8h648v-262h-961l-92 252l659 901v8zM694 1874h228l-207 -266h-289l-207 266h227l121 -162h6z" />
    <glyph glyph-name="zcaron" unicode="&#x17e;" horiz-adv-x="962" 
d="M139 0l-88 129l484 680h-443v219h729l90 -129l-473 -680h465v-219h-764zM604 1473h227l-206 -267h-289l-207 267h227l121 -162h6z" />
    <glyph glyph-name="florin" unicode="&#x192;" horiz-adv-x="880" 
d="M100 -168l68 59l131 932h-127l29 205h127l30 221l197 172h387l-31 -225h-213l-67 -59l-17 -109h203l-29 -205h-202l-148 -1044l-194 -172h-326l31 225h151z" />
    <glyph glyph-name="uni0218" unicode="&#x218;" horiz-adv-x="1263" 
d="M625 -332h-93v209h224v-209l-47 -186h-84v186zM938 1044l-133 136h-299l-74 -74v-193l74 -73h461l225 -226v-399l-225 -225h-705l-190 194l213 201l143 -141h367l73 73v195l-73 74h-461l-225 225v397l225 226h645l180 -189z" />
    <glyph glyph-name="uni0219" unicode="&#x219;" horiz-adv-x="1046" 
d="M61 154l189 141l102 -107h277l59 60v110l-59 60h-350l-173 172v276l173 172h526l145 -147l-172 -148l-110 97h-213l-62 -62v-94l60 -59h350l172 -172v-291l-172 -172h-584zM512 -332h-92v209h223v-209l-47 -186h-84v186z" />
    <glyph glyph-name="uni021A" unicode="&#x21a;" horiz-adv-x="1159" 
d="M418 1143h-387v280h1097v-280h-387v-1143h-323v1143zM559 -332h-92v209h223v-209l-47 -186h-84v186z" />
    <glyph glyph-name="uni021B" unicode="&#x21b;" horiz-adv-x="718" 
d="M422 1028h199v-205h-199v-506l59 -59h176v-258h-350l-172 172v651h-125v205h125v115l176 151h111v-266zM389 -332h-92v209h223v-209l-47 -186h-84v186z" />
    <glyph glyph-name="uni02BC" unicode="&#x2bc;" horiz-adv-x="346" 
d="M154 1298h-93v209h224v-209l-47 -186h-84v186z" />
    <glyph glyph-name="circumflex" unicode="&#x2c6;" horiz-adv-x="825" 
d="M289 1208h-228l207 267h289l207 -267h-227l-121 162h-6z" />
    <glyph glyph-name="caron" unicode="&#x2c7;" horiz-adv-x="825" 
d="M537 1475h227l-207 -267h-289l-207 267h228l121 -162h6z" />
    <glyph glyph-name="breve" unicode="&#x2d8;" horiz-adv-x="655" 
d="M61 1323v127h166v-61l29 -29h143l29 29v61h166v-127l-94 -94h-344z" />
    <glyph glyph-name="dotaccent" unicode="&#x2d9;" horiz-adv-x="380" 
d="M319 1227h-258v231h258v-231z" />
    <glyph glyph-name="ring" unicode="&#x2da;" horiz-adv-x="505" 
d="M348 1528l96 -96v-181l-96 -96h-190l-97 96v181l97 96h190zM193 1370v-57l34 -35h52l34 35v57l-34 35h-52z" />
    <glyph glyph-name="ogonek" unicode="&#x2db;" horiz-adv-x="450" 
d="M61 -111l125 111h170l-153 -139v-68l14 -14h172v-119h-252l-76 76v153z" />
    <glyph glyph-name="tilde" unicode="&#x2dc;" horiz-adv-x="727" 
d="M403 1227l-110 84h-53l-25 -25v-63h-154v143l91 90h172l110 -84h53l25 25v63h154v-143l-91 -90h-172z" />
    <glyph glyph-name="hungarumlaut" unicode="&#x2dd;" horiz-adv-x="958" 
d="M252 1208h-191l195 267h262zM631 1208h-191l195 267h262z" />
    <glyph glyph-name="uni0401" unicode="&#x401;" horiz-adv-x="1204" 
d="M1092 0h-928v1423h928v-260h-605v-319h537v-242h-537v-342h605v-260zM559 1593h-235v224h235v-224zM926 1593h-236v224h236v-224z" />
    <glyph glyph-name="uni0402" unicode="&#x402;" horiz-adv-x="1396" 
d="M293 1161h-293v262h985v-262h-369v-301l82 62h351l225 -226v-641l-199 -297l-239 160l114 164v491l-86 86h-248v-659h-323v1161z" />
    <glyph glyph-name="uni0403" unicode="&#x403;" horiz-adv-x="1150" 
d="M164 1423h946v-280h-623v-1143h-323v1423zM770 1573h-240l215 266h353z" />
    <glyph glyph-name="uni0404" unicode="&#x404;" horiz-adv-x="1253" 
d="M543 244h311l164 162l215 -201l-211 -215h-653l-226 225v993l226 226h643l188 -195l-221 -201l-141 142h-297l-74 -74v-258h385v-254h-383v-277z" />
    <glyph glyph-name="uni0405" unicode="&#x405;" horiz-adv-x="1263" 
d="M938 1044l-133 136h-299l-74 -74v-193l74 -73h461l225 -226v-399l-225 -225h-705l-190 194l213 201l143 -141h367l73 73v195l-73 74h-461l-225 225v397l225 226h645l180 -189z" />
    <glyph glyph-name="uni0406" unicode="&#x406;" horiz-adv-x="948" 
d="M846 0h-744v262h209v899h-209v262h744v-262h-211v-899h211v-262z" />
    <glyph glyph-name="uni0407" unicode="&#x407;" horiz-adv-x="948" 
d="M846 0h-744v262h209v899h-209v262h744v-262h-211v-899h211v-262zM406 1593h-236v224h236v-224zM772 1593h-235v224h235v-224z" />
    <glyph glyph-name="uni0408" unicode="&#x408;" horiz-adv-x="899" 
d="M520 0h-459v281h273l88 88v792h-246v262h569v-1198z" />
    <glyph glyph-name="uni0409" unicode="&#x409;" horiz-adv-x="1849" 
d="M119 313l51 52l111 1058h835v-536l82 61h334l225 -225v-498l-225 -225h-739v1143h-232l-104 -967l-187 -186h-250v323h99zM1116 242h234l84 84v297l-84 84h-234v-465z" />
    <glyph glyph-name="uni040A" unicode="&#x40a;" horiz-adv-x="1918" 
d="M1602 0h-740v616h-375v-616h-323v1423h323v-526h375v526h324v-577l82 61h334l225 -225v-457zM1186 242h233l84 84v256l-84 84h-233v-424z" />
    <glyph glyph-name="uni040B" unicode="&#x40b;" horiz-adv-x="1396" 
d="M293 1161h-293v262h985v-262h-369v-301l82 62h351l225 -226v-696h-324v573l-86 86h-248v-659h-323v1161z" />
    <glyph glyph-name="uni040C" unicode="&#x40c;" horiz-adv-x="1320" 
d="M1300 0h-368l-270 588h-175v-588h-323v1423h323v-573h185l241 573h328l-303 -671zM791 1573h-240l215 266h352z" />
    <glyph glyph-name="uni040E" unicode="&#x40e;" horiz-adv-x="1228" 
d="M295 1665v180h184v-69l31 -31h223l31 31v69h184v-180l-96 -96h-461zM745 0h-485v254h356l74 72l27 149h-471l-195 948h344l123 -694h238l108 694h314l-207 -1198z" />
    <glyph glyph-name="uni040F" unicode="&#x40f;" horiz-adv-x="1388" 
d="M856 -254h-324v254h-368v1423h323v-1142h414v1142h324v-1423h-369v-254z" />
    <glyph glyph-name="uni0410" unicode="&#x410;" horiz-adv-x="1212" 
d="M1212 0h-354l-80 295h-389l-80 -295h-309l406 1423h374zM578 1104l-31 -168l-107 -387h289l-106 387l-29 168h-16z" />
    <glyph glyph-name="uni0411" unicode="&#x411;" horiz-adv-x="1341" 
d="M1229 690v-465l-225 -225h-840v1423h962v-254h-639v-315l82 61h435zM487 254h344l74 74v260l-74 74h-344v-408z" />
    <glyph glyph-name="uni0412" unicode="&#x412;" horiz-adv-x="1355" 
d="M164 1423h815l225 -225v-303l-145 -145l194 -195v-330l-225 -225h-864v1423zM881 920v178l-84 84h-310v-340h316zM930 326v202l-84 84h-359v-370h359z" />
    <glyph glyph-name="uni0413" unicode="&#x413;" horiz-adv-x="1150" 
d="M164 1423h946v-280h-623v-1143h-323v1423z" />
    <glyph glyph-name="uni0414" unicode="&#x414;" horiz-adv-x="1388" 
d="M324 -254h-324v516h98l70 70l121 1091h895v-1161h143v-516h-323v254h-680v-254zM565 1161l-94 -823l-94 -76h483v899h-295z" />
    <glyph glyph-name="uni0415" unicode="&#x415;" horiz-adv-x="1204" 
d="M1092 0h-928v1423h928v-260h-605v-319h537v-242h-537v-342h605v-260z" />
    <glyph glyph-name="uni0416" unicode="&#x416;" horiz-adv-x="1871" 
d="M774 588h-119l-266 -588h-369l359 752l-297 671h328l235 -573h129v573h324v-573h129l235 573h328l-297 -671l358 -752h-368l-266 588h-119v-588h-324v588z" />
    <glyph glyph-name="uni0417" unicode="&#x417;" horiz-adv-x="1241" 
d="M20 205l216 201l163 -162h332l74 73v189l-88 88h-275v254h250l74 74v184l-74 74h-276l-142 -142l-221 201l189 195h622l226 -226v-325l-146 -146l184 -184v-338l-225 -225h-672z" />
    <glyph glyph-name="uni0418" unicode="&#x418;" horiz-adv-x="1421" 
d="M881 795l-355 -795h-362v1423h323v-944h11l43 148l354 796h362v-1423h-323v944h-10z" />
    <glyph glyph-name="uni0419" unicode="&#x419;" horiz-adv-x="1421" 
d="M395 1665v180h185v-69l30 -31h224l30 31v69h185v-180l-97 -96h-460zM881 795l-355 -795h-362v1423h323v-944h11l43 148l354 796h362v-1423h-323v944h-10z" />
    <glyph glyph-name="uni041A" unicode="&#x41a;" horiz-adv-x="1320" 
d="M1300 0h-368l-270 588h-175v-588h-323v1423h323v-573h185l241 573h328l-303 -671z" />
    <glyph glyph-name="uni041B" unicode="&#x41b;" horiz-adv-x="1361" 
d="M119 313l51 52l111 1058h917v-1423h-324v1143h-313l-104 -967l-187 -186h-250v323h99z" />
    <glyph glyph-name="uni041C" unicode="&#x41c;" horiz-adv-x="1796" 
d="M164 0v1423h448l238 -829l45 -203h12l41 203l240 829h444v-1423h-323v977h-15l-37 -211l-233 -766h-279l-247 766l-37 211h-15v-977h-282z" />
    <glyph glyph-name="uni041D" unicode="&#x41d;" horiz-adv-x="1421" 
d="M1257 0h-323v596h-447v-596h-323v1423h323v-546h447v546h323v-1423z" />
    <glyph glyph-name="uni041E" unicode="&#x41e;" horiz-adv-x="1409" 
d="M369 -10l-226 225v993l226 226h671l226 -226v-993l-226 -225h-671zM942 336v751l-84 84h-307l-84 -84v-751l84 -84h307z" />
    <glyph glyph-name="uni041F" unicode="&#x41f;" horiz-adv-x="1394" 
d="M1231 0h-324v1143h-420v-1143h-323v1423h1067v-1423z" />
    <glyph glyph-name="uni0420" unicode="&#x420;" horiz-adv-x="1316" 
d="M164 1423h815l225 -225v-530l-225 -226h-410l-82 62v-504h-323v1423zM881 768v330l-84 84h-310v-498h310z" />
    <glyph glyph-name="uni0421" unicode="&#x421;" horiz-adv-x="1271" 
d="M1040 -10h-671l-226 225v993l226 226h659l189 -195l-230 -209l-141 141h-295l-84 -84v-751l84 -84h313l164 162l223 -209z" />
    <glyph glyph-name="uni0422" unicode="&#x422;" horiz-adv-x="1159" 
d="M418 1143h-387v280h1097v-280h-387v-1143h-323v1143z" />
    <glyph glyph-name="uni0423" unicode="&#x423;" horiz-adv-x="1208" 
d="M735 0h-485v254h356l74 72l27 149h-471l-195 948h344l123 -694h237l109 694h313l-206 -1198z" />
    <glyph glyph-name="uni0424" unicode="&#x424;" horiz-adv-x="1771" 
d="M1042 1327h381l226 -225v-787l-226 -225h-381v-151h-313v151h-381l-225 225v787l225 225h381v158h313v-158zM426 989v-561l84 -84h219v729h-219zM1042 344h220l84 84v561l-84 84h-220v-729z" />
    <glyph glyph-name="uni0425" unicode="&#x425;" horiz-adv-x="1198" 
d="M342 0h-342l420 731l-373 692h377l170 -342l35 -125h10l37 125l155 342h334l-370 -692l403 -731h-379l-188 350l-49 139h-11l-47 -139z" />
    <glyph glyph-name="uni0426" unicode="&#x426;" horiz-adv-x="1435" 
d="M1374 -254h-323v254h-887v1423h323v-1142h414v1142h324v-1142h149v-535z" />
    <glyph glyph-name="uni0427" unicode="&#x427;" horiz-adv-x="1333" 
d="M348 446l-225 226v751h323v-630l84 -84h316v714h323v-1423h-323v508l-82 -62h-416z" />
    <glyph glyph-name="uni0428" unicode="&#x428;" horiz-adv-x="1888" 
d="M1724 0h-1560v1423h323v-1142h295v1142h324v-1142h295v1142h323v-1423z" />
    <glyph glyph-name="uni0429" unicode="&#x429;" horiz-adv-x="1935" 
d="M1550 0h-1386v1423h323v-1142h295v1142h324v-1142h295v1142h323v-1142h150v-535h-324v254z" />
    <glyph glyph-name="uni042A" unicode="&#x42a;" horiz-adv-x="1366" 
d="M270 1169h-270v254h594v-536l82 61h373l225 -225v-498l-225 -225h-779v1169zM594 242h272l84 84v297l-84 84h-272v-465z" />
    <glyph glyph-name="uni042B" unicode="&#x42b;" horiz-adv-x="1798" 
d="M1634 0h-323v1423h323v-1423zM164 0v1423h323v-536l82 61h349l225 -225v-498l-225 -225h-754zM487 242h248l84 84v297l-84 84h-248v-465z" />
    <glyph glyph-name="uni042C" unicode="&#x42c;" horiz-adv-x="1259" 
d="M164 0v1423h323v-536l82 61h373l225 -225v-498l-225 -225h-778zM487 242h273l84 84v297l-84 84h-273v-465z" />
    <glyph glyph-name="uni042D" unicode="&#x42d;" horiz-adv-x="1253" 
d="M20 205l216 201l163 -162h314l73 73v277h-385v254h385v258l-73 74h-297l-142 -142l-221 201l189 195h643l225 -226v-993l-225 -225h-654z" />
    <glyph glyph-name="uni042E" unicode="&#x42e;" horiz-adv-x="1859" 
d="M918 -10l-226 225v373h-205v-588h-323v1423h323v-557h205v342l226 226h573l225 -226v-993l-225 -225h-573zM1393 332v760l-84 84h-209l-84 -84v-760l84 -84h209z" />
    <glyph glyph-name="uni042F" unicode="&#x42f;" horiz-adv-x="1329" 
d="M842 510h-164l-262 -510h-344l299 545l-228 217v436l226 225h796v-1423h-323v510zM842 1182h-291l-84 -84v-262l84 -84h291v430z" />
    <glyph glyph-name="uni0430" unicode="&#x430;" horiz-adv-x="1091" 
d="M260 1038h537l172 -172v-866h-211l-68 135h-8l-168 -145h-260l-172 172v293l172 172h428v151l-61 62h-224l-112 -90l-166 155zM428 434l-59 -59v-125l61 -62h82l170 131v115h-254z" />
    <glyph glyph-name="uni0431" unicode="&#x431;" horiz-adv-x="1146" 
d="M725 1407l119 113l188 -177l-149 -155h-414l-59 -60v-208l82 63h370l172 -172v-649l-172 -172h-567l-172 172v1073l172 172h430zM469 764l-59 -59v-437l59 -59h219l60 59v437l-60 59h-219z" />
    <glyph glyph-name="uni0432" unicode="&#x432;" horiz-adv-x="1112" 
d="M123 0v1028h694l172 -172v-194l-131 -117l152 -139v-234l-172 -172h-715zM664 444h-254v-245h252l61 61v125zM645 829h-235v-213h235l57 58v98z" />
    <glyph glyph-name="uni0433" unicode="&#x433;" horiz-adv-x="870" 
d="M123 1028h717v-219h-430v-809h-287v1028z" />
    <glyph glyph-name="uni0434" unicode="&#x434;" horiz-adv-x="1105" 
d="M287 -207h-287v422h74l45 45l98 768h731v-813h107v-422h-287v207h-481v-207zM457 813l-62 -526l-71 -72h338v598h-205z" />
    <glyph glyph-name="uni0435" unicode="&#x435;" horiz-adv-x="1114" 
d="M461 188h260l102 107l189 -141l-158 -164h-569l-172 172v704l172 172h530l172 -172v-450h-588v-166zM399 598h301v180l-61 62h-178l-62 -62v-180z" />
    <glyph glyph-name="uni0436" unicode="&#x436;" horiz-adv-x="1503" 
d="M608 432h-80l-204 -432h-314l277 553l-221 475h272l170 -391h100v391h287v-391h100l170 391h273l-221 -475l276 -553h-313l-205 432h-80v-432h-287v432z" />
    <glyph glyph-name="uni0437" unicode="&#x437;" horiz-adv-x="985" 
d="M221 743l-172 148l146 147h503l172 -172v-202l-127 -127l150 -150v-225l-172 -172h-551l-150 170l181 137l102 -109h242l61 62v115l-59 59h-215v192h194l58 58v104l-62 62h-190z" />
    <glyph glyph-name="uni0438" unicode="&#x438;" horiz-adv-x="1150" 
d="M1028 0h-287v610h-8l-311 -610h-299v1028h287v-600h8l313 600h297v-1028z" />
    <glyph glyph-name="uni0439" unicode="&#x439;" horiz-adv-x="1150" 
d="M305 1253v136h170v-58l29 -28h149l29 28v58h168v-136l-92 -92h-361zM1028 0h-287v610h-8l-311 -610h-299v1028h287v-600h8l313 600h297v-1028z" />
    <glyph glyph-name="uni043A" unicode="&#x43a;" horiz-adv-x="1069" 
d="M1059 0h-314l-215 432h-120v-432h-287v1028h287v-391h141l180 391h273l-232 -475z" />
    <glyph glyph-name="uni043B" unicode="&#x43b;" horiz-adv-x="1097" 
d="M233 -10h-213v286h95l45 46l84 706h731v-1028h-287v813h-209l-69 -647z" />
    <glyph glyph-name="uni043C" unicode="&#x43c;" horiz-adv-x="1406" 
d="M123 0v1028h412l170 -639h8l166 639h405v-1028h-287v635h-8l-176 -635h-248l-182 635h-8v-635h-252z" />
    <glyph glyph-name="uni043D" unicode="&#x43d;" horiz-adv-x="1118" 
d="M995 0h-286v432h-299v-432h-287v1028h287v-377h299v377h286v-1028z" />
    <glyph glyph-name="uni043E" unicode="&#x43e;" horiz-adv-x="1138" 
d="M285 -10l-172 172v704l172 172h569l172 -172v-706l-172 -170h-569zM459 819l-60 -59v-492l60 -59h221l59 59v492l-59 59h-221z" />
    <glyph glyph-name="uni043F" unicode="&#x43f;" horiz-adv-x="1118" 
d="M995 0h-286v809h-299v-809h-287v1028h872v-1028z" />
    <glyph glyph-name="uni0440" unicode="&#x440;" 
d="M838 1038l172 -172v-704l-172 -172h-283l-145 145v-528h-287v1421h209l67 -135h11l165 145h263zM664 209l59 59v492l-59 59h-89l-165 -121v-368l135 -121h119z" />
    <glyph glyph-name="uni0441" unicode="&#x441;" horiz-adv-x="1009" 
d="M766 723l-111 96h-196l-60 -59v-492l60 -59h213l102 106l215 -161l-158 -164h-546l-172 172v704l172 172h532l146 -147z" />
    <glyph glyph-name="uni0442" unicode="&#x442;" horiz-adv-x="911" 
d="M311 809h-291v219h871v-219h-293v-809h-287v809z" />
    <glyph glyph-name="uni0443" unicode="&#x443;" horiz-adv-x="1071" 
d="M1030 1028l-393 -1421h-246l109 393h-193l-266 1028h297l188 -782h35l201 782h268z" />
    <glyph glyph-name="uni0444" unicode="&#x444;" horiz-adv-x="1503" 
d="M895 -393h-287v450l-82 -67h-241l-172 170v704l174 174h239l82 -69v452h287v-452l82 69h240l174 -174v-704l-172 -170h-242l-82 67v-450zM1044 209l60 59v492l-60 59h-149v-610h149zM459 819l-60 -59v-492l60 -59h149v610h-149z" />
    <glyph glyph-name="uni0445" unicode="&#x445;" horiz-adv-x="968" 
d="M461 328l-185 -328h-276l326 551l-285 477h319l138 -270h8l133 270h274l-266 -477l322 -551h-326l-172 328h-10z" />
    <glyph glyph-name="uni0446" unicode="&#x446;" horiz-adv-x="1140" 
d="M1090 -207h-287v207h-680v1028h287v-809h286v809h287v-809h107v-426z" />
    <glyph glyph-name="uni0447" unicode="&#x447;" horiz-adv-x="1071" 
d="M82 1028h287v-450l59 -60h234v510h286v-1028h-286v365l-87 -66h-321l-172 172v557z" />
    <glyph glyph-name="uni0448" unicode="&#x448;" horiz-adv-x="1511" 
d="M1389 1028v-1028h-1266v1028h287v-809h202v809h287v-809h203v809h287z" />
    <glyph glyph-name="uni0449" unicode="&#x449;" horiz-adv-x="1546" 
d="M1495 -207h-287v207h-1085v1028h287v-809h202v809h287v-809h203v809h287v-809h106v-426z" />
    <glyph glyph-name="uni044A" unicode="&#x44a;" horiz-adv-x="1110" 
d="M197 809h-197v219h483v-383l86 66h297l172 -172v-367l-172 -172h-669v809zM692 506h-209v-301h209l60 59v182z" />
    <glyph glyph-name="uni044B" unicode="&#x44b;" horiz-adv-x="1482" 
d="M1075 1028h285v-1028h-285v1028zM123 0v1028h287v-383l86 66h280l172 -172v-367l-172 -172h-653zM602 506h-192v-301h192l60 59v182z" />
    <glyph glyph-name="uni044C" unicode="&#x44c;" horiz-adv-x="1036" 
d="M123 0v1028h287v-383l86 66h297l172 -172v-367l-172 -172h-670zM618 506h-208v-301h208l60 59v182z" />
    <glyph glyph-name="uni044D" unicode="&#x44d;" horiz-adv-x="1009" 
d="M610 422h-282v192h282v156l-59 59h-201l-106 -106l-197 168l146 147h532l172 -172v-704l-172 -172h-547l-158 164l207 161l111 -116h213l59 59v164z" />
    <glyph glyph-name="uni044E" unicode="&#x44e;" horiz-adv-x="1515" 
d="M735 -10l-172 172v268h-153v-430h-287v1028h287v-383h153v221l172 172h496l172 -172v-706l-172 -170h-496zM909 840l-59 -60v-532l59 -60h148l59 60v532l-59 60h-148z" />
    <glyph glyph-name="uni044F" unicode="&#x44f;" horiz-adv-x="1058" 
d="M346 0h-295l211 391l-184 174v291l172 172h686v-1028h-287v371h-121zM422 559h227v270h-227l-57 -57v-156z" />
    <glyph glyph-name="uni0451" unicode="&#x451;" horiz-adv-x="1114" 
d="M461 188h260l102 107l189 -141l-158 -164h-569l-172 172v704l172 172h530l172 -172v-450h-588v-166zM399 598h301v180l-61 62h-178l-62 -62v-180zM485 1163h-235v223h235v-223zM852 1163h-236v223h236v-223z" />
    <glyph glyph-name="uni0452" unicode="&#x452;" horiz-adv-x="1155" 
d="M1032 743v-723l-158 -243l-223 143l94 137v580l-59 59h-63l-134 -96v-600h-286v1063h-203v217h203v141h286v-141h275v-217h-275v-268l138 120h233z" />
    <glyph glyph-name="uni0453" unicode="&#x453;" horiz-adv-x="866" 
d="M123 1028h717v-219h-430v-809h-287v1028zM616 1147h-239l215 266h352z" />
    <glyph glyph-name="uni0454" unicode="&#x454;" horiz-adv-x="1009" 
d="M399 614h283v-192h-283v-164l60 -59h213l110 116l207 -161l-158 -164h-546l-172 172v704l172 172h532l146 -147l-197 -168l-107 106h-200l-60 -59v-156z" />
    <glyph glyph-name="uni0455" unicode="&#x455;" horiz-adv-x="1046" 
d="M61 154l189 141l102 -107h277l59 60v110l-59 60h-350l-173 172v276l173 172h526l145 -147l-172 -148l-110 97h-213l-62 -62v-94l60 -59h350l172 -172v-291l-172 -172h-584z" />
    <glyph glyph-name="uni0456" unicode="&#x456;" horiz-adv-x="532" 
d="M410 0h-287v1028h287v-1028zM410 1186h-287v237h287v-237z" />
    <glyph glyph-name="uni0457" unicode="&#x457;" horiz-adv-x="532" 
d="M403 0h-286v1028h286v-1028zM201 1163h-236v223h236v-223zM567 1163h-235v223h235v-223z" />
    <glyph glyph-name="uni0458" unicode="&#x458;" horiz-adv-x="532" 
d="M123 -18v1046h287v-1137l-277 -333l-215 176zM410 1186h-287v237h287v-237z" />
    <glyph glyph-name="uni0459" unicode="&#x459;" horiz-adv-x="1531" 
d="M233 -10h-213v286h95l45 46l84 706h692v-383l86 66h266l172 -172v-367l-172 -172h-639v813h-170l-69 -647zM1114 506h-178v-301h178l60 59v182z" />
    <glyph glyph-name="uni045A" unicode="&#x45a;" horiz-adv-x="1558" 
d="M1315 0h-639v432h-266v-432h-287v1028h287v-377h266v377h287v-399l86 65h266l172 -172v-350zM1141 489h-178v-284h178l59 59v166z" />
    <glyph glyph-name="uni045B" unicode="&#x45b;" horiz-adv-x="1155" 
d="M1032 743v-743h-287v637l-59 59h-63l-134 -96v-600h-286v1063h-203v217h203v141h286v-141h275v-217h-275v-268l138 120h233z" />
    <glyph glyph-name="uni045C" unicode="&#x45c;" horiz-adv-x="1069" 
d="M1059 0h-314l-215 432h-120v-432h-287v1028h287v-391h141l180 391h273l-232 -475zM690 1147h-239l215 266h352z" />
    <glyph glyph-name="uni045E" unicode="&#x45e;" horiz-adv-x="1071" 
d="M264 1253v136h170v-58l29 -28h149l29 28v58h168v-136l-92 -92h-361zM1030 1028l-393 -1421h-246l109 393h-193l-266 1028h297l188 -782h35l201 782h268z" />
    <glyph glyph-name="uni045F" unicode="&#x45f;" horiz-adv-x="1112" 
d="M700 -207h-286v207h-291v1028h287v-809h292v809h287v-1028h-289v-207z" />
    <glyph glyph-name="uni0490" unicode="&#x490;" horiz-adv-x="1150" 
d="M807 1638h303v-495h-623v-1143h-323v1423h643v215z" />
    <glyph glyph-name="uni0491" unicode="&#x491;" horiz-adv-x="870" 
d="M561 1190h279v-381h-430v-809h-287v1028h438v162z" />
    <glyph glyph-name="uni1E9E" unicode="&#x1e9e;" horiz-adv-x="1357" 
d="M532 1182l-45 -45v-1137h-323v1260l164 163h692l143 -149l-270 -459h137l225 -225v-365l-225 -225h-430v242h248l84 84v198l-76 76h-252v215l201 338l-29 29h-244z" />
    <glyph glyph-name="endash" unicode="&#x2013;" horiz-adv-x="1064" 
d="M1004 399h-943v238h943v-238z" />
    <glyph glyph-name="emdash" unicode="&#x2014;" horiz-adv-x="1622" 
d="M1561 399h-1500v238h1500v-238z" />
    <glyph glyph-name="quoteleft" unicode="&#x2018;" horiz-adv-x="425" 
d="M242 1188h123v-270h-304v270l62 235h119v-235z" />
    <glyph glyph-name="quoteright" unicode="&#x2019;" horiz-adv-x="425" 
d="M184 1153h-123v270h304v-270l-62 -235h-119v235z" />
    <glyph glyph-name="quotesinglbase" unicode="&#x201a;" horiz-adv-x="425" 
d="M184 0h-123v270h304v-270l-62 -236h-119v236z" />
    <glyph glyph-name="quotedblleft" unicode="&#x201c;" horiz-adv-x="813" 
d="M629 1188h123v-270h-303v270l61 235h119v-235zM242 1188h123v-270h-304v270l62 235h119v-235z" />
    <glyph glyph-name="quotedblright" unicode="&#x201d;" horiz-adv-x="813" 
d="M184 1153h-123v270h304v-270l-62 -235h-119v235zM571 1153h-122v270h303v-270l-62 -235h-119v235z" />
    <glyph glyph-name="quotedblbase" unicode="&#x201e;" horiz-adv-x="813" 
d="M184 0h-123v270h304v-270l-62 -236h-119v236zM571 0h-122v270h303v-270l-62 -236h-119v236z" />
    <glyph glyph-name="dagger" unicode="&#x2020;" horiz-adv-x="1036" 
d="M315 905h-254v266h254l97 -43l-27 93v315h277v-315l-29 -93l98 43h244v-266h-244l-96 43l27 -98v-1225l-140 -137l-137 137v1225l27 98z" />
    <glyph glyph-name="daggerdbl" unicode="&#x2021;" horiz-adv-x="1036" 
d="M315 123h-254v266h254l97 -43l-27 92v412l27 98l-97 -43h-254v266h254l97 -43l-27 93v315h277v-315l-29 -93l98 43h244v-266h-244l-96 43l27 -98v-412l-29 -92l98 43h244v-266h-244l-96 43l27 -98v-443l-140 -137l-137 137v443l27 98z" />
    <glyph glyph-name="bullet" unicode="&#x2022;" horiz-adv-x="835" 
d="M418 346l-254 254l254 256l254 -256z" />
    <glyph glyph-name="ellipsis" unicode="&#x2026;" horiz-adv-x="1347" 
d="M365 0h-304v270h304v-270zM825 0h-303v270h303v-270zM1286 0h-303v270h303v-270z" />
    <glyph glyph-name="perthousand" unicode="&#x2030;" horiz-adv-x="2228" 
d="M1065 1423h240l-787 -1423h-239zM51 854v459l121 121h346l121 -121v-459l-121 -121h-346zM387 901l39 39v287l-39 39h-84l-39 -39v-287l39 -39h84zM1509 569v-458l-120 -121h-347l-120 121v458l120 121h347zM1174 522l-39 -39v-286l39 -39h83l39 39v286l-39 39h-83z
M2177 569v-458l-121 -121h-346l-121 121v458l121 121h346zM1841 522l-39 -39v-286l39 -39h84l39 39v286l-39 39h-84z" />
    <glyph glyph-name="guilsinglleft" unicode="&#x2039;" horiz-adv-x="561" 
d="M254 139l-193 348l193 349h246l-207 -349l207 -348h-246z" />
    <glyph glyph-name="guilsinglright" unicode="&#x203a;" horiz-adv-x="561" 
d="M61 836h246l193 -349l-193 -348h-246l207 348z" />
    <glyph glyph-name="fraction" unicode="&#x2044;" horiz-adv-x="329" 
d="M438 1423h240l-787 -1423h-239z" />
    <glyph glyph-name="uni2070" unicode="&#x2070;" horiz-adv-x="761" 
d="M195 1634h372l123 -123v-536l-123 -121h-372l-123 121v536zM319 1485l-38 -37v-281l200 281l-39 37h-123zM481 1319l-200 -281l36 -34h127l37 34v281z" />
    <glyph glyph-name="uni2074" unicode="&#x2074;" horiz-adv-x="667" 
d="M352 1008h-352v157l336 463h225v-463h86v-157h-86v-148h-209v148zM350 1427l-184 -264h188v264h-4z" />
    <glyph glyph-name="uni2075" unicode="&#x2075;" horiz-adv-x="696" 
d="M514 854h-369l-114 115l137 127l86 -84h135l37 37v104l-37 37h-217l-96 96v342h526v-158h-317v-133h225l125 -125v-237z" />
    <glyph glyph-name="uni2076" unicode="&#x2076;" horiz-adv-x="706" 
d="M567 1634l88 -88l-127 -119l-59 58h-152l-36 -37v-137l53 47h207l125 -125v-254l-125 -125h-346l-123 121v536l123 123h372zM317 1004h103l37 36v136l-37 36h-103l-36 -36v-136z" />
    <glyph glyph-name="uni2077" unicode="&#x2077;" horiz-adv-x="636" 
d="M446 1141v-281h-208v318l192 292h-170v-75h-209v233h514l92 -155z" />
    <glyph glyph-name="uni2078" unicode="&#x2078;" horiz-adv-x="739" 
d="M678 977l-123 -123h-371l-123 123v182l101 101l-90 90v161l121 121h354l121 -121v-161l-90 -90l100 -101v-182zM469 1151l-37 37h-125l-37 -37v-113l37 -37h125l37 37v113zM422 1485h-105l-36 -37v-88l36 -37h105l37 37v88z" />
    <glyph glyph-name="uni2079" unicode="&#x2079;" horiz-adv-x="727" 
d="M129 854l-88 88l127 119l59 -57h181l38 36v136l-53 -48h-207l-125 125v256l125 125h346l123 -121v-536l-123 -123h-403zM410 1485h-103l-37 -35v-139l37 -37h103l36 35v141z" />
    <glyph glyph-name="uni2080" unicode="&#x2080;" horiz-adv-x="761" 
d="M195 569h372l123 -123v-536l-123 -121h-372l-123 121v536zM319 420l-38 -37v-281l200 281l-39 37h-123zM481 254l-200 -281l36 -34h127l37 34v281z" />
    <glyph glyph-name="uni2081" unicode="&#x2081;" horiz-adv-x="602" 
d="M571 -205h-530v158h164v453h-127v157h336v-610h157v-158z" />
    <glyph glyph-name="uni2082" unicode="&#x2082;" horiz-adv-x="686" 
d="M635 -205h-596v158l364 328v94l-36 37h-113l-86 -84l-137 127l114 114h347l120 -120v-230l-309 -262v-4h332v-158z" />
    <glyph glyph-name="uni2083" unicode="&#x2083;" horiz-adv-x="686" 
d="M504 -211h-369l-115 115l138 127l86 -84h135l37 37v90l-37 37h-223v133l219 157v5h-305v157h538v-157l-231 -158v-4h127l121 -121v-213z" />
    <glyph glyph-name="uni2084" unicode="&#x2084;" horiz-adv-x="667" 
d="M352 -57h-352v157l336 463h225v-463h86v-157h-86v-148h-209v148zM350 362l-184 -264h188v264h-4z" />
    <glyph glyph-name="uni2085" unicode="&#x2085;" horiz-adv-x="696" 
d="M514 -211h-369l-114 115l137 127l86 -84h135l37 37v104l-37 37h-217l-96 96v342h526v-157h-317v-134h225l125 -125v-237z" />
    <glyph glyph-name="uni2086" unicode="&#x2086;" horiz-adv-x="706" 
d="M567 569l88 -88l-127 -119l-59 58h-152l-36 -37v-137l53 47h207l125 -125v-254l-125 -125h-346l-123 121v536l123 123h372zM317 -61h103l37 36v136l-37 36h-103l-36 -36v-136z" />
    <glyph glyph-name="uni2087" unicode="&#x2087;" horiz-adv-x="636" 
d="M446 76v-281h-208v318l192 293h-170v-76h-209v233h514l92 -155z" />
    <glyph glyph-name="uni2088" unicode="&#x2088;" horiz-adv-x="739" 
d="M678 -88l-123 -123h-371l-123 123v182l101 101l-90 90v161l121 121h354l121 -121v-161l-90 -90l100 -101v-182zM469 86l-37 37h-125l-37 -37v-113l37 -36h125l37 36v113zM422 420h-105l-36 -37v-88l36 -37h105l37 37v88z" />
    <glyph glyph-name="uni2089" unicode="&#x2089;" horiz-adv-x="727" 
d="M129 -211l-88 88l127 119l59 -57h181l38 36v136l-53 -48h-207l-125 125v256l125 125h346l123 -120v-537l-123 -123h-403zM410 420h-103l-37 -35v-139l37 -37h103l36 35v141z" />
    <glyph glyph-name="Euro" unicode="&#x20ac;" horiz-adv-x="1298" 
d="M586 244h313l164 162l215 -201l-211 -215h-653l-226 225v274h-116v168h116v105h-116v166h116v280l226 226h643l188 -195l-221 -201l-141 142h-297l-74 -74v-178h348v-166h-348v-105h348v-168h-348v-172z" />
    <glyph glyph-name="uni20B4" unicode="&#x20b4;" horiz-adv-x="1114" 
d="M240 508h-109v154h799v-154h-385l-152 -217l33 -39h315l117 123l215 -189l-174 -186h-661l-197 227zM930 758h-799v151h387l156 224l-35 38h-246l-112 -120l-213 192l170 180h591l197 -227l-205 -287h109v-151z" />
    <glyph glyph-name="uni20BD" unicode="&#x20bd;" horiz-adv-x="1288" 
d="M217 565h-156v217h156v641h733l226 -225v-407l-226 -226h-409v-121h407v-217h-407v-227h-324v227h-156v217h156v121zM852 866v256l-84 84h-227v-424h227z" />
    <glyph glyph-name="uni2116" unicode="&#x2116;" horiz-adv-x="2037" 
d="M1448 743l-123 123v445l123 123h364l123 -123v-445l-123 -123h-364zM1724 944v289l-41 41h-104l-41 -41v-289l41 -41h104zM1925 446h-590v205h590v-205zM1178 1423v-1423h-426l-254 764l-35 188h-17v-952h-282v1423h426l254 -766l35 -186h16v952h283z" />
    <glyph glyph-name="trademark" unicode="&#x2122;" horiz-adv-x="1306" 
d="M164 1284h-154v139h484v-139h-154v-473h-176v473zM561 811v612h252l74 -309l12 -98h8l15 98l71 309h242v-612h-176v385h-8l-15 -90l-71 -295h-156l-82 295l-14 90h-8v-385h-144z" />
    <glyph glyph-name="minus" unicode="&#x2212;" horiz-adv-x="1032" 
d="M940 504h-848v207h848v-207z" />
    <glyph glyph-name="uniF6C3" unicode="&#xf6c3;" horiz-adv-x="346" 
d="M154 -350h-93v209h224v-209l-47 -187h-84v187z" />
    <glyph glyph-name="uniF6D1" unicode="&#xf6d1;" horiz-adv-x="776" 
d="M61 1665v180h185v-69l30 -31h224l30 31v69h185v-180l-97 -96h-460z" />
    <glyph glyph-name="uniF6D4" unicode="&#xf6d4;" horiz-adv-x="667" 
d="M61 1253v136h170v-58l29 -28h150l28 28v58h168v-136l-92 -92h-360z" />
    <glyph glyph-name="uniF6DE" unicode="&#xf6de;" horiz-adv-x="899" 
d="M520 0h-459v281h273l88 88v1054h323v-1198z" />
    <glyph glyph-name="uniF730" unicode="&#xf730;" horiz-adv-x="1107" 
d="M285 -10l-172 172v704l172 172h538l172 -172v-706l-172 -170h-538zM459 819l-60 -59v-340l310 340l-60 59h-190zM459 209h190l60 59v338l-310 -340z" />
    <glyph glyph-name="uniF731" unicode="&#xf731;" horiz-adv-x="718" 
d="M678 0h-617v219h162v590h-143v219h430v-809h168v-219z" />
    <glyph glyph-name="uniF732" unicode="&#xf732;" horiz-adv-x="958" 
d="M877 0h-832v209l522 442v119l-59 59h-164l-106 -106l-197 168l145 147h496l172 -172v-282l-453 -369v-6h476v-209z" />
    <glyph glyph-name="uniF733" unicode="&#xf733;" horiz-adv-x="966" 
d="M895 266v-499l-172 -173h-598l-145 148l196 168l107 -107h266l59 60v307l-59 59h-379v209l385 375v6h-512v209h813v-209l-385 -375v-6h252z" />
    <glyph glyph-name="uniF734" unicode="&#xf734;" horiz-adv-x="1024" 
d="M553 0h-533v219l488 809h332v-809h123v-219h-123v-395h-287v395zM547 702l-281 -483h289v483h-8z" />
    <glyph glyph-name="uniF735" unicode="&#xf735;" horiz-adv-x="1017" 
d="M889 1028v-209h-510v-340h395l172 -172v-540l-172 -173h-598l-145 148l196 168l107 -107h266l59 60v348l-59 59h-340l-168 168v590h797z" />
    <glyph glyph-name="uniF736" unicode="&#xf736;" 
d="M1010 162l-172 -172h-543l-172 172v1089l172 172h557l145 -147l-196 -168l-107 106h-225l-59 -59v-313l84 69h344l172 -172v-577zM410 258l59 -59h195l59 59v385l-59 59h-195l-59 -59v-385z" />
    <glyph glyph-name="uniF737" unicode="&#xf737;" horiz-adv-x="1013" 
d="M338 -393v606l336 588v8h-336v-164h-287v383h789l153 -227l-368 -651v-543h-287z" />
    <glyph glyph-name="uniF738" unicode="&#xf738;" horiz-adv-x="1116" 
d="M1004 162l-173 -172h-546l-172 172v418l157 157l-143 144v381l172 172h518l172 -172v-381l-143 -144l158 -157v-418zM717 569l-55 56h-207l-56 -56v-311l60 -59h198l60 59v311zM647 1225h-178l-55 -56v-276l59 -59h170l59 59v276z" />
    <glyph glyph-name="uniF739" unicode="&#xf739;" horiz-adv-x="1130" 
d="M121 866l172 172h543l172 -172v-1089l-172 -172h-588l-146 147l197 168l107 -106h256l59 59v313l-84 -69h-344l-172 172v577zM721 770l-59 59h-195l-59 -59v-385l59 -59h195l59 59v385z" />
    <glyph glyph-name="uniFB03" unicode="&#xfb03;" horiz-adv-x="1654" 
d="M989 1028h543v-1028h-287v823h-256v-823h-287v823h-258v-823h-286v823h-127v205h127v219l172 174h413v-125l129 125h375v-127l127 127h158v-225h-483l-60 -59v-109zM444 1137v-109h258v168h-198z" />
    <glyph glyph-name="uniFB04" unicode="&#xfb04;" horiz-adv-x="1654" 
d="M1374 1421h158v-1421h-287v823h-256v-823h-287v823h-258v-823h-286v823h-127v205h127v219l172 174h413v-123l129 123h375v-127zM1049 1196l-60 -59v-109h256v168h-196zM444 1137v-109h258v168h-198z" />
    <glyph glyph-name="uniFB06" unicode="&#xfb06;" horiz-adv-x="1728" 
d="M1432 1028h198v-199h-198v-512l59 -59h176v-258h-350l-172 172v657h-168v111l-111 -111h-432l-61 -61v-84l59 -59h350l172 -172v-281l-172 -172h-583l-158 164l188 141l103 -106h276l60 59v100l-60 60h-350l-172 172v266l172 172h887v115l176 151h111v-266z" />
    <glyph glyph-name="uni0409.salt" horiz-adv-x="1839" 
d="M109 313l51 52l82 788l260 270h604v-536l82 61h334l225 -225v-498l-225 -225h-740v1143h-139l-94 -99l-103 -868l-186 -186h-250v323h99zM1106 242h233l84 84v297l-84 84h-233v-465z" />
    <glyph glyph-name="uni0459.salt" horiz-adv-x="1507" 
d="M213 -10h-213v286h94l45 46l62 507l194 199h516v-383l86 66h267l172 -172v-367l-172 -172h-639v813h-103l-71 -74l-62 -573zM1090 506h-179v-301h179l59 59v182z" />
    <glyph glyph-name="lslash.salt" horiz-adv-x="643" 
d="M178 1202h-178v219h465v-467l137 93v-244l-137 -94v-709h-287v530l-119 -75v243l119 76v428z" />
    <glyph glyph-name="glyph453" horiz-adv-x="1357" 
d="M532 1182l-45 -45v-1137h-323v1260l164 163h692l143 -149l-270 -459h137l225 -225v-365l-225 -225h-430v242h248l84 84v198l-76 76h-252v215l201 338l-29 29h-244z" />
    <glyph glyph-name="agrave.salt" 
d="M459 819l-60 -59v-492l60 -59h88l166 121v368l-166 121h-88zM791 1028h208v-1028h-208l-68 135h-10l-166 -145h-262l-172 172v704l172 172h262l166 -145h10zM129 1473h352l215 -267h-239z" />
    <glyph glyph-name="aacute.salt" 
d="M791 1028h208v-1028h-208l-68 135h-10l-166 -145h-262l-172 172v704l172 172h262l166 -145h10zM459 819l-60 -59v-492l60 -59h88l166 121v368l-166 121h-88zM651 1206h-239l215 267h352z" />
    <glyph glyph-name="abreve.salt" 
d="M791 1028h208v-1028h-208l-68 135h-10l-166 -145h-262l-172 172v704l172 172h262l166 -145h10zM459 819l-60 -59v-492l60 -59h88l166 121v368l-166 121h-88zM287 1323v127h166v-61l28 -29h144l28 29v61h166v-127l-94 -94h-344z" />
    <glyph glyph-name="acircumflex.salt" 
d="M791 1028h208v-1028h-208l-68 135h-10l-166 -145h-262l-172 172v704l172 172h262l166 -145h10zM459 819l-60 -59v-492l60 -59h88l166 121v368l-166 121h-88zM432 1206h-227l207 267h288l207 -267h-227l-121 162h-6z" />
    <glyph glyph-name="adieresis.salt" 
d="M791 1028h208v-1028h-208l-68 135h-10l-166 -145h-262l-172 172v704l172 172h262l166 -145h10zM459 819l-60 -59v-492l60 -59h88l166 121v368l-166 121h-88zM487 1229h-235v223h235v-223zM854 1229h-236v223h236v-223z" />
    <glyph glyph-name="amacron.salt" 
d="M791 1028h208v-1028h-208l-68 135h-10l-166 -145h-262l-172 172v704l172 172h262l166 -145h10zM459 819l-60 -59v-492l60 -59h88l166 121v368l-166 121h-88zM819 1249h-536v178h536v-178z" />
    <glyph glyph-name="aring.salt" 
d="M791 1028h208v-1028h-208l-68 135h-10l-166 -145h-262l-172 172v704l172 172h262l166 -145h10zM459 819l-60 -59v-492l60 -59h88l166 121v368l-166 121h-88zM639 1526l96 -96v-181l-96 -96h-190l-97 96v181l97 96h190zM483 1368v-57l35 -35h51l35 35v57l-35 35h-51z" />
    <glyph glyph-name="atilde.salt" 
d="M791 1028h208v-1028h-208l-68 135h-10l-166 -145h-262l-172 172v704l172 172h262l166 -145h10zM459 819l-60 -59v-492l60 -59h88l166 121v368l-166 121h-88zM588 1229l-111 84h-53l-25 -25v-63h-153v143l90 90h172l110 -84h54l24 25v63h154v-143l-90 -90h-172z" />
    <glyph glyph-name="lcaron.salt" horiz-adv-x="780" 
d="M680 1212h-92v209h223v-209l-47 -186h-84v186zM178 1202h-178v219h465v-1421h-287v1202z" />
    <glyph glyph-name="lacute.salt" horiz-adv-x="587" 
d="M178 1202h-178v219h465v-1421h-287v1202zM362 1579h-239l215 266h352z" />
    <glyph glyph-name="uni013C.salt" horiz-adv-x="587" 
d="M178 1202h-178v219h465v-1421h-287v1202zM303 -332h-92v209h223v-209l-47 -186h-84v186z" />
    <glyph glyph-name="Igrave.salt" horiz-adv-x="651" 
d="M487 1423v-1423h-323v1423h323zM-117 1874h353l215 -266h-240z" />
    <glyph glyph-name="Iacute.salt" horiz-adv-x="651" 
d="M487 1423v-1423h-323v1423h323zM438 1608h-239l215 266h352z" />
    <glyph glyph-name="Icircumflex.salt" horiz-adv-x="651" 
d="M487 1423v-1423h-323v1423h323zM203 1608h-228l207 266h289l207 -266h-227l-121 161h-6z" />
    <glyph glyph-name="Idieresis.salt" horiz-adv-x="651" 
d="M487 1423v-1423h-323v1423h323zM260 1634h-235v224h235v-224zM627 1634h-236v224h236v-224z" />
    <glyph glyph-name="Idotaccent.salt" horiz-adv-x="651" 
d="M487 1423v-1423h-323v1423h323zM457 1636h-258v232h258v-232z" />
    <glyph glyph-name="Imacron.salt" horiz-adv-x="651" 
d="M487 1423v-1423h-323v1423h323zM594 1665h-537v178h537v-178z" />
    <glyph glyph-name="uni0430.salt" 
d="M791 1028h208v-1028h-208l-68 135h-10l-166 -145h-262l-172 172v704l172 172h262l166 -145h10zM459 819l-60 -59v-492l60 -59h88l166 121v368l-166 121h-88z" />
    <glyph glyph-name="g.salt" 
d="M791 1028h208v-1259l-172 -172h-559l-145 141l205 172l100 -94h225l60 59v260l-166 -145h-262l-172 172v704l172 172h262l166 -145h10zM459 819l-60 -59v-492l60 -59h88l166 121v368l-166 121h-88z" />
    <glyph glyph-name="I.salt" horiz-adv-x="651" 
d="M487 1423v-1423h-323v1423h323z" />
    <glyph glyph-name="l.salt" horiz-adv-x="587" 
d="M178 1202h-178v219h465v-1421h-287v1202z" />
    <glyph glyph-name="zero.salt" horiz-adv-x="1398" 
d="M369 -10l-226 225v993l226 226h661l225 -226v-993l-225 -225h-661zM932 336v751l-84 84h-297l-84 -84v-751l84 -84h297z" />
    <glyph glyph-name="one.salt" horiz-adv-x="780" 
d="M616 1423v-1423h-323v1100l-148 -105l-145 217l303 211h313z" />
    <glyph glyph-name="uni0414.salt" horiz-adv-x="1439" 
d="M375 -254h-324v516h99l69 70q2 18 11.5 108.5t17.5 157.5q22 207 34 313l16.5 148.5t12.5 114.5l250 249h674v-1161h143v-516h-323v254h-680v-254zM608 1100l-86 -762l-94 -76h483v899h-241z" />
    <glyph glyph-name="uni0434.salt" horiz-adv-x="1105" 
d="M449 758l-56 -471l-69 -72h338v598h-158zM287 -207h-287v422h74l45 45l74 571l196 197h559v-813h107v-422h-287v207h-481v-207z" />
    <glyph glyph-name="uni041B.salt" horiz-adv-x="1351" 
d="M109 313l51 52l82 788l260 270h686v-1423h-324v1143h-221l-94 -99l-103 -868l-186 -186h-250v323h99z" />
    <glyph glyph-name="uni043B.salt" horiz-adv-x="1077" 
d="M213 -10h-213v286h94l45 46l62 507l194 199h559v-1028h-286v813h-146l-71 -74l-62 -573z" />
    <glyph glyph-name="y.salt" horiz-adv-x="1071" 
d="M1030 1028l-393 -1421h-246l109 393h-193l-266 1028h297l188 -782h35l201 782h268z" />
    <glyph glyph-name="c_t.dlig" horiz-adv-x="1667" 
d="M1370 1028h199v-219h-199v-492l60 -59h176v-258h-351l-172 172v637h-168v111l-110 -111h-346l-60 -59v-471l60 -60h213l108 96l172 -188l-121 -127h-546l-172 172v684l172 172h798v115l177 151h110v-266z" />
    <glyph glyph-name="c_h.dlig" horiz-adv-x="2150" 
d="M2021 0h-286v760l-60 59h-88l-166 -121v-698h-286v1239h-109l-63 -63v-285l-197 -168l-111 96h-196l-60 -59v-492l60 -59h213l102 106l215 -161l-158 -164h-546l-172 172v704l172 172h479v211l172 172h485v-528l166 145h262l172 -172v-866z" />
    <glyph glyph-name="c_k.dlig" horiz-adv-x="2066" 
d="M2056 0h-315l-223 436h-97v-436h-286v1241h-109l-63 -63v-287l-197 -168l-111 96h-196l-60 -59v-492l60 -59h213l102 106l215 -161l-158 -164h-546l-172 172v704l172 172h479v213l172 172h485v-782h119l180 387h271l-234 -479z" />
    <glyph glyph-name="Iogonek.salt" horiz-adv-x="651" 
d="M193 -111l124 111h-153v1423h323v-1423l-153 -139v-68l14 -14h172v-119h-252l-75 76v153z" />
    <glyph glyph-name="aogonek.salt" 
d="M705 -111l124 111h-38l-68 135h-10l-166 -145h-262l-172 172v704l172 172h262l166 -145h10l68 135h208v-1028l-153 -139v-68l14 -14h172v-119h-252l-75 76v153zM459 819l-60 -59v-492l60 -59h88l166 121v368l-166 121h-88z" />
    <glyph glyph-name="a.salt" 
d="M791 1028h208v-1028h-208l-68 135h-10l-166 -145h-262l-172 172v704l172 172h262l166 -145h10zM459 819l-60 -59v-492l60 -59h88l166 121v368l-166 121h-88z" />
    <glyph glyph-name="gbreve.salt" 
d="M791 1028h208v-1259l-172 -172h-559l-145 141l205 172l100 -94h225l60 59v260l-166 -145h-262l-172 172v704l172 172h262l166 -145h10zM459 819l-60 -59v-492l60 -59h88l166 121v368l-166 121h-88zM291 1323v127h166v-61l28 -29h144l28 29v61h166v-127l-94 -94h-344z" />
    <glyph glyph-name="uni0123.salt" 
d="M567 1386h92v-208h-223v208l47 187h84v-187zM791 1028h208v-1259l-172 -172h-559l-145 141l205 172l100 -94h225l60 59v260l-166 -145h-262l-172 172v704l172 172h262l166 -145h10zM459 819l-60 -59v-492l60 -59h88l166 121v368l-166 121h-88z" />
    <glyph glyph-name="glyph492" horiz-adv-x="3149" 
d="M205 942h364v-63h-147v-408h-72v408h-145v63zM1063 811q65 0 112 -51q46 -50 46 -121q0 -75 -46 -124q-47 -50 -112 -50q-59 0 -96 43v-162h-70v459h49l19 -39q39 45 98 45zM1057 528q39 0 67.5 33t28.5 78q0 43 -28.5 74.5t-67.5 31.5t-67.5 -31.5t-28.5 -74.5
q0 -46 27.5 -78.5t68.5 -32.5zM592 805l90 -238l90 238h76l-158 -389q-33 -70 -100 -70q-11 0 -21 2v58q48 0 64 40l12 33l-129 326h76zM1323 761q47 50 113 50q65 0 110 -50q45 -49 45 -120l-2 -31h-243q4 -36 29.5 -60t60.5 -24q55 0 75 35h72q-18 -45 -58 -70.5
t-89 -25.5q-66 0 -113 50t-47 124q0 72 47 122zM1346 666h180q-2 34 -29.5 58t-60.5 24q-34 0 -60 -23t-30 -59zM1559 942h364v-63h-147v-408h-72v408h-145v63zM2417 811q65 0 112 -51q45 -51 45 -121q0 -75 -46 -124q-47 -50 -111 -50q-60 0 -97 43v-162h-69v459h49l18 -39
q40 45 99 45zM2410 528q40 0 68 33q29 34 29 78q0 43 -29 75q-28 31 -67 31q-40 0 -68 -31q-29 -32 -29 -75q0 -46 27.5 -78.5t68.5 -32.5zM1946 805l90 -238l90 238h76l-158 -389q-33 -70 -100 -70q-11 0 -21 2v58q48 0 64 40l12 33l-129 326h76zM2677 761q47 50 113 50
q65 0 110 -50q45 -49 45 -120l-2 -31h-244q4 -35 30 -59.5t60 -24.5q55 0 76 35h72q-18 -45 -57.5 -70.5t-90.5 -25.5q-65 0 -112 50t-47 124q0 72 47 122zM2699 666h180q-2 34 -29 58t-60 24q-34 0 -60.5 -23t-30.5 -59z" />
    <glyph glyph-name="J.salt" horiz-adv-x="899" 
d="M520 0h-459v281h273l88 88v1054h323v-1198z" />
    <glyph glyph-name="zero.tnum" horiz-adv-x="1228" 
d="M283 -10l-226 225v993l226 226h661l225 -226v-993l-225 -225h-661zM381 557l465 530l-84 84h-297l-84 -84v-530zM846 866l-465 -530l84 -84h297l84 84v530z" />
    <glyph glyph-name="one.tnum" horiz-adv-x="1228" 
d="M1122 0h-975v262h326v899h-287v262h611v-1161h325v-262z" />
    <glyph glyph-name="two.tnum" horiz-adv-x="1228" 
d="M1106 0h-1022v262l666 651v174l-84 84h-213l-142 -141l-229 209l188 195h578l225 -226v-391l-563 -547v-8h596v-262z" />
    <glyph glyph-name="three.tnum" horiz-adv-x="1228" 
d="M1106 604v-391l-225 -223h-652l-188 194l229 209l142 -141h286l84 84v188l-84 84h-413v221l411 324v8h-567v262h936v-262l-408 -323v-9h224z" />
    <glyph glyph-name="four.tnum" horiz-adv-x="1228" 
d="M696 297h-633v252l592 874h365v-872h145v-254h-145v-297h-324v297zM659 979l-294 -432h342v553h-7z" />
    <glyph glyph-name="five.tnum" horiz-adv-x="1228" 
d="M1122 674v-461l-225 -223h-643l-188 194l229 209l141 -141h279l84 84v217l-84 84h-385l-183 182v604h918v-262h-594v-262h426z" />
    <glyph glyph-name="six.tnum" horiz-adv-x="1228" 
d="M94 213v997l225 224h652l188 -170l-209 -203l-141 135h-307l-84 -84v-264l82 74h432l225 -226v-483l-225 -223h-613zM502 227h248l84 84v289l-84 84h-248l-84 -84v-289z" />
    <glyph glyph-name="seven.tnum" horiz-adv-x="1228" 
d="M436 0v618l371 521v10h-358v-172h-324v446h893l153 -268l-411 -600v-555h-324z" />
    <glyph glyph-name="eight.tnum" horiz-adv-x="1228" 
d="M1165 215l-225 -225h-651l-226 225v338l185 184l-162 162v309l225 226h607l225 -226v-309l-162 -162l184 -184v-338zM842 532l-84 84h-287l-84 -84v-225l84 -84h287l84 84v225zM735 1200h-241l-84 -84v-201l77 -77h254l78 77v201z" />
    <glyph glyph-name="nine.tnum" horiz-adv-x="1228" 
d="M1151 1210v-997l-225 -223h-684l-189 170l209 202l141 -135h340l84 84v264l-82 -73h-432l-225 225v483l225 224h613zM743 1196h-247l-84 -84v-289l84 -84h247l84 84v289z" />
    <glyph glyph-name="uni0407.salt" horiz-adv-x="651" 
d="M487 1423v-1423h-323v1423h323zM262 1593h-235v224h235v-224zM629 1593h-236v224h236v-224z" />
    <glyph glyph-name="uni0406.salt" horiz-adv-x="651" 
d="M487 1423v-1423h-323v1423h323z" />
    <glyph glyph-name="at.case" horiz-adv-x="1632" 
d="M305 -106l-162 161v1217l162 162h1043l161 -162v-860l-161 -162h-187l-121 131h-8l-127 -131h-272l-133 133v561l133 133h225l80 -92h10l60 92h139v-573l67 -72h43l39 39v727l-51 51h-837l-52 -51v-1069l52 -51h577v-184h-680zM754 889l-41 -41v-369l41 -41h106l74 66
v313l-78 72h-102z" />
    <glyph glyph-name="parenleft.case" horiz-adv-x="704" 
d="M684 -250h-303l-217 217v1495l217 217h303v-194h-127l-90 -90v-1360l90 -90h127v-195z" />
    <glyph glyph-name="parenright.case" horiz-adv-x="704" 
d="M541 1462v-1495l-217 -217h-304v195h127l91 90v1360l-91 90h-127v194h304z" />
    <glyph glyph-name="bracketleft.case" horiz-adv-x="704" 
d="M684 -250h-520v1929h520v-194h-217v-1540h217v-195z" />
    <glyph glyph-name="bracketright.case" horiz-adv-x="704" 
d="M20 1679h521v-1929h-521v195h218v1540h-218v194z" />
    <glyph glyph-name="braceleft.case" horiz-adv-x="753" 
d="M733 -250h-303l-217 217v537l-152 131v149l152 131v547l217 217h303v-194h-127l-90 -90v-508l-209 -178l209 -177v-497l90 -90h127v-195z" />
    <glyph glyph-name="braceright.case" horiz-adv-x="753" 
d="M541 504v-537l-217 -217h-304v195h127l91 90v497l208 177l-208 178v508l-91 90h-127v194h304l217 -217v-547l151 -131v-149z" />
    <glyph glyph-name="exclamdown.case" horiz-adv-x="630" 
d="M467 0h-303v940l63 64h176l64 -64v-940zM164 1423h303v-270h-303v270z" />
    <glyph glyph-name="questiondown.case" horiz-adv-x="1013" 
d="M1014 178l-180 -188h-558l-204 205v426l204 204h144v179h303v-263l-139 -139h-135l-74 -74v-211l74 -73h210l134 135zM420 1423h303v-270h-303v270z" />
    <glyph glyph-name="guillemotleft.case" horiz-adv-x="925" 
d="M485 324h-245l-179 348l179 348h245l-190 -348zM618 324l-178 348l178 348h246l-190 -348l190 -348h-246z" />
    <glyph glyph-name="guillemotright.case" horiz-adv-x="925" 
d="M686 1020l178 -348l-178 -348h-246l191 348l-191 348h246zM61 1020h246l178 -348l-178 -348h-246l191 348z" />
    <glyph glyph-name="guilsinglleft.case" horiz-adv-x="561" 
d="M254 324l-193 348l193 348h246l-207 -348l207 -348h-246z" />
    <glyph glyph-name="guilsinglright.case" horiz-adv-x="561" 
d="M61 1020h246l193 -348l-193 -348h-246l207 348z" />
    <glyph glyph-name="hyphen.case" horiz-adv-x="804" 
d="M743 573h-682v261h682v-261z" />
    <glyph glyph-name="endash.case" horiz-adv-x="1064" 
d="M1004 573h-943v238h943v-238z" />
    <glyph glyph-name="emdash.case" horiz-adv-x="1622" 
d="M1561 573h-1500v238h1500v-238z" />
    <glyph glyph-name="periodcentered.case" horiz-adv-x="430" 
d="M362 571h-292v291h292v-291z" />
    <glyph glyph-name="zero.numr" horiz-adv-x="761" 
d="M195 1430h372l123 -123v-537l-123 -121h-372l-123 121v537zM319 1280l-38 -37v-280l200 280l-39 37h-123zM481 1114l-200 -280l36 -35h127l37 35v280z" />
    <glyph glyph-name="one.numr" horiz-adv-x="602" 
d="M571 655h-530v158h164v453h-127v157h336v-610h157v-158z" />
    <glyph glyph-name="two.numr" horiz-adv-x="686" 
d="M635 655h-596v158l364 328v94l-36 37h-113l-86 -84l-137 127l114 115h347l120 -121v-230l-309 -262v-4h332v-158z" />
    <glyph glyph-name="three.numr" horiz-adv-x="686" 
d="M504 649h-369l-115 115l138 127l86 -84h135l37 37v90l-37 37h-223v133l219 158v4h-305v157h538v-157l-231 -158v-4h127l121 -121v-213z" />
    <glyph glyph-name="four.numr" horiz-adv-x="667" 
d="M352 803h-352v158l336 462h225v-462h86v-158h-86v-148h-209v148zM350 1223l-184 -265h188v265h-4z" />
    <glyph glyph-name="five.numr" horiz-adv-x="696" 
d="M514 649h-369l-114 115l137 127l86 -84h135l37 37v104l-37 37h-217l-96 96v342h526v-157h-317v-133h225l125 -125v-238z" />
    <glyph glyph-name="six.numr" horiz-adv-x="706" 
d="M567 1430l88 -89l-127 -118l-59 57h-152l-36 -37v-137l53 47h207l125 -125v-254l-125 -125h-346l-123 121v537l123 123h372zM317 799h103l37 37v135l-37 37h-103l-36 -37v-135z" />
    <glyph glyph-name="seven.numr" horiz-adv-x="636" 
d="M446 936v-281h-208v318l192 293h-170v-76h-209v233h514l92 -155z" />
    <glyph glyph-name="eight.numr" horiz-adv-x="739" 
d="M678 772l-123 -123h-371l-123 123v182l101 101l-90 90v162l121 120h354l121 -120v-162l-90 -90l100 -101v-182zM469 946l-37 37h-125l-37 -37v-112l37 -37h125l37 37v112zM422 1280h-105l-36 -37v-88l36 -37h105l37 37v88z" />
    <glyph glyph-name="nine.numr" horiz-adv-x="727" 
d="M129 649l-88 88l127 119l59 -57h181l38 37v135l-53 -47h-207l-125 125v256l125 125h346l123 -121v-537l-123 -123h-403zM410 1280h-103l-37 -35v-139l37 -37h103l36 35v141z" />
    <glyph glyph-name="zero.dnom" horiz-adv-x="761" 
d="M195 774h372l123 -123v-536l-123 -121h-372l-123 121v536zM319 625l-38 -37v-281l200 281l-39 37h-123zM481 459l-200 -281l36 -35h127l37 35v281z" />
    <glyph glyph-name="one.dnom" horiz-adv-x="602" 
d="M571 0h-530v158h164v452h-127v158h336v-610h157v-158z" />
    <glyph glyph-name="two.dnom" horiz-adv-x="686" 
d="M635 0h-596v158l364 327v95l-36 36h-113l-86 -84l-137 127l114 115h347l120 -121v-229l-309 -262v-4h332v-158z" />
    <glyph glyph-name="three.dnom" horiz-adv-x="686" 
d="M504 -6h-369l-115 115l138 127l86 -84h135l37 36v91l-37 36h-223v134l219 157v4h-305v158h538v-158l-231 -157v-4h127l121 -121v-213z" />
    <glyph glyph-name="four.dnom" horiz-adv-x="667" 
d="M352 147h-352v158l336 463h225v-463h86v-158h-86v-147h-209v147zM350 567l-184 -264h188v264h-4z" />
    <glyph glyph-name="five.dnom" horiz-adv-x="696" 
d="M514 -6h-369l-114 115l137 127l86 -84h135l37 36v105l-37 37h-217l-96 96v342h526v-158h-317v-133h225l125 -125v-237z" />
    <glyph glyph-name="six.dnom" horiz-adv-x="706" 
d="M567 774l88 -88l-127 -119l-59 58h-152l-36 -37v-137l53 47h207l125 -125v-254l-125 -125h-346l-123 121v536l123 123h372zM317 143h103l37 37v135l-37 37h-103l-36 -37v-135z" />
    <glyph glyph-name="seven.dnom" horiz-adv-x="636" 
d="M446 281v-281h-208v317l192 293h-170v-75h-209v233h514l92 -156z" />
    <glyph glyph-name="eight.dnom" horiz-adv-x="739" 
d="M678 117l-123 -123h-371l-123 123v182l101 100l-90 90v162l121 121h354l121 -121v-162l-90 -90l100 -100v-182zM469 291l-37 37h-125l-37 -37v-113l37 -37h125l37 37v113zM422 625h-105l-36 -37v-88l36 -37h105l37 37v88z" />
    <glyph glyph-name="nine.dnom" horiz-adv-x="727" 
d="M129 -6l-88 88l127 119l59 -58h181l38 37v135l-53 -47h-207l-125 125v256l125 125h346l123 -121v-536l-123 -123h-403zM410 625h-103l-37 -35v-139l37 -37h103l36 35v141z" />
    <glyph glyph-name="yacute.salt" horiz-adv-x="1071" 
d="M1030 1028l-393 -1421h-246l109 393h-193l-266 1028h297l188 -782h35l201 782h268zM647 1206h-239l215 267h352z" />
    <glyph glyph-name="ydieresis.salt" horiz-adv-x="1071" 
d="M1030 1028l-393 -1421h-246l109 393h-193l-266 1028h297l188 -782h35l201 782h268zM494 1229h-236v223h236v-223zM860 1229h-235v223h235v-223z" />
    </font>
</defs>
</svg>
