<svg width="651" height="799" viewBox="0 0 651 799" fill="none" xmlns="http://www.w3.org/2000/svg">
<path d="M139.679 80.0962C134.386 68.7219 90.8192 74.3729 93.3837 103.458L159.158 685.288C165.044 704.611 192.381 705.927 207.337 704.631L139.679 80.0962Z" fill="url(#paint0_linear_611_13151)"/>
<path d="M474.317 683.645L192.818 706.652C185.816 707.224 178.865 705.049 173.44 700.586C168.015 696.124 164.542 689.726 163.758 682.748L98.8392 102.865C98.4132 98.9522 98.8482 94.9931 100.114 91.2655C101.379 87.5378 103.445 84.1316 106.165 81.2854C108.886 78.4391 112.197 76.2215 115.865 74.7879C119.533 73.3543 123.471 72.7392 127.402 72.9859L397.479 89.9375C403.661 90.3549 409.512 92.8755 414.06 97.0798C418.608 101.284 421.577 106.918 422.474 113.044L424.348 126.411L447.648 291.246L468.995 441.979L478.463 508.889L498.833 652.909C499.354 656.553 499.124 660.265 498.157 663.816C497.19 667.368 495.507 670.685 493.212 673.564C490.916 676.442 488.055 678.821 484.806 680.555C481.557 682.288 477.988 683.34 474.317 683.645Z" fill="#101420"/>
<path d="M464.329 653.718C462.711 654.328 461.017 654.697 459.298 654.814L199.677 672.622C195.048 672.945 190.477 671.41 186.915 668.338C183.353 665.266 181.075 660.893 180.554 656.128L122.878 124.272C122.461 120.434 123.209 116.556 125.018 113.177C126.643 110.129 129.065 107.615 132.006 105.921C134.948 104.226 138.291 103.421 141.654 103.595L390.325 116.105C394.502 116.318 398.477 118.024 401.571 120.931C404.665 123.837 406.686 127.764 407.289 132.041L475.934 633.46C476.538 637.699 475.715 642.025 473.603 645.712C471.49 649.4 468.216 652.226 464.329 653.718Z" fill="#232A45"/>
<path d="M469.334 650.957C467.661 651.567 465.909 651.936 464.132 652.052L195.689 669.86C190.902 670.183 186.176 668.648 182.493 665.576C178.81 662.504 176.454 658.131 175.916 653.367L173.923 636.156L116.28 121.59C115.848 117.752 116.621 113.874 118.492 110.495C120.835 109.624 123.332 109.245 125.827 109.379L382.949 121.889C387.269 122.098 391.381 123.803 394.581 126.71C397.781 129.618 399.87 133.547 400.489 137.824L468.517 618.288L471.567 639.323C472.099 643.34 471.316 647.421 469.334 650.957Z" fill="url(#paint1_linear_611_13151)"/>
<g filter="url(#filter0_i_611_13151)">
<path d="M209.999 91.6108V92.2283C210.151 93.3717 210.699 94.4259 211.547 95.2082C212.396 95.9904 213.491 96.4513 214.644 96.511L323.711 101.81C324.375 101.842 325.038 101.739 325.661 101.508C326.284 101.276 326.853 100.92 327.334 100.462C327.815 100.003 328.198 99.4523 328.459 98.8416C328.72 98.2309 328.854 97.5736 328.854 96.9094C328.851 95.6529 328.369 94.4445 327.506 93.5305C326.643 92.6164 325.464 92.0653 324.209 91.9893L215.062 86.0134C214.344 85.9895 213.629 86.1226 212.967 86.4032C212.306 86.6838 211.713 87.1052 211.231 87.6381C210.749 88.1709 210.389 88.8024 210.177 89.4886C209.964 90.1747 209.903 90.8989 209.999 91.6108Z" fill="#1BDC77"/>
</g>
<path d="M137.308 151.948L155.027 291.525C155.511 295.364 157.376 298.895 160.273 301.461C163.17 304.026 166.903 305.451 170.774 305.469L389.905 306.385C392.204 306.401 394.479 305.92 396.574 304.975C398.669 304.03 400.535 302.643 402.044 300.91C403.552 299.177 404.668 297.139 405.315 294.934C405.962 292.73 406.124 290.412 405.791 288.139L386.517 158.063C386.032 154.818 384.436 151.841 382.001 149.64C379.566 147.438 376.442 146.149 373.163 145.992L151.918 136.032C149.862 135.949 147.813 136.315 145.914 137.104C144.014 137.893 142.309 139.087 140.918 140.602C139.528 142.117 138.484 143.917 137.86 145.877C137.237 147.836 137.048 149.908 137.308 151.948Z" fill="#232A45"/>
<path d="M167.784 376.503L172.268 413.613C172.714 417.504 174.595 421.088 177.544 423.667C180.492 426.245 184.297 427.632 188.214 427.557L407.306 421.581C409.508 421.519 411.672 420.996 413.658 420.046C415.645 419.095 417.41 417.739 418.84 416.065C420.269 414.39 421.331 412.434 421.957 410.324C422.583 408.214 422.759 405.996 422.474 403.813L418.268 371.941C417.765 368.153 415.9 364.678 413.021 362.164C410.142 359.649 406.445 358.267 402.622 358.277L183.371 358.914C181.15 358.918 178.955 359.392 176.93 360.305C174.906 361.218 173.098 362.549 171.625 364.211C170.152 365.872 169.049 367.827 168.387 369.946C167.725 372.064 167.519 374.299 167.784 376.503Z" fill="#232A45"/>
<path d="M178.666 456.859L183.191 494.248C183.659 498.163 185.583 501.758 188.582 504.319C191.58 506.88 195.434 508.22 199.376 508.072L418.169 500.104C420.358 500.023 422.507 499.486 424.477 498.528C426.447 497.569 428.195 496.21 429.61 494.538C431.024 492.865 432.074 490.916 432.692 488.815C433.309 486.714 433.482 484.507 433.197 482.336L428.553 447.198C428.048 443.358 426.14 439.841 423.196 437.322C420.253 434.803 416.481 433.461 412.607 433.553L193.934 439.31C191.744 439.358 189.588 439.864 187.605 440.794C185.622 441.724 183.855 443.058 182.417 444.71C180.98 446.362 179.904 448.296 179.258 450.388C178.612 452.481 178.41 454.684 178.666 456.859Z" fill="#21305C"/>
<path d="M356.121 266.944H291.063C289.463 266.947 287.918 266.365 286.718 265.308C285.517 264.252 284.745 262.793 284.545 261.207L277.011 201.448C276.895 200.499 276.986 199.536 277.279 198.626C277.572 197.715 278.06 196.88 278.709 196.177C279.357 195.474 280.151 194.92 281.035 194.554C281.919 194.188 282.872 194.019 283.828 194.058L349.264 196.946C350.812 197.014 352.285 197.628 353.424 198.678C354.562 199.728 355.292 201.147 355.483 202.683L362.639 259.653C362.746 260.571 362.657 261.501 362.378 262.382C362.099 263.263 361.636 264.074 361.02 264.763C360.404 265.452 359.649 266.003 358.805 266.379C357.96 266.755 357.045 266.947 356.121 266.944Z" fill="#161B2E"/>
<path d="M210.918 467.233L208.69 467.294L208.51 466.104L212.057 466.008L212.583 469.496L211.268 471.058L207.449 471.162L205.682 469.683L204.699 463.173L206.007 461.611L209.827 461.507L211.371 462.782L210.588 463.726L209.351 462.715L206.843 462.783L206.093 463.678L206.912 469.106L207.925 469.954L210.433 469.887L211.183 468.991L210.918 467.233ZM219.931 469.806L219.059 470.848L215.84 470.935L214.442 469.764L213.771 465.317L214.806 464.081L217.662 464.003L219.06 465.174L219.476 467.931L215.417 468.041L215.593 469.204L216.385 469.861L218.271 469.81L218.95 468.991L219.931 469.806ZM215.669 465.116L215.081 465.811L215.258 466.987L218.087 466.91L217.91 465.734L217.124 465.077L215.669 465.116ZM221.04 464.971L220.186 464.994L220.027 463.939L220.881 463.916L220.709 462.781L221.771 462.087L221.839 462.085L222.111 463.883L223.498 463.845L223.657 464.9L222.27 464.937L222.874 468.939L223.659 469.596L224.882 469.563L225.051 470.685L223.131 470.737L221.733 469.567L221.04 464.971ZM228.461 464.77L227.607 464.793L227.448 463.739L228.302 463.715L228.131 462.58L229.192 461.886L229.261 461.884L229.532 463.682L230.919 463.645L231.078 464.699L229.691 464.737L230.295 468.738L231.08 469.396L232.303 469.363L232.473 470.485L230.552 470.537L229.154 469.366L228.461 464.77ZM239.19 470.303L237.96 470.336L237.187 465.212L236.395 464.555L235.527 464.579L234.335 465.778L235.035 470.415L233.798 470.449L232.357 460.898L233.594 460.864L234.152 464.562L235.074 463.532L236.939 463.482L238.337 464.652L239.19 470.303ZM246.39 469.09L245.518 470.132L242.299 470.219L240.901 469.048L240.23 464.601L241.265 463.365L244.121 463.287L245.519 464.458L245.935 467.215L241.876 467.325L242.052 468.488L242.844 469.145L244.73 469.094L245.409 468.275L246.39 469.09ZM242.128 464.4L241.54 465.095L241.717 466.271L244.546 466.194L244.369 465.018L243.583 464.361L242.128 464.4ZM250.369 464.177L249.515 464.2L249.356 463.146L250.21 463.123L249.984 461.629L251.019 460.393L253.076 460.337L253.245 461.459L251.892 461.496L251.304 462.19L251.44 463.089L252.971 463.048L253.13 464.102L251.599 464.144L252.474 469.943L251.244 469.977L250.369 464.177ZM254.317 463.011L255.554 462.978L256.327 468.102L257.112 468.759L257.98 468.736L259.178 467.536L258.478 462.899L259.708 462.865L260.742 469.72L259.834 469.744L259.417 468.758L259.363 468.759L258.433 469.782L256.574 469.832L255.169 468.662L254.317 463.011ZM261.263 460.115L262.499 460.082L263.941 469.633L262.704 469.666L261.263 460.115ZM264.447 460.029L265.684 459.996L267.125 469.547L265.888 469.58L264.447 460.029ZM275.138 462.448L276.536 463.618L277.207 468.066L276.172 469.302L273.022 469.387L271.624 468.217L270.953 463.769L271.988 462.533L275.138 462.448ZM272.851 463.569L272.263 464.263L272.775 467.656L273.567 468.314L275.316 468.266L275.898 467.572L275.386 464.179L274.6 463.521L272.851 463.569ZM282.165 469.14L280.6 469.182L277.407 462.387L278.726 462.351L281.199 467.829L281.226 467.828L282.054 462.261L283.291 462.227L282.165 469.14ZM290.684 467.891L289.812 468.933L286.593 469.02L285.195 467.85L284.524 463.402L285.559 462.166L288.416 462.089L289.813 463.259L290.23 466.017L286.171 466.127L286.346 467.289L287.138 467.946L289.024 467.895L289.703 467.076L290.684 467.891ZM286.422 463.201L285.834 463.896L286.011 465.072L288.84 464.996L288.663 463.819L287.878 463.162L286.422 463.201ZM292.803 462.974L292.865 462.973L293.773 461.944L295.188 461.905L295.357 463.027L294.209 463.058L293.052 464.216L293.748 468.826L292.511 468.86L291.477 462.006L292.386 461.981L292.803 462.974ZM300.219 468.651L298.654 468.694L295.461 461.898L296.78 461.862L299.253 467.34H299.28L300.108 461.772L301.344 461.739L300.219 468.651ZM302.465 461.708L303.702 461.675L304.736 468.529L303.499 468.562L302.465 461.708ZM303.475 460.168L302.238 460.201L302.058 459.011L303.295 458.978L303.475 460.168ZM311.922 467.316L311.05 468.358L307.832 468.445L306.434 467.275L305.763 462.827L306.798 461.591L309.654 461.514L311.052 462.684L311.468 465.442L307.409 465.552L307.584 466.714L308.376 467.372L310.262 467.321L310.942 466.501L311.922 467.316ZM307.66 462.627L307.072 463.321L307.25 464.497L310.079 464.421L309.901 463.245L309.116 462.587L307.66 462.627ZM320.371 468.106L318.717 468.151L316.749 463.202L316.695 463.203L316.257 468.217L314.576 468.263L311.95 461.452L313.207 461.418L315.241 466.894L315.282 466.893L315.715 461.35L317.225 461.309L319.355 466.783L319.396 466.782L319.761 461.24L320.936 461.209L320.371 468.106ZM328.931 460.992L330.329 462.162L331 466.61L329.965 467.846L326.815 467.931L325.417 466.761L324.746 462.314L325.781 461.077L328.931 460.992ZM326.644 462.113L326.056 462.807L326.568 466.201L327.36 466.858L329.109 466.811L329.69 466.116L329.178 462.723L328.393 462.065L326.644 462.113ZM332.425 461.956L331.571 461.98L331.412 460.925L332.266 460.902L332.04 459.408L333.075 458.172L335.132 458.116L335.301 459.238L333.948 459.275L333.36 459.97L333.496 460.869L335.026 460.827L335.186 461.882L333.655 461.923L334.53 467.723L333.3 467.756L332.425 461.956ZM345.759 468.932L344.718 470.169L341.56 470.254L340.368 469.261L341.097 468.407L342.031 469.189L343.862 469.14L344.443 468.439L344.243 467.114L343.851 467.47L341.432 467.536L340.027 466.366L339.174 460.715L340.411 460.681L341.184 465.805L341.97 466.463L344.136 466.404L343.261 460.604L344.498 460.571L345.759 468.932ZM350.743 460.402L352.141 461.572L352.812 466.02L351.778 467.256L348.627 467.341L347.229 466.171L346.558 461.723L347.593 460.487L350.743 460.402ZM348.456 461.523L347.868 462.217L348.38 465.61L349.172 466.268L350.921 466.22L351.503 465.526L350.991 462.133L350.205 461.475L348.456 461.523ZM353.853 460.318L355.089 460.284L355.862 465.408L356.648 466.065L357.516 466.042L358.714 464.842L358.014 460.205L359.244 460.172L360.278 467.026L359.369 467.05L358.953 466.064L358.898 466.066L357.969 467.088L356.11 467.139L354.705 465.969L353.853 460.318ZM362.532 461.087L362.593 461.086L363.501 460.057L364.916 460.018L365.085 461.14L363.937 461.171L362.781 462.329L363.476 466.939L362.24 466.973L361.205 460.119L362.114 460.094L362.532 461.087ZM207.288 480.236L206.433 480.259L206.274 479.204L207.128 479.181L206.957 478.046L208.019 477.352L208.087 477.35L208.358 479.148L209.746 479.11L209.905 480.165L208.518 480.202L209.121 484.204L209.907 484.861L211.13 484.828L211.299 485.95L209.379 486.002L207.981 484.832L207.288 480.236ZM215.554 478.953L216.952 480.123L217.805 485.774L216.896 485.799L216.479 484.812L216.425 484.814L215.495 485.837L213.568 485.889L212.163 484.719L211.906 483.015L212.948 481.779L215.954 481.698L215.801 480.684L215.016 480.026L213.349 480.072L212.648 480.837L211.676 479.988L212.534 479.035L215.554 478.953ZM213.803 482.808L213.222 483.509L213.32 484.158L214.106 484.816L215.042 484.79L216.24 483.59L216.113 482.745L213.803 482.808ZM224.757 484.378L223.722 485.614L220.333 485.706L219.196 484.766L219.884 483.913L220.802 484.634L222.866 484.578L223.448 483.884L223.362 483.316L222.577 482.659L220.192 482.723L218.794 481.553L218.571 480.08L219.606 478.843L222.633 478.761L223.769 479.695L223.055 480.555L222.164 479.833L220.469 479.879L219.881 480.573L219.944 480.993L220.736 481.65L223.114 481.585L224.512 482.756L224.757 484.378ZM229.2 478.584L230.465 478.55L229.377 481.803L231.888 485.393L230.487 485.431L228.377 482.359L227.25 482.39L227.72 485.506L226.483 485.539L225.042 475.988L226.279 475.955L227.092 481.342L228.308 481.309L229.2 478.584ZM238 484.02L236.965 485.256L233.576 485.347L232.439 484.408L233.127 483.554L234.046 484.276L236.109 484.22L236.691 483.526L236.605 482.958L235.82 482.3L233.435 482.365L232.037 481.195L231.815 479.721L232.849 478.485L235.877 478.403L237.012 479.336L236.298 480.197L235.407 479.475L233.712 479.52L233.124 480.215L233.187 480.634L233.98 481.291L236.358 481.227L237.756 482.397L238 484.02ZM245.457 478.144L246.855 479.314L247.708 484.965L246.799 484.99L246.382 484.003L246.328 484.005L245.398 485.027L243.471 485.08L242.066 483.91L241.809 482.206L242.851 480.97L245.858 480.889L245.705 479.875L244.919 479.217L243.252 479.262L242.551 480.028L241.579 479.179L242.437 478.226L245.457 478.144ZM243.706 481.999L243.126 482.7L243.224 483.349L244.009 484.006L244.945 483.981L246.143 482.781L246.016 481.936L243.706 481.999ZM255.054 484.766L253.824 484.799L253.051 479.676L252.258 479.019L251.391 479.042L250.199 480.242L250.899 484.879L249.662 484.912L248.628 478.058L249.537 478.033L249.954 479.027L250.016 479.025L250.938 477.996L252.803 477.945L254.201 479.115L255.054 484.766ZM259.063 477.776L260.293 478.747L259.735 475.049L260.965 475.016L262.406 484.567L261.498 484.592L261.081 483.605L261.026 483.607L260.097 484.63L258.163 484.682L256.765 483.512L256.094 479.064L257.129 477.828L259.063 477.776ZM258.005 478.863L257.417 479.558L257.929 482.951L258.721 483.608L259.644 483.583L260.842 482.383L260.477 479.964L258.928 478.838L258.005 478.863ZM270.433 477.468L271.831 478.638L272.502 483.086L271.468 484.322L268.317 484.407L266.919 483.237L266.248 478.789L267.283 477.553L270.433 477.468ZM268.146 478.589L267.558 479.283L268.07 482.676L268.862 483.334L270.611 483.286L271.193 482.592L270.681 479.199L269.895 478.541L268.146 478.589ZM273.136 474.687L274.372 474.653L274.93 478.351L275.852 477.321L277.786 477.269L279.184 478.439L279.855 482.887L278.82 484.123L276.886 484.175L275.664 483.211L275.602 483.212L275.486 484.213L274.577 484.238L273.136 474.687ZM277.944 483.088L278.532 482.393L278.02 479L277.228 478.343L276.305 478.368L275.114 479.567L275.479 481.987L277.021 483.113L277.944 483.088ZM280.488 474.488L281.725 474.454L283.166 484.005L281.93 484.039L280.488 474.488ZM284.08 477.099L285.317 477.065L286.351 483.919L285.114 483.953L284.08 477.099ZM285.089 475.558L283.852 475.591L283.673 474.402L284.91 474.368L285.089 475.558ZM292.478 482.6L293.719 483.638L293.978 485.355L293.058 486.446L289.293 486.548L288.06 485.515L287.801 483.799L288.713 482.702L289.99 482.667L289.823 481.558L289.037 481.58L287.639 480.409L287.309 478.219L288.344 476.983L291.132 476.908L291.87 477.526L292.417 476.873L292.991 476.857L293.214 478.338L292.572 478.355L292.86 480.268L291.825 481.504L291.053 481.525L291.22 482.634L292.478 482.6ZM289.2 478.019L288.619 478.713L288.79 479.849L289.576 480.513L290.963 480.476L291.551 479.774L291.379 478.639L290.587 477.981L289.2 478.019ZM289.576 483.737L289.11 484.292L289.21 484.955L289.839 485.481L292.203 485.417L292.668 484.861L292.568 484.199L291.94 483.673L289.576 483.737ZM298.198 476.717L299.595 477.887L300.448 483.538L299.539 483.562L299.123 482.576L299.068 482.577L298.138 483.6L296.211 483.652L294.807 482.482L294.55 480.779L295.591 479.543L298.598 479.461L298.445 478.447L297.66 477.79L295.992 477.835L295.291 478.601L294.319 477.751L295.177 476.798L298.198 476.717ZM296.446 480.571L295.866 481.273L295.964 481.922L296.749 482.579L297.685 482.554L298.884 481.354L298.756 480.509L296.446 480.571ZM301.685 477.681L300.83 477.704L300.671 476.65L301.525 476.627L301.354 475.491L302.416 474.797L302.484 474.795L302.756 476.593L304.143 476.556L304.302 477.61L302.915 477.648L303.518 481.649L304.304 482.307L305.527 482.274L305.696 483.396L303.776 483.448L302.378 482.277L301.685 477.681ZM305.988 476.506L307.225 476.472L308.259 483.326L307.022 483.36L305.988 476.506ZM306.997 474.965L305.76 474.998L305.581 473.809L306.818 473.775L306.997 474.965ZM313.47 476.303L314.868 477.474L315.539 481.921L314.504 483.157L311.354 483.243L309.956 482.072L309.285 477.625L310.32 476.389L313.47 476.303ZM311.183 477.424L310.595 478.119L311.107 481.512L311.899 482.169L313.648 482.122L314.23 481.427L313.718 478.034L312.932 477.377L311.183 477.424ZM323.005 482.927L321.775 482.961L321.002 477.837L320.21 477.18L319.342 477.203L318.151 478.403L318.851 483.04L317.614 483.073L316.58 476.219L317.488 476.195L317.906 477.188L317.967 477.186L318.889 476.157L320.755 476.106L322.153 477.276L323.005 482.927ZM329.965 481.531L328.93 482.767L325.54 482.859L324.404 481.919L325.092 481.065L326.01 481.787L328.074 481.731L328.655 481.037L328.569 480.469L327.784 479.812L325.399 479.876L324.001 478.706L323.779 477.232L324.814 475.996L327.841 475.914L328.977 476.847L328.263 477.708L327.371 476.986L325.677 477.032L325.089 477.726L325.152 478.145L325.944 478.803L328.322 478.738L329.72 479.909L329.965 481.531ZM332.449 482.672L331.13 482.707L330.938 481.437L332.257 481.401L332.449 482.672Z" fill="white"/>
<g style="mix-blend-mode:multiply" opacity="0.88">
<g style="mix-blend-mode:multiply" opacity="0.88">
<path d="M478.502 508.889L294.909 513.59C290.991 513.67 287.184 512.284 284.234 509.705C281.285 507.126 279.405 503.538 278.964 499.646L274.838 462.217C274.599 460.042 274.817 457.842 275.478 455.756C276.139 453.67 277.229 451.745 278.678 450.104C280.126 448.464 281.901 447.143 283.89 446.228C285.878 445.312 288.036 444.822 290.225 444.788L469.114 442.039L478.502 508.889Z" fill="#232A45"/>
</g>
</g>
<path d="M325.047 220.193C325.247 224.177 322.735 227.484 319.426 227.643C317.976 227.976 316.458 227.855 315.078 227.297C313.699 226.738 312.524 225.769 311.715 224.521C310.905 223.273 310.499 221.806 310.551 220.32C310.604 218.833 311.113 217.399 312.009 216.211C312.905 215.024 314.145 214.14 315.561 213.68C316.976 213.221 318.499 213.208 319.923 213.642C321.346 214.077 322.601 214.939 323.518 216.111C324.435 217.283 324.969 218.708 325.047 220.193Z" fill="white"/>
<path d="M319.506 229.376C313.646 229.695 309.181 235.611 309.54 242.583L330.807 242.404C330.429 235.412 325.386 229.078 319.506 229.376Z" fill="white"/>
<path d="M297.221 439.967L301.327 477.416C301.769 481.308 303.648 484.895 306.598 487.475C309.547 490.054 313.354 491.44 317.273 491.36L536.146 485.763C538.335 485.709 540.49 485.199 542.471 484.264C544.451 483.329 546.214 481.99 547.647 480.333C549.079 478.677 550.148 476.739 550.787 474.645C551.425 472.551 551.618 470.347 551.354 468.173L547.307 432.955C546.839 429.083 544.948 425.523 542.002 422.965C539.056 420.407 535.264 419.034 531.362 419.111L312.649 422.458C310.449 422.485 308.279 422.974 306.28 423.891C304.281 424.809 302.496 426.136 301.042 427.787C299.588 429.437 298.497 431.374 297.839 433.472C297.181 435.57 296.97 437.783 297.221 439.967Z" fill="white"/>
<path d="M536.245 485.802L317.373 491.4C313.454 491.479 309.647 490.093 306.698 487.514C303.748 484.935 301.869 481.348 301.427 477.456L297.321 440.007C297.095 437.939 297.284 435.847 297.876 433.853C298.468 431.859 299.452 430.003 300.769 428.393C298.417 429.998 296.546 432.212 295.355 434.798C294.165 437.384 293.701 440.245 294.013 443.074L298.119 480.503C298.555 484.397 300.434 487.987 303.384 490.567C306.335 493.147 310.144 494.531 314.064 494.447L532.937 488.85C535.209 488.797 537.442 488.25 539.48 487.245C541.518 486.24 543.312 484.803 544.736 483.033C542.237 484.764 539.285 485.727 536.245 485.802Z" fill="white"/>
<path d="M308.62 279.756L306.2 279.78L305.462 277.778L302.803 277.804L302.447 279.817L300.335 279.837L302.191 270.126L304.748 270.101L308.62 279.756ZM303.573 272.285L303.47 273.431L302.988 276.072L304.964 276.052L303.989 273.426L303.683 272.284L303.573 272.285ZM313.389 274.785L312.568 274.139L311.228 274.152L310.856 274.558L311.174 277.906L311.622 278.304L313.078 278.289L313.707 277.561L315.281 278.643L314.306 279.769L310.574 279.805L309.287 278.646L308.833 273.855L309.898 272.673L313.534 272.638L314.627 273.629L313.389 274.785ZM320.293 274.718L319.472 274.072L318.132 274.085L317.76 274.49L318.078 277.839L318.526 278.236L319.982 278.222L320.611 277.494L322.185 278.575L321.21 279.702L317.478 279.738L316.191 278.579L315.737 273.788L316.802 272.606L320.438 272.571L321.531 273.561L320.293 274.718ZM324.382 279.671L323.095 278.512L322.641 273.721L323.706 272.539L327.595 272.501L328.882 273.66L329.338 278.465L328.272 279.633L324.382 279.671ZM325.036 274.018L324.664 274.423L324.982 277.771L325.43 278.169L326.941 278.154L327.306 277.749L326.988 274.401L326.547 274.003L325.036 274.018ZM330.384 272.542L332.345 272.523L332.836 277.695L333.277 278.093L333.879 278.087L334.936 277.252L334.485 272.502L336.447 272.483L337.11 279.479L335.682 279.493L335.13 278.579H335.061L334.02 279.577L332.229 279.594L330.943 278.435L330.384 272.542ZM344.848 279.403L342.886 279.423L342.396 274.25L341.954 273.853L341.346 273.859L340.296 274.693L340.747 279.443L338.785 279.463L338.122 272.467L339.55 272.453L340.095 273.367L340.17 273.366L341.205 272.368L343.003 272.351L344.289 273.51L344.848 279.403ZM347.903 272.371L349.264 272.358L349.396 273.753L348.036 273.766L348.362 277.21L348.804 277.607L350.007 277.596L350.173 279.352L347.781 279.375L346.494 278.216L346.074 273.785L345.219 273.794L345.087 272.399L345.941 272.39L345.867 271.608L346.973 270.568L347.732 270.561L347.903 272.371Z" fill="white"/>
<path d="M191.084 537.574L195.608 574.923C196.087 578.868 198.044 582.485 201.083 585.046C204.123 587.607 208.021 588.923 211.992 588.728L430.426 578.011C432.598 577.906 434.724 577.351 436.671 576.383C438.617 575.415 440.342 574.054 441.735 572.386C443.129 570.718 444.161 568.78 444.767 566.693C445.373 564.606 445.539 562.417 445.256 560.262L440.771 526.259C440.259 522.388 438.325 518.846 435.345 516.32C432.365 513.795 428.551 512.467 424.646 512.595L206.172 519.985C203.995 520.06 201.856 520.587 199.893 521.531C197.929 522.475 196.183 523.816 194.765 525.469C193.347 527.123 192.287 529.052 191.654 531.136C191.02 533.219 190.826 535.411 191.084 537.574Z" fill="#232A45"/>
<path d="M139.141 166.409L389.148 175.792L386.198 155.872C385.799 153.242 384.501 150.832 382.524 149.053C380.547 147.273 378.013 146.233 375.355 146.111L148.808 135.892C147.132 135.809 145.458 136.094 143.904 136.727C142.35 137.36 140.954 138.326 139.814 139.557C138.674 140.787 137.817 142.253 137.305 143.85C136.793 145.447 136.637 147.137 136.849 148.8L139.141 166.409Z" fill="#0B1425"/>
<path d="M375.554 153.621L367.123 148.501L360.525 154.896L362.18 165.294L370.451 169.278L376.929 162.186L375.554 153.621ZM369.574 163.162C367.82 163.441 366.066 161.768 365.588 159.417C365.331 158.448 365.448 157.418 365.917 156.532C366.387 155.646 367.173 154.969 368.119 154.637C369.873 154.358 371.627 156.031 372.006 158.382C372.274 159.328 372.182 160.34 371.747 161.223C371.313 162.105 370.567 162.796 369.654 163.162H369.574Z" fill="#1BDC77"/>
<path d="M336.966 331.065V331.762C337.378 335.096 339.008 338.16 341.543 340.366C344.078 342.572 347.338 343.764 350.699 343.714L398.197 343.017C409.857 342.838 416.494 335.368 415.358 327.26C414.422 320.528 404.794 315.787 397.998 315.787L352.154 313.795C344.002 313.815 336.029 322.938 336.966 331.065Z" fill="#494E5D"/>
<path d="M340.713 329.133V329.83C341.125 333.161 342.752 336.222 345.283 338.427C347.813 340.633 351.069 341.827 354.426 341.782L401.944 341.085C403.875 341.055 405.777 340.616 407.526 339.796C409.274 338.977 410.828 337.795 412.085 336.33C413.342 334.865 414.273 333.149 414.817 331.297C415.36 329.445 415.504 327.499 415.238 325.588C414.786 322.331 413.172 319.348 410.692 317.188C408.212 315.028 405.034 313.837 401.745 313.835H354.227C352.295 313.834 350.386 314.244 348.625 315.037C346.865 315.83 345.293 316.989 344.015 318.436C342.737 319.883 341.781 321.585 341.212 323.429C340.643 325.274 340.473 327.218 340.713 329.133Z" fill="#808594"/>
<path d="M375.514 336.383C375.092 336.384 374.682 336.236 374.358 335.965C374.006 335.657 373.789 335.223 373.756 334.757C373.722 334.29 373.874 333.83 374.179 333.475L379.202 327.658L372.684 321.682C372.51 321.529 372.368 321.342 372.267 321.133C372.165 320.925 372.107 320.698 372.094 320.466C372.081 320.235 372.114 320.003 372.191 319.784C372.269 319.566 372.389 319.364 372.544 319.192C372.86 318.849 373.299 318.643 373.765 318.621C374.232 318.599 374.688 318.761 375.036 319.073L384.145 327.28L376.85 335.706C376.692 335.911 376.49 336.079 376.259 336.196C376.028 336.313 375.773 336.377 375.514 336.383Z" fill="white"/>
<path d="M383.307 336.344C382.969 336.347 382.637 336.252 382.351 336.071C382.065 335.89 381.838 335.63 381.697 335.322C381.556 335.015 381.507 334.673 381.555 334.338C381.604 334.004 381.749 333.69 381.972 333.436L386.995 327.619L380.457 321.643C380.286 321.488 380.147 321.3 380.048 321.09C379.949 320.881 379.892 320.654 379.881 320.423C379.87 320.192 379.905 319.961 379.983 319.743C380.061 319.525 380.182 319.325 380.338 319.153C380.493 318.982 380.681 318.843 380.891 318.744C381.1 318.646 381.327 318.589 381.559 318.578C381.79 318.567 382.021 318.601 382.239 318.68C382.457 318.758 382.658 318.878 382.829 319.034L391.938 327.241L384.643 335.667C384.481 335.868 384.279 336.033 384.048 336.15C383.818 336.266 383.565 336.333 383.307 336.344Z" fill="white"/>
<g style="mix-blend-mode:multiply" opacity="0.88">
<g style="mix-blend-mode:multiply" opacity="0.88">
<path d="M447.648 291.246L328.614 290.748C324.747 290.725 321.019 289.299 318.126 286.733C315.233 284.168 313.371 280.639 312.888 276.804L295.168 137.187C294.901 135.14 295.086 133.059 295.71 131.091C296.334 129.124 297.383 127.316 298.781 125.797C300.18 124.278 301.895 123.083 303.805 122.298C305.715 121.513 307.775 121.155 309.838 121.251L424.307 126.371L447.648 291.246Z" fill="#232A45"/>
</g>
</g>
<g style="mix-blend-mode:color-dodge">
<path style="mix-blend-mode:color-dodge" d="M382.172 111.252L399.812 250.889C400.296 254.731 402.163 258.265 405.065 260.831C407.966 263.397 411.703 264.82 415.578 264.833L634.689 265.729C636.987 265.74 639.259 265.254 641.351 264.305C643.443 263.356 645.305 261.967 646.809 260.232C648.314 258.498 649.426 256.459 650.069 254.255C650.712 252.051 650.871 249.734 650.535 247.463L631.321 117.307C630.838 114.059 629.24 111.08 626.799 108.881C624.359 106.682 621.229 105.401 617.947 105.256L396.702 95.296C394.649 95.224 392.605 95.5995 390.712 96.3964C388.819 97.1933 387.122 98.3926 385.74 99.9109C384.357 101.429 383.322 103.23 382.705 105.188C382.089 107.147 381.907 109.216 382.172 111.252Z" fill="url(#paint2_radial_611_13151)" fill-opacity="0.5"/>
</g>
<path d="M634.65 265.63L415.538 264.733C411.663 264.72 407.926 263.298 405.025 260.731C402.123 258.165 400.256 254.631 399.772 250.79L382.052 111.152C381.823 109.352 381.952 107.524 382.431 105.774C380.74 108.512 380.037 111.745 380.438 114.937L398.157 254.554C398.641 258.396 400.509 261.93 403.41 264.496C406.312 267.062 410.049 268.485 413.923 268.498L633.055 269.395C636.545 269.405 639.943 268.271 642.726 266.166C645.509 264.061 647.524 261.101 648.462 257.742C647.052 260.15 645.035 262.146 642.611 263.53C640.187 264.914 637.441 265.638 634.65 265.63Z" fill="#1BDC77"/>
<path d="M220.513 547.011L216.558 547.167L217.09 551.165L215.771 551.216L214.497 541.642L220.221 541.417L220.38 542.609L215.974 542.783L216.399 545.974L220.354 545.819L220.513 547.011ZM225.991 543.908L227.367 545.066L227.961 549.525L226.905 550.779L223.757 550.903L222.38 549.744L221.787 545.286L222.842 544.032L225.991 543.908ZM223.686 545.061L223.087 545.766L223.539 549.168L224.319 549.818L226.068 549.749L226.661 549.045L226.208 545.643L225.435 544.992L223.686 545.061ZM228.739 541.082L229.976 541.034L231.25 550.608L230.013 550.657L228.739 541.082ZM231.922 540.957L233.159 540.909L234.433 550.483L233.196 550.532L231.922 540.957ZM239.762 543.367L241.138 544.525L241.731 548.984L240.676 550.238L237.527 550.362L236.151 549.203L235.557 544.745L236.613 543.491L239.762 543.367ZM237.457 544.52L236.857 545.225L237.31 548.626L238.09 549.277L239.839 549.208L240.432 548.504L239.979 545.102L239.206 544.451L237.457 544.52ZM250.403 549.856L248.75 549.921L246.869 544.974L246.815 544.977L246.291 550.017L244.611 550.083L242.105 543.275L243.361 543.225L245.299 548.701L245.34 548.699L245.868 543.127L247.378 543.068L249.411 548.539L249.452 548.538L249.912 542.968L251.087 542.922L250.403 549.856ZM261.219 550.95L260.157 552.204L257.001 552.328L255.827 551.346L256.569 550.479L257.49 551.253L259.32 551.181L259.912 550.47L259.735 549.142L259.337 549.505L256.919 549.6L255.536 548.442L254.782 542.777L256.019 542.728L256.702 547.865L257.475 548.515L259.641 548.43L258.867 542.616L260.103 542.568L261.219 550.95ZM266.347 542.322L267.723 543.481L268.316 547.94L267.261 549.193L264.112 549.317L262.736 548.159L262.142 543.7L263.198 542.446L266.347 542.322ZM264.042 543.476L263.442 544.18L263.895 547.582L264.675 548.232L266.424 548.164L267.017 547.459L266.564 544.058L265.791 543.407L264.042 543.476ZM269.455 542.2L270.691 542.152L271.374 547.288L272.148 547.939L273.015 547.905L274.233 546.685L273.615 542.037L274.844 541.989L275.758 548.86L274.85 548.895L274.451 547.91L274.396 547.912L273.45 548.95L271.592 549.023L270.208 547.865L269.455 542.2ZM278.113 542.868L278.174 542.866L279.1 541.821L280.513 541.766L280.663 542.891L279.516 542.936L278.34 544.113L278.955 548.734L277.719 548.783L276.804 541.911L277.713 541.876L278.113 542.868ZM286.948 541.513L288.161 542.473L287.667 538.767L288.897 538.719L290.171 548.293L289.263 548.329L288.864 547.343L288.809 547.346L287.862 548.384L285.929 548.46L284.553 547.302L283.96 542.843L285.015 541.589L286.948 541.513ZM285.873 542.618L285.273 543.323L285.726 546.724L286.506 547.375L287.428 547.338L288.646 546.119L288.323 543.693L286.795 542.582L285.873 542.618ZM295.514 541.176L296.89 542.335L297.483 546.794L296.428 548.047L293.279 548.171L291.903 547.013L291.309 542.554L292.365 541.3L295.514 541.176ZM293.209 542.33L292.609 543.034L293.062 546.436L293.842 547.086L295.591 547.018L296.183 546.313L295.731 542.912L294.958 542.261L293.209 542.33ZM304.722 546.7L303.832 547.757L300.683 547.88L299.307 546.722L298.714 542.263L299.769 541.009L302.781 540.891L303.9 541.814L303.172 542.687L302.287 541.973L300.613 542.039L300.014 542.743L300.466 546.145L301.246 546.796L303.063 546.724L303.756 545.893L304.722 546.7ZM305.261 540.793L306.497 540.745L307.181 545.881L307.954 546.532L308.822 546.498L310.039 545.278L309.421 540.63L310.65 540.582L311.565 547.453L310.656 547.488L310.257 546.503L310.203 546.505L309.256 547.543L307.398 547.616L306.015 546.458L305.261 540.793ZM318.407 541.34L317.808 542.044L318.491 547.181L317.262 547.229L316.578 542.093L315.805 541.442L314.671 541.486L314.078 542.191L314.761 547.327L313.525 547.376L312.611 540.505L313.519 540.469L313.861 541.028L313.923 541.025L314.421 540.434L316.122 540.367L317.135 541.219L317.918 540.296L320.097 540.211L321.474 541.369L322.227 547.034L320.998 547.082L320.314 541.946L319.541 541.295L318.407 541.34ZM329.435 545.729L328.546 546.786L325.329 546.912L323.952 545.754L323.359 541.295L324.414 540.041L327.269 539.929L328.646 541.087L329.014 543.852L324.956 544.011L325.111 545.177L325.891 545.827L327.777 545.753L328.469 544.922L329.435 545.729ZM325.258 541.07L324.659 541.775L324.816 542.954L327.643 542.843L327.487 541.664L326.713 541.013L325.258 541.07ZM336.633 546.468L335.404 546.516L334.72 541.38L333.94 540.729L333.073 540.763L331.862 541.983L332.48 546.631L331.244 546.68L330.33 539.808L331.238 539.773L331.638 540.765L331.699 540.763L332.638 539.718L334.503 539.645L335.879 540.803L336.633 546.468ZM337.977 540.571L337.123 540.604L336.983 539.547L337.836 539.514L337.685 538.375L338.758 537.665L338.826 537.663L339.066 539.465L340.453 539.411L340.593 540.468L339.207 540.522L339.74 544.534L340.514 545.185L341.736 545.137L341.886 546.261L339.967 546.337L338.59 545.178L337.977 540.571ZM348.228 544.8L347.173 546.054L343.785 546.187L342.666 545.257L343.368 544.391L344.273 545.105L346.336 545.024L346.928 544.32L346.853 543.75L346.08 543.1L343.696 543.193L342.319 542.035L342.123 540.558L343.178 539.304L346.204 539.185L347.322 540.108L346.594 540.981L345.716 540.267L344.022 540.333L343.423 541.038L343.478 541.458L344.258 542.108L346.636 542.015L348.012 543.173L348.228 544.8ZM216.99 560.271L216.136 560.304L215.996 559.247L216.849 559.214L216.65 557.716L217.705 556.462L219.762 556.382L219.911 557.506L218.559 557.56L217.959 558.264L218.079 559.165L219.609 559.105L219.75 560.162L218.22 560.223L218.993 566.037L217.764 566.085L216.99 560.271ZM222.263 560.009L222.324 560.007L223.25 558.962L224.664 558.907L224.813 560.032L223.666 560.077L222.49 561.254L223.105 565.875L221.869 565.924L220.955 559.053L221.863 559.017L222.263 560.009ZM230.074 558.694L231.45 559.853L232.043 564.311L230.988 565.565L227.839 565.689L226.463 564.531L225.869 560.072L226.925 558.818L230.074 558.694ZM227.769 559.847L227.169 560.552L227.622 563.954L228.402 564.604L230.151 564.536L230.743 563.831L230.291 560.429L229.518 559.779L227.769 559.847ZM238.978 559.407L238.378 560.112L239.062 565.248L237.832 565.296L237.149 560.16L236.376 559.509L235.242 559.554L234.649 560.258L235.332 565.395L234.096 565.443L233.182 558.572L234.09 558.536L234.432 559.095L234.494 559.093L234.992 558.501L236.693 558.434L237.705 559.287L238.489 558.364L240.668 558.278L242.044 559.436L242.798 565.101L241.569 565.15L240.885 560.013L240.112 559.362L238.978 559.407ZM253.932 564.664L252.546 564.718L251.496 562.403L248.265 562.53L247.86 564.902L246.576 564.953L248.239 555.263L249.625 555.208L253.932 564.664ZM249.075 556.905L249.036 557.949L248.468 561.323L250.961 561.225L249.466 557.932L249.143 556.903L249.075 556.905ZM257.1 558.695L256.246 558.729L256.105 557.671L256.959 557.638L256.808 556.499L257.88 555.79L257.949 555.787L258.189 557.59L259.575 557.535L259.716 558.592L258.329 558.647L258.863 562.658L259.636 563.309L260.859 563.261L261.009 564.386L259.089 564.461L257.713 563.303L257.1 558.695ZM265.716 557.294L267.092 558.452L267.686 562.911L266.63 564.165L263.481 564.289L262.105 563.13L261.512 558.671L262.567 557.418L265.716 557.294ZM263.411 558.447L262.812 559.152L263.264 562.553L264.044 563.204L265.793 563.135L266.386 562.431L265.933 559.029L265.16 558.378L263.411 558.447ZM272.375 563.939L271.84 562.911L275.642 555.412L275.638 555.385L271.061 555.565L270.903 554.372L276.695 554.145L277.341 555.182L273.538 562.667L273.541 562.695L278.33 562.506L278.488 563.699L272.375 563.939ZM280.647 563.614L279.329 563.666L279.159 562.392L280.477 562.34L280.647 563.614Z" fill="white"/>
<g style="mix-blend-mode:color-dodge">
<path style="mix-blend-mode:color-dodge" d="M314.801 541.757L319.804 579.087C320.334 582.99 322.308 586.552 325.338 589.071C328.367 591.59 332.232 592.882 336.169 592.692L554.842 581.816C557.026 581.705 559.164 581.14 561.118 580.157C563.072 579.175 564.799 577.797 566.191 576.11C567.582 574.423 568.607 572.465 569.199 570.361C569.791 568.257 569.939 566.052 569.631 563.888L564.529 528.809C563.974 524.964 562.013 521.46 559.023 518.976C556.033 516.493 552.228 515.205 548.344 515.363L329.77 523.989C327.586 524.078 325.444 524.621 323.481 525.583C321.518 526.545 319.777 527.905 318.369 529.577C316.961 531.248 315.916 533.195 315.302 535.292C314.688 537.389 314.517 539.591 314.801 541.757Z" fill="url(#paint3_linear_611_13151)" fill-opacity="0.5"/>
</g>
<path d="M554.842 581.816L336.169 592.692C332.232 592.882 328.367 591.59 325.338 589.072C322.308 586.553 320.334 582.99 319.804 579.087L314.802 541.757C314.518 539.697 314.65 537.601 315.191 535.592C315.732 533.584 316.67 531.704 317.951 530.064C315.635 531.723 313.815 533.981 312.688 536.596C311.561 539.211 311.168 542.083 311.553 544.905L316.556 582.214C317.085 586.123 319.061 589.69 322.095 592.213C325.128 594.736 328.998 596.03 332.94 595.839L551.613 584.943C553.882 584.831 556.099 584.227 558.112 583.175C560.126 582.122 561.886 580.646 563.273 578.848C560.808 580.629 557.88 581.66 554.842 581.816Z" fill="#1BDC77"/>
<path d="M618.785 101.352L602.461 100.894C601.205 100.865 600.001 100.387 599.068 99.5463C598.135 98.7054 597.536 97.5577 597.378 96.3121L595.565 81.3324C595.478 80.5833 595.554 79.8241 595.789 79.1073C596.024 78.3905 596.411 77.733 596.924 77.1802C597.438 76.6274 598.065 76.1923 598.763 75.905C599.46 75.6177 600.212 75.4849 600.966 75.5159L617.271 75.974C618.53 75.9976 619.739 76.4736 620.676 77.3149C621.613 78.1563 622.215 79.3066 622.373 80.5556L624.167 95.5352C624.25 96.282 624.172 97.038 623.937 97.7518C623.702 98.4657 623.317 99.1207 622.806 99.6724C622.296 100.224 621.672 100.66 620.979 100.949C620.285 101.239 619.537 101.376 618.785 101.352Z" fill="#1BDC77"/>
<path d="M619.065 100.734L603.279 100.296C602.059 100.262 600.893 99.7898 599.993 98.9669C599.092 98.1441 598.518 97.0251 598.375 95.8143L596.641 81.2131C596.555 80.4892 596.626 79.7552 596.849 79.0611C597.072 78.3669 597.442 77.7289 597.934 77.1903C598.425 76.6517 599.027 76.2252 599.698 75.9398C600.37 75.6543 601.094 75.5166 601.824 75.536L617.53 75.9742C618.736 76.0101 619.891 76.472 620.788 77.278C621.686 78.0839 622.269 79.1818 622.433 80.3765L624.167 94.9976C624.262 95.7193 624.2 96.4529 623.986 97.1486C623.771 97.8443 623.41 98.4859 622.926 99.03C622.442 99.574 621.847 100.008 621.181 100.302C620.515 100.596 619.793 100.743 619.065 100.734Z" fill="#161B2E"/>
<path d="M616.852 94.32C616.376 94.3174 615.919 94.132 615.576 93.8021L603.617 82.0295C603.447 81.8621 603.311 81.6628 603.218 81.4431C603.125 81.2233 603.076 80.9874 603.075 80.7488C603.073 80.5102 603.118 80.2736 603.208 80.0524C603.297 79.8313 603.43 79.6299 603.597 79.4599C603.765 79.2898 603.964 79.1545 604.184 79.0614C604.404 78.9684 604.64 78.9196 604.879 78.9177C605.117 78.9159 605.354 78.961 605.575 79.0507C605.797 79.1403 605.998 79.2725 606.168 79.44L618.127 91.1926C618.471 91.5362 618.663 92.0019 618.663 92.4874C618.663 92.9729 618.471 93.4386 618.127 93.7821C617.962 93.9527 617.763 94.0882 617.544 94.1806C617.325 94.273 617.09 94.3204 616.852 94.32Z" fill="white"/>
<path d="M605.65 94.7982C605.292 94.8034 604.941 94.7028 604.64 94.509C604.34 94.3151 604.103 94.0367 603.96 93.7088C603.817 93.3809 603.775 93.0181 603.838 92.6661C603.901 92.314 604.067 91.9885 604.315 91.7305L614.62 80.5954C614.788 80.4261 614.988 80.2918 615.209 80.2002C615.43 80.1086 615.666 80.0614 615.905 80.0614C616.144 80.0614 616.381 80.1086 616.601 80.2002C616.822 80.2918 617.022 80.4261 617.191 80.5954C617.543 80.9283 617.75 81.3858 617.769 81.8698C617.788 82.3539 617.616 82.826 617.29 83.1849L607.105 94.3201C606.91 94.4977 606.68 94.6321 606.429 94.7145C606.178 94.7969 605.913 94.8254 605.65 94.7982Z" fill="white"/>
<path d="M582.768 514.625L566.444 515.043C565.187 515.078 563.958 514.661 562.982 513.868C562.006 513.075 561.346 511.958 561.122 510.721L558.511 495.861C558.388 495.118 558.426 494.357 558.624 493.63C558.821 492.904 559.173 492.228 559.656 491.65C560.138 491.071 560.739 490.603 561.419 490.278C562.099 489.953 562.841 489.778 563.594 489.765L579.918 489.367C581.174 489.328 582.402 489.741 583.379 490.53C584.356 491.32 585.016 492.434 585.24 493.67L587.831 508.53C587.958 509.271 587.922 510.032 587.727 510.758C587.532 511.485 587.182 512.161 586.701 512.74C586.221 513.319 585.62 513.787 584.941 514.113C584.262 514.438 583.521 514.613 582.768 514.625Z" fill="#1BDC77"/>
<path d="M582.928 513.969L567.221 514.367C566.003 514.394 564.815 513.982 563.875 513.207C562.934 512.432 562.304 511.345 562.099 510.144L559.588 495.643C559.454 494.921 559.48 494.178 559.663 493.467C559.845 492.756 560.181 492.094 560.645 491.525C561.11 490.957 561.693 490.496 562.353 490.175C563.014 489.854 563.736 489.681 564.471 489.667L580.177 489.288C581.395 489.252 582.585 489.658 583.526 490.431C584.468 491.203 585.098 492.291 585.3 493.491L587.811 507.993C587.944 508.715 587.919 509.457 587.736 510.168C587.553 510.879 587.218 511.542 586.754 512.11C586.289 512.679 585.706 513.14 585.045 513.461C584.385 513.782 583.662 513.955 582.928 513.969Z" fill="#101420"/>
<path d="M580.357 507.634C579.914 507.639 579.486 507.475 579.161 507.176L566.564 496.06C566.385 495.902 566.238 495.71 566.133 495.495C566.028 495.281 565.967 495.047 565.952 494.809C565.937 494.57 565.969 494.331 566.047 494.105C566.125 493.879 566.246 493.67 566.405 493.491C566.563 493.312 566.755 493.165 566.97 493.06C567.185 492.955 567.418 492.894 567.657 492.879C567.896 492.864 568.135 492.897 568.361 492.974C568.588 493.052 568.796 493.173 568.976 493.331L581.573 504.447C581.753 504.604 581.9 504.796 582.006 505.011C582.111 505.226 582.173 505.459 582.188 505.698C582.203 505.937 582.17 506.177 582.092 506.403C582.014 506.629 581.891 506.838 581.732 507.016C581.562 507.214 581.351 507.372 581.113 507.478C580.876 507.585 580.617 507.638 580.357 507.634Z" fill="white"/>
<path d="M569.234 508.77C568.887 508.772 568.546 508.675 568.252 508.49C567.958 508.304 567.723 508.038 567.576 507.723C567.429 507.409 567.376 507.058 567.423 506.714C567.469 506.37 567.614 506.046 567.839 505.782L577.526 494.109C577.835 493.739 578.279 493.507 578.759 493.464C579.24 493.421 579.717 493.57 580.087 493.88C580.457 494.189 580.689 494.632 580.732 495.112C580.775 495.592 580.626 496.069 580.317 496.439L570.63 508.112C570.461 508.319 570.248 508.485 570.006 508.598C569.765 508.712 569.501 508.771 569.234 508.77Z" fill="white"/>
<g style="mix-blend-mode:soft-light" opacity="0.5">
<g style="mix-blend-mode:soft-light" opacity="0.5">
<path d="M524.683 196.041C544.613 193.789 558.505 171.954 555.713 147.27C552.921 122.586 534.501 104.401 514.571 106.653C494.641 108.905 480.749 130.74 483.541 155.424C486.333 180.108 504.753 198.293 524.683 196.041Z" fill="#1BDC77"/>
</g>
</g>
<path d="M537.144 149.398C538.44 160.872 531.982 171.031 522.694 172.087C513.405 173.143 504.854 164.677 503.559 153.183C502.263 141.689 508.721 131.55 517.99 130.494C527.258 129.439 535.849 137.905 537.144 149.398Z" fill="#1BDC77"/>
<path d="M182.225 346.032C190.123 345.14 195.74 337.478 194.772 328.918C193.804 320.359 186.617 314.143 178.719 315.036C170.822 315.928 165.204 323.59 166.173 332.15C167.141 340.709 174.328 346.925 182.225 346.032Z" fill="#808594"/>
<path d="M175.318 330.209C175.334 330.712 175.203 331.208 174.942 331.638C174.68 332.067 174.299 332.411 173.845 332.628C173.391 332.845 172.883 332.925 172.385 332.858C171.886 332.791 171.417 332.581 171.036 332.253C170.655 331.924 170.378 331.492 170.239 331.009C170.099 330.526 170.103 330.012 170.251 329.532C170.399 329.051 170.683 328.624 171.07 328.302C171.456 327.98 171.928 327.777 172.428 327.719C173.141 327.67 173.844 327.903 174.386 328.37C174.927 328.836 175.262 329.497 175.318 330.209Z" fill="#494E5D"/>
<path d="M183.45 330.209C183.47 330.716 183.341 331.218 183.08 331.653C182.819 332.089 182.436 332.438 181.979 332.66C181.522 332.881 181.01 332.964 180.506 332.899C180.002 332.834 179.529 332.623 179.143 332.293C178.757 331.963 178.476 331.528 178.334 331.04C178.192 330.553 178.195 330.035 178.344 329.549C178.492 329.064 178.779 328.632 179.169 328.307C179.559 327.982 180.035 327.777 180.54 327.719C181.256 327.664 181.965 327.895 182.51 328.362C183.056 328.829 183.394 329.493 183.45 330.209Z" fill="#494E5D"/>
<path d="M190.845 330.209C190.861 330.712 190.73 331.208 190.469 331.638C190.207 332.067 189.826 332.411 189.372 332.628C188.918 332.845 188.41 332.925 187.912 332.858C187.413 332.791 186.944 332.581 186.563 332.253C186.182 331.924 185.905 331.492 185.766 331.009C185.626 330.526 185.63 330.012 185.778 329.532C185.926 329.051 186.21 328.624 186.597 328.302C186.983 327.98 187.455 327.777 187.955 327.719C188.668 327.67 189.371 327.903 189.913 328.37C190.454 328.836 190.789 329.497 190.845 330.209Z" fill="#494E5D"/>
<path d="M518.906 157.386L512.209 150.872C512.034 150.753 511.888 150.598 511.78 150.416C511.672 150.234 511.606 150.031 511.586 149.821C511.566 149.61 511.593 149.398 511.664 149.199C511.736 149.001 511.85 148.82 512 148.671C512.149 148.521 512.33 148.407 512.529 148.335C512.728 148.264 512.94 148.237 513.15 148.257C513.361 148.277 513.564 148.343 513.746 148.451C513.928 148.559 514.084 148.705 514.202 148.88L518.647 153.203L526.62 143.581C526.861 143.295 527.204 143.114 527.576 143.077C527.948 143.04 528.321 143.149 528.613 143.382C528.895 143.626 529.073 143.968 529.11 144.338C529.148 144.709 529.041 145.08 528.812 145.374L518.906 157.386Z" fill="white"/>
<path d="M203.21 390.351L201.836 390.36L198.779 383.949L198.336 382.697H198.261L199.259 390.378L198.002 390.386L196.756 380.807L198.718 380.794L201.899 387.578L202.324 388.688H202.378L202.514 387.574L203.838 380.76L205.786 380.748L207.032 390.326L205.719 390.335L204.72 382.654L204.645 382.655L204.514 383.911L203.21 390.351ZM212.276 383.412L213.65 384.61L214.387 390.277L213.478 390.283L213.082 389.289H213.027L212.076 390.293L210.149 390.305L208.768 389.107L208.546 387.399L209.613 386.184L212.621 386.164L212.488 385.147L211.717 384.474L210.049 384.485L209.332 385.236L208.378 384.367L209.255 383.432L212.276 383.412ZM210.447 387.23L209.852 387.919L209.937 388.57L210.708 389.243L211.645 389.237L212.867 388.062L212.757 387.215L210.447 387.23ZM221.735 390.229L220.505 390.237L219.837 385.099L219.058 384.425L218.19 384.431L216.975 385.606L217.579 390.256L216.342 390.264L215.448 383.391L216.357 383.385L216.754 384.386H216.816L217.759 383.375L219.625 383.363L220.998 384.562L221.735 390.229ZM226.768 383.316L228.142 384.514L228.879 390.181L227.97 390.187L227.573 389.193H227.519L226.568 390.197L224.641 390.21L223.26 389.011L223.038 387.303L224.105 386.088L227.112 386.068L226.98 385.051L226.208 384.378L224.54 384.389L223.824 385.14L222.869 384.271L223.747 383.336L226.768 383.316ZM224.939 387.134L224.344 387.823L224.429 388.474L225.2 389.147L226.137 389.141L227.359 387.966L227.249 387.119L224.939 387.134ZM235.038 388.987L236.258 390.051L236.482 391.773L235.54 392.844L231.773 392.869L230.562 391.812L230.338 390.09L231.272 389.012L232.55 389.004L232.406 387.892L231.619 387.897L230.246 386.699L229.96 384.502L231.02 383.288L233.809 383.269L234.534 383.902L235.094 383.261L235.668 383.257L235.861 384.741L235.219 384.746L235.468 386.664L234.408 387.879L233.636 387.884L233.781 388.996L235.038 388.987ZM231.855 384.34L231.259 385.023L231.407 386.162L232.18 386.842L233.568 386.833L234.169 386.143L234.021 385.005L233.242 384.331L231.855 384.34ZM232.113 390.065L231.637 390.611L231.724 391.275L232.341 391.814L234.706 391.798L235.182 391.252L235.096 390.588L234.479 390.049L232.113 390.065ZM243.355 389.068L242.462 390.092L239.242 390.113L237.868 388.914L237.288 384.454L238.348 383.239L241.205 383.22L242.579 384.419L242.939 387.185L238.878 387.211L239.03 388.377L239.808 389.051L241.695 389.038L242.391 388.233L243.355 389.068ZM239.19 384.292L238.587 384.974L238.741 386.154L241.571 386.135L241.417 384.956L240.646 384.282L239.19 384.292ZM251.035 383.155L252.409 384.354L253.146 390.021L252.237 390.027L251.841 389.032H251.786L250.835 390.036L248.908 390.049L247.527 388.85L247.305 387.142L248.372 385.927L251.379 385.907L251.247 384.891L250.475 384.217L248.808 384.228L248.091 384.979L247.137 384.11L248.014 383.175L251.035 383.155ZM249.206 386.973L248.611 387.663L248.696 388.313L249.467 388.987L250.404 388.981L251.626 387.805L251.516 386.958L249.206 386.973ZM253.855 380.429L255.093 380.421L256.338 390L255.101 390.008L253.855 380.429ZM257.041 380.408L258.278 380.4L259.524 389.979L258.286 389.987L257.041 380.408ZM269.796 391.424L268.729 392.638L265.571 392.659L264.399 391.642L265.145 390.803L266.064 391.604L267.896 391.592L268.49 390.903L268.317 389.574L267.918 389.923L265.498 389.939L264.118 388.741L263.381 383.073L264.618 383.065L265.286 388.204L266.058 388.877L268.225 388.863L267.468 383.046L268.706 383.038L269.796 391.424ZM274.954 382.997L276.327 384.195L276.907 388.656L275.848 389.871L272.696 389.891L271.323 388.693L270.742 384.232L271.802 383.018L274.954 382.997ZM272.644 384.07L272.042 384.753L272.484 388.156L273.263 388.829L275.013 388.818L275.608 388.135L275.166 384.732L274.394 384.059L272.644 384.07ZM278.064 382.976L279.301 382.968L279.969 388.106L280.741 388.78L281.609 388.774L282.832 387.599L282.227 382.949L283.457 382.94L284.351 389.814L283.442 389.82L283.046 388.826H282.991L282.041 389.83L280.181 389.842L278.801 388.643L278.064 382.976ZM286.725 383.923H286.787L287.716 382.912L289.131 382.903L289.277 384.028L288.129 384.036L286.949 385.17L287.55 389.793L286.313 389.801L285.419 382.927L286.328 382.921L286.725 383.923ZM298.574 388.702L297.681 389.726L294.53 389.747L293.156 388.548L292.576 384.088L293.636 382.873L296.65 382.853L297.767 383.809L297.035 384.655L296.152 383.915L294.477 383.926L293.875 384.608L294.318 388.011L295.096 388.685L296.915 388.673L297.61 387.867L298.574 388.702ZM303.432 382.808L304.805 384.007L305.385 388.467L304.325 389.682L301.174 389.703L299.8 388.504L299.22 384.044L300.28 382.829L303.432 382.808ZM301.122 383.882L300.52 384.564L300.962 387.967L301.741 388.641L303.491 388.629L304.086 387.947L303.644 384.544L302.872 383.87L301.122 383.882ZM312.829 389.626L311.599 389.634L310.93 384.495L310.152 383.822L309.284 383.828L308.068 385.003L308.673 389.653L307.436 389.661L306.542 382.788L307.451 382.782L307.848 383.783H307.91L308.852 382.772L310.718 382.76L312.092 383.959L312.829 389.626ZM314.192 383.795L313.337 383.801L313.2 382.744L314.054 382.738L313.906 381.599L314.982 380.927H315.05L315.285 382.73L316.672 382.721L316.81 383.778L315.422 383.787L315.944 387.8L316.716 388.474L317.939 388.466L318.086 389.591L316.165 389.604L314.791 388.405L314.192 383.795ZM319.824 383.704L319.886 383.703L320.815 382.693L322.23 382.684L322.376 383.809L321.228 383.817L320.048 384.951L320.649 389.574L319.412 389.582L318.518 382.708L319.427 382.702L319.824 383.704ZM327.022 382.652L328.395 383.851L329.132 389.518L328.223 389.524L327.827 388.529H327.772L326.822 389.533L324.894 389.546L323.514 388.347L323.292 386.639L324.358 385.424L327.366 385.404L327.234 384.388L326.462 383.714L324.794 383.725L324.078 384.476L323.123 383.607L324 382.672L327.022 382.652ZM325.192 386.47L324.598 387.16L324.682 387.81L325.454 388.484L326.391 388.477L327.613 387.302L327.503 386.455L325.192 386.47ZM336.28 388.453L335.387 389.476L332.236 389.497L330.862 388.299L330.282 383.838L331.342 382.623L334.357 382.603L335.473 383.56L334.741 384.406L333.858 383.665L332.184 383.676L331.581 384.359L332.024 387.762L332.802 388.435L334.621 388.423L335.317 387.618L336.28 388.453ZM337.133 383.644L336.278 383.649L336.141 382.592L336.995 382.586L336.847 381.447L337.923 380.775H337.991L338.226 382.578L339.613 382.569L339.751 383.626L338.363 383.635L338.885 387.648L339.657 388.322L340.88 388.314L341.027 389.439L339.106 389.452L337.732 388.253L337.133 383.644ZM347.377 388.189L346.318 389.404L342.927 389.426L341.81 388.464L342.515 387.624L343.418 388.365L345.483 388.351L346.078 387.669L346.004 387.099L345.233 386.426L342.847 386.442L341.473 385.243L341.281 383.765L342.341 382.551L345.369 382.531L346.485 383.487L345.754 384.333L344.878 383.592L343.182 383.603L342.58 384.286L342.635 384.706L343.413 385.38L345.792 385.364L347.166 386.562L347.377 388.189ZM198.83 398.388L200.067 398.38L200.961 405.254L199.724 405.262L198.83 398.388ZM199.871 396.868L198.634 396.877L198.478 395.684L199.716 395.675L199.871 396.868ZM208.303 405.205L207.072 405.213L206.404 400.075L205.626 399.402L204.758 399.407L203.542 400.582L204.147 405.233L202.909 405.241L202.016 398.367L202.925 398.361L203.322 399.363L203.383 399.362L204.326 398.352L206.192 398.34L207.566 399.538L208.303 405.205ZM216.473 398.271L217.847 399.47L218.427 403.931L217.367 405.145L214.216 405.166L212.842 403.968L212.262 399.507L213.322 398.292L216.473 398.271ZM214.164 399.345L213.561 400.028L214.004 403.431L214.782 404.104L216.532 404.092L217.128 403.41L216.685 400.007L215.914 399.334L214.164 399.345ZM225.871 405.089L224.64 405.097L223.972 399.959L223.194 399.285L222.326 399.291L221.11 400.466L221.715 405.116L220.477 405.125L219.584 398.251L220.493 398.245L220.89 399.246H220.951L221.894 398.236L223.76 398.223L225.134 399.422L225.871 405.089ZM233.094 404.023L232.201 405.047L228.981 405.068L227.607 403.87L227.027 399.409L228.087 398.195L230.945 398.176L232.318 399.374L232.678 402.14L228.618 402.167L228.769 403.333L229.548 404.006L231.434 403.994L232.13 403.188L233.094 404.023ZM228.929 399.247L228.327 399.93L228.48 401.109L231.31 401.091L231.157 399.911L230.385 399.238L228.929 399.247ZM240.014 404.995L238.811 404.006L239.284 407.639L238.047 407.648L236.81 398.137L237.719 398.131L238.116 399.132H238.177L239.12 398.122L241.055 398.109L242.428 399.307L243.009 403.768L241.949 404.983L240.014 404.995ZM241.093 403.93L241.696 403.247L241.253 399.844L240.475 399.171L239.552 399.177L238.336 400.352L238.652 402.779L240.171 403.936L241.093 403.93ZM243.813 395.383L245.051 395.375L246.296 404.954L245.059 404.962L243.813 395.383ZM251.315 398.041L252.689 399.239L253.426 404.907L252.517 404.913L252.121 403.918H252.066L251.115 404.922L249.188 404.935L247.807 403.736L247.585 402.028L248.652 400.813L251.66 400.793L251.527 399.776L250.756 399.103L249.088 399.114L248.371 399.865L247.417 398.996L248.294 398.061L251.315 398.041ZM249.486 401.859L248.891 402.548L248.976 403.199L249.747 403.872L250.684 403.866L251.906 402.691L251.796 401.844L249.486 401.859ZM260.574 403.841L259.681 404.865L256.529 404.886L255.156 403.687L254.576 399.227L255.636 398.012L258.65 397.992L259.766 398.948L259.035 399.794L258.152 399.054L256.477 399.065L255.875 399.748L256.317 403.15L257.096 403.824L258.914 403.812L259.61 403.007L260.574 403.841ZM267.287 403.797L266.393 404.821L263.174 404.842L261.8 403.643L261.22 399.183L262.28 397.968L265.137 397.949L266.511 399.148L266.871 401.914L262.81 401.941L262.962 403.107L263.74 403.78L265.627 403.767L266.323 402.962L267.287 403.797ZM263.121 399.021L262.519 399.704L262.673 400.883L265.503 400.864L265.349 399.685L264.578 399.011L263.121 399.021ZM269.852 404.798L268.533 404.807L268.367 403.532L269.687 403.523L269.852 404.798Z" fill="white"/>
<path d="M254.926 264.713H189.848C188.249 264.716 186.703 264.134 185.503 263.078C184.303 262.021 183.53 260.562 183.331 258.976L175.816 199.217C175.696 198.27 175.785 197.308 176.076 196.399C176.366 195.489 176.853 194.655 177.5 193.953C178.147 193.251 178.94 192.698 179.824 192.335C180.707 191.971 181.659 191.804 182.613 191.847L248.05 194.735C249.597 194.803 251.071 195.417 252.209 196.467C253.347 197.517 254.077 198.936 254.268 200.472L261.444 257.403C261.548 258.321 261.456 259.25 261.176 260.131C260.896 261.011 260.434 261.823 259.819 262.513C259.204 263.202 258.45 263.755 257.607 264.134C256.764 264.513 255.851 264.711 254.926 264.713Z" fill="#161B2E"/>
<path d="M197.143 213.499L199.455 234.276C199.482 234.895 199.734 235.483 200.163 235.93C200.592 236.377 201.17 236.653 201.787 236.706L239.419 237.084C239.79 237.049 240.15 236.937 240.475 236.755C240.8 236.573 241.084 236.324 241.307 236.026C241.531 235.728 241.689 235.386 241.773 235.023C241.856 234.659 241.862 234.283 241.791 233.917L239.479 213.997C239.444 213.386 239.192 212.808 238.768 212.366C238.344 211.924 237.776 211.648 237.167 211.587L199.555 210.412C199.186 210.437 198.827 210.539 198.5 210.712C198.173 210.886 197.887 211.126 197.659 211.417C197.432 211.709 197.268 212.045 197.179 212.403C197.09 212.762 197.078 213.136 197.143 213.499Z" fill="white"/>
<path d="M221.6 224.057C220.121 224.046 218.666 223.684 217.354 223.001L196.705 213.3C196.489 213.202 196.296 213.062 196.136 212.887C195.976 212.713 195.852 212.509 195.772 212.286C195.692 212.063 195.658 211.826 195.671 211.59C195.684 211.354 195.744 211.123 195.848 210.91C195.948 210.696 196.09 210.505 196.265 210.346C196.439 210.188 196.644 210.065 196.866 209.986C197.088 209.906 197.324 209.871 197.559 209.883C197.795 209.894 198.026 209.952 198.24 210.053L218.949 219.814C219.857 220.312 220.887 220.542 221.921 220.479C222.954 220.415 223.949 220.06 224.789 219.455L238.841 211.488C239.254 211.299 239.723 211.273 240.156 211.413C240.588 211.554 240.951 211.852 241.174 212.247C241.397 212.643 241.463 213.108 241.36 213.55C241.256 213.992 240.99 214.379 240.615 214.635L226.663 222.463C225.178 223.5 223.411 224.056 221.6 224.057Z" fill="#161B2E"/>
<path opacity="0.5" d="M257.46 228.759C269.568 227.391 278.009 214.124 276.313 199.125C274.616 184.127 263.424 173.078 251.316 174.446C239.207 175.814 230.766 189.081 232.463 204.08C234.159 219.078 245.351 230.128 257.46 228.759Z" fill="#1BDC77"/>
<path d="M265.051 200.412C265.828 207.404 261.902 213.579 256.261 214.217C250.62 214.854 245.418 209.715 244.641 202.723C243.863 195.731 247.77 189.576 253.411 188.939C259.052 188.301 264.274 193.44 265.051 200.412Z" fill="#1BDC77"/>
<path d="M505.751 463.333L503.917 443.792L516.973 452.815L505.751 463.333Z" fill="#232A45"/>
<path d="M508.959 474.269C500.129 474.269 492.276 466.102 491.02 455.265C490.35 449.984 491.496 444.632 494.269 440.087C495.456 437.994 497.121 436.213 499.129 434.887C501.137 433.562 503.43 432.73 505.821 432.46C508.212 432.19 510.633 432.489 512.887 433.333C515.14 434.178 517.161 435.543 518.785 437.318C522.514 441.119 524.828 446.082 525.343 451.381C526.638 462.875 520.001 473.113 510.553 474.169C510.024 474.231 509.492 474.265 508.959 474.269ZM507.464 435.624C507.045 435.624 506.627 435.624 506.208 435.624C504.318 435.888 502.512 436.577 500.927 437.64C499.342 438.702 498.02 440.111 497.059 441.76C494.662 445.683 493.684 450.31 494.289 454.867C495.385 464.588 502.521 471.799 510.234 470.902C517.948 470.006 523.25 461.44 522.194 451.72C521.752 447.161 519.77 442.889 516.573 439.608C515.393 438.371 513.978 437.381 512.41 436.697C510.843 436.013 509.154 435.648 507.444 435.624H507.464Z" fill="#232A45"/>
<path d="M469.334 650.957C467.661 651.567 465.909 651.936 464.132 652.052L195.689 669.861C190.902 670.183 186.176 668.649 182.493 665.576C178.81 662.504 176.454 658.131 175.916 653.367L173.923 636.156L468.457 618.328L471.567 639.324C472.099 643.341 471.316 647.422 469.334 650.957Z" fill="#0B1425"/>
<path d="M342.057 639.27C343.026 639.198 343.334 637.925 342.504 637.419L334.413 632.482C332.847 631.526 330.83 631.758 329.523 633.046L323.973 638.513C323.312 639.164 323.818 640.287 324.745 640.223L325.744 640.153L327.182 650.63L342.802 649.559L341.493 639.311L342.057 639.27Z" fill="white"/>
<g filter="url(#filter1_i_611_13151)">
<path d="M393.951 381.164L381.833 382C381.332 382.041 380.865 382.268 380.525 382.637C380.185 383.007 379.997 383.491 379.999 383.992L381.016 398.892C381.056 399.414 381.301 399.898 381.696 400.241C382.092 400.584 382.606 400.758 383.128 400.725L395.247 399.888C395.765 399.843 396.245 399.596 396.584 399.202C396.923 398.807 397.094 398.296 397.061 397.777L396.044 382.877C395.975 382.381 395.721 381.929 395.333 381.611C394.945 381.294 394.452 381.134 393.951 381.164ZM384.902 396.721C384.91 396.828 384.897 396.936 384.864 397.039C384.83 397.141 384.776 397.235 384.706 397.317C384.636 397.398 384.55 397.465 384.453 397.513C384.357 397.561 384.252 397.59 384.145 397.598C383.931 397.609 383.722 397.535 383.562 397.394C383.402 397.252 383.303 397.054 383.288 396.841L382.53 385.925C382.519 385.711 382.593 385.502 382.734 385.342C382.876 385.182 383.075 385.083 383.288 385.068C383.395 385.06 383.503 385.073 383.605 385.107C383.708 385.14 383.802 385.194 383.884 385.264C383.965 385.335 384.032 385.42 384.08 385.517C384.129 385.613 384.157 385.718 384.165 385.825L384.902 396.721ZM394.011 396.084C394.036 396.198 394.036 396.316 394.011 396.43C393.986 396.544 393.936 396.651 393.867 396.745C393.797 396.838 393.707 396.916 393.605 396.972C393.502 397.028 393.389 397.061 393.273 397.07C393.156 397.078 393.039 397.062 392.93 397.022C392.82 396.981 392.72 396.918 392.637 396.836C392.554 396.754 392.49 396.655 392.448 396.546C392.407 396.436 392.389 396.32 392.397 396.203L391.639 385.307C391.631 385.2 391.644 385.092 391.678 384.99C391.712 384.888 391.765 384.793 391.836 384.712C391.906 384.63 391.992 384.563 392.088 384.515C392.184 384.467 392.289 384.438 392.397 384.431C392.612 384.419 392.824 384.492 392.987 384.633C393.151 384.774 393.253 384.973 393.274 385.188L394.011 396.084Z" fill="#1BDC77"/>
<path d="M395.048 379.969L380.039 380.806C379.895 380.817 379.749 380.798 379.612 380.751C379.475 380.705 379.348 380.631 379.24 380.534C379.132 380.437 379.045 380.32 378.984 380.188C378.922 380.057 378.888 379.915 378.883 379.77C378.867 379.482 378.964 379.2 379.154 378.984C379.345 378.768 379.612 378.635 379.9 378.615L394.908 377.758C395.2 377.747 395.485 377.848 395.704 378.041C395.923 378.234 396.059 378.503 396.084 378.794C396.096 379.085 395.994 379.37 395.801 379.589C395.609 379.807 395.339 379.944 395.048 379.969Z" fill="#1BDC77"/>
<path d="M390.513 376.533L384.185 376.892C383.735 376.918 383.39 377.304 383.416 377.754L383.451 378.371C383.476 378.821 383.862 379.165 384.313 379.14L390.641 378.781C391.092 378.755 391.436 378.369 391.411 377.919L391.376 377.302C391.35 376.852 390.964 376.508 390.513 376.533Z" fill="#1BDC77"/>
</g>
<path d="M418.488 537.892L406.369 538.709C405.851 538.75 405.369 538.991 405.026 539.382C404.684 539.773 404.508 540.282 404.535 540.801L405.552 555.7C405.593 556.222 405.837 556.707 406.232 557.049C406.628 557.392 407.142 557.566 407.665 557.533L419.783 556.696C420.298 556.651 420.775 556.407 421.113 556.017C421.451 555.627 421.625 555.121 421.597 554.605L420.58 539.705C420.535 539.191 420.291 538.714 419.9 538.376C419.51 538.038 419.003 537.864 418.488 537.892ZM409.458 553.43C409.47 553.645 409.397 553.857 409.256 554.02C409.115 554.183 408.916 554.286 408.701 554.306C408.594 554.314 408.486 554.301 408.383 554.267C408.281 554.234 408.187 554.18 408.105 554.11C408.024 554.04 407.957 553.954 407.909 553.858C407.86 553.761 407.832 553.657 407.824 553.549L407.067 542.653C407.051 542.436 407.122 542.222 407.264 542.058C407.406 541.894 407.607 541.792 407.824 541.777C408.041 541.761 408.255 541.832 408.419 541.974C408.584 542.115 408.685 542.317 408.701 542.534L409.458 553.43ZM418.547 552.812C418.571 552.927 418.57 553.045 418.544 553.16C418.518 553.274 418.468 553.381 418.397 553.474C418.326 553.567 418.236 553.644 418.132 553.699C418.029 553.754 417.915 553.787 417.798 553.794C417.681 553.801 417.564 553.783 417.454 553.741C417.345 553.699 417.246 553.634 417.164 553.55C417.082 553.467 417.019 553.366 416.979 553.256C416.939 553.146 416.923 553.028 416.933 552.912L416.175 542.016C416.162 541.799 416.236 541.586 416.38 541.423C416.524 541.261 416.726 541.162 416.943 541.149C417.16 541.136 417.373 541.209 417.535 541.353C417.698 541.497 417.797 541.699 417.81 541.916L418.547 552.812Z" fill="#1BDC77"/>
<path d="M419.584 536.658L404.575 537.514C404.431 537.522 404.287 537.502 404.151 537.454C404.015 537.406 403.889 537.332 403.782 537.236C403.674 537.14 403.587 537.023 403.525 536.893C403.463 536.763 403.427 536.622 403.419 536.478C403.408 536.334 403.427 536.189 403.473 536.051C403.52 535.914 403.594 535.788 403.691 535.68C403.788 535.572 403.905 535.485 404.037 535.424C404.168 535.362 404.31 535.328 404.455 535.323L419.464 534.466C419.608 534.458 419.752 534.479 419.888 534.527C420.024 534.574 420.15 534.648 420.257 534.745C420.365 534.841 420.452 534.957 420.514 535.087C420.576 535.217 420.612 535.358 420.62 535.502C420.631 535.792 420.529 536.074 420.336 536.29C420.142 536.505 419.873 536.637 419.584 536.658Z" fill="#1BDC77"/>
<path d="M414.998 533.28L408.67 533.638C408.22 533.663 407.875 534.049 407.9 534.499L407.935 535.116C407.961 535.566 408.347 535.911 408.797 535.885L415.126 535.527C415.576 535.502 415.921 535.116 415.895 534.666L415.86 534.049C415.835 533.599 415.449 533.254 414.998 533.28Z" fill="#1BDC77"/>
<path style="mix-blend-mode:color-dodge" d="M436.645 539.964C437.024 551.318 426.44 560.9 412.986 561.358C399.532 561.816 388.31 552.972 387.932 541.617C387.553 530.263 398.137 520.662 411.591 520.224C425.045 519.786 436.267 528.57 436.645 539.964Z" fill="url(#paint4_radial_611_13151)"/>
<path d="M423.61 646.574C423.187 646.579 422.776 646.43 422.454 646.156C422.1 645.845 421.883 645.407 421.85 644.938C421.816 644.468 421.969 644.004 422.275 643.646L427.298 637.849L420.76 631.874C420.414 631.559 420.207 631.12 420.184 630.653C420.162 630.186 420.326 629.73 420.64 629.384C420.955 629.038 421.394 628.831 421.861 628.808C422.329 628.786 422.786 628.95 423.132 629.264L432.241 637.471L424.946 645.877C424.789 646.085 424.588 646.256 424.357 646.376C424.126 646.497 423.871 646.564 423.61 646.574Z" fill="white"/>
<path d="M241.372 657.112C240.993 657.117 240.622 656.998 240.316 656.774L230.49 649.483L238.363 640.121C238.662 639.76 239.092 639.532 239.559 639.487C240.026 639.442 240.492 639.584 240.854 639.882C241.208 640.186 241.429 640.617 241.47 641.082C241.511 641.547 241.368 642.01 241.073 642.372L235.592 648.925L242.429 653.985C242.802 654.266 243.05 654.683 243.117 655.146C243.184 655.609 243.066 656.079 242.788 656.455C242.621 656.669 242.405 656.84 242.159 656.954C241.913 657.068 241.644 657.122 241.372 657.112Z" fill="white"/>
<g style="mix-blend-mode:color-dodge" opacity="0.8" filter="url(#filter2_f_611_13151)">
<g style="mix-blend-mode:color-dodge" opacity="0.8">
<path d="M133.082 259.282C78.8675 240.274 50.3503 180.989 69.3867 126.865C88.4231 72.7407 147.805 44.2738 202.019 63.2821C256.233 82.2904 284.75 141.576 265.714 195.7C246.677 249.824 187.296 278.291 133.082 259.282Z" fill="#2D3D79"/>
</g>
</g>
<g style="mix-blend-mode:color-dodge" opacity="0.8" filter="url(#filter3_f_611_13151)">
<g style="mix-blend-mode:color-dodge" opacity="0.8">
<path d="M308.56 723.752C254.346 704.744 225.828 645.459 244.865 591.335C263.901 537.211 323.283 508.744 377.497 527.752C431.711 546.76 460.228 606.046 441.192 660.17C422.155 714.294 362.774 742.761 308.56 723.752Z" fill="#2D3D79"/>
</g>
</g>
<path d="M340.654 447.42L351.793 447.128L355.147 450.111L355.805 457.328L353.011 460.485L347.407 460.632L346.21 459.817L346.835 466.679L342.421 466.795L340.654 447.42ZM351.267 456.082L350.857 451.589L349.605 450.475L345.368 450.586L345.986 457.366L350.223 457.255L351.267 456.082ZM359.846 466.339L358.082 446.991L362.005 446.888L363.769 466.236L359.846 466.339ZM367.701 451.966L375.04 451.774L377.605 454.054L378.68 465.845L375.796 465.921L374.699 464.107L374.59 464.11L372.474 466.144L368.92 466.237L366.356 463.957L365.992 459.968L368.129 457.564L373.979 457.411L373.791 455.355L372.881 454.533L369.819 454.613L368.4 455.879L365.939 453.828L367.701 451.966ZM370.747 460.13L370.014 460.954L370.169 462.656L371.08 463.479L372.201 463.449L374.361 461.605L374.219 460.039L370.747 460.13ZM386.439 468.153L389.514 468.073L390.261 467.248L390.024 464.648L388.93 465.577L384.447 465.694L381.883 463.414L380.82 451.759L384.743 451.657L385.673 461.854L386.554 462.65L389.834 462.564L388.829 451.55L392.738 451.447L394.301 468.589L392.164 470.992L384.524 471.192L382.367 469.325L384.955 466.909L386.439 468.153ZM399.995 451.257L404.055 451.151L407.586 461.485L407.696 461.483L409.467 451.009L412.911 450.919L410.292 465.018L405.112 465.153L399.995 451.257ZM420.078 464.761L416.155 464.864L414.879 450.867L418.801 450.765L420.078 464.761ZM418.605 448.613L414.683 448.716L414.389 445.489L418.311 445.387L418.605 448.613ZM425.653 464.752L423.088 462.472L422.214 452.886L424.352 450.483L428.206 450.382L430.381 452.304L429.726 445.115L433.634 445.013L435.399 464.36L432.556 464.435L431.459 462.621L431.322 462.624L429.234 464.658L425.653 464.752ZM427.002 453.402L426.255 454.227L426.866 460.926L427.759 461.708L428.962 461.676L431.08 459.969L430.623 454.959L428.628 453.36L427.002 453.402ZM443.147 461.591L446.7 461.498L447.962 460.005L450.72 461.857L448.764 464.147L440.987 464.35L438.423 462.07L437.549 452.485L439.686 450.081L446.93 449.892L449.494 452.172L450.053 458.299L442.016 458.509L442.223 460.769L443.147 461.591ZM441.791 456.031L445.932 455.923L445.708 453.472L444.798 452.65L442.337 452.714L441.567 453.581L441.791 456.031ZM456.213 463.952L453.648 461.671L452.774 452.086L454.911 449.683L462.688 449.479L465.252 451.759L466.129 461.372L463.989 463.748L456.213 463.952ZM457.561 452.602L456.815 453.427L457.425 460.126L458.319 460.908L461.339 460.828L462.072 460.004L461.461 453.305L460.582 452.523L457.561 452.602Z" fill="#232A45"/>
<path d="M195.816 279.803L195.253 270.092L198.315 270.052L200.27 275.688L200.658 277.069L200.74 277.068L200.94 275.679L202.252 270L205.287 269.96L205.85 279.672L203.642 279.7L203.256 273.033L203.153 273.034L202.984 274.478L201.694 279.726L199.787 279.751L197.796 274.545L197.459 273.109L197.357 273.11L197.744 279.778L195.816 279.803ZM210.048 278.333L211.825 278.309L212.48 277.57L213.828 278.515L212.813 279.649L208.923 279.7L207.68 278.541L207.401 273.737L208.508 272.548L212.131 272.5L213.375 273.659L213.553 276.73L209.534 276.782L209.6 277.915L210.048 278.333ZM209.462 275.54L211.533 275.513L211.462 274.285L211.02 273.867L209.79 273.883L209.391 274.312L209.462 275.54ZM214.942 278.501L216.178 277.522L216.917 278.243L218.811 278.218L219.19 277.803L219.147 277.052L218.72 276.648L216.327 276.68L215.077 275.521L214.968 273.638L216.082 272.448L219.677 272.401L220.727 273.392L219.61 274.417L218.819 273.765L217.363 273.784L216.964 274.213L217.001 274.854L217.435 275.251L219.827 275.22L221.071 276.378L221.186 278.364L220.079 279.554L216.087 279.606L214.942 278.501ZM222.092 278.407L223.328 277.428L224.067 278.149L225.961 278.124L226.34 277.71L226.297 276.959L225.87 276.555L223.477 276.586L222.227 275.428L222.117 273.544L223.232 272.355L226.827 272.308L227.876 273.298L226.759 274.323L225.969 273.671L224.513 273.69L224.114 274.119L224.151 274.761L224.585 275.158L226.977 275.126L228.221 276.285L228.336 278.271L227.228 279.46L223.237 279.512L222.092 278.407ZM230.252 272.263L233.922 272.215L235.166 273.373L235.509 279.283L234.067 279.302L233.548 278.387L233.494 278.388L232.403 279.392L230.626 279.416L229.382 278.257L229.266 276.258L230.373 275.068L233.299 275.03L233.239 274L232.798 273.582L231.266 273.602L230.537 274.226L229.341 273.183L230.252 272.263ZM231.639 276.37L231.259 276.778L231.309 277.631L231.75 278.049L232.311 278.041L233.421 277.132L233.375 276.347L231.639 276.37ZM236.62 279.098L237.676 277.971L239.05 277.953L238.997 277.039L238.081 277.05L236.838 275.892L236.69 273.353L237.798 272.164L241.134 272.121L241.979 272.902L242.491 272.171L243.127 272.163L243.239 274.108L242.426 274.118L242.525 275.818L241.417 277.007L240.522 277.019L240.575 277.933L241.955 277.915L243.141 279.013L243.247 280.835L242.19 281.969L237.912 282.025L236.726 280.92L236.62 279.098ZM239.025 273.5L238.645 273.915L238.724 275.28L239.151 275.684L240.19 275.671L240.57 275.256L240.491 273.891L240.064 273.487L239.025 273.5ZM241.26 279.611L240.906 279.281L238.889 279.307L238.574 279.646L238.613 280.322L238.967 280.652L240.984 280.625L241.299 280.287L241.26 279.611ZM246.959 277.849L248.736 277.826L249.391 277.087L250.739 278.032L249.723 279.166L245.834 279.216L244.59 278.058L244.312 273.254L245.419 272.064L249.042 272.017L250.286 273.175L250.464 276.246L246.445 276.299L246.51 277.432L246.959 277.849ZM246.373 275.057L248.444 275.03L248.373 273.801L247.931 273.384L246.701 273.4L246.301 273.829L246.373 275.057ZM251.853 278.018L253.089 277.038L253.828 277.76L255.722 277.735L256.101 277.32L256.058 276.569L255.631 276.165L253.238 276.196L251.988 275.038L251.878 273.155L252.993 271.965L256.588 271.918L257.638 272.908L256.52 273.934L255.73 273.282L254.274 273.301L253.875 273.729L253.912 274.371L254.346 274.768L256.738 274.737L257.982 275.895L258.097 277.881L256.989 279.07L252.998 279.123L251.853 278.018Z" fill="white"/>
<defs>
<filter id="filter0_i_611_13151" x="209.955" y="86.0107" width="118.899" height="15.805" filterUnits="userSpaceOnUse" color-interpolation-filters="sRGB">
<feFlood flood-opacity="0" result="BackgroundImageFix"/>
<feBlend mode="normal" in="SourceGraphic" in2="BackgroundImageFix" result="shape"/>
<feColorMatrix in="SourceAlpha" type="matrix" values="0 0 0 0 0 0 0 0 0 0 0 0 0 0 0 0 0 0 127 0" result="hardAlpha"/>
<feOffset/>
<feGaussianBlur stdDeviation="18.5"/>
<feComposite in2="hardAlpha" operator="arithmetic" k2="-1" k3="1"/>
<feColorMatrix type="matrix" values="0 0 0 0 0.105882 0 0 0 0 0.862745 0 0 0 0 0.466667 0 0 0 0.76 0"/>
<feBlend mode="normal" in2="shape" result="effect1_innerShadow_611_13151"/>
</filter>
<filter id="filter1_i_611_13151" x="378.881" y="376.532" width="18.1838" height="24.1973" filterUnits="userSpaceOnUse" color-interpolation-filters="sRGB">
<feFlood flood-opacity="0" result="BackgroundImageFix"/>
<feBlend mode="normal" in="SourceGraphic" in2="BackgroundImageFix" result="shape"/>
<feColorMatrix in="SourceAlpha" type="matrix" values="0 0 0 0 0 0 0 0 0 0 0 0 0 0 0 0 0 0 127 0" result="hardAlpha"/>
<feOffset/>
<feGaussianBlur stdDeviation="7"/>
<feComposite in2="hardAlpha" operator="arithmetic" k2="-1" k3="1"/>
<feColorMatrix type="matrix" values="0 0 0 0 0 0 0 0 0 0.549525 0 0 0 0 0.575 0 0 0 1 0"/>
<feBlend mode="normal" in2="shape" result="effect1_innerShadow_611_13151"/>
</filter>
<filter id="filter2_f_611_13151" x="-26.5173" y="-32.6142" width="388.135" height="387.793" filterUnits="userSpaceOnUse" color-interpolation-filters="sRGB">
<feFlood flood-opacity="0" result="BackgroundImageFix"/>
<feBlend mode="normal" in="SourceGraphic" in2="BackgroundImageFix" result="shape"/>
<feGaussianBlur stdDeviation="45" result="effect1_foregroundBlur_611_13151"/>
</filter>
<filter id="filter3_f_611_13151" x="148.961" y="431.856" width="388.135" height="387.793" filterUnits="userSpaceOnUse" color-interpolation-filters="sRGB">
<feFlood flood-opacity="0" result="BackgroundImageFix"/>
<feBlend mode="normal" in="SourceGraphic" in2="BackgroundImageFix" result="shape"/>
<feGaussianBlur stdDeviation="45" result="effect1_foregroundBlur_611_13151"/>
</filter>
<linearGradient id="paint0_linear_611_13151" x1="125.242" y1="392.045" x2="172.236" y2="386.857" gradientUnits="userSpaceOnUse">
<stop stop-color="#1E2A50"/>
<stop offset="1" stop-color="#161B2E"/>
</linearGradient>
<linearGradient id="paint1_linear_611_13151" x1="116.257" y1="389.479" x2="471.729" y2="389.479" gradientUnits="userSpaceOnUse">
<stop stop-color="#161B2E"/>
<stop offset="0.96" stop-color="#232A45"/>
</linearGradient>
<radialGradient id="paint2_radial_611_13151" cx="0" cy="0" r="1" gradientUnits="userSpaceOnUse" gradientTransform="translate(492.28 -50.0703) rotate(69.2021) scale(366.378 489.685)">
<stop stop-color="white" stop-opacity="0"/>
<stop offset="0.1875" stop-color="#F7F4FC" stop-opacity="0"/>
<stop offset="0.28" stop-color="#F3EFFA" stop-opacity="0"/>
<stop offset="0.3" stop-color="#F3F0FA" stop-opacity="0"/>
<stop offset="0.38" stop-color="#1BDC77" stop-opacity="0.04"/>
<stop offset="0.5" stop-color="#1BDC77" stop-opacity="0.13"/>
<stop offset="0.57" stop-color="#1BDC77" stop-opacity="0.21"/>
<stop offset="0.64" stop-color="#1BDC77" stop-opacity="0.29"/>
<stop offset="0.833333" stop-color="#1BDC77" stop-opacity="0.69"/>
<stop offset="1" stop-color="#1BDC77"/>
</radialGradient>
<linearGradient id="paint3_linear_611_13151" x1="419.237" y1="406.958" x2="474.629" y2="661.439" gradientUnits="userSpaceOnUse">
<stop stop-color="white" stop-opacity="0"/>
<stop offset="0.1875" stop-color="#F7F4FC" stop-opacity="0"/>
<stop offset="0.28" stop-color="#F3EFFA" stop-opacity="0"/>
<stop offset="0.3" stop-color="#F3F0FA" stop-opacity="0"/>
<stop offset="0.38" stop-color="#1BDC77" stop-opacity="0.04"/>
<stop offset="0.5" stop-color="#1BDC77" stop-opacity="0.13"/>
<stop offset="0.57" stop-color="#1BDC77" stop-opacity="0.21"/>
<stop offset="0.64" stop-color="#1BDC77" stop-opacity="0.29"/>
<stop offset="0.833333" stop-color="#1BDC77" stop-opacity="0.69"/>
<stop offset="1" stop-color="#1BDC77"/>
</linearGradient>
<radialGradient id="paint4_radial_611_13151" cx="0" cy="0" r="1" gradientUnits="userSpaceOnUse" gradientTransform="translate(21814 13633.9) scale(628.173 530.64)">
<stop stop-color="#02689B"/>
<stop offset="0.15" stop-color="#024F75"/>
<stop offset="0.34" stop-color="#01334B"/>
<stop offset="0.52" stop-color="#011D2B"/>
<stop offset="0.7" stop-color="#000D13"/>
<stop offset="0.86" stop-color="#000305"/>
<stop offset="1"/>
</radialGradient>
</defs>
</svg>
