<svg width="712" height="701" viewBox="0 0 712 701" fill="none" xmlns="http://www.w3.org/2000/svg">
<path d="M569.881 688.092L576.046 690.979C590.617 690.979 613.725 674.458 614.457 658.82L619.458 540.071L622.368 471.144L638.492 88.468C638.513 70.5035 616.527 51.4407 596.351 56.5888L581.974 483.4L580.616 523.83L575.011 689.902L569.881 688.092Z" fill="#202E58"/>
<path d="M591.5 676.073L616.742 70.6112C616.853 67.8947 616.25 65.1965 614.993 62.7855C613.736 60.3746 611.868 58.3351 609.576 56.8706C607.283 55.406 604.647 54.5676 601.929 54.4387C599.212 54.3099 596.508 54.8953 594.087 56.1364L200.034 258.611C197.659 259.83 195.639 261.64 194.167 263.866C192.695 266.091 191.82 268.658 191.627 271.319L170.18 568.267C169.92 571.862 170.92 575.436 173.008 578.376C175.096 581.316 178.143 583.438 181.626 584.378L571.777 690.462C574.041 691.087 576.416 691.193 578.726 690.771C581.036 690.35 583.221 689.413 585.118 688.029C587.014 686.646 588.573 684.852 589.679 682.781C590.784 680.711 591.407 678.418 591.5 676.073Z" fill="#101420"/>
<path d="M561.539 667.716L178.393 565.488L200.12 267.98L593.656 71.451L561.539 667.716Z" fill="#2B3661"/>
<path d="M561.539 667.715L185.83 568.611L207.536 271.082L593.269 78.473L561.539 667.715Z" fill="#161B2E"/>
<path d="M578.913 106.432L362.174 216.199L343.248 593.468L548.045 647.469L578.913 106.432Z" fill="#21305C"/>
<path d="M346.265 223.952L216.394 286.009L208.376 394.375L337.126 381.775L346.265 223.952Z" fill="#21305C"/>
<path d="M325.228 587.803L197.168 560.426L207.191 403.164L337.126 390.843L325.228 587.803Z" fill="#21305C"/>
<path d="M593.269 78.473L591.221 116.491L206.113 290.554L207.536 271.082L593.269 78.473Z" fill="url(#paint0_linear_611_13231)"/>
<g style="mix-blend-mode:multiply" opacity="0.88">
<g style="mix-blend-mode:multiply" opacity="0.88">
<path d="M335.962 220.14L206.07 282.218L198.676 387.074L326.801 377.962L335.962 220.14Z" fill="#21305C"/>
</g>
</g>
<path d="M294.812 200.841L164.92 262.918L156.988 375.292L285.651 358.663L294.812 200.841Z" fill="url(#paint1_linear_611_13231)"/>
<path d="M289.553 206.721L288.433 229.553L166.516 279.762L167.96 263.93L289.553 206.721Z" fill="#101420"/>
<path d="M294.813 200.841L296.408 202.176L289.553 358.469L285.652 358.663L294.813 200.841Z" fill="#2B3661"/>
<g style="mix-blend-mode:color-dodge">
<path style="mix-blend-mode:color-dodge" d="M266.101 169.026L135.368 243.231L127.673 352.265L256.962 326.848L266.101 169.026Z" fill="url(#paint2_linear_611_13231)" fill-opacity="0.5"/>
</g>
<g style="mix-blend-mode:soft-light" opacity="0.5">
<g style="mix-blend-mode:soft-light" opacity="0.5">
<path d="M260.863 174.907L259.72 197.718L136.962 257.275L138.234 243.231L260.863 174.907Z" fill="#58FFFE"/>
</g>
</g>
<path d="M266.101 169.026L267.868 170.189L260.863 328.959L256.961 326.848L266.101 169.026Z" fill="#1BDC77"/>
<path d="M127.672 352.265L256.961 326.849L260.863 328.959L128.685 353.084L127.672 352.265Z" fill="#1BDC77"/>
<path d="M137.826 248.444L260.411 183.695L260.605 179.775L138.02 245.622L137.826 248.444Z" fill="#1BDC77"/>
<path d="M134.743 294.259L257.005 247.496L257.22 243.576L134.937 291.437L134.743 294.259Z" fill="#1BDC77"/>
<path d="M136.619 266.429L259.074 208.745L259.268 204.825L136.813 263.629L136.619 266.429Z" fill="#1BDC77"/>
<path d="M224.844 214.518L259.678 197.2L259.893 193.279L225.038 210.921L224.844 214.518Z" fill="#1BDC77"/>
<path d="M247.672 241.701L257.523 237.717L257.738 233.796L247.866 237.889L247.672 241.701Z" fill="#1BDC77"/>
<path d="M173.607 272.029L183.48 268.044L183.674 264.813L173.801 268.884L173.607 272.029Z" fill="#1BDC77"/>
<path d="M169.059 242.282L223.723 215.078L223.939 211.502L169.253 239.181L169.059 242.282Z" fill="#1BDC77"/>
<path d="M172.012 265.395L226.612 242.176L226.828 238.535L172.206 262.251L172.012 265.395Z" fill="#1BDC77"/>
<path d="M188.911 265.503L243.489 243.403L243.705 239.612L189.105 262.208L188.911 265.503Z" fill="#1BDC77"/>
<path d="M136.187 272.676L190.83 248.034L191.024 244.739L136.381 269.876L136.187 272.676Z" fill="#1BDC77"/>
<path d="M134.204 302.035L256.422 258.33L256.638 254.432L134.398 299.234L134.204 302.035Z" fill="#1BDC77"/>
<path d="M131.1 347.85L253.039 322.131L253.254 318.233L131.294 345.05L131.1 347.85Z" fill="#1BDC77"/>
<path d="M132.997 320.042L255.087 283.403L255.302 279.482L133.191 317.22L132.997 320.042Z" fill="#1BDC77"/>
<path d="M220.965 283.187L255.712 271.835L255.927 267.937L221.18 279.59L220.965 283.187Z" fill="#1BDC77"/>
<path d="M243.727 314.657L253.556 312.374L253.772 308.453L243.921 310.844L243.727 314.657Z" fill="#1BDC77"/>
<path d="M169.878 332.254L179.707 329.971L179.901 326.719L170.072 329.088L169.878 332.254Z" fill="#1BDC77"/>
<path d="M165.33 301.366L219.865 283.553L220.059 279.977L165.524 298.264L165.33 301.366Z" fill="#1BDC77"/>
<path d="M168.261 325.254L222.732 311.425L222.926 307.785L168.455 322.109L168.261 325.254Z" fill="#1BDC77"/>
<path d="M185.118 328.335L239.567 315.626L239.761 311.857L185.312 325.039L185.118 328.335Z" fill="#1BDC77"/>
<path d="M132.566 326.288L187.058 311.037L187.252 307.72L132.76 323.487L132.566 326.288Z" fill="#1BDC77"/>
<path d="M257.005 566.543L119.137 537.077L127.543 387.074L268.903 369.583L257.005 566.543Z" fill="#21305C"/>
<path d="M268.903 369.583L271.059 372.707L260.863 564.195L257.005 566.543L268.903 369.583Z" fill="#161B2E"/>
<path d="M370.105 404.198L538.194 393.169L538.388 390.412L370.234 402.087L370.105 404.198Z" fill="white"/>
<path d="M368.187 438.575L535.177 438.252L535.371 435.495L368.317 436.464L368.187 438.575Z" fill="white"/>
<path d="M369.351 417.703L537.008 410.875L537.202 408.118L369.48 415.592L369.351 417.703Z" fill="white"/>
<path d="M489.824 405.21L537.569 402.711L537.741 399.954L489.996 402.625L489.824 405.21Z" fill="white"/>
<path d="M522.157 431.51L535.629 431.337L535.823 428.58L522.351 428.796L522.157 431.51Z" fill="#58FFFE"/>
<path d="M420.976 432.953L434.448 432.803L434.599 430.433L421.106 430.627L420.976 432.953Z" fill="white"/>
<path d="M413.368 409.195L488.294 405.275L488.466 402.711L413.518 406.912L413.368 409.195Z" fill="white"/>
<path d="M418.476 427.482L493.144 425.953L493.316 423.347L418.606 425.199L418.476 427.482Z" fill="white"/>
<path d="M441.863 432.436L516.466 431.574L516.639 428.882L442.014 430.045L441.863 432.436Z" fill="#58FFFE"/>
<path d="M369.093 422.399L443.868 419.986L443.998 417.595L369.201 420.288L369.093 422.399Z" fill="white"/>
<path d="M367.864 444.412L534.659 445.92L534.853 443.163L367.972 442.301L367.864 444.412Z" fill="white"/>
<path d="M365.945 478.79L531.641 491.003L531.814 488.224L366.053 476.679L365.945 478.79Z" fill="white"/>
<path d="M367.11 457.917L533.474 463.625L533.646 460.847L367.218 455.806L367.11 457.917Z" fill="white"/>
<path d="M486.655 454.385L534.013 455.462L534.207 452.705L486.806 451.822L486.655 454.385Z" fill="#58FFFE"/>
<path d="M518.73 483.227L532.095 484.089L532.289 481.332L518.903 480.535L518.73 483.227Z" fill="white"/>
<path d="M418.325 477.11L431.689 477.95L431.84 475.602L418.454 474.783L418.325 477.11Z" fill="white"/>
<path d="M410.78 452.662L485.125 454.342L485.297 451.779L410.931 450.4L410.78 452.662Z" fill="white"/>
<path d="M415.825 471.423L489.932 475.473L490.104 472.888L415.976 469.119L415.825 471.423Z" fill="white"/>
<path d="M439.04 478.165L513.061 482.882L513.255 480.19L439.191 475.774L439.04 478.165Z" fill="white"/>
<path d="M366.851 462.614L441.023 465.801L441.174 463.411L366.958 460.503L366.851 462.614Z" fill="white"/>
<path d="M195.766 475.085L255.367 478.79L259.268 414.085L199.582 416.626L195.766 475.085Z" fill="url(#paint3_linear_611_13231)"/>
<path d="M127.198 470.841L186.799 474.546L190.593 417.013L130.906 419.555L127.198 470.841Z" fill="#2B4697"/>
<path d="M191.153 545.606L250.624 556.806L254.547 492.101L194.968 487.125L191.153 545.606Z" fill="#2B4697"/>
<path d="M122.737 532.704L182.208 543.905L186.002 486.393L126.444 481.418L122.737 532.704Z" fill="url(#paint4_linear_611_13231)"/>
<path d="M146.275 532.554L177.961 538.262L178.478 530.443L146.792 525.208L146.275 532.554Z" fill="#2B4697"/>
<path d="M211.458 471.617L243.209 473.341L243.748 464.638L211.997 463.368L211.458 471.617Z" fill="#2B4697"/>
<path d="M130.216 529.688L142.654 531.907L143.171 524.605L130.733 522.537L130.216 529.688Z" fill="#58FFFE"/>
<path d="M134.355 431.553L185.118 430.627L185.743 421.494L134.958 423.26L134.355 431.553Z" fill="url(#paint5_linear_611_13231)"/>
<path d="M208.937 511.164L237.67 514.697L238.446 502.074L209.691 499.123L208.937 511.164Z" fill="url(#paint6_linear_611_13231)"/>
<g style="mix-blend-mode:color-dodge" opacity="0.8" filter="url(#filter0_f_611_13231)">
<g style="mix-blend-mode:color-dodge" opacity="0.8">
<path d="M542.102 281.206C490.582 265.426 461.617 210.9 477.408 159.417C493.199 107.934 547.765 78.99 599.285 94.77C650.805 110.549 679.769 165.076 663.979 216.558C648.188 268.041 593.622 296.985 542.102 281.206Z" fill="#2D3D79"/>
</g>
</g>
<g style="mix-blend-mode:color-dodge" opacity="0.5" filter="url(#filter1_f_611_13231)">
<g style="mix-blend-mode:color-dodge" opacity="0.5">
<path d="M318.81 605.878C267.29 590.099 238.326 535.573 254.116 484.09C269.907 432.607 324.473 403.663 375.993 419.442C427.513 435.222 456.477 489.748 440.687 541.231C424.896 592.714 370.33 621.658 318.81 605.878Z" fill="#404E84"/>
</g>
</g>
<path d="M158.48 391.988L139.347 394.371L138.943 400.17L158.424 398.106L158.48 391.988Z" fill="white"/>
<path d="M563.802 147.896L372.713 231.492L365.945 380.741L551.17 361.075L563.802 147.896Z" fill="#161B2E"/>
<path d="M563.574 373.21L563.751 375.141L353.391 394.419L353.214 392.489L563.574 373.21Z" fill="#197DE5"/>
<path d="M474.045 506.597L407.784 500.394C405.812 500.211 403.823 500.428 401.937 501.032C400.051 501.635 398.306 502.612 396.807 503.906C395.307 505.199 394.084 506.781 393.211 508.557C392.338 510.334 391.833 512.268 391.725 514.244C391.539 517.828 392.67 521.356 394.905 524.164C397.14 526.973 400.325 528.868 403.861 529.494L469.691 541.083C471.713 541.444 473.789 541.377 475.784 540.888C477.779 540.398 479.649 539.496 481.274 538.24C482.899 536.984 484.242 535.401 485.217 533.594C486.192 531.787 486.778 529.796 486.935 527.749L487.345 522.364C487.639 518.519 486.41 514.712 483.922 511.763C481.435 508.814 477.888 506.959 474.045 506.597Z" fill="#008C93"/>
<g style="mix-blend-mode:multiply" opacity="0.88">
<g style="mix-blend-mode:multiply" opacity="0.88">
<path d="M458.763 501.644L394.355 495.591C392.26 495.396 390.147 495.626 388.142 496.267C386.138 496.908 384.283 497.946 382.689 499.319C381.095 500.693 379.795 502.373 378.866 504.26C377.938 506.148 377.399 508.203 377.284 510.303C377.083 514.164 378.324 517.962 380.764 520.963C383.205 523.963 386.673 525.951 390.497 526.544L454.603 536.452C456.728 536.778 458.898 536.663 460.976 536.114C463.055 535.564 464.998 534.591 466.683 533.257C468.369 531.923 469.76 530.255 470.771 528.359C471.782 526.462 472.39 524.378 472.558 522.236L472.86 518.38C473.184 514.299 471.886 510.254 469.247 507.122C466.609 503.99 462.842 502.021 458.763 501.644Z" fill="#008C93"/>
</g>
</g>
<path d="M447.619 493.61L382.78 489.302C380.739 489.171 378.693 489.445 376.759 490.111C374.825 490.776 373.043 491.817 371.515 493.176C369.988 494.534 368.745 496.182 367.859 498.024C366.973 499.866 366.462 501.865 366.355 503.906C366.149 507.788 367.418 511.605 369.908 514.593C372.398 517.58 375.925 519.518 379.784 520.017L444.299 528.396C446.377 528.666 448.488 528.51 450.504 527.938C452.52 527.367 454.399 526.391 456.026 525.072C457.653 523.752 458.995 522.116 459.969 520.262C460.943 518.408 461.53 516.375 461.694 514.288L462.017 510.131C462.164 508.1 461.907 506.06 461.262 504.129C460.616 502.197 459.595 500.413 458.257 498.877C456.919 497.342 455.29 496.086 453.464 495.182C451.638 494.278 449.652 493.743 447.619 493.61Z" fill="white"/>
<path d="M441.325 493.179L380.495 489.495C378.533 489.484 376.588 489.864 374.774 490.614C372.961 491.365 371.316 492.47 369.937 493.864C368.557 495.259 367.47 496.916 366.74 498.736C366.011 500.557 365.652 502.505 365.687 504.466C365.468 508.222 366.662 511.924 369.035 514.846C371.408 517.767 374.789 519.696 378.512 520.254L438.328 527.147C446.455 528.095 453.633 521.46 454.042 512.629L454.236 508.472C454.624 499.899 449.279 493.545 441.325 493.179Z" fill="#D4BDF0"/>
<path style="mix-blend-mode:color-dodge" d="M396.804 536.455C367.703 533.173 345.686 516.578 347.627 499.39C349.569 482.203 374.733 470.93 403.834 474.212C432.935 477.495 454.952 494.089 453.01 511.277C451.069 528.465 425.904 539.737 396.804 536.455Z" fill="url(#paint7_radial_611_13231)"/>
<path d="M91.5029 543.237L113.77 551.917L115.494 521.288L93.7879 517.54L91.5029 543.237Z" fill="#A92FE5"/>
<path d="M96.6328 539.446C97.1718 540.372 98.1418 540.717 98.7888 540.2L110.364 529.624C110.687 529.21 110.876 528.709 110.907 528.186C110.938 527.663 110.808 527.142 110.537 526.694C109.998 525.768 109.028 525.553 108.381 526.22L96.8058 536.796C96.4848 537.155 96.2938 537.611 96.2628 538.091C96.2308 538.572 96.3618 539.048 96.6328 539.446Z" fill="white"/>
<path d="M97.8828 523.916C97.5608 524.268 97.3648 524.718 97.3258 525.193C97.2868 525.669 97.4068 526.144 97.6678 526.544L107.303 543.13C107.863 544.12 108.833 544.465 109.459 543.883C109.79 543.475 109.987 542.974 110.022 542.449C110.056 541.925 109.927 541.402 109.653 540.954L100.017 524.39C99.9278 524.199 99.7958 524.031 99.6308 523.899C99.4658 523.767 99.2728 523.674 99.0668 523.628C98.8608 523.582 98.6468 523.585 98.4418 523.635C98.2358 523.684 98.0448 523.781 97.8828 523.916Z" fill="white"/>
<g style="mix-blend-mode:soft-light">
<g style="mix-blend-mode:soft-light" opacity="0.5">
<g style="mix-blend-mode:soft-light" opacity="0.5">
<path d="M565.374 147.646L565.267 149.197L371.786 232.276L371.851 231.177L565.374 147.646Z" fill="#1BDC77"/>
</g>
</g>
<g style="mix-blend-mode:multiply" opacity="0.5">
<g style="mix-blend-mode:multiply" opacity="0.5">
<path d="M564.9 154.345L371.635 235.873L371.678 234.796L565.008 152.816L564.9 154.345Z" fill="#1BDC77"/>
</g>
</g>
<g style="mix-blend-mode:multiply" opacity="0.5">
<g style="mix-blend-mode:multiply" opacity="0.5">
<path d="M564.534 159.514L371.463 239.492L371.527 238.415L564.642 157.964L564.534 159.514Z" fill="#1BDC77"/>
</g>
</g>
<g style="mix-blend-mode:multiply" opacity="0.5">
<g style="mix-blend-mode:multiply" opacity="0.5">
<path d="M564.168 164.662L371.312 243.11L371.355 242.012L564.275 163.111L564.168 164.662Z" fill="#1BDC77"/>
</g>
</g>
<g style="mix-blend-mode:multiply" opacity="0.5">
<g style="mix-blend-mode:multiply" opacity="0.5">
<path d="M563.801 169.811L371.14 246.708L371.183 245.631L563.909 168.281L563.801 169.811Z" fill="#1BDC77"/>
</g>
</g>
<g style="mix-blend-mode:soft-light" opacity="0.5">
<g style="mix-blend-mode:soft-light" opacity="0.5">
<path d="M563.435 174.98L370.967 250.326L371.032 249.249L563.543 173.429L563.435 174.98Z" fill="#1BDC77"/>
</g>
</g>
<g style="mix-blend-mode:multiply" opacity="0.5">
<g style="mix-blend-mode:multiply" opacity="0.5">
<path d="M563.069 180.128L370.816 253.924L370.86 252.847L563.176 178.578L563.069 180.128Z" fill="#1BDC77"/>
</g>
</g>
<g style="mix-blend-mode:multiply" opacity="0.5">
<g style="mix-blend-mode:multiply" opacity="0.5">
<path d="M562.701 185.297L370.643 257.542L370.708 256.465L562.809 183.746L562.701 185.297Z" fill="#1BDC77"/>
</g>
</g>
<g style="mix-blend-mode:soft-light" opacity="0.5">
<g style="mix-blend-mode:soft-light" opacity="0.5">
<path d="M562.335 190.446L370.493 261.161L370.536 260.084L562.465 188.895L562.335 190.446Z" fill="#1BDC77"/>
</g>
</g>
<g style="mix-blend-mode:multiply" opacity="0.5">
<g style="mix-blend-mode:multiply" opacity="0.5">
<path d="M561.991 195.593L370.321 264.758L370.364 263.681L562.098 194.064L561.991 195.593Z" fill="#1BDC77"/>
</g>
</g>
<g style="mix-blend-mode:multiply" opacity="0.5">
<g style="mix-blend-mode:multiply" opacity="0.5">
<path d="M561.623 200.764L370.147 268.377L370.212 267.3L561.731 199.213L561.623 200.764Z" fill="#1BDC77"/>
</g>
</g>
<g style="mix-blend-mode:multiply" opacity="0.5">
<g style="mix-blend-mode:multiply" opacity="0.5">
<path d="M561.257 205.911L369.996 271.995L370.039 270.897L561.365 204.36L561.257 205.911Z" fill="#1BDC77"/>
</g>
</g>
<g style="mix-blend-mode:multiply" opacity="0.5">
<g style="mix-blend-mode:multiply" opacity="0.5">
<path d="M560.891 211.081L369.824 275.593L369.889 274.516L560.998 209.53L560.891 211.081Z" fill="#1BDC77"/>
</g>
</g>
<g style="mix-blend-mode:multiply" opacity="0.5">
<g style="mix-blend-mode:multiply" opacity="0.5">
<path d="M560.524 216.229L369.673 279.211L369.716 278.134L560.632 214.678L560.524 216.229Z" fill="#1BDC77"/>
</g>
</g>
<g style="mix-blend-mode:multiply" opacity="0.5">
<g style="mix-blend-mode:multiply" opacity="0.5">
<path d="M560.158 221.376L369.501 282.829L369.544 281.731L560.266 219.826L560.158 221.376Z" fill="#1BDC77"/>
</g>
</g>
<g style="mix-blend-mode:multiply" opacity="0.5">
<g style="mix-blend-mode:multiply" opacity="0.5">
<path d="M559.792 226.546L369.35 286.427L369.393 285.35L559.899 224.996L559.792 226.546Z" fill="#1BDC77"/>
</g>
</g>
<g style="mix-blend-mode:multiply" opacity="0.5">
<g style="mix-blend-mode:multiply" opacity="0.5">
<path d="M559.425 231.694L369.178 290.045L369.221 288.968L559.533 230.143L559.425 231.694Z" fill="#1BDC77"/>
</g>
</g>
<g style="mix-blend-mode:multiply" opacity="0.5">
<g style="mix-blend-mode:multiply" opacity="0.5">
<path d="M559.059 236.843L369.005 293.665L369.07 292.566L559.167 235.313L559.059 236.843Z" fill="#1BDC77"/>
</g>
</g>
<g style="mix-blend-mode:multiply" opacity="0.5">
<g style="mix-blend-mode:multiply" opacity="0.5">
<path d="M558.692 242.012L368.855 297.261L368.898 296.184L558.8 240.461L558.692 242.012Z" fill="#1BDC77"/>
</g>
</g>
<g style="mix-blend-mode:multiply">
<g style="mix-blend-mode:multiply">
<path d="M558.326 247.16L368.682 300.881L368.725 299.804L558.455 245.609L558.326 247.16Z" fill="#1BDC77"/>
</g>
</g>
<g style="mix-blend-mode:multiply" opacity="0.5">
<g style="mix-blend-mode:multiply" opacity="0.5">
<path d="M557.981 252.308L368.531 304.477L368.574 303.4L558.089 250.778L557.981 252.308Z" fill="#1BDC77"/>
</g>
</g>
<g style="mix-blend-mode:multiply" opacity="0.5">
<g style="mix-blend-mode:multiply" opacity="0.5">
<path d="M557.701 256.077L557.593 257.628L368.359 308.203L368.402 307.126L557.701 256.077Z" fill="#1BDC77"/>
</g>
</g>
<g style="mix-blend-mode:multiply" opacity="0.5">
<g style="mix-blend-mode:multiply" opacity="0.5">
<path d="M557.226 262.798L368.186 311.823L368.229 310.746L557.334 261.247L557.226 262.798Z" fill="#1BDC77"/>
</g>
</g>
<g style="mix-blend-mode:multiply" opacity="0.5">
<g style="mix-blend-mode:multiply" opacity="0.5">
<path d="M556.86 267.946L368.013 315.441L368.078 314.342L556.967 266.395L556.86 267.946Z" fill="#1BDC77"/>
</g>
</g>
<g style="mix-blend-mode:multiply" opacity="0.5">
<g style="mix-blend-mode:multiply" opacity="0.5">
<path d="M556.515 273.094L367.862 319.038L367.906 317.961L556.601 271.565L556.515 273.094Z" fill="#1BDC77"/>
</g>
</g>
<g style="mix-blend-mode:multiply" opacity="0.5">
<g style="mix-blend-mode:multiply" opacity="0.5">
<path d="M556.148 278.263L367.69 322.657L367.733 321.58L556.256 276.712L556.148 278.263Z" fill="#1BDC77"/>
</g>
</g>
<g style="mix-blend-mode:multiply" opacity="0.5">
<g style="mix-blend-mode:multiply" opacity="0.5">
<path d="M555.782 283.411L367.539 326.253L367.582 325.177L555.89 281.86L555.782 283.411Z" fill="#1BDC77"/>
</g>
</g>
<g style="mix-blend-mode:soft-light">
<g style="mix-blend-mode:soft-light">
<path d="M555.416 288.559L367.367 329.873L367.41 328.796L555.523 287.03L555.416 288.559Z" fill="#1BDC77"/>
</g>
</g>
<g style="mix-blend-mode:multiply" opacity="0.5">
<g style="mix-blend-mode:multiply" opacity="0.5">
<path d="M555.049 293.728L367.194 333.491L367.259 332.392L555.157 292.178L555.049 293.728Z" fill="#1BDC77"/>
</g>
</g>
<g style="mix-blend-mode:multiply" opacity="0.5">
<g style="mix-blend-mode:multiply" opacity="0.5">
<path d="M554.683 298.877L367.044 337.089L367.087 336.012L554.791 297.326L554.683 298.877Z" fill="#1BDC77"/>
</g>
</g>
<g style="mix-blend-mode:multiply" opacity="0.5">
<g style="mix-blend-mode:multiply" opacity="0.5">
<path d="M554.317 304.046L366.871 340.707L366.914 339.63L554.424 302.495L554.317 304.046Z" fill="#1BDC77"/>
</g>
</g>
<g style="mix-blend-mode:multiply" opacity="0.5">
<g style="mix-blend-mode:multiply" opacity="0.5">
<path d="M553.95 309.195L366.72 344.326L366.764 343.228L554.058 307.644L553.95 309.195Z" fill="#1BDC77"/>
</g>
</g>
<g style="mix-blend-mode:multiply" opacity="0.5">
<g style="mix-blend-mode:multiply" opacity="0.5">
<path d="M553.584 314.342L366.548 347.923L366.591 346.846L553.692 312.792L553.584 314.342Z" fill="#1BDC77"/>
</g>
</g>
<g style="mix-blend-mode:multiply">
<g style="mix-blend-mode:multiply">
<path d="M553.217 319.512L366.376 351.542L366.44 350.465L553.325 317.962L553.217 319.512Z" fill="#1BDC77"/>
</g>
</g>
<g style="mix-blend-mode:multiply" opacity="0.5">
<g style="mix-blend-mode:multiply" opacity="0.5">
<path d="M552.851 324.66L366.225 355.16L366.268 354.062L552.959 323.109L552.851 324.66Z" fill="#1BDC77"/>
</g>
</g>
<g style="mix-blend-mode:multiply" opacity="0.5">
<g style="mix-blend-mode:multiply" opacity="0.5">
<path d="M552.506 329.83L366.052 358.758L366.117 357.681L552.614 328.279L552.506 329.83Z" fill="#1BDC77"/>
</g>
</g>
<g style="mix-blend-mode:multiply" opacity="0.5">
<g style="mix-blend-mode:multiply" opacity="0.5">
<path d="M552.14 334.978L365.901 362.376L365.945 361.299L552.247 333.427L552.14 334.978Z" fill="#1BDC77"/>
</g>
</g>
<g style="mix-blend-mode:multiply" opacity="0.5">
<g style="mix-blend-mode:multiply" opacity="0.5">
<path d="M551.773 340.125L365.729 365.973L365.772 364.896L551.881 338.574L551.773 340.125Z" fill="#1BDC77"/>
</g>
</g>
<g style="mix-blend-mode:multiply" opacity="0.5">
<g style="mix-blend-mode:multiply" opacity="0.5">
<path d="M551.407 345.295L365.557 369.592L365.621 368.515L551.515 343.744L551.407 345.295Z" fill="#1BDC77"/>
</g>
</g>
<g style="mix-blend-mode:multiply" opacity="0.5">
<g style="mix-blend-mode:multiply" opacity="0.5">
<path d="M551.041 350.443L365.406 373.21L365.449 372.112L551.148 348.892L551.041 350.443Z" fill="#1BDC77"/>
</g>
</g>
<g style="mix-blend-mode:multiply" opacity="0.5">
<g style="mix-blend-mode:multiply" opacity="0.5">
<path d="M550.674 355.591L365.234 376.808L365.298 375.731L550.782 354.062L550.674 355.591Z" fill="#1BDC77"/>
</g>
</g>
<g style="mix-blend-mode:multiply" opacity="0.5">
<g style="mix-blend-mode:multiply" opacity="0.5">
<path d="M550.307 360.76L365.082 380.426L365.125 379.349L550.415 359.21L550.307 360.76Z" fill="#1BDC77"/>
</g>
</g>
</g>
<path d="M347.235 670.043V641.459L270.089 616.624V638.465L347.235 670.043ZM345.317 642.859V667.156L272.029 637.151V619.252L345.317 642.859Z" fill="white"/>
<path style="mix-blend-mode:color-dodge" d="M271.748 638.982C269.032 647.318 280.478 658.54 297.335 664.011C314.191 669.483 330.034 667.199 332.75 658.863C335.466 650.527 324.02 639.327 307.185 633.834C290.351 628.341 274.464 630.646 271.748 638.982Z" fill="url(#paint8_radial_611_13231)"/>
<path d="M283.216 639.155C283.406 639.21 283.608 639.21 283.798 639.155C284.005 639.008 284.145 638.786 284.189 638.536C284.234 638.286 284.178 638.029 284.035 637.82L278.021 629.204L284.488 626.145C284.617 626.101 284.735 626.03 284.835 625.938C284.934 625.845 285.013 625.732 285.066 625.607C285.12 625.481 285.146 625.346 285.143 625.21C285.141 625.074 285.109 624.94 285.052 624.817C284.994 624.693 284.911 624.584 284.807 624.495C284.704 624.406 284.584 624.339 284.453 624.3C284.323 624.261 284.185 624.25 284.05 624.267C283.915 624.284 283.785 624.33 283.669 624.401L275.047 628.428L282.375 639.005C282.493 639.095 282.631 639.156 282.777 639.182C282.924 639.209 283.074 639.199 283.216 639.155Z" fill="white"/>
<path d="M292.054 643.463C292.238 643.466 292.418 643.414 292.571 643.312C292.788 643.175 292.942 642.957 292.998 642.707C293.055 642.456 293.01 642.194 292.873 641.977L287.096 632.995L293.326 630.173C293.443 630.124 293.55 630.052 293.638 629.96C293.727 629.869 293.795 629.76 293.84 629.641C293.884 629.521 293.904 629.394 293.897 629.267C293.89 629.14 293.857 629.016 293.8 628.902C293.752 628.771 293.676 628.651 293.578 628.552C293.479 628.452 293.36 628.375 293.229 628.326C293.098 628.277 292.958 628.257 292.818 628.267C292.679 628.277 292.543 628.318 292.42 628.385L284.165 632.111L291.127 642.881C291.202 643.062 291.332 643.215 291.498 643.319C291.664 643.423 291.858 643.474 292.054 643.463Z" fill="white"/>
<path d="M321.498 577.68L324.085 536.905L288.561 533.286L285.436 570.787L321.498 577.68ZM322.037 538.628L319.709 575.375L287.505 569.215L290.307 535.397L322.037 538.628Z" fill="white"/>
<path d="M309.816 542.418L307.876 567.943L294.684 553.662L309.816 542.418Z" fill="white"/>
<path style="mix-blend-mode:color-dodge" d="M304.187 551.326C286.483 550.727 272.371 543.138 272.668 534.375C272.965 525.613 287.558 518.995 305.262 519.595C322.966 520.194 337.077 527.783 336.78 536.545C336.483 545.308 321.891 551.925 304.187 551.326Z" fill="url(#paint9_radial_611_13231)"/>
<path d="M479.801 104.579L514.289 86.206L514.893 46.0769L480.749 68.5214L479.801 104.579ZM512.5 85.042L481.827 101.305L482.754 69.5768L512.931 49.6741L512.5 85.042Z" fill="white"/>
<path style="mix-blend-mode:color-dodge" d="M495.354 101.615C477.65 101.016 463.728 87.856 464.258 72.221C464.788 56.5869 479.569 44.3985 497.273 44.9977C514.977 45.597 528.9 58.757 528.37 74.391C527.84 90.026 513.058 102.214 495.354 101.615Z" fill="url(#paint10_radial_611_13231)"/>
<path d="M485.017 96.3509L508.857 82.8669L509.633 56.3083L485.017 72.0759V96.3509ZM506.96 81.7249L486.935 93.0339V73.0659L507.585 59.8408L506.96 81.7249Z" fill="white"/>
<path d="M494.372 81.554L509.418 58.5706L507.801 57.5151L493.984 78.603L486.612 71.839L485.319 73.261L494.372 81.554Z" fill="white"/>
<path d="M352.296 224.493L354.233 224.606L331.944 606.245L330.007 606.132L352.296 224.493Z" fill="#161B2E"/>
<path d="M257.932 567.706L269.981 368.484L126.681 386.211L118.124 537.916L257.932 567.706ZM267.912 370.681L256.143 565.358L120.193 536.301L128.513 387.913L267.912 370.681Z" fill="white"/>
<path d="M129.656 353.149L136.295 243.813L266.575 169.845L265.627 168.186L134.441 242.671L127.737 353.019L129.656 353.149Z" fill="#1BDC77"/>
<path d="M125.56 263.413L146.232 252.449L147.762 224.512L126.401 241.335L125.56 263.413Z" fill="#10141F"/>
<path d="M130.108 256.219C130.647 256.52 131.552 256.003 132.156 255.012L142.934 236.273C143.559 235.131 143.623 233.946 143.084 233.645C142.546 233.343 141.597 234.033 140.929 235.174L130.151 253.914C129.612 254.905 129.569 255.917 130.108 256.219Z" fill="white"/>
<path d="M130.755 242.692C130.152 243.748 130.109 244.846 130.755 244.975L140.304 250.339C140.843 250.727 141.749 250.188 142.46 249.133C143.063 248.077 143.107 246.979 142.589 246.505L133.019 241.141C132.221 240.926 131.294 241.615 130.755 242.692Z" fill="white"/>
<path d="M283.582 350.929L288.346 249.542L284.186 252.148L279.508 351.856L283.582 350.929Z" fill="white"/>
<path d="M195.098 365.34L195.314 353.816L162.614 359.395L161.731 369.583L195.098 365.34Z" fill="#1B2138"/>
<path d="M243.318 381.99C248.793 381.99 253.233 388.344 253.233 396.185C253.233 404.025 248.793 410.358 243.318 410.358C237.843 410.358 233.381 404.004 233.381 396.185C233.381 388.366 237.821 381.99 243.318 381.99ZM243.318 405.684C247.004 405.684 250 401.376 250 396.142C250 390.907 247.004 386.578 243.318 386.578C239.632 386.578 236.614 390.886 236.614 396.142C236.614 401.397 239.61 405.727 243.318 405.727V405.684Z" fill="white"/>
<path d="M236.777 400.129L236.95 400.501C237.51 401.71 236.983 403.144 235.773 403.704L228.615 407.017C227.405 407.577 225.97 407.051 225.409 405.842L225.237 405.47C224.677 404.261 225.204 402.827 226.413 402.267L233.572 398.954C234.782 398.394 236.217 398.92 236.777 400.129Z" fill="white"/>
<path d="M301.495 199.612L346.309 174.992L347.387 126.916L345.231 126.872L344.196 173.7L300.461 197.717L301.495 199.612Z" fill="white"/>
<path d="M332.298 167.411H334.453V180.528H332.298V167.411Z" fill="white"/>
<path d="M321.154 168.66H323.309V187.055H321.154V168.66Z" fill="white"/>
<path d="M312.38 167.411H314.536V191.815H312.38V167.411Z" fill="white"/>
<path d="M326.176 164.955C330.956 164.972 335.718 164.356 340.337 163.125L339.712 160.971C339.432 160.971 312.488 169.005 298.154 150.33L296.451 151.644C304.685 162.478 316.777 164.955 326.176 164.955Z" fill="white"/>
<path d="M297.206 157.782L297.766 151.04L304.772 152.656L305.267 150.545L295.805 148.391L295.072 157.61L297.206 157.782Z" fill="white"/>
<g style="mix-blend-mode:multiply" opacity="0.88">
<g style="mix-blend-mode:multiply" opacity="0.88">
<path fill-rule="evenodd" clip-rule="evenodd" d="M374.892 497.853C374.892 575.224 413.26 638.098 460.962 639.8H462.579H462.945C465.535 639.79 468.121 639.596 470.683 639.218C473.383 639.597 476.105 639.792 478.831 639.8C524.529 639.8 562.531 589.699 570.506 523.593L580.573 523.765L610.491 524.304C612.453 531.326 615.6 536.905 619.458 540.028L622.368 471.1C618.445 473.254 615.018 477.799 612.518 483.852L581.931 483.314L571.153 471.811C566.346 400.278 527.158 355.755 478.918 355.755C476.17 355.764 473.426 355.958 470.705 356.336C468.163 355.97 465.599 355.776 463.031 355.755H462.665H461.048H461.178C413.325 357.5 374.892 420.417 374.892 497.853Z" fill="#21305C"/>
</g>
</g>
<path d="M381.767 290.402C433.263 290.402 475.016 353.988 475.016 432.414C475.015 441.053 474.496 449.685 473.464 458.262C471.055 479.859 464.806 500.852 455.012 520.253C437.94 553.209 411.47 574.383 381.724 574.383C330.207 574.383 288.454 510.798 288.454 432.371C288.454 353.945 330.25 290.402 381.767 290.402ZM376.486 546.532C415.588 546.532 447.274 495.44 447.274 432.371C447.274 369.303 415.588 318.21 376.486 318.21C337.385 318.21 305.72 369.324 305.72 432.371C305.72 495.418 337.471 546.532 376.486 546.532Z" fill="#101420"/>
<path d="M374.848 546.532H373.102C334.022 546.532 302.336 495.44 302.336 432.371C302.336 369.303 334.022 318.21 373.102 318.21H374.848C336.566 319.718 305.871 370.207 305.871 432.371C305.871 494.535 336.566 544.981 374.848 546.532Z" fill="#1BDC77"/>
<path d="M451.563 520.297C461.367 500.869 467.616 479.846 470.015 458.22C471.047 449.642 471.566 441.011 471.567 432.372C471.567 354.829 430.741 291.846 380.064 290.425C380.646 290.425 381.207 290.425 381.789 290.425C433.284 290.425 475.037 354.01 475.037 432.437C475.036 441.076 474.518 449.707 473.485 458.284C471.076 479.881 464.827 500.874 455.034 520.276C437.962 553.232 411.492 574.405 381.745 574.405H380.474C409.336 573.35 434.923 552.435 451.563 520.297Z" fill="#1BDC77"/>
<g style="mix-blend-mode:screen" filter="url(#filter2_i_611_13231)">
<path style="mix-blend-mode:screen" d="M305.785 432.371C305.785 495.418 337.471 546.532 376.551 546.532C415.631 546.532 447.339 495.44 447.339 432.371C447.339 369.303 415.652 318.21 376.551 318.21C337.45 318.21 305.785 369.389 305.785 432.371Z" fill="url(#paint11_linear_611_13231)" fill-opacity="0.5"/>
</g>
<g style="mix-blend-mode:multiply" opacity="0.5">
<g style="mix-blend-mode:multiply" opacity="0.5">
<path fill-rule="evenodd" clip-rule="evenodd" d="M422.291 515.558L455.012 520.297C464.823 500.87 471.08 479.847 473.485 458.219L457.254 438.08L422.291 515.558Z" fill="#197DE5"/>
</g>
</g>
<path d="M365.881 290.402C414.51 290.402 453.934 353.988 453.934 432.414C453.934 510.841 414.51 574.534 365.881 574.534C317.252 574.534 277.827 510.948 277.827 432.522C277.827 354.096 317.252 290.402 365.881 290.402ZM365.881 550.603C406.362 550.603 439.169 497.68 439.169 432.414C439.169 367.149 406.362 314.225 365.881 314.225C325.4 314.225 292.593 367.149 292.593 432.414C292.593 497.68 325.421 550.603 365.881 550.603Z" fill="url(#paint12_linear_611_13231)"/>
<path d="M363.919 550.539H362.303C321.822 550.539 289.015 497.615 289.015 432.35C289.015 367.084 321.822 314.161 362.303 314.161H363.919C324.193 315.561 292.248 367.881 292.248 432.285C292.248 496.689 324.193 549.139 363.919 550.539Z" fill="#1BDC77"/>
<path d="M450.831 432.522C450.831 354.979 412.268 291.975 364.394 290.575H366.011C414.639 290.575 454.064 354.139 454.064 432.587C454.064 511.035 414.639 574.534 366.011 574.534C365.472 574.534 364.933 574.534 364.394 574.534C412.268 573.069 450.831 510.065 450.831 432.522Z" fill="#1BDC77"/>
<path d="M457.232 438.165C457.534 450.314 462.88 460.028 469.152 459.856C475.425 459.684 480.232 449.711 479.93 437.562C479.628 425.414 474.261 415.699 468.01 415.872C461.759 416.044 456.909 426.017 457.232 438.165Z" fill="#446D90"/>
<path d="M468.094 416.011L551.026 417.501L550.268 459.605L467.337 458.115L468.094 416.011Z" fill="#446D90"/>
<path d="M457.763 439.945C458.065 452.094 463.411 461.808 469.683 461.636C475.956 461.463 480.763 451.49 480.461 439.342C480.159 427.194 474.792 417.479 468.541 417.651C462.29 417.824 457.44 427.797 457.763 439.945Z" fill="#161B2E"/>
<path d="M467.113 417.738L550.058 419.396L549.215 461.506L466.27 459.849L467.113 417.738Z" fill="#161B2E"/>
<path d="M530.714 404.37L694.535 396.336L689.987 494.837L529.4 477.368C518.988 477.174 510.84 460.653 511.207 440.449C511.573 420.245 520.303 404.133 530.714 404.37Z" fill="url(#paint13_linear_611_13231)"/>
<path opacity="0.5" d="M530.866 404.37L694.686 396.336L533.366 406.524C522.933 406.352 514.203 422.571 513.837 442.754C513.578 456.712 517.415 468.925 523.235 475.064C516.036 469.872 511.056 456.324 511.358 440.471C511.725 420.395 520.455 404.176 530.866 404.37Z" fill="#65B1DB"/>
<path d="M668.259 444.994C667.763 472.156 678.714 494.385 692.725 494.535C706.735 494.686 718.591 472.996 718.979 445.834C719.367 418.672 708.525 396.443 694.514 396.292C680.503 396.142 668.733 417.854 668.259 444.994Z" fill="#101420"/>
<path d="M68.6108 567.771C68.6108 618.583 86.8898 661.168 116.744 661.168C146.598 661.168 176.668 618.583 176.668 567.771C176.668 516.959 147.159 474.935 117.326 474.935C87.4938 474.935 68.6108 516.98 68.6108 567.771Z" fill="#1BDC77"/>
<path d="M115.171 659.315C85.326 659.315 61.1313 618.127 61.1313 567.318C61.1313 516.51 85.326 475.322 115.171 475.322C145.016 475.322 169.21 516.51 169.21 567.318C169.21 618.127 145.016 659.315 115.171 659.315Z" fill="#090F1E"/>
<path d="M109.998 637.107C86.8428 637.107 68.0728 605.157 68.0728 565.746C68.0728 526.334 86.8428 494.384 109.998 494.384C133.153 494.384 151.923 526.334 151.923 565.746C151.923 605.157 133.153 637.107 109.998 637.107Z" fill="url(#paint14_linear_611_13231)"/>
<path d="M102.259 610.183C86.6989 610.183 74.0859 588.707 74.0859 562.214C74.0859 535.721 86.6989 514.245 102.259 514.245C117.818 514.245 130.432 535.721 130.432 562.214C130.432 588.707 117.818 610.183 102.259 610.183Z" fill="#090F1E"/>
<path d="M83.6777 561.374C83.6777 574.018 89.6917 584.249 97.1067 584.249C104.522 584.249 110.558 574.018 110.558 561.374C110.558 548.73 104.544 538.477 97.1067 538.477C89.6707 538.477 83.6777 548.687 83.6777 561.374Z" fill="#1BDC77"/>
<g style="mix-blend-mode:multiply" opacity="0.88">
<g style="mix-blend-mode:multiply" opacity="0.88">
<path d="M100.987 563.829L74.0858 627.522L71.4988 621.491L99.1978 562.472L100.987 563.829Z" fill="#21305C"/>
</g>
</g>
<path d="M101.073 560.21L17.2874 507.266L15.7139 510.001L100.987 563.829L101.073 560.21Z" fill="#21305C"/>
<path d="M13.9683 490.292L41.3221 510.518L48.8449 527.19L17.2878 507.266L13.9683 490.292Z" fill="#2B4697"/>
<path d="M47.077 529.796L31.4063 529.537L0.000244141 513.102L15.714 510.001L47.077 529.796Z" fill="#21305C"/>
<defs>
<filter id="filter0_f_611_13231" x="383.099" y="0.463623" width="375.189" height="375.048" filterUnits="userSpaceOnUse" color-interpolation-filters="sRGB">
<feFlood flood-opacity="0" result="BackgroundImageFix"/>
<feBlend mode="normal" in="SourceGraphic" in2="BackgroundImageFix" result="shape"/>
<feGaussianBlur stdDeviation="45" result="effect1_foregroundBlur_611_13231"/>
</filter>
<filter id="filter1_f_611_13231" x="159.807" y="325.136" width="375.189" height="375.048" filterUnits="userSpaceOnUse" color-interpolation-filters="sRGB">
<feFlood flood-opacity="0" result="BackgroundImageFix"/>
<feBlend mode="normal" in="SourceGraphic" in2="BackgroundImageFix" result="shape"/>
<feGaussianBlur stdDeviation="45" result="effect1_foregroundBlur_611_13231"/>
</filter>
<filter id="filter2_i_611_13231" x="305.785" y="318.21" width="141.554" height="232.322" filterUnits="userSpaceOnUse" color-interpolation-filters="sRGB">
<feFlood flood-opacity="0" result="BackgroundImageFix"/>
<feBlend mode="normal" in="SourceGraphic" in2="BackgroundImageFix" result="shape"/>
<feColorMatrix in="SourceAlpha" type="matrix" values="0 0 0 0 0 0 0 0 0 0 0 0 0 0 0 0 0 0 127 0" result="hardAlpha"/>
<feOffset dy="4"/>
<feGaussianBlur stdDeviation="2"/>
<feComposite in2="hardAlpha" operator="arithmetic" k2="-1" k3="1"/>
<feColorMatrix type="matrix" values="0 0 0 0 0 0 0 0 0 0 0 0 0 0 0 0 0 0 0.25 0"/>
<feBlend mode="normal" in2="shape" result="effect1_innerShadow_611_13231"/>
</filter>
<linearGradient id="paint0_linear_611_13231" x1="593.166" y1="184.457" x2="206.113" y2="184.457" gradientUnits="userSpaceOnUse">
<stop stop-color="#161B2E"/>
<stop offset="0.96" stop-color="#232A45"/>
</linearGradient>
<linearGradient id="paint1_linear_611_13231" x1="294.776" y1="288.02" x2="156.988" y2="288.02" gradientUnits="userSpaceOnUse">
<stop stop-color="#161B2E"/>
<stop offset="0.96" stop-color="#232A45"/>
</linearGradient>
<linearGradient id="paint2_linear_611_13231" x1="271.858" y1="138.162" x2="195.769" y2="324.11" gradientUnits="userSpaceOnUse">
<stop stop-color="white" stop-opacity="0"/>
<stop offset="0.1875" stop-color="#F7F4FC" stop-opacity="0"/>
<stop offset="0.28" stop-color="#F3EFFA" stop-opacity="0"/>
<stop offset="0.3" stop-color="#F3F0FA" stop-opacity="0"/>
<stop offset="0.38" stop-color="#1BDC77" stop-opacity="0.04"/>
<stop offset="0.5" stop-color="#1BDC77" stop-opacity="0.13"/>
<stop offset="0.57" stop-color="#1BDC77" stop-opacity="0.21"/>
<stop offset="0.64" stop-color="#1BDC77" stop-opacity="0.29"/>
<stop offset="0.833333" stop-color="#1BDC77" stop-opacity="0.69"/>
<stop offset="1" stop-color="#1BDC77"/>
</linearGradient>
<linearGradient id="paint3_linear_611_13231" x1="259.252" y1="446.42" x2="195.766" y2="446.42" gradientUnits="userSpaceOnUse">
<stop stop-color="#161B2E"/>
<stop offset="0.96" stop-color="#232A45"/>
</linearGradient>
<linearGradient id="paint4_linear_611_13231" x1="185.985" y1="512.645" x2="122.737" y2="512.645" gradientUnits="userSpaceOnUse">
<stop stop-color="#161B2E"/>
<stop offset="0.96" stop-color="#232A45"/>
</linearGradient>
<linearGradient id="paint5_linear_611_13231" x1="185.729" y1="426.521" x2="134.355" y2="426.521" gradientUnits="userSpaceOnUse">
<stop stop-color="#161B2E"/>
<stop offset="0.96" stop-color="#232A45"/>
</linearGradient>
<linearGradient id="paint6_linear_611_13231" x1="238.438" y1="506.906" x2="208.937" y2="506.906" gradientUnits="userSpaceOnUse">
<stop stop-color="#161B2E"/>
<stop offset="0.96" stop-color="#232A45"/>
</linearGradient>
<radialGradient id="paint7_radial_611_13231" cx="0" cy="0" r="1" gradientUnits="userSpaceOnUse" gradientTransform="translate(398.267 503.743) rotate(-173.565) scale(53.1515 31.1535)">
<stop stop-color="#F94081"/>
<stop offset="1"/>
</radialGradient>
<radialGradient id="paint8_radial_611_13231" cx="0" cy="0" r="1" gradientUnits="userSpaceOnUse" gradientTransform="translate(-29513.3 -1203.32) rotate(-162.056) scale(916.232 267.184)">
<stop stop-color="#02689B"/>
<stop offset="1"/>
</radialGradient>
<radialGradient id="paint9_radial_611_13231" cx="0" cy="0" r="1" gradientUnits="userSpaceOnUse" gradientTransform="translate(-30828 4393.72) rotate(-178.061) scale(955.07 232.205)">
<stop stop-color="#02689B"/>
<stop offset="1"/>
</radialGradient>
<radialGradient id="paint10_radial_611_13231" cx="0" cy="0" r="1" gradientUnits="userSpaceOnUse" gradientTransform="translate(-25010.4 -7042.76) rotate(-178.061) scale(955.071 747.244)">
<stop stop-color="#02689B"/>
<stop offset="1"/>
</radialGradient>
<linearGradient id="paint11_linear_611_13231" x1="376.247" y1="141.51" x2="340.706" y2="556.949" gradientUnits="userSpaceOnUse">
<stop stop-color="white" stop-opacity="0"/>
<stop offset="0.1875" stop-color="#F7F4FC" stop-opacity="0"/>
<stop offset="0.28" stop-color="#F3EFFA" stop-opacity="0"/>
<stop offset="0.3" stop-color="#F3F0FA" stop-opacity="0"/>
<stop offset="0.38" stop-color="#1BDC77" stop-opacity="0.04"/>
<stop offset="0.5" stop-color="#1BDC77" stop-opacity="0.13"/>
<stop offset="0.57" stop-color="#1BDC77" stop-opacity="0.21"/>
<stop offset="0.64" stop-color="#1BDC77" stop-opacity="0.29"/>
<stop offset="0.833333" stop-color="#1BDC77" stop-opacity="0.69"/>
<stop offset="1" stop-color="#1BDC77"/>
</linearGradient>
<linearGradient id="paint12_linear_611_13231" x1="453.888" y1="432.393" x2="277.827" y2="432.393" gradientUnits="userSpaceOnUse">
<stop stop-color="#161B2E"/>
<stop offset="0.96" stop-color="#232A45"/>
</linearGradient>
<linearGradient id="paint13_linear_611_13231" x1="694.487" y1="445.56" x2="511.195" y2="445.56" gradientUnits="userSpaceOnUse">
<stop stop-color="#161B2E"/>
<stop offset="0.96" stop-color="#232A45"/>
</linearGradient>
<linearGradient id="paint14_linear_611_13231" x1="151.901" y1="565.708" x2="68.0728" y2="565.708" gradientUnits="userSpaceOnUse">
<stop stop-color="#161B2E"/>
<stop offset="0.96" stop-color="#232A45"/>
</linearGradient>
</defs>
</svg>
